G75*
%MOIN*%
%OFA0B0*%
%FSLAX24Y24*%
%IPPOS*%
%LPD*%
%AMOC8*
5,1,8,0,0,1.08239X$1,22.5*
%
%ADD10C,0.0789*%
%ADD11C,0.0845*%
%ADD12C,0.0820*%
%ADD13OC8,0.0840*%
%ADD14C,0.0476*%
%ADD15C,0.2442*%
%ADD16C,0.2620*%
D10*
X023314Y020664D02*
X023815Y020163D01*
X022546Y020910D02*
X022045Y020409D01*
X022546Y021757D02*
X022045Y022258D01*
X023314Y022003D02*
X023815Y022504D01*
X028545Y022258D02*
X029046Y021757D01*
X029814Y022003D02*
X030315Y022504D01*
X029046Y020910D02*
X028545Y020409D01*
X029814Y020664D02*
X030315Y020163D01*
D11*
X031680Y016833D03*
X029680Y014833D03*
X027680Y016833D03*
X025180Y016833D03*
X023180Y014833D03*
X021180Y016833D03*
X021180Y012833D03*
X021930Y009833D03*
X024180Y009833D03*
X026180Y007833D03*
X028180Y009833D03*
X027680Y012833D03*
X025180Y012833D03*
X019930Y007833D03*
X017930Y009833D03*
X015430Y009833D03*
X013430Y007833D03*
X011430Y009833D03*
X008930Y009833D03*
X006930Y007833D03*
X004930Y009833D03*
X004930Y005833D03*
X008930Y005833D03*
X011430Y005833D03*
X015430Y005833D03*
X017930Y005833D03*
X021930Y005833D03*
X024180Y005833D03*
X028180Y005833D03*
X031680Y012833D03*
D12*
X018680Y013833D03*
X017680Y013833D03*
X016680Y013833D03*
X015680Y013833D03*
X014680Y013833D03*
X013680Y013833D03*
X012680Y013833D03*
X011680Y013833D03*
X010680Y013833D03*
X009680Y013833D03*
X008680Y013833D03*
X007680Y013833D03*
X006680Y013833D03*
X005680Y013833D03*
X004680Y013833D03*
X003680Y013833D03*
X003680Y024833D03*
X004680Y024833D03*
X005680Y024833D03*
X006680Y024833D03*
X007680Y024833D03*
X008680Y024833D03*
X009680Y024833D03*
X010680Y024833D03*
X011680Y024833D03*
X012680Y024833D03*
X013680Y024833D03*
X014680Y024833D03*
X015680Y024833D03*
X016680Y024833D03*
X017680Y024833D03*
X018680Y024833D03*
D13*
X026180Y023833D03*
X026180Y018333D03*
D14*
X026430Y016083D03*
X026180Y021333D03*
X019930Y023333D03*
X018680Y022333D03*
X017680Y021333D03*
X019180Y018083D03*
X017930Y017083D03*
X020180Y016083D03*
X012930Y017583D03*
X013180Y020833D03*
X012680Y021833D03*
X011430Y020833D03*
X002930Y017583D03*
X016680Y009333D03*
X023180Y009333D03*
D15*
X001755Y005408D03*
X001755Y025093D03*
X031282Y025093D03*
D16*
X031282Y005408D03*
M02*
