G75*
%MOIN*%
%OFA0B0*%
%FSLAX24Y24*%
%IPPOS*%
%LPD*%
%AMOC8*
5,1,8,0,0,1.08239X$1,22.5*
%
%ADD10C,0.0789*%
%ADD11C,0.0845*%
%ADD12R,0.0505X0.0493*%
%ADD13R,0.0474X0.0631*%
%ADD14R,0.0513X0.0474*%
%ADD15C,0.0820*%
%ADD16R,0.0710X0.0789*%
%ADD17R,0.0552X0.0316*%
%ADD18R,0.0474X0.0513*%
%ADD19R,0.0493X0.0505*%
%ADD20R,0.0631X0.0474*%
%ADD21R,0.0300X0.0600*%
%ADD22R,0.0710X0.1655*%
%ADD23OC8,0.0840*%
%ADD24R,0.0470X0.0600*%
%ADD25R,0.0710X0.0395*%
%ADD26R,0.1261X0.0907*%
%ADD27C,0.0476*%
%ADD28C,0.2442*%
%ADD29C,0.2620*%
D10*
X023314Y020664D02*
X023815Y020163D01*
X022546Y020910D02*
X022045Y020409D01*
X022546Y021757D02*
X022045Y022258D01*
X023314Y022003D02*
X023815Y022504D01*
X028545Y022258D02*
X029046Y021757D01*
X029814Y022003D02*
X030315Y022504D01*
X029046Y020910D02*
X028545Y020409D01*
X029814Y020664D02*
X030315Y020163D01*
D11*
X031680Y016833D03*
X029680Y014833D03*
X027680Y016833D03*
X025180Y016833D03*
X023180Y014833D03*
X021180Y016833D03*
X021180Y012833D03*
X021930Y009833D03*
X024180Y009833D03*
X026180Y007833D03*
X028180Y009833D03*
X027680Y012833D03*
X025180Y012833D03*
X019930Y007833D03*
X017930Y009833D03*
X015430Y009833D03*
X013430Y007833D03*
X011430Y009833D03*
X008930Y009833D03*
X006930Y007833D03*
X004930Y009833D03*
X004930Y005833D03*
X008930Y005833D03*
X011430Y005833D03*
X015430Y005833D03*
X017930Y005833D03*
X021930Y005833D03*
X024180Y005833D03*
X028180Y005833D03*
X031680Y012833D03*
D12*
X012180Y011553D03*
X012180Y010864D03*
X005680Y010864D03*
X005680Y011553D03*
D13*
X009806Y010400D03*
X010554Y010400D03*
X010180Y011266D03*
X009806Y009266D03*
X010554Y009266D03*
X010180Y008400D03*
D14*
X009845Y007583D03*
X010515Y007583D03*
X008055Y010874D03*
X008055Y011543D03*
X006930Y011543D03*
X006930Y010874D03*
X013430Y010874D03*
X013430Y011543D03*
X014555Y011543D03*
X014555Y010874D03*
X016680Y008418D03*
X016680Y007749D03*
X023180Y007749D03*
X023180Y008418D03*
X020180Y014749D03*
X020180Y015418D03*
X018930Y016499D03*
X018930Y017168D03*
X015265Y015833D03*
X014595Y015833D03*
X014180Y016999D03*
X014180Y017668D03*
X013930Y021249D03*
X013930Y021918D03*
X018680Y021418D03*
X018680Y020749D03*
X026430Y015418D03*
X026430Y014749D03*
X002015Y017583D03*
X001345Y017583D03*
D15*
X003680Y013833D03*
X004680Y013833D03*
X005680Y013833D03*
X006680Y013833D03*
X007680Y013833D03*
X008680Y013833D03*
X009680Y013833D03*
X010680Y013833D03*
X011680Y013833D03*
X012680Y013833D03*
X013680Y013833D03*
X014680Y013833D03*
X015680Y013833D03*
X016680Y013833D03*
X017680Y013833D03*
X018680Y013833D03*
X018680Y024833D03*
X017680Y024833D03*
X016680Y024833D03*
X015680Y024833D03*
X014680Y024833D03*
X013680Y024833D03*
X012680Y024833D03*
X011680Y024833D03*
X010680Y024833D03*
X009680Y024833D03*
X008680Y024833D03*
X007680Y024833D03*
X006680Y024833D03*
X005680Y024833D03*
X004680Y024833D03*
X003680Y024833D03*
D16*
X002231Y013583D03*
X001129Y013583D03*
X001129Y012083D03*
X002231Y012083D03*
D17*
X015166Y016959D03*
X015166Y017707D03*
X016194Y017707D03*
X016194Y017333D03*
X016194Y016959D03*
X015944Y021209D03*
X015944Y021583D03*
X015944Y021957D03*
X014916Y021957D03*
X014916Y021209D03*
D18*
X017095Y022083D03*
X017765Y022083D03*
X016265Y023083D03*
X015595Y023083D03*
X014765Y023083D03*
X014095Y023083D03*
X017345Y020083D03*
X018015Y020083D03*
X016515Y018833D03*
X015845Y018833D03*
X015015Y018833D03*
X014345Y018833D03*
X017345Y017833D03*
X018015Y017833D03*
X018265Y015833D03*
X017595Y015833D03*
D19*
X016774Y015833D03*
X016086Y015833D03*
X015836Y020083D03*
X016524Y020083D03*
X015024Y020083D03*
X014336Y020083D03*
D20*
X020247Y018957D03*
X020247Y018209D03*
X021113Y018583D03*
X020247Y023959D03*
X020247Y024707D03*
X021113Y024333D03*
D21*
X002054Y016053D03*
X001680Y016053D03*
X001306Y016053D03*
X001306Y015113D03*
X002054Y015113D03*
D22*
X002180Y010284D03*
X002180Y007883D03*
X030930Y007883D03*
X030930Y010284D03*
D23*
X026180Y018333D03*
X026180Y023833D03*
D24*
X010550Y006483D03*
X009810Y006483D03*
X010180Y005683D03*
D25*
X002363Y020099D03*
X002363Y020591D03*
X002363Y021083D03*
X002363Y021575D03*
X002363Y022068D03*
D26*
X001221Y023072D03*
X001221Y019095D03*
D27*
X002930Y017583D03*
X011430Y020833D03*
X012680Y021833D03*
X013180Y020833D03*
X012930Y017583D03*
X017680Y021333D03*
X018680Y022333D03*
X019930Y023333D03*
X026180Y021333D03*
X026430Y016083D03*
X020180Y016083D03*
X019180Y018083D03*
X017930Y017083D03*
X016680Y009333D03*
X023180Y009333D03*
D28*
X001755Y005408D03*
X001755Y025093D03*
X031282Y025093D03*
D29*
X031282Y005408D03*
M02*
