G75*
%MOIN*%
%OFA0B0*%
%FSLAX24Y24*%
%IPPOS*%
%LPD*%
%AMOC8*
5,1,8,0,0,1.08239X$1,22.5*
%
%ADD10C,0.0709*%
%ADD11C,0.0765*%
%ADD12C,0.0740*%
%ADD13OC8,0.0760*%
%ADD14C,0.0160*%
%ADD15C,0.0396*%
%ADD16C,0.2362*%
%ADD17C,0.2540*%
D10*
X023314Y020664D02*
X023815Y020163D01*
X022546Y020910D02*
X022045Y020409D01*
X022546Y021757D02*
X022045Y022258D01*
X023314Y022003D02*
X023815Y022504D01*
X028545Y022258D02*
X029046Y021757D01*
X029814Y022003D02*
X030315Y022504D01*
X029046Y020910D02*
X028545Y020409D01*
X029814Y020664D02*
X030315Y020163D01*
D11*
X031680Y016833D03*
X029680Y014833D03*
X027680Y016833D03*
X025180Y016833D03*
X023180Y014833D03*
X021180Y016833D03*
X021180Y012833D03*
X021930Y009833D03*
X024180Y009833D03*
X026180Y007833D03*
X028180Y009833D03*
X027680Y012833D03*
X025180Y012833D03*
X019930Y007833D03*
X017930Y009833D03*
X015430Y009833D03*
X013430Y007833D03*
X011430Y009833D03*
X008930Y009833D03*
X006930Y007833D03*
X004930Y009833D03*
X004930Y005833D03*
X008930Y005833D03*
X011430Y005833D03*
X015430Y005833D03*
X017930Y005833D03*
X021930Y005833D03*
X024180Y005833D03*
X028180Y005833D03*
X031680Y012833D03*
D12*
X018680Y013833D03*
X017680Y013833D03*
X016680Y013833D03*
X015680Y013833D03*
X014680Y013833D03*
X013680Y013833D03*
X012680Y013833D03*
X011680Y013833D03*
X010680Y013833D03*
X009680Y013833D03*
X008680Y013833D03*
X007680Y013833D03*
X006680Y013833D03*
X005680Y013833D03*
X004680Y013833D03*
X003680Y013833D03*
X003680Y024833D03*
X004680Y024833D03*
X005680Y024833D03*
X006680Y024833D03*
X007680Y024833D03*
X008680Y024833D03*
X009680Y024833D03*
X010680Y024833D03*
X011680Y024833D03*
X012680Y024833D03*
X013680Y024833D03*
X014680Y024833D03*
X015680Y024833D03*
X016680Y024833D03*
X017680Y024833D03*
X018680Y024833D03*
D13*
X026180Y023833D03*
X026180Y018333D03*
D14*
X002272Y004158D02*
X002104Y004113D01*
X030665Y004113D01*
X030404Y004264D01*
X030138Y004530D01*
X029950Y004856D01*
X029852Y005220D01*
X029852Y005596D01*
X029950Y005960D01*
X030138Y006286D01*
X030404Y006552D01*
X030730Y006741D01*
X031094Y006838D01*
X031471Y006838D01*
X031834Y006741D01*
X032160Y006552D01*
X032427Y006286D01*
X032577Y006025D01*
X032577Y024744D01*
X032532Y024576D01*
X032356Y024270D01*
X032106Y024020D01*
X031800Y023843D01*
X031459Y023752D01*
X031106Y023752D01*
X030765Y023843D01*
X030459Y024020D01*
X030419Y024060D01*
X030419Y023640D01*
X030376Y023537D01*
X030297Y023458D01*
X030194Y023416D01*
X028666Y023416D01*
X028563Y023458D01*
X028484Y023537D01*
X028441Y023640D01*
X028441Y024066D01*
X028484Y024169D01*
X028563Y024248D01*
X028666Y024290D01*
X028777Y024290D01*
X030083Y024290D01*
X030194Y024290D01*
X030198Y024289D01*
X030033Y024576D01*
X029941Y024917D01*
X029941Y025270D01*
X030033Y025611D01*
X030209Y025917D01*
X030459Y026166D01*
X030765Y026343D01*
X030933Y026388D01*
X002104Y026388D01*
X002272Y026343D01*
X002578Y026166D01*
X002828Y025917D01*
X003005Y025611D01*
X003096Y025270D01*
X003096Y024917D01*
X003005Y024576D01*
X002828Y024270D01*
X002578Y024020D01*
X002272Y023843D01*
X001931Y023752D01*
X001578Y023752D01*
X001237Y023843D01*
X000931Y024020D01*
X000682Y024270D01*
X000505Y024576D01*
X000460Y024744D01*
X000460Y005757D01*
X000505Y005926D01*
X000682Y006232D01*
X000931Y006481D01*
X001237Y006658D01*
X001578Y006749D01*
X001931Y006749D01*
X002272Y006658D01*
X002578Y006481D01*
X002828Y006232D01*
X003005Y005926D01*
X003096Y005585D01*
X003096Y005232D01*
X003005Y004890D01*
X002828Y004585D01*
X002578Y004335D01*
X002272Y004158D01*
X002242Y004150D02*
X030601Y004150D01*
X030359Y004309D02*
X002533Y004309D01*
X002711Y004467D02*
X030201Y004467D01*
X030083Y004626D02*
X002852Y004626D01*
X002943Y004784D02*
X029991Y004784D01*
X029927Y004943D02*
X003019Y004943D01*
X003061Y005101D02*
X029884Y005101D01*
X029852Y005260D02*
X003096Y005260D01*
X003096Y005418D02*
X004550Y005418D01*
X004564Y005404D02*
X004635Y005352D01*
X004714Y005312D01*
X004798Y005285D01*
X004882Y005271D01*
X004882Y005786D01*
X004368Y005786D01*
X004381Y005702D01*
X004409Y005617D01*
X004449Y005539D01*
X004501Y005467D01*
X004564Y005404D01*
X004429Y005577D02*
X003096Y005577D01*
X003056Y005735D02*
X004376Y005735D01*
X004368Y005881D02*
X004882Y005881D01*
X004882Y005786D01*
X004978Y005786D01*
X004978Y005881D01*
X005492Y005881D01*
X005479Y005965D01*
X005451Y006049D01*
X005411Y006128D01*
X005359Y006200D01*
X005296Y006262D01*
X005225Y006314D01*
X005146Y006355D01*
X005062Y006382D01*
X004978Y006395D01*
X004978Y005881D01*
X004882Y005881D01*
X004882Y006395D01*
X004798Y006382D01*
X004714Y006355D01*
X004635Y006314D01*
X004564Y006262D01*
X004501Y006200D01*
X004449Y006128D01*
X004409Y006049D01*
X004381Y005965D01*
X004368Y005881D01*
X004370Y005894D02*
X003013Y005894D01*
X002931Y006052D02*
X004410Y006052D01*
X004512Y006211D02*
X002840Y006211D01*
X002690Y006369D02*
X004759Y006369D01*
X004882Y006369D02*
X004978Y006369D01*
X005101Y006369D02*
X008759Y006369D01*
X008798Y006382D02*
X008714Y006355D01*
X008635Y006314D01*
X008564Y006262D01*
X008501Y006200D01*
X008449Y006128D01*
X008409Y006049D01*
X008381Y005965D01*
X008368Y005881D01*
X008882Y005881D01*
X008882Y005786D01*
X008368Y005786D01*
X008381Y005702D01*
X008409Y005617D01*
X008449Y005539D01*
X008501Y005467D01*
X008564Y005404D01*
X008635Y005352D01*
X008714Y005312D01*
X008798Y005285D01*
X008882Y005271D01*
X008882Y005786D01*
X008978Y005786D01*
X008978Y005881D01*
X009492Y005881D01*
X009479Y005965D01*
X009451Y006049D01*
X009411Y006128D01*
X009359Y006200D01*
X009296Y006262D01*
X009225Y006314D01*
X009146Y006355D01*
X009062Y006382D01*
X008978Y006395D01*
X008978Y005881D01*
X008882Y005881D01*
X008882Y006395D01*
X008798Y006382D01*
X008882Y006369D02*
X008978Y006369D01*
X009101Y006369D02*
X011259Y006369D01*
X011298Y006382D02*
X011214Y006355D01*
X011135Y006314D01*
X011064Y006262D01*
X011001Y006200D01*
X010949Y006128D01*
X010909Y006049D01*
X010881Y005965D01*
X010868Y005881D01*
X011382Y005881D01*
X011382Y005786D01*
X010868Y005786D01*
X010881Y005702D01*
X010909Y005617D01*
X010949Y005539D01*
X011001Y005467D01*
X011064Y005404D01*
X011135Y005352D01*
X011214Y005312D01*
X011298Y005285D01*
X011382Y005271D01*
X011382Y005786D01*
X011478Y005786D01*
X011478Y005881D01*
X011992Y005881D01*
X011979Y005965D01*
X011951Y006049D01*
X011911Y006128D01*
X011859Y006200D01*
X011796Y006262D01*
X011725Y006314D01*
X011646Y006355D01*
X011562Y006382D01*
X011478Y006395D01*
X011478Y005881D01*
X011382Y005881D01*
X011382Y006395D01*
X011298Y006382D01*
X011382Y006369D02*
X011478Y006369D01*
X011601Y006369D02*
X015259Y006369D01*
X015298Y006382D02*
X015214Y006355D01*
X015135Y006314D01*
X015064Y006262D01*
X015001Y006200D01*
X014949Y006128D01*
X014909Y006049D01*
X014881Y005965D01*
X014868Y005881D01*
X015382Y005881D01*
X015382Y005786D01*
X014868Y005786D01*
X014881Y005702D01*
X014909Y005617D01*
X014949Y005539D01*
X015001Y005467D01*
X015064Y005404D01*
X015135Y005352D01*
X015214Y005312D01*
X015298Y005285D01*
X015382Y005271D01*
X015382Y005786D01*
X015478Y005786D01*
X015478Y005881D01*
X015992Y005881D01*
X015979Y005965D01*
X015951Y006049D01*
X015911Y006128D01*
X015859Y006200D01*
X015796Y006262D01*
X015725Y006314D01*
X015646Y006355D01*
X015562Y006382D01*
X015478Y006395D01*
X015478Y005881D01*
X015382Y005881D01*
X015382Y006395D01*
X015298Y006382D01*
X015382Y006369D02*
X015478Y006369D01*
X015601Y006369D02*
X017759Y006369D01*
X017798Y006382D02*
X017714Y006355D01*
X017635Y006314D01*
X017564Y006262D01*
X017501Y006200D01*
X017449Y006128D01*
X017409Y006049D01*
X017381Y005965D01*
X017368Y005881D01*
X017882Y005881D01*
X017882Y005786D01*
X017368Y005786D01*
X017381Y005702D01*
X017409Y005617D01*
X017449Y005539D01*
X017501Y005467D01*
X017564Y005404D01*
X017635Y005352D01*
X017714Y005312D01*
X017798Y005285D01*
X017882Y005271D01*
X017882Y005786D01*
X017978Y005786D01*
X017978Y005881D01*
X018492Y005881D01*
X018479Y005965D01*
X018451Y006049D01*
X018411Y006128D01*
X018359Y006200D01*
X018296Y006262D01*
X018225Y006314D01*
X018146Y006355D01*
X018062Y006382D01*
X017978Y006395D01*
X017978Y005881D01*
X017882Y005881D01*
X017882Y006395D01*
X017798Y006382D01*
X017882Y006369D02*
X017978Y006369D01*
X018101Y006369D02*
X021759Y006369D01*
X021798Y006382D02*
X021714Y006355D01*
X021635Y006314D01*
X021564Y006262D01*
X021501Y006200D01*
X021449Y006128D01*
X021409Y006049D01*
X021381Y005965D01*
X021368Y005881D01*
X021882Y005881D01*
X021882Y005786D01*
X021368Y005786D01*
X021381Y005702D01*
X021409Y005617D01*
X021449Y005539D01*
X021501Y005467D01*
X021564Y005404D01*
X021635Y005352D01*
X021714Y005312D01*
X021798Y005285D01*
X021882Y005271D01*
X021882Y005786D01*
X021978Y005786D01*
X021978Y005881D01*
X022492Y005881D01*
X022479Y005965D01*
X022451Y006049D01*
X022411Y006128D01*
X022359Y006200D01*
X022296Y006262D01*
X022225Y006314D01*
X022146Y006355D01*
X022062Y006382D01*
X021978Y006395D01*
X021978Y005881D01*
X021882Y005881D01*
X021882Y006395D01*
X021798Y006382D01*
X021882Y006369D02*
X021978Y006369D01*
X022101Y006369D02*
X024009Y006369D01*
X024048Y006382D02*
X023964Y006355D01*
X023885Y006314D01*
X023814Y006262D01*
X023751Y006200D01*
X023699Y006128D01*
X023659Y006049D01*
X023631Y005965D01*
X023618Y005881D01*
X024132Y005881D01*
X024132Y005786D01*
X023618Y005786D01*
X023631Y005702D01*
X023659Y005617D01*
X023699Y005539D01*
X023751Y005467D01*
X023814Y005404D01*
X023885Y005352D01*
X023964Y005312D01*
X024048Y005285D01*
X024132Y005271D01*
X024132Y005786D01*
X024228Y005786D01*
X024228Y005881D01*
X024742Y005881D01*
X024729Y005965D01*
X024701Y006049D01*
X024661Y006128D01*
X024609Y006200D01*
X024546Y006262D01*
X024475Y006314D01*
X024396Y006355D01*
X024312Y006382D01*
X024228Y006395D01*
X024228Y005881D01*
X024132Y005881D01*
X024132Y006395D01*
X024048Y006382D01*
X024132Y006369D02*
X024228Y006369D01*
X024351Y006369D02*
X028009Y006369D01*
X028048Y006382D02*
X027964Y006355D01*
X027885Y006314D01*
X027814Y006262D01*
X027751Y006200D01*
X027699Y006128D01*
X027659Y006049D01*
X027631Y005965D01*
X027618Y005881D01*
X028132Y005881D01*
X028132Y005786D01*
X027618Y005786D01*
X027631Y005702D01*
X027659Y005617D01*
X027699Y005539D01*
X027751Y005467D01*
X027814Y005404D01*
X027885Y005352D01*
X027964Y005312D01*
X028048Y005285D01*
X028132Y005271D01*
X028132Y005786D01*
X028228Y005786D01*
X028228Y005881D01*
X028742Y005881D01*
X028729Y005965D01*
X028701Y006049D01*
X028661Y006128D01*
X028609Y006200D01*
X028546Y006262D01*
X028475Y006314D01*
X028396Y006355D01*
X028312Y006382D01*
X028228Y006395D01*
X028228Y005881D01*
X028132Y005881D01*
X028132Y006395D01*
X028048Y006382D01*
X028132Y006369D02*
X028228Y006369D01*
X028351Y006369D02*
X030221Y006369D01*
X030095Y006211D02*
X028598Y006211D01*
X028700Y006052D02*
X030003Y006052D01*
X029932Y005894D02*
X028740Y005894D01*
X028742Y005786D02*
X028228Y005786D01*
X028228Y005271D01*
X028312Y005285D01*
X028396Y005312D01*
X028475Y005352D01*
X028546Y005404D01*
X028609Y005467D01*
X028661Y005539D01*
X028701Y005617D01*
X028729Y005702D01*
X028742Y005786D01*
X028734Y005735D02*
X029890Y005735D01*
X029852Y005577D02*
X028681Y005577D01*
X028560Y005418D02*
X029852Y005418D01*
X030380Y006528D02*
X002498Y006528D01*
X002166Y006686D02*
X030636Y006686D01*
X031928Y006686D02*
X032577Y006686D01*
X032577Y006528D02*
X032185Y006528D01*
X032343Y006369D02*
X032577Y006369D01*
X032577Y006211D02*
X032470Y006211D01*
X032562Y006052D02*
X032577Y006052D01*
X032577Y006845D02*
X000460Y006845D01*
X000460Y007003D02*
X032577Y007003D01*
X032577Y007162D02*
X000460Y007162D01*
X000460Y007320D02*
X006751Y007320D01*
X006822Y007291D02*
X007038Y007291D01*
X007237Y007373D01*
X007390Y007526D01*
X007472Y007725D01*
X007472Y007941D01*
X007390Y008141D01*
X007237Y008293D01*
X007038Y008376D01*
X006822Y008376D01*
X006623Y008293D01*
X006470Y008141D01*
X006388Y007941D01*
X006388Y007725D01*
X006470Y007526D01*
X006623Y007373D01*
X006822Y007291D01*
X007109Y007320D02*
X013251Y007320D01*
X013322Y007291D02*
X013538Y007291D01*
X013737Y007373D01*
X013890Y007526D01*
X013972Y007725D01*
X013972Y007941D01*
X013890Y008141D01*
X013737Y008293D01*
X013538Y008376D01*
X013322Y008376D01*
X013123Y008293D01*
X012970Y008141D01*
X012888Y007941D01*
X012888Y007725D01*
X012970Y007526D01*
X013123Y007373D01*
X013322Y007291D01*
X013609Y007320D02*
X019751Y007320D01*
X019822Y007291D02*
X019623Y007373D01*
X019470Y007526D01*
X019388Y007725D01*
X019388Y007941D01*
X019470Y008141D01*
X019623Y008293D01*
X019822Y008376D01*
X020038Y008376D01*
X020237Y008293D01*
X020390Y008141D01*
X020472Y007941D01*
X020472Y007725D01*
X020390Y007526D01*
X020237Y007373D01*
X020038Y007291D01*
X019822Y007291D01*
X020109Y007320D02*
X026001Y007320D01*
X026072Y007291D02*
X025873Y007373D01*
X025720Y007526D01*
X025638Y007725D01*
X025638Y007941D01*
X025720Y008141D01*
X025873Y008293D01*
X026072Y008376D01*
X026288Y008376D01*
X026487Y008293D01*
X026640Y008141D01*
X026722Y007941D01*
X026722Y007725D01*
X026640Y007526D01*
X026487Y007373D01*
X026288Y007291D01*
X026072Y007291D01*
X026359Y007320D02*
X032577Y007320D01*
X032577Y007479D02*
X026593Y007479D01*
X026686Y007637D02*
X032577Y007637D01*
X032577Y007796D02*
X026722Y007796D01*
X026717Y007954D02*
X032577Y007954D01*
X032577Y008113D02*
X026651Y008113D01*
X026509Y008271D02*
X032577Y008271D01*
X032577Y008430D02*
X000460Y008430D01*
X000460Y008588D02*
X032577Y008588D01*
X032577Y008747D02*
X000460Y008747D01*
X000460Y008905D02*
X032577Y008905D01*
X032577Y009064D02*
X023417Y009064D01*
X023383Y009030D02*
X023484Y009130D01*
X023538Y009262D01*
X023538Y009405D01*
X023484Y009536D01*
X023420Y009600D01*
X023420Y010381D01*
X023383Y010469D01*
X023316Y010537D01*
X022816Y011037D01*
X022728Y011073D01*
X017779Y011073D01*
X017316Y011537D01*
X017228Y011573D01*
X013279Y011573D01*
X011532Y013321D01*
X011575Y013303D01*
X011785Y013303D01*
X011980Y013384D01*
X012129Y013533D01*
X012180Y013655D01*
X012231Y013533D01*
X012380Y013384D01*
X012575Y013303D01*
X012785Y013303D01*
X012980Y013384D01*
X013129Y013533D01*
X013180Y013655D01*
X013231Y013533D01*
X013380Y013384D01*
X013575Y013303D01*
X013785Y013303D01*
X013980Y013384D01*
X014129Y013533D01*
X014180Y013655D01*
X014231Y013533D01*
X014380Y013384D01*
X014575Y013303D01*
X014785Y013303D01*
X014980Y013384D01*
X015129Y013533D01*
X015180Y013655D01*
X015231Y013533D01*
X015380Y013384D01*
X015575Y013303D01*
X015785Y013303D01*
X015980Y013384D01*
X016129Y013533D01*
X016169Y013628D01*
X016170Y013622D01*
X016210Y013545D01*
X016260Y013475D01*
X016322Y013414D01*
X016392Y013363D01*
X016469Y013324D01*
X016551Y013297D01*
X016637Y013283D01*
X016660Y013283D01*
X016660Y013813D01*
X016700Y013813D01*
X016700Y013283D01*
X016723Y013283D01*
X016809Y013297D01*
X016891Y013324D01*
X016968Y013363D01*
X017038Y013414D01*
X017100Y013475D01*
X017150Y013545D01*
X017190Y013622D01*
X017191Y013628D01*
X017231Y013533D01*
X017380Y013384D01*
X017575Y013303D01*
X017785Y013303D01*
X017980Y013384D01*
X018129Y013533D01*
X018180Y013655D01*
X018231Y013533D01*
X018380Y013384D01*
X018575Y013303D01*
X018785Y013303D01*
X018980Y013384D01*
X019129Y013533D01*
X019210Y013728D01*
X019210Y013939D01*
X019129Y014134D01*
X018980Y014283D01*
X018785Y014363D01*
X018575Y014363D01*
X018380Y014283D01*
X018231Y014134D01*
X018180Y014011D01*
X018129Y014134D01*
X017980Y014283D01*
X017785Y014363D01*
X017575Y014363D01*
X017380Y014283D01*
X017231Y014134D01*
X017191Y014039D01*
X017190Y014044D01*
X017150Y014122D01*
X017100Y014192D01*
X017038Y014253D01*
X016968Y014304D01*
X016891Y014343D01*
X016809Y014370D01*
X016723Y014383D01*
X016700Y014383D01*
X016700Y013853D01*
X016660Y013853D01*
X016660Y014383D01*
X016637Y014383D01*
X016551Y014370D01*
X016469Y014343D01*
X016392Y014304D01*
X016322Y014253D01*
X016260Y014192D01*
X016210Y014122D01*
X016170Y014044D01*
X016169Y014039D01*
X016129Y014134D01*
X015980Y014283D01*
X015785Y014363D01*
X015575Y014363D01*
X015380Y014283D01*
X015231Y014134D01*
X015180Y014011D01*
X015129Y014134D01*
X014980Y014283D01*
X014785Y014363D01*
X014575Y014363D01*
X014380Y014283D01*
X014231Y014134D01*
X014180Y014011D01*
X014129Y014134D01*
X013980Y014283D01*
X013785Y014363D01*
X013575Y014363D01*
X013380Y014283D01*
X013231Y014134D01*
X013180Y014011D01*
X013129Y014134D01*
X012980Y014283D01*
X012785Y014363D01*
X012575Y014363D01*
X012380Y014283D01*
X012231Y014134D01*
X012180Y014011D01*
X012129Y014134D01*
X011980Y014283D01*
X011785Y014363D01*
X011575Y014363D01*
X011380Y014283D01*
X011231Y014134D01*
X011180Y014011D01*
X011129Y014134D01*
X010980Y014283D01*
X010785Y014363D01*
X010575Y014363D01*
X010380Y014283D01*
X010231Y014134D01*
X010180Y014011D01*
X010129Y014134D01*
X009980Y014283D01*
X009785Y014363D01*
X009575Y014363D01*
X009380Y014283D01*
X009231Y014134D01*
X009180Y014011D01*
X009129Y014134D01*
X008980Y014283D01*
X008785Y014363D01*
X008575Y014363D01*
X008380Y014283D01*
X008231Y014134D01*
X008180Y014011D01*
X008129Y014134D01*
X007980Y014283D01*
X007785Y014363D01*
X007575Y014363D01*
X007380Y014283D01*
X007231Y014134D01*
X007180Y014011D01*
X007129Y014134D01*
X006980Y014283D01*
X006785Y014363D01*
X006575Y014363D01*
X006380Y014283D01*
X006231Y014134D01*
X006180Y014011D01*
X006129Y014134D01*
X005980Y014283D01*
X005785Y014363D01*
X005575Y014363D01*
X005380Y014283D01*
X005231Y014134D01*
X005180Y014011D01*
X005129Y014134D01*
X004980Y014283D01*
X004785Y014363D01*
X004575Y014363D01*
X004380Y014283D01*
X004231Y014134D01*
X004180Y014011D01*
X004129Y014134D01*
X003980Y014283D01*
X003785Y014363D01*
X003575Y014363D01*
X003380Y014283D01*
X003231Y014134D01*
X003150Y013939D01*
X003150Y013728D01*
X003231Y013533D01*
X003380Y013384D01*
X003575Y013303D01*
X003785Y013303D01*
X003980Y013384D01*
X004129Y013533D01*
X004180Y013655D01*
X004231Y013533D01*
X004380Y013384D01*
X004575Y013303D01*
X004785Y013303D01*
X004980Y013384D01*
X005129Y013533D01*
X005180Y013655D01*
X005231Y013533D01*
X005380Y013384D01*
X005575Y013303D01*
X005785Y013303D01*
X005980Y013384D01*
X006129Y013533D01*
X006180Y013655D01*
X006231Y013533D01*
X006380Y013384D01*
X006575Y013303D01*
X006785Y013303D01*
X006980Y013384D01*
X007129Y013533D01*
X007180Y013655D01*
X007231Y013533D01*
X007380Y013384D01*
X007575Y013303D01*
X007785Y013303D01*
X007980Y013384D01*
X008129Y013533D01*
X008180Y013655D01*
X008231Y013533D01*
X008380Y013384D01*
X008575Y013303D01*
X008785Y013303D01*
X008980Y013384D01*
X009129Y013533D01*
X009180Y013655D01*
X009231Y013533D01*
X009380Y013384D01*
X009575Y013303D01*
X009785Y013303D01*
X009846Y013328D01*
X012477Y010697D01*
X012544Y010630D01*
X012632Y010593D01*
X016440Y010593D01*
X016440Y009600D01*
X016376Y009536D01*
X016322Y009405D01*
X016322Y009262D01*
X016376Y009130D01*
X016477Y009030D01*
X016609Y008975D01*
X016751Y008975D01*
X016883Y009030D01*
X016984Y009130D01*
X017038Y009262D01*
X017038Y009405D01*
X016984Y009536D01*
X016920Y009600D01*
X016920Y010881D01*
X016883Y010969D01*
X016816Y011037D01*
X016728Y011073D01*
X012779Y011073D01*
X010532Y013321D01*
X010575Y013303D01*
X010785Y013303D01*
X010846Y013328D01*
X012977Y011197D01*
X013044Y011130D01*
X013132Y011093D01*
X017081Y011093D01*
X017477Y010697D01*
X017544Y010630D01*
X017632Y010593D01*
X022581Y010593D01*
X022940Y010234D01*
X022940Y009600D01*
X022876Y009536D01*
X022822Y009405D01*
X022822Y009262D01*
X022876Y009130D01*
X022977Y009030D01*
X023109Y008975D01*
X023251Y008975D01*
X023383Y009030D01*
X023522Y009222D02*
X032577Y009222D01*
X032577Y009381D02*
X028514Y009381D01*
X028546Y009404D02*
X028609Y009467D01*
X028661Y009539D01*
X028701Y009617D01*
X028729Y009702D01*
X028742Y009786D01*
X028228Y009786D01*
X028228Y009881D01*
X028742Y009881D01*
X028729Y009965D01*
X028701Y010049D01*
X028661Y010128D01*
X028609Y010200D01*
X028546Y010262D01*
X028475Y010314D01*
X028396Y010355D01*
X028312Y010382D01*
X028228Y010395D01*
X028228Y009881D01*
X028132Y009881D01*
X028132Y009786D01*
X027618Y009786D01*
X027631Y009702D01*
X027659Y009617D01*
X027699Y009539D01*
X027751Y009467D01*
X027814Y009404D01*
X027885Y009352D01*
X027964Y009312D01*
X028048Y009285D01*
X028132Y009271D01*
X028132Y009786D01*
X028228Y009786D01*
X028228Y009271D01*
X028312Y009285D01*
X028396Y009312D01*
X028475Y009352D01*
X028546Y009404D01*
X028662Y009539D02*
X032577Y009539D01*
X032577Y009698D02*
X028727Y009698D01*
X028712Y010015D02*
X032577Y010015D01*
X032577Y010173D02*
X028628Y010173D01*
X028441Y010332D02*
X032577Y010332D01*
X032577Y010490D02*
X023362Y010490D01*
X023420Y010332D02*
X023919Y010332D01*
X023885Y010314D02*
X023814Y010262D01*
X023751Y010200D01*
X023699Y010128D01*
X023659Y010049D01*
X023631Y009965D01*
X023618Y009881D01*
X024132Y009881D01*
X024132Y009786D01*
X023618Y009786D01*
X023631Y009702D01*
X023659Y009617D01*
X023699Y009539D01*
X023751Y009467D01*
X023814Y009404D01*
X023885Y009352D01*
X023964Y009312D01*
X024048Y009285D01*
X024132Y009271D01*
X024132Y009786D01*
X024228Y009786D01*
X024228Y009881D01*
X024742Y009881D01*
X024729Y009965D01*
X024701Y010049D01*
X024661Y010128D01*
X024609Y010200D01*
X024546Y010262D01*
X024475Y010314D01*
X024396Y010355D01*
X024312Y010382D01*
X024228Y010395D01*
X024228Y009881D01*
X024132Y009881D01*
X024132Y010395D01*
X024048Y010382D01*
X023964Y010355D01*
X023885Y010314D01*
X023732Y010173D02*
X023420Y010173D01*
X023420Y010015D02*
X023648Y010015D01*
X023420Y009856D02*
X024132Y009856D01*
X024228Y009856D02*
X028132Y009856D01*
X028132Y009881D02*
X027618Y009881D01*
X027631Y009965D01*
X027659Y010049D01*
X027699Y010128D01*
X027751Y010200D01*
X027814Y010262D01*
X027885Y010314D01*
X027964Y010355D01*
X028048Y010382D01*
X028132Y010395D01*
X028132Y009881D01*
X028228Y009856D02*
X032577Y009856D01*
X032577Y010649D02*
X023204Y010649D01*
X023045Y010807D02*
X032577Y010807D01*
X032577Y010966D02*
X022887Y010966D01*
X022680Y010833D02*
X023180Y010333D01*
X023180Y009333D01*
X022943Y009064D02*
X016917Y009064D01*
X017022Y009222D02*
X022838Y009222D01*
X022822Y009381D02*
X022264Y009381D01*
X022296Y009404D02*
X022359Y009467D01*
X022411Y009539D01*
X022451Y009617D01*
X022479Y009702D01*
X022492Y009786D01*
X021978Y009786D01*
X021978Y009881D01*
X022492Y009881D01*
X022479Y009965D01*
X022451Y010049D01*
X022411Y010128D01*
X022359Y010200D01*
X022296Y010262D01*
X022225Y010314D01*
X022146Y010355D01*
X022062Y010382D01*
X021978Y010395D01*
X021978Y009881D01*
X021882Y009881D01*
X021882Y009786D01*
X021368Y009786D01*
X021381Y009702D01*
X021409Y009617D01*
X021449Y009539D01*
X021501Y009467D01*
X021564Y009404D01*
X021635Y009352D01*
X021714Y009312D01*
X021798Y009285D01*
X021882Y009271D01*
X021882Y009786D01*
X021978Y009786D01*
X021978Y009271D01*
X022062Y009285D01*
X022146Y009312D01*
X022225Y009352D01*
X022296Y009404D01*
X022412Y009539D02*
X022880Y009539D01*
X022940Y009698D02*
X022477Y009698D01*
X022462Y010015D02*
X022940Y010015D01*
X022940Y010173D02*
X022378Y010173D01*
X022191Y010332D02*
X022842Y010332D01*
X022684Y010490D02*
X016920Y010490D01*
X016920Y010332D02*
X017669Y010332D01*
X017635Y010314D02*
X017564Y010262D01*
X017501Y010200D01*
X017449Y010128D01*
X017409Y010049D01*
X017381Y009965D01*
X017368Y009881D01*
X017882Y009881D01*
X017882Y009786D01*
X017368Y009786D01*
X017381Y009702D01*
X017409Y009617D01*
X017449Y009539D01*
X017501Y009467D01*
X017564Y009404D01*
X017635Y009352D01*
X017714Y009312D01*
X017798Y009285D01*
X017882Y009271D01*
X017882Y009786D01*
X017978Y009786D01*
X017978Y009881D01*
X018492Y009881D01*
X018479Y009965D01*
X018451Y010049D01*
X018411Y010128D01*
X018359Y010200D01*
X018296Y010262D01*
X018225Y010314D01*
X018146Y010355D01*
X018062Y010382D01*
X017978Y010395D01*
X017978Y009881D01*
X017882Y009881D01*
X017882Y010395D01*
X017798Y010382D01*
X017714Y010355D01*
X017635Y010314D01*
X017482Y010173D02*
X016920Y010173D01*
X016920Y010015D02*
X017398Y010015D01*
X017383Y009698D02*
X016920Y009698D01*
X016920Y009856D02*
X017882Y009856D01*
X017978Y009856D02*
X021882Y009856D01*
X021882Y009881D02*
X021368Y009881D01*
X021381Y009965D01*
X021409Y010049D01*
X021449Y010128D01*
X021501Y010200D01*
X021564Y010262D01*
X021635Y010314D01*
X021714Y010355D01*
X021798Y010382D01*
X021882Y010395D01*
X021882Y009881D01*
X021978Y009856D02*
X022940Y009856D01*
X023420Y009698D02*
X023633Y009698D01*
X023698Y009539D02*
X023480Y009539D01*
X023538Y009381D02*
X023846Y009381D01*
X024132Y009381D02*
X024228Y009381D01*
X024228Y009271D02*
X024312Y009285D01*
X024396Y009312D01*
X024475Y009352D01*
X024546Y009404D01*
X024609Y009467D01*
X024661Y009539D01*
X024701Y009617D01*
X024729Y009702D01*
X024742Y009786D01*
X024228Y009786D01*
X024228Y009271D01*
X024228Y009539D02*
X024132Y009539D01*
X024132Y009698D02*
X024228Y009698D01*
X024228Y010015D02*
X024132Y010015D01*
X024132Y010173D02*
X024228Y010173D01*
X024228Y010332D02*
X024132Y010332D01*
X024441Y010332D02*
X027919Y010332D01*
X028132Y010332D02*
X028228Y010332D01*
X028228Y010173D02*
X028132Y010173D01*
X028132Y010015D02*
X028228Y010015D01*
X028228Y009698D02*
X028132Y009698D01*
X028132Y009539D02*
X028228Y009539D01*
X028228Y009381D02*
X028132Y009381D01*
X027846Y009381D02*
X024514Y009381D01*
X024662Y009539D02*
X027698Y009539D01*
X027633Y009698D02*
X024727Y009698D01*
X024712Y010015D02*
X027648Y010015D01*
X027732Y010173D02*
X024628Y010173D01*
X022680Y010833D02*
X017680Y010833D01*
X017180Y011333D01*
X013180Y011333D01*
X010680Y013833D01*
X010233Y014136D02*
X010127Y014136D01*
X009952Y014294D02*
X010408Y014294D01*
X010952Y014294D02*
X011408Y014294D01*
X011233Y014136D02*
X011127Y014136D01*
X011952Y014294D02*
X012408Y014294D01*
X012233Y014136D02*
X012127Y014136D01*
X012098Y013502D02*
X012262Y013502D01*
X012478Y013343D02*
X011882Y013343D01*
X011668Y013185D02*
X020740Y013185D01*
X020751Y013200D02*
X020699Y013128D01*
X020659Y013049D01*
X020631Y012965D01*
X020618Y012881D01*
X021132Y012881D01*
X021132Y012786D01*
X020618Y012786D01*
X020631Y012702D01*
X020659Y012617D01*
X020699Y012539D01*
X020751Y012467D01*
X020814Y012404D01*
X020885Y012352D01*
X020964Y012312D01*
X021048Y012285D01*
X021132Y012271D01*
X021132Y012786D01*
X021228Y012786D01*
X021228Y012881D01*
X021742Y012881D01*
X021729Y012965D01*
X021701Y013049D01*
X021661Y013128D01*
X021609Y013200D01*
X021546Y013262D01*
X021475Y013314D01*
X021396Y013355D01*
X021312Y013382D01*
X021228Y013395D01*
X021228Y012881D01*
X021132Y012881D01*
X021132Y013395D01*
X021048Y013382D01*
X020964Y013355D01*
X020885Y013314D01*
X020814Y013262D01*
X020751Y013200D01*
X020651Y013026D02*
X011826Y013026D01*
X011985Y012868D02*
X021132Y012868D01*
X021228Y012868D02*
X025132Y012868D01*
X025132Y012881D02*
X025132Y012786D01*
X024618Y012786D01*
X024631Y012702D01*
X024659Y012617D01*
X024699Y012539D01*
X024751Y012467D01*
X024814Y012404D01*
X024885Y012352D01*
X024964Y012312D01*
X025048Y012285D01*
X025132Y012271D01*
X025132Y012786D01*
X025228Y012786D01*
X025228Y012881D01*
X025742Y012881D01*
X025729Y012965D01*
X025701Y013049D01*
X025661Y013128D01*
X025609Y013200D01*
X025546Y013262D01*
X025475Y013314D01*
X025396Y013355D01*
X025312Y013382D01*
X025228Y013395D01*
X025228Y012881D01*
X025132Y012881D01*
X024618Y012881D01*
X024631Y012965D01*
X024659Y013049D01*
X024699Y013128D01*
X024751Y013200D01*
X024814Y013262D01*
X024885Y013314D01*
X024964Y013355D01*
X025048Y013382D01*
X025132Y013395D01*
X025132Y012881D01*
X025228Y012868D02*
X027632Y012868D01*
X027632Y012881D02*
X027632Y012786D01*
X027118Y012786D01*
X027131Y012702D01*
X027159Y012617D01*
X027199Y012539D01*
X027251Y012467D01*
X027314Y012404D01*
X027385Y012352D01*
X027464Y012312D01*
X027548Y012285D01*
X027632Y012271D01*
X027632Y012786D01*
X027728Y012786D01*
X027728Y012881D01*
X028242Y012881D01*
X028229Y012965D01*
X028201Y013049D01*
X028161Y013128D01*
X028109Y013200D01*
X028046Y013262D01*
X027975Y013314D01*
X027896Y013355D01*
X027812Y013382D01*
X027728Y013395D01*
X027728Y012881D01*
X027632Y012881D01*
X027118Y012881D01*
X027131Y012965D01*
X027159Y013049D01*
X027199Y013128D01*
X027251Y013200D01*
X027314Y013262D01*
X027385Y013314D01*
X027464Y013355D01*
X027548Y013382D01*
X027632Y013395D01*
X027632Y012881D01*
X027728Y012868D02*
X031632Y012868D01*
X031632Y012881D02*
X031632Y012786D01*
X031118Y012786D01*
X031131Y012702D01*
X031159Y012617D01*
X031199Y012539D01*
X031251Y012467D01*
X031314Y012404D01*
X031385Y012352D01*
X031464Y012312D01*
X031548Y012285D01*
X031632Y012271D01*
X031632Y012786D01*
X031728Y012786D01*
X031728Y012881D01*
X032242Y012881D01*
X032229Y012965D01*
X032201Y013049D01*
X032161Y013128D01*
X032109Y013200D01*
X032046Y013262D01*
X031975Y013314D01*
X031896Y013355D01*
X031812Y013382D01*
X031728Y013395D01*
X031728Y012881D01*
X031632Y012881D01*
X031118Y012881D01*
X031131Y012965D01*
X031159Y013049D01*
X031199Y013128D01*
X031251Y013200D01*
X031314Y013262D01*
X031385Y013314D01*
X031464Y013355D01*
X031548Y013382D01*
X031632Y013395D01*
X031632Y012881D01*
X031728Y012868D02*
X032577Y012868D01*
X032577Y013026D02*
X032209Y013026D01*
X032120Y013185D02*
X032577Y013185D01*
X032577Y013343D02*
X031918Y013343D01*
X031728Y013343D02*
X031632Y013343D01*
X031632Y013185D02*
X031728Y013185D01*
X031728Y013026D02*
X031632Y013026D01*
X031728Y012786D02*
X032242Y012786D01*
X032229Y012702D01*
X032201Y012617D01*
X032161Y012539D01*
X032109Y012467D01*
X032046Y012404D01*
X031975Y012352D01*
X031896Y012312D01*
X031812Y012285D01*
X031728Y012271D01*
X031728Y012786D01*
X031728Y012709D02*
X031632Y012709D01*
X031632Y012551D02*
X031728Y012551D01*
X031728Y012392D02*
X031632Y012392D01*
X031330Y012392D02*
X028030Y012392D01*
X028046Y012404D02*
X027975Y012352D01*
X027896Y012312D01*
X027812Y012285D01*
X027728Y012271D01*
X027728Y012786D01*
X028242Y012786D01*
X028229Y012702D01*
X028201Y012617D01*
X028161Y012539D01*
X028109Y012467D01*
X028046Y012404D01*
X028167Y012551D02*
X031193Y012551D01*
X031130Y012709D02*
X028230Y012709D01*
X028209Y013026D02*
X031151Y013026D01*
X031240Y013185D02*
X028120Y013185D01*
X027918Y013343D02*
X031442Y013343D01*
X032230Y012709D02*
X032577Y012709D01*
X032577Y012551D02*
X032167Y012551D01*
X032030Y012392D02*
X032577Y012392D01*
X032577Y012234D02*
X012619Y012234D01*
X012460Y012392D02*
X020830Y012392D01*
X020693Y012551D02*
X012302Y012551D01*
X012143Y012709D02*
X020630Y012709D01*
X021132Y012709D02*
X021228Y012709D01*
X021228Y012786D02*
X021228Y012271D01*
X021312Y012285D01*
X021396Y012312D01*
X021475Y012352D01*
X021546Y012404D01*
X021609Y012467D01*
X021661Y012539D01*
X021701Y012617D01*
X021729Y012702D01*
X021742Y012786D01*
X021228Y012786D01*
X021228Y012551D02*
X021132Y012551D01*
X021132Y012392D02*
X021228Y012392D01*
X021530Y012392D02*
X024830Y012392D01*
X024693Y012551D02*
X021667Y012551D01*
X021730Y012709D02*
X024630Y012709D01*
X024651Y013026D02*
X021709Y013026D01*
X021620Y013185D02*
X024740Y013185D01*
X024942Y013343D02*
X021418Y013343D01*
X021228Y013343D02*
X021132Y013343D01*
X021132Y013185D02*
X021228Y013185D01*
X021228Y013026D02*
X021132Y013026D01*
X020942Y013343D02*
X018882Y013343D01*
X019098Y013502D02*
X032577Y013502D01*
X032577Y013660D02*
X019182Y013660D01*
X019210Y013819D02*
X032577Y013819D01*
X032577Y013977D02*
X019194Y013977D01*
X019127Y014136D02*
X032577Y014136D01*
X032577Y014294D02*
X029796Y014294D01*
X029788Y014291D02*
X029987Y014373D01*
X030140Y014526D01*
X030222Y014725D01*
X030222Y014941D01*
X030140Y015141D01*
X029987Y015293D01*
X029788Y015376D01*
X029572Y015376D01*
X029373Y015293D01*
X029220Y015141D01*
X029138Y014941D01*
X029138Y014725D01*
X029220Y014526D01*
X029373Y014373D01*
X029572Y014291D01*
X029788Y014291D01*
X029564Y014294D02*
X023296Y014294D01*
X023288Y014291D02*
X023487Y014373D01*
X023640Y014526D01*
X023722Y014725D01*
X023722Y014941D01*
X023640Y015141D01*
X023487Y015293D01*
X023288Y015376D01*
X023072Y015376D01*
X022873Y015293D01*
X022720Y015141D01*
X022638Y014941D01*
X022638Y014725D01*
X022720Y014526D01*
X022873Y014373D01*
X023072Y014291D01*
X023288Y014291D01*
X023064Y014294D02*
X018952Y014294D01*
X018408Y014294D02*
X017952Y014294D01*
X018127Y014136D02*
X018233Y014136D01*
X018262Y013502D02*
X018098Y013502D01*
X017882Y013343D02*
X018478Y013343D01*
X017478Y013343D02*
X016930Y013343D01*
X016700Y013343D02*
X016660Y013343D01*
X016660Y013502D02*
X016700Y013502D01*
X016700Y013660D02*
X016660Y013660D01*
X016660Y013977D02*
X016700Y013977D01*
X016700Y014136D02*
X016660Y014136D01*
X016660Y014294D02*
X016700Y014294D01*
X016981Y014294D02*
X017408Y014294D01*
X017233Y014136D02*
X017140Y014136D01*
X017119Y013502D02*
X017262Y013502D01*
X016430Y013343D02*
X015882Y013343D01*
X016098Y013502D02*
X016241Y013502D01*
X016220Y014136D02*
X016127Y014136D01*
X015952Y014294D02*
X016379Y014294D01*
X015408Y014294D02*
X014952Y014294D01*
X015127Y014136D02*
X015233Y014136D01*
X015262Y013502D02*
X015098Y013502D01*
X014882Y013343D02*
X015478Y013343D01*
X014478Y013343D02*
X013882Y013343D01*
X014098Y013502D02*
X014262Y013502D01*
X014233Y014136D02*
X014127Y014136D01*
X013952Y014294D02*
X014408Y014294D01*
X013882Y014843D02*
X013794Y014880D01*
X010044Y018630D01*
X009977Y018697D01*
X009940Y018786D01*
X009940Y021381D01*
X009977Y021469D01*
X012828Y024321D01*
X012785Y024303D01*
X012575Y024303D01*
X012380Y024384D01*
X012231Y024533D01*
X012180Y024655D01*
X012129Y024533D01*
X011980Y024384D01*
X011785Y024303D01*
X011575Y024303D01*
X011380Y024384D01*
X011231Y024533D01*
X011180Y024655D01*
X011129Y024533D01*
X010980Y024384D01*
X010785Y024303D01*
X010575Y024303D01*
X010380Y024384D01*
X010231Y024533D01*
X010180Y024655D01*
X010129Y024533D01*
X009980Y024384D01*
X009785Y024303D01*
X009575Y024303D01*
X009380Y024384D01*
X009231Y024533D01*
X009180Y024655D01*
X009129Y024533D01*
X008980Y024384D01*
X008785Y024303D01*
X008575Y024303D01*
X008380Y024384D01*
X008231Y024533D01*
X008180Y024655D01*
X008129Y024533D01*
X007980Y024384D01*
X007785Y024303D01*
X007575Y024303D01*
X007380Y024384D01*
X007231Y024533D01*
X007180Y024655D01*
X007129Y024533D01*
X006980Y024384D01*
X006785Y024303D01*
X006575Y024303D01*
X006380Y024384D01*
X006231Y024533D01*
X006191Y024628D01*
X006190Y024622D01*
X006150Y024545D01*
X006100Y024475D01*
X006038Y024414D01*
X005968Y024363D01*
X005891Y024324D01*
X005809Y024297D01*
X005723Y024283D01*
X005700Y024283D01*
X005700Y024813D01*
X005660Y024813D01*
X005660Y024283D01*
X005637Y024283D01*
X005551Y024297D01*
X005469Y024324D01*
X005392Y024363D01*
X005322Y024414D01*
X005260Y024475D01*
X005210Y024545D01*
X005170Y024622D01*
X005169Y024628D01*
X005129Y024533D01*
X004980Y024384D01*
X004785Y024303D01*
X004575Y024303D01*
X004380Y024384D01*
X004231Y024533D01*
X004180Y024655D01*
X004129Y024533D01*
X003980Y024384D01*
X003920Y024359D01*
X003920Y018286D01*
X003883Y018197D01*
X003288Y017602D01*
X003288Y017512D01*
X003234Y017380D01*
X003133Y017280D01*
X003001Y017225D01*
X002859Y017225D01*
X002727Y017280D01*
X002626Y017380D01*
X002572Y017512D01*
X002572Y017655D01*
X002626Y017786D01*
X002727Y017887D01*
X002859Y017941D01*
X002949Y017941D01*
X003440Y018433D01*
X003440Y024359D01*
X003380Y024384D01*
X003231Y024533D01*
X003150Y024728D01*
X003150Y024939D01*
X003231Y025134D01*
X003380Y025283D01*
X003575Y025363D01*
X003785Y025363D01*
X003980Y025283D01*
X004129Y025134D01*
X004180Y025011D01*
X004231Y025134D01*
X004380Y025283D01*
X004575Y025363D01*
X004785Y025363D01*
X004980Y025283D01*
X005129Y025134D01*
X005169Y025039D01*
X005170Y025044D01*
X005210Y025122D01*
X005260Y025192D01*
X005322Y025253D01*
X005392Y025304D01*
X005469Y025343D01*
X005551Y025370D01*
X005637Y025383D01*
X005660Y025383D01*
X005660Y024853D01*
X005700Y024853D01*
X005700Y025383D01*
X005723Y025383D01*
X005809Y025370D01*
X005891Y025343D01*
X005968Y025304D01*
X006038Y025253D01*
X006100Y025192D01*
X006150Y025122D01*
X006190Y025044D01*
X006191Y025039D01*
X006231Y025134D01*
X006380Y025283D01*
X006575Y025363D01*
X006785Y025363D01*
X006980Y025283D01*
X007129Y025134D01*
X007180Y025011D01*
X007231Y025134D01*
X007380Y025283D01*
X007575Y025363D01*
X007785Y025363D01*
X007980Y025283D01*
X008129Y025134D01*
X008180Y025011D01*
X008231Y025134D01*
X008380Y025283D01*
X008575Y025363D01*
X008785Y025363D01*
X008980Y025283D01*
X009129Y025134D01*
X009180Y025011D01*
X009231Y025134D01*
X009380Y025283D01*
X009575Y025363D01*
X009785Y025363D01*
X009980Y025283D01*
X010129Y025134D01*
X010180Y025011D01*
X010231Y025134D01*
X010380Y025283D01*
X010575Y025363D01*
X010785Y025363D01*
X010980Y025283D01*
X011129Y025134D01*
X011180Y025011D01*
X011231Y025134D01*
X011380Y025283D01*
X011575Y025363D01*
X011785Y025363D01*
X011980Y025283D01*
X012129Y025134D01*
X012180Y025011D01*
X012231Y025134D01*
X012380Y025283D01*
X012575Y025363D01*
X012785Y025363D01*
X012980Y025283D01*
X013129Y025134D01*
X013180Y025011D01*
X013231Y025134D01*
X013380Y025283D01*
X013575Y025363D01*
X013785Y025363D01*
X013980Y025283D01*
X014129Y025134D01*
X014180Y025011D01*
X014231Y025134D01*
X014380Y025283D01*
X014575Y025363D01*
X014785Y025363D01*
X014980Y025283D01*
X015129Y025134D01*
X015180Y025011D01*
X015231Y025134D01*
X015380Y025283D01*
X015575Y025363D01*
X015785Y025363D01*
X015980Y025283D01*
X016129Y025134D01*
X016180Y025011D01*
X016231Y025134D01*
X016380Y025283D01*
X016575Y025363D01*
X016785Y025363D01*
X016980Y025283D01*
X017129Y025134D01*
X017180Y025011D01*
X017231Y025134D01*
X017380Y025283D01*
X017575Y025363D01*
X017785Y025363D01*
X017980Y025283D01*
X018129Y025134D01*
X018180Y025011D01*
X018231Y025134D01*
X018380Y025283D01*
X018575Y025363D01*
X018785Y025363D01*
X018980Y025283D01*
X019129Y025134D01*
X019210Y024939D01*
X019210Y024728D01*
X019129Y024533D01*
X018980Y024384D01*
X018785Y024303D01*
X018575Y024303D01*
X018380Y024384D01*
X018231Y024533D01*
X018180Y024655D01*
X018129Y024533D01*
X017980Y024384D01*
X017785Y024303D01*
X017575Y024303D01*
X017380Y024384D01*
X017231Y024533D01*
X017180Y024655D01*
X017129Y024533D01*
X016980Y024384D01*
X016785Y024303D01*
X016575Y024303D01*
X016380Y024384D01*
X016231Y024533D01*
X016180Y024655D01*
X016129Y024533D01*
X015980Y024384D01*
X015785Y024303D01*
X015575Y024303D01*
X015380Y024384D01*
X015231Y024533D01*
X015180Y024655D01*
X015129Y024533D01*
X014980Y024384D01*
X014920Y024359D01*
X014920Y024183D01*
X016279Y022823D01*
X017478Y022823D01*
X017566Y022787D01*
X017633Y022719D01*
X018633Y021719D01*
X018670Y021631D01*
X018670Y019933D01*
X020383Y018219D01*
X020420Y018131D01*
X020420Y016350D01*
X020484Y016286D01*
X020538Y016155D01*
X020538Y016012D01*
X020484Y015880D01*
X020383Y015780D01*
X020251Y015725D01*
X020109Y015725D01*
X019977Y015780D01*
X019876Y015880D01*
X019822Y016012D01*
X019822Y016155D01*
X019876Y016286D01*
X019940Y016350D01*
X019940Y017984D01*
X018294Y019630D01*
X018227Y019697D01*
X018190Y019786D01*
X018190Y021484D01*
X017331Y022343D01*
X016132Y022343D01*
X016044Y022380D01*
X014544Y023880D01*
X014477Y023947D01*
X014440Y024036D01*
X014440Y024359D01*
X014380Y024384D01*
X014231Y024533D01*
X014180Y024655D01*
X014129Y024533D01*
X013980Y024384D01*
X013785Y024303D01*
X013575Y024303D01*
X013514Y024328D01*
X010420Y021234D01*
X010420Y018933D01*
X014029Y015323D01*
X021081Y015323D01*
X022044Y016287D01*
X022132Y016323D01*
X024942Y016323D01*
X024885Y016352D01*
X024814Y016404D01*
X024751Y016467D01*
X024699Y016539D01*
X024659Y016617D01*
X024631Y016702D01*
X024618Y016786D01*
X025132Y016786D01*
X025132Y016881D01*
X024618Y016881D01*
X024631Y016965D01*
X024659Y017049D01*
X024699Y017128D01*
X024751Y017200D01*
X024814Y017262D01*
X024885Y017314D01*
X024964Y017355D01*
X025048Y017382D01*
X025132Y017395D01*
X025132Y016881D01*
X025228Y016881D01*
X025742Y016881D01*
X025729Y016965D01*
X025701Y017049D01*
X025661Y017128D01*
X025609Y017200D01*
X025546Y017262D01*
X025475Y017314D01*
X025396Y017355D01*
X025312Y017382D01*
X025228Y017395D01*
X025228Y016881D01*
X025228Y016786D01*
X025742Y016786D01*
X025729Y016702D01*
X025701Y016617D01*
X025661Y016539D01*
X025609Y016467D01*
X025546Y016404D01*
X025475Y016352D01*
X025418Y016323D01*
X026164Y016323D01*
X026227Y016387D01*
X026359Y016441D01*
X026501Y016441D01*
X026633Y016387D01*
X026734Y016286D01*
X026788Y016155D01*
X026788Y016012D01*
X026734Y015880D01*
X026633Y015780D01*
X026501Y015725D01*
X026359Y015725D01*
X026227Y015780D01*
X026164Y015843D01*
X022279Y015843D01*
X021383Y014947D01*
X021316Y014880D01*
X021228Y014843D01*
X013882Y014843D01*
X013746Y014928D02*
X000460Y014928D01*
X000460Y014770D02*
X022638Y014770D01*
X022638Y014928D02*
X021364Y014928D01*
X021523Y015087D02*
X022698Y015087D01*
X022825Y015245D02*
X021681Y015245D01*
X021840Y015404D02*
X032577Y015404D01*
X032577Y015562D02*
X021998Y015562D01*
X022157Y015721D02*
X032577Y015721D01*
X032577Y015879D02*
X026732Y015879D01*
X026788Y016038D02*
X032577Y016038D01*
X032577Y016196D02*
X026771Y016196D01*
X026665Y016355D02*
X027382Y016355D01*
X027385Y016352D02*
X027464Y016312D01*
X027548Y016285D01*
X027632Y016271D01*
X027632Y016786D01*
X027118Y016786D01*
X027131Y016702D01*
X027159Y016617D01*
X027199Y016539D01*
X027251Y016467D01*
X027314Y016404D01*
X027385Y016352D01*
X027217Y016513D02*
X025643Y016513D01*
X025719Y016672D02*
X027141Y016672D01*
X027118Y016881D02*
X027632Y016881D01*
X027632Y016786D01*
X027728Y016786D01*
X027728Y016881D01*
X028242Y016881D01*
X028229Y016965D01*
X028201Y017049D01*
X028161Y017128D01*
X028109Y017200D01*
X028046Y017262D01*
X027975Y017314D01*
X027896Y017355D01*
X027812Y017382D01*
X027728Y017395D01*
X027728Y016881D01*
X027632Y016881D01*
X027632Y017395D01*
X027548Y017382D01*
X027464Y017355D01*
X027385Y017314D01*
X027314Y017262D01*
X027251Y017200D01*
X027199Y017128D01*
X027159Y017049D01*
X027131Y016965D01*
X027118Y016881D01*
X027139Y016989D02*
X025721Y016989D01*
X025647Y017147D02*
X027213Y017147D01*
X027373Y017306D02*
X025487Y017306D01*
X025228Y017306D02*
X025132Y017306D01*
X025132Y017147D02*
X025228Y017147D01*
X025228Y016989D02*
X025132Y016989D01*
X025132Y016830D02*
X021228Y016830D01*
X021228Y016786D02*
X021228Y016881D01*
X021742Y016881D01*
X021729Y016965D01*
X021701Y017049D01*
X021661Y017128D01*
X021609Y017200D01*
X021546Y017262D01*
X021475Y017314D01*
X021396Y017355D01*
X021312Y017382D01*
X021228Y017395D01*
X021228Y016881D01*
X021132Y016881D01*
X021132Y016786D01*
X020618Y016786D01*
X020631Y016702D01*
X020659Y016617D01*
X020699Y016539D01*
X020751Y016467D01*
X020814Y016404D01*
X020885Y016352D01*
X020964Y016312D01*
X021048Y016285D01*
X021132Y016271D01*
X021132Y016786D01*
X021228Y016786D01*
X021742Y016786D01*
X021729Y016702D01*
X021701Y016617D01*
X021661Y016539D01*
X021609Y016467D01*
X021546Y016404D01*
X021475Y016352D01*
X021396Y016312D01*
X021312Y016285D01*
X021228Y016271D01*
X021228Y016786D01*
X021132Y016830D02*
X020420Y016830D01*
X020420Y016672D02*
X020641Y016672D01*
X020717Y016513D02*
X020420Y016513D01*
X020420Y016355D02*
X020882Y016355D01*
X021132Y016355D02*
X021228Y016355D01*
X021228Y016513D02*
X021132Y016513D01*
X021132Y016672D02*
X021228Y016672D01*
X021132Y016881D02*
X020618Y016881D01*
X020631Y016965D01*
X020659Y017049D01*
X020699Y017128D01*
X020751Y017200D01*
X020814Y017262D01*
X020885Y017314D01*
X020964Y017355D01*
X021048Y017382D01*
X021132Y017395D01*
X021132Y016881D01*
X021132Y016989D02*
X021228Y016989D01*
X021228Y017147D02*
X021132Y017147D01*
X021132Y017306D02*
X021228Y017306D01*
X021487Y017306D02*
X024873Y017306D01*
X024713Y017147D02*
X021647Y017147D01*
X021721Y016989D02*
X024639Y016989D01*
X024641Y016672D02*
X021719Y016672D01*
X021643Y016513D02*
X024717Y016513D01*
X024882Y016355D02*
X021478Y016355D01*
X021954Y016196D02*
X020521Y016196D01*
X020538Y016038D02*
X021795Y016038D01*
X021637Y015879D02*
X020482Y015879D01*
X020180Y016083D02*
X020180Y018083D01*
X018430Y019833D01*
X018430Y021583D01*
X017430Y022583D01*
X016180Y022583D01*
X014680Y024083D01*
X014680Y024833D01*
X015035Y024438D02*
X015325Y024438D01*
X015204Y024597D02*
X015156Y024597D01*
X014920Y024280D02*
X022140Y024280D01*
X022166Y024290D02*
X022063Y024248D01*
X021984Y024169D01*
X021941Y024066D01*
X021941Y023640D01*
X021969Y023573D01*
X020196Y023573D01*
X020133Y023637D01*
X020001Y023691D01*
X019859Y023691D01*
X019727Y023637D01*
X019626Y023536D01*
X019572Y023405D01*
X019572Y023262D01*
X019626Y023130D01*
X019727Y023030D01*
X019859Y022975D01*
X020001Y022975D01*
X020133Y023030D01*
X020196Y023093D01*
X025228Y023093D01*
X025316Y023130D01*
X025383Y023197D01*
X025718Y023532D01*
X025956Y023293D01*
X026404Y023293D01*
X026720Y023610D01*
X026720Y024057D01*
X026404Y024373D01*
X025956Y024373D01*
X025656Y024073D01*
X025632Y024073D01*
X025544Y024037D01*
X025081Y023573D01*
X023891Y023573D01*
X023919Y023640D01*
X023919Y024066D01*
X023876Y024169D01*
X023797Y024248D01*
X023694Y024290D01*
X022166Y024290D01*
X021964Y024121D02*
X014981Y024121D01*
X015140Y023963D02*
X021941Y023963D01*
X021941Y023804D02*
X015298Y023804D01*
X015457Y023646D02*
X019749Y023646D01*
X019606Y023487D02*
X015615Y023487D01*
X015774Y023329D02*
X019572Y023329D01*
X019610Y023170D02*
X015932Y023170D01*
X016091Y023012D02*
X019770Y023012D01*
X020090Y023012D02*
X023698Y023012D01*
X023713Y023018D02*
X023524Y022940D01*
X022878Y022294D01*
X022836Y022194D01*
X022336Y022694D01*
X022147Y022772D01*
X021943Y022772D01*
X021754Y022694D01*
X021609Y022549D01*
X021531Y022360D01*
X021531Y022155D01*
X021609Y021966D01*
X022242Y021333D01*
X021609Y020700D01*
X021531Y020511D01*
X021531Y020307D01*
X021609Y020118D01*
X021754Y019973D01*
X021943Y019895D01*
X022147Y019895D01*
X022336Y019973D01*
X022836Y020473D01*
X022878Y020373D01*
X023524Y019727D01*
X023713Y019649D01*
X023917Y019649D01*
X024106Y019727D01*
X024251Y019872D01*
X024329Y020061D01*
X024329Y020265D01*
X024251Y020454D01*
X023605Y021100D01*
X023416Y021178D01*
X023212Y021178D01*
X023024Y021101D01*
X022982Y021201D01*
X022850Y021333D01*
X022982Y021465D01*
X023024Y021566D01*
X023212Y021488D01*
X023416Y021488D01*
X023605Y021567D01*
X024251Y022212D01*
X024329Y022401D01*
X024329Y022606D01*
X024251Y022795D01*
X024106Y022940D01*
X023917Y023018D01*
X023713Y023018D01*
X023932Y023012D02*
X030198Y023012D01*
X030213Y023018D02*
X030024Y022940D01*
X029378Y022294D01*
X029336Y022194D01*
X028836Y022694D01*
X028647Y022772D01*
X028443Y022772D01*
X028254Y022694D01*
X028109Y022549D01*
X028031Y022360D01*
X028031Y022155D01*
X028109Y021966D01*
X028742Y021333D01*
X028109Y020700D01*
X028031Y020511D01*
X028031Y020307D01*
X028109Y020118D01*
X028254Y019973D01*
X028443Y019895D01*
X028647Y019895D01*
X028836Y019973D01*
X029336Y020473D01*
X029378Y020373D01*
X030024Y019727D01*
X030213Y019649D01*
X030417Y019649D01*
X030606Y019727D01*
X030751Y019872D01*
X030829Y020061D01*
X030829Y020265D01*
X030751Y020454D01*
X030105Y021100D01*
X029916Y021178D01*
X029712Y021178D01*
X029524Y021101D01*
X029482Y021201D01*
X029350Y021333D01*
X029482Y021465D01*
X029524Y021566D01*
X029712Y021488D01*
X029916Y021488D01*
X030105Y021567D01*
X030751Y022212D01*
X030829Y022401D01*
X030829Y022606D01*
X030751Y022795D01*
X030606Y022940D01*
X030417Y023018D01*
X030213Y023018D01*
X030432Y023012D02*
X032577Y023012D01*
X032577Y023170D02*
X025356Y023170D01*
X025515Y023329D02*
X025921Y023329D01*
X025762Y023487D02*
X025673Y023487D01*
X025680Y023833D02*
X025180Y023333D01*
X019930Y023333D01*
X020111Y023646D02*
X021941Y023646D01*
X021757Y022695D02*
X017658Y022695D01*
X017816Y022536D02*
X021604Y022536D01*
X021538Y022378D02*
X017975Y022378D01*
X018133Y022219D02*
X020034Y022219D01*
X020015Y022201D02*
X020094Y022279D01*
X020197Y022322D01*
X020623Y022322D01*
X020726Y022279D01*
X020805Y022201D01*
X020848Y022098D01*
X020848Y021986D01*
X020848Y020680D01*
X020848Y020569D01*
X020805Y020466D01*
X020726Y020387D01*
X020623Y020345D01*
X020197Y020345D01*
X020094Y020387D01*
X020015Y020466D01*
X019973Y020569D01*
X019973Y022098D01*
X020015Y022201D01*
X019973Y022061D02*
X018292Y022061D01*
X018450Y021902D02*
X019973Y021902D01*
X019973Y021744D02*
X018609Y021744D01*
X018670Y021585D02*
X019973Y021585D01*
X019973Y021427D02*
X018670Y021427D01*
X018670Y021268D02*
X019973Y021268D01*
X019973Y021110D02*
X018670Y021110D01*
X018670Y020951D02*
X019973Y020951D01*
X019973Y020793D02*
X018670Y020793D01*
X018670Y020634D02*
X019973Y020634D01*
X020011Y020476D02*
X018670Y020476D01*
X018670Y020317D02*
X021531Y020317D01*
X021531Y020476D02*
X020809Y020476D01*
X020848Y020634D02*
X021582Y020634D01*
X021702Y020793D02*
X020848Y020793D01*
X020848Y020951D02*
X021860Y020951D01*
X022019Y021110D02*
X020848Y021110D01*
X020848Y021268D02*
X022177Y021268D01*
X022148Y021427D02*
X020848Y021427D01*
X020848Y021585D02*
X021990Y021585D01*
X021831Y021744D02*
X020848Y021744D01*
X020848Y021902D02*
X021673Y021902D01*
X021570Y022061D02*
X020848Y022061D01*
X020786Y022219D02*
X021531Y022219D01*
X022334Y022695D02*
X023279Y022695D01*
X023437Y022853D02*
X016249Y022853D01*
X015888Y022536D02*
X011722Y022536D01*
X011564Y022378D02*
X016049Y022378D01*
X015729Y022695D02*
X011881Y022695D01*
X012039Y022853D02*
X015571Y022853D01*
X015412Y023012D02*
X012198Y023012D01*
X012356Y023170D02*
X015254Y023170D01*
X015095Y023329D02*
X012515Y023329D01*
X012673Y023487D02*
X014937Y023487D01*
X014778Y023646D02*
X012832Y023646D01*
X012990Y023804D02*
X014620Y023804D01*
X014470Y023963D02*
X013149Y023963D01*
X013307Y024121D02*
X014440Y024121D01*
X014440Y024280D02*
X013466Y024280D01*
X014035Y024438D02*
X014325Y024438D01*
X014204Y024597D02*
X014156Y024597D01*
X013680Y024833D02*
X010180Y021333D01*
X010180Y018833D01*
X013930Y015083D01*
X021180Y015083D01*
X022180Y016083D01*
X026430Y016083D01*
X026195Y016355D02*
X025478Y016355D01*
X025228Y016830D02*
X027632Y016830D01*
X027728Y016830D02*
X031632Y016830D01*
X031632Y016786D02*
X031118Y016786D01*
X031131Y016702D01*
X031159Y016617D01*
X031199Y016539D01*
X031251Y016467D01*
X031314Y016404D01*
X031385Y016352D01*
X031464Y016312D01*
X031548Y016285D01*
X031632Y016271D01*
X031632Y016786D01*
X031632Y016881D01*
X031118Y016881D01*
X031131Y016965D01*
X031159Y017049D01*
X031199Y017128D01*
X031251Y017200D01*
X031314Y017262D01*
X031385Y017314D01*
X031464Y017355D01*
X031548Y017382D01*
X031632Y017395D01*
X031632Y016881D01*
X031728Y016881D01*
X032242Y016881D01*
X032229Y016965D01*
X032201Y017049D01*
X032161Y017128D01*
X032109Y017200D01*
X032046Y017262D01*
X031975Y017314D01*
X031896Y017355D01*
X031812Y017382D01*
X031728Y017395D01*
X031728Y016881D01*
X031728Y016786D01*
X032242Y016786D01*
X032229Y016702D01*
X032201Y016617D01*
X032161Y016539D01*
X032109Y016467D01*
X032046Y016404D01*
X031975Y016352D01*
X031896Y016312D01*
X031812Y016285D01*
X031728Y016271D01*
X031728Y016786D01*
X031632Y016786D01*
X031728Y016830D02*
X032577Y016830D01*
X032577Y016672D02*
X032219Y016672D01*
X032143Y016513D02*
X032577Y016513D01*
X032577Y016355D02*
X031978Y016355D01*
X031728Y016355D02*
X031632Y016355D01*
X031632Y016513D02*
X031728Y016513D01*
X031728Y016672D02*
X031632Y016672D01*
X031632Y016989D02*
X031728Y016989D01*
X031728Y017147D02*
X031632Y017147D01*
X031632Y017306D02*
X031728Y017306D01*
X031987Y017306D02*
X032577Y017306D01*
X032577Y017464D02*
X020420Y017464D01*
X020420Y017306D02*
X020873Y017306D01*
X020713Y017147D02*
X020420Y017147D01*
X020420Y016989D02*
X020639Y016989D01*
X020420Y017623D02*
X032577Y017623D01*
X032577Y017781D02*
X020420Y017781D01*
X020420Y017940D02*
X025810Y017940D01*
X025956Y017793D02*
X026404Y017793D01*
X026720Y018110D01*
X026720Y018557D01*
X026404Y018873D01*
X025956Y018873D01*
X025640Y018557D01*
X025640Y018110D01*
X025956Y017793D01*
X025651Y018098D02*
X020420Y018098D01*
X020346Y018257D02*
X025640Y018257D01*
X025640Y018415D02*
X023789Y018415D01*
X023797Y018419D02*
X023876Y018498D01*
X023919Y018600D01*
X023919Y019027D01*
X023876Y019130D01*
X023797Y019209D01*
X023694Y019251D01*
X023583Y019251D01*
X022277Y019251D01*
X022166Y019251D01*
X022063Y019209D01*
X021984Y019130D01*
X021941Y019027D01*
X021941Y018600D01*
X021984Y018498D01*
X022063Y018419D01*
X022166Y018376D01*
X023694Y018376D01*
X023797Y018419D01*
X023908Y018574D02*
X025657Y018574D01*
X025815Y018732D02*
X023919Y018732D01*
X023919Y018891D02*
X028441Y018891D01*
X028441Y019027D02*
X028441Y018600D01*
X028484Y018498D01*
X028563Y018419D01*
X028666Y018376D01*
X030194Y018376D01*
X030297Y018419D01*
X030376Y018498D01*
X030419Y018600D01*
X030419Y019027D01*
X030376Y019130D01*
X030297Y019209D01*
X030194Y019251D01*
X030083Y019251D01*
X028777Y019251D01*
X028666Y019251D01*
X028563Y019209D01*
X028484Y019130D01*
X028441Y019027D01*
X028451Y019049D02*
X023909Y019049D01*
X023798Y019208D02*
X028562Y019208D01*
X028441Y018732D02*
X026545Y018732D01*
X026703Y018574D02*
X028452Y018574D01*
X028571Y018415D02*
X026720Y018415D01*
X026720Y018257D02*
X032577Y018257D01*
X032577Y018415D02*
X030289Y018415D01*
X030408Y018574D02*
X032577Y018574D01*
X032577Y018732D02*
X030419Y018732D01*
X030419Y018891D02*
X032577Y018891D01*
X032577Y019049D02*
X030409Y019049D01*
X030298Y019208D02*
X032577Y019208D01*
X032577Y019366D02*
X019236Y019366D01*
X019078Y019525D02*
X032577Y019525D01*
X032577Y019683D02*
X030501Y019683D01*
X030721Y019842D02*
X032577Y019842D01*
X032577Y020000D02*
X030804Y020000D01*
X030829Y020159D02*
X032577Y020159D01*
X032577Y020317D02*
X030808Y020317D01*
X030729Y020476D02*
X031551Y020476D01*
X031555Y020466D02*
X031634Y020387D01*
X031737Y020345D01*
X032163Y020345D01*
X032266Y020387D01*
X032345Y020466D01*
X032387Y020569D01*
X032387Y020680D01*
X032387Y021986D01*
X032387Y022098D01*
X032345Y022201D01*
X032266Y022279D01*
X032163Y022322D01*
X031737Y022322D01*
X031634Y022279D01*
X031555Y022201D01*
X031512Y022098D01*
X031512Y020569D01*
X031555Y020466D01*
X031512Y020634D02*
X030571Y020634D01*
X030412Y020793D02*
X031512Y020793D01*
X031512Y020951D02*
X030254Y020951D01*
X030082Y021110D02*
X031512Y021110D01*
X031512Y021268D02*
X029415Y021268D01*
X029444Y021427D02*
X031512Y021427D01*
X031512Y021585D02*
X030124Y021585D01*
X030282Y021744D02*
X031512Y021744D01*
X031512Y021902D02*
X030441Y021902D01*
X030599Y022061D02*
X031512Y022061D01*
X031574Y022219D02*
X030754Y022219D01*
X030820Y022378D02*
X032577Y022378D01*
X032577Y022536D02*
X030829Y022536D01*
X030792Y022695D02*
X032577Y022695D01*
X032577Y022853D02*
X030693Y022853D01*
X030326Y023487D02*
X032577Y023487D01*
X032577Y023329D02*
X026439Y023329D01*
X026598Y023487D02*
X028534Y023487D01*
X028441Y023646D02*
X026720Y023646D01*
X026720Y023804D02*
X028441Y023804D01*
X028441Y023963D02*
X026720Y023963D01*
X026656Y024121D02*
X028464Y024121D01*
X028640Y024280D02*
X026497Y024280D01*
X026180Y023833D02*
X025680Y023833D01*
X025470Y023963D02*
X023919Y023963D01*
X023919Y023804D02*
X025312Y023804D01*
X025153Y023646D02*
X023919Y023646D01*
X023896Y024121D02*
X025704Y024121D01*
X025863Y024280D02*
X023720Y024280D01*
X024193Y022853D02*
X029937Y022853D01*
X029779Y022695D02*
X028834Y022695D01*
X028994Y022536D02*
X029620Y022536D01*
X029462Y022378D02*
X029152Y022378D01*
X029311Y022219D02*
X029347Y022219D01*
X028648Y021427D02*
X027348Y021427D01*
X027348Y021585D02*
X028490Y021585D01*
X028331Y021744D02*
X027348Y021744D01*
X027348Y021902D02*
X028173Y021902D01*
X028070Y022061D02*
X027348Y022061D01*
X027348Y022098D02*
X027305Y022201D01*
X027226Y022279D01*
X027123Y022322D01*
X026697Y022322D01*
X026594Y022279D01*
X026515Y022201D01*
X026473Y022098D01*
X026473Y020569D01*
X026515Y020466D01*
X026594Y020387D01*
X026697Y020345D01*
X027123Y020345D01*
X027226Y020387D01*
X027305Y020466D01*
X027348Y020569D01*
X027348Y020680D01*
X027348Y021986D01*
X027348Y022098D01*
X027286Y022219D02*
X028031Y022219D01*
X028038Y022378D02*
X024320Y022378D01*
X024329Y022536D02*
X028104Y022536D01*
X028257Y022695D02*
X024292Y022695D01*
X024254Y022219D02*
X025074Y022219D01*
X025055Y022201D02*
X025134Y022279D01*
X025237Y022322D01*
X025663Y022322D01*
X025766Y022279D01*
X025845Y022201D01*
X025887Y022098D01*
X025887Y021986D01*
X025887Y020680D01*
X025887Y020569D01*
X025845Y020466D01*
X025766Y020387D01*
X025663Y020345D01*
X025237Y020345D01*
X025134Y020387D01*
X025055Y020466D01*
X025012Y020569D01*
X025012Y022098D01*
X025055Y022201D01*
X025012Y022061D02*
X024099Y022061D01*
X023941Y021902D02*
X025012Y021902D01*
X025012Y021744D02*
X023782Y021744D01*
X023624Y021585D02*
X025012Y021585D01*
X025012Y021427D02*
X022944Y021427D01*
X022915Y021268D02*
X025012Y021268D01*
X025012Y021110D02*
X023582Y021110D01*
X023754Y020951D02*
X025012Y020951D01*
X025012Y020793D02*
X023912Y020793D01*
X024071Y020634D02*
X025012Y020634D01*
X025051Y020476D02*
X024229Y020476D01*
X024308Y020317D02*
X028031Y020317D01*
X028031Y020476D02*
X027309Y020476D01*
X027348Y020634D02*
X028082Y020634D01*
X028202Y020793D02*
X027348Y020793D01*
X027348Y020951D02*
X028360Y020951D01*
X028519Y021110D02*
X027348Y021110D01*
X027348Y021268D02*
X028677Y021268D01*
X029520Y021110D02*
X029546Y021110D01*
X029433Y020317D02*
X029181Y020317D01*
X029022Y020159D02*
X029592Y020159D01*
X029750Y020000D02*
X028864Y020000D01*
X028226Y020000D02*
X024304Y020000D01*
X024329Y020159D02*
X028092Y020159D01*
X026511Y020476D02*
X025849Y020476D01*
X025887Y020634D02*
X026473Y020634D01*
X026473Y020793D02*
X025887Y020793D01*
X025887Y020951D02*
X026473Y020951D01*
X026473Y021110D02*
X025887Y021110D01*
X025887Y021268D02*
X026473Y021268D01*
X026473Y021427D02*
X025887Y021427D01*
X025887Y021585D02*
X026473Y021585D01*
X026473Y021744D02*
X025887Y021744D01*
X025887Y021902D02*
X026473Y021902D01*
X026473Y022061D02*
X025887Y022061D01*
X025826Y022219D02*
X026534Y022219D01*
X024221Y019842D02*
X029909Y019842D01*
X030129Y019683D02*
X024001Y019683D01*
X023629Y019683D02*
X018919Y019683D01*
X018761Y019842D02*
X023409Y019842D01*
X023250Y020000D02*
X022364Y020000D01*
X022522Y020159D02*
X023092Y020159D01*
X022933Y020317D02*
X022681Y020317D01*
X023020Y021110D02*
X023046Y021110D01*
X021726Y020000D02*
X018670Y020000D01*
X018670Y020159D02*
X021592Y020159D01*
X022062Y019208D02*
X019395Y019208D01*
X019553Y019049D02*
X021951Y019049D01*
X021941Y018891D02*
X019712Y018891D01*
X019870Y018732D02*
X021941Y018732D01*
X021952Y018574D02*
X020029Y018574D01*
X020187Y018415D02*
X022071Y018415D01*
X019940Y017940D02*
X013005Y017940D01*
X013001Y017941D02*
X012859Y017941D01*
X012727Y017887D01*
X012626Y017786D01*
X012572Y017655D01*
X012572Y017512D01*
X012626Y017380D01*
X012727Y017280D01*
X012859Y017225D01*
X013001Y017225D01*
X013133Y017280D01*
X013196Y017343D01*
X017331Y017343D01*
X017572Y017102D01*
X017572Y017012D01*
X017626Y016880D01*
X017727Y016780D01*
X017859Y016725D01*
X018001Y016725D01*
X018133Y016780D01*
X018234Y016880D01*
X018288Y017012D01*
X018288Y017155D01*
X018234Y017286D01*
X018133Y017387D01*
X018001Y017441D01*
X017911Y017441D01*
X017566Y017787D01*
X017478Y017823D01*
X013196Y017823D01*
X013133Y017887D01*
X013001Y017941D01*
X012855Y017940D02*
X011413Y017940D01*
X011254Y018098D02*
X019826Y018098D01*
X019667Y018257D02*
X011096Y018257D01*
X010937Y018415D02*
X019509Y018415D01*
X019350Y018574D02*
X010779Y018574D01*
X010620Y018732D02*
X019192Y018732D01*
X019033Y018891D02*
X010462Y018891D01*
X010420Y019049D02*
X018875Y019049D01*
X018716Y019208D02*
X010420Y019208D01*
X010420Y019366D02*
X018558Y019366D01*
X018399Y019525D02*
X010420Y019525D01*
X010420Y019683D02*
X018241Y019683D01*
X018190Y019842D02*
X010420Y019842D01*
X010420Y020000D02*
X018190Y020000D01*
X018190Y020159D02*
X010420Y020159D01*
X010420Y020317D02*
X018190Y020317D01*
X018190Y020476D02*
X013253Y020476D01*
X013251Y020475D02*
X013383Y020530D01*
X013484Y020630D01*
X013538Y020762D01*
X013538Y020905D01*
X013484Y021036D01*
X013383Y021137D01*
X013251Y021191D01*
X013109Y021191D01*
X012977Y021137D01*
X012914Y021073D01*
X011696Y021073D01*
X011633Y021137D01*
X011501Y021191D01*
X011359Y021191D01*
X011227Y021137D01*
X011126Y021036D01*
X011072Y020905D01*
X011072Y020762D01*
X011126Y020630D01*
X011227Y020530D01*
X011359Y020475D01*
X011501Y020475D01*
X011633Y020530D01*
X011696Y020593D01*
X012914Y020593D01*
X012977Y020530D01*
X013109Y020475D01*
X013251Y020475D01*
X013107Y020476D02*
X011503Y020476D01*
X011357Y020476D02*
X010420Y020476D01*
X010420Y020634D02*
X011125Y020634D01*
X011072Y020793D02*
X010420Y020793D01*
X010420Y020951D02*
X011091Y020951D01*
X011200Y021110D02*
X010420Y021110D01*
X010454Y021268D02*
X017322Y021268D01*
X017322Y021262D02*
X017376Y021130D01*
X017477Y021030D01*
X017609Y020975D01*
X017751Y020975D01*
X017883Y021030D01*
X017984Y021130D01*
X018038Y021262D01*
X018038Y021405D01*
X017984Y021536D01*
X017883Y021637D01*
X017751Y021691D01*
X017661Y021691D01*
X017316Y022037D01*
X017228Y022073D01*
X012946Y022073D01*
X012883Y022137D01*
X012751Y022191D01*
X012609Y022191D01*
X012477Y022137D01*
X012376Y022036D01*
X012322Y021905D01*
X012322Y021762D01*
X012376Y021630D01*
X012477Y021530D01*
X012609Y021475D01*
X012751Y021475D01*
X012883Y021530D01*
X012946Y021593D01*
X017081Y021593D01*
X017322Y021352D01*
X017322Y021262D01*
X017397Y021110D02*
X013410Y021110D01*
X013519Y020951D02*
X018190Y020951D01*
X018190Y020793D02*
X013538Y020793D01*
X013485Y020634D02*
X018190Y020634D01*
X018190Y021110D02*
X017963Y021110D01*
X018038Y021268D02*
X018190Y021268D01*
X018190Y021427D02*
X018029Y021427D01*
X018089Y021585D02*
X017934Y021585D01*
X017930Y021744D02*
X017609Y021744D01*
X017450Y021902D02*
X017772Y021902D01*
X017613Y022061D02*
X017258Y022061D01*
X017180Y021833D02*
X017680Y021333D01*
X017247Y021427D02*
X010613Y021427D01*
X010771Y021585D02*
X012422Y021585D01*
X012329Y021744D02*
X010930Y021744D01*
X011088Y021902D02*
X012322Y021902D01*
X012401Y022061D02*
X011247Y022061D01*
X011405Y022219D02*
X017455Y022219D01*
X017180Y021833D02*
X012680Y021833D01*
X012938Y021585D02*
X017089Y021585D01*
X017035Y024438D02*
X017325Y024438D01*
X017204Y024597D02*
X017156Y024597D01*
X017155Y025072D02*
X017205Y025072D01*
X017328Y025231D02*
X017032Y025231D01*
X016328Y025231D02*
X016032Y025231D01*
X016155Y025072D02*
X016205Y025072D01*
X016204Y024597D02*
X016156Y024597D01*
X016035Y024438D02*
X016325Y024438D01*
X015328Y025231D02*
X015032Y025231D01*
X015155Y025072D02*
X015205Y025072D01*
X014328Y025231D02*
X014032Y025231D01*
X014155Y025072D02*
X014205Y025072D01*
X013328Y025231D02*
X013032Y025231D01*
X013155Y025072D02*
X013205Y025072D01*
X012328Y025231D02*
X012032Y025231D01*
X012155Y025072D02*
X012205Y025072D01*
X012204Y024597D02*
X012156Y024597D01*
X012035Y024438D02*
X012325Y024438D01*
X012629Y024121D02*
X003920Y024121D01*
X003920Y023963D02*
X012470Y023963D01*
X012312Y023804D02*
X003920Y023804D01*
X003920Y023646D02*
X012153Y023646D01*
X011995Y023487D02*
X003920Y023487D01*
X003920Y023329D02*
X011836Y023329D01*
X011678Y023170D02*
X003920Y023170D01*
X003920Y023012D02*
X011519Y023012D01*
X011361Y022853D02*
X003920Y022853D01*
X003920Y022695D02*
X011202Y022695D01*
X011044Y022536D02*
X003920Y022536D01*
X003920Y022378D02*
X010885Y022378D01*
X010727Y022219D02*
X003920Y022219D01*
X003920Y022061D02*
X010568Y022061D01*
X010410Y021902D02*
X003920Y021902D01*
X003920Y021744D02*
X010251Y021744D01*
X010093Y021585D02*
X003920Y021585D01*
X003920Y021427D02*
X009959Y021427D01*
X009940Y021268D02*
X003920Y021268D01*
X003920Y021110D02*
X009940Y021110D01*
X009940Y020951D02*
X003920Y020951D01*
X003920Y020793D02*
X009940Y020793D01*
X009940Y020634D02*
X003920Y020634D01*
X003920Y020476D02*
X009940Y020476D01*
X009940Y020317D02*
X003920Y020317D01*
X003920Y020159D02*
X009940Y020159D01*
X009940Y020000D02*
X003920Y020000D01*
X003920Y019842D02*
X009940Y019842D01*
X009940Y019683D02*
X003920Y019683D01*
X003920Y019525D02*
X009940Y019525D01*
X009940Y019366D02*
X003920Y019366D01*
X003920Y019208D02*
X009940Y019208D01*
X009940Y019049D02*
X003920Y019049D01*
X003920Y018891D02*
X009940Y018891D01*
X009962Y018732D02*
X003920Y018732D01*
X003920Y018574D02*
X010100Y018574D01*
X010259Y018415D02*
X003920Y018415D01*
X003908Y018257D02*
X010417Y018257D01*
X010576Y018098D02*
X003784Y018098D01*
X003626Y017940D02*
X010734Y017940D01*
X010893Y017781D02*
X003467Y017781D01*
X003309Y017623D02*
X011051Y017623D01*
X011210Y017464D02*
X003268Y017464D01*
X003159Y017306D02*
X011368Y017306D01*
X011527Y017147D02*
X000460Y017147D01*
X000460Y016989D02*
X011685Y016989D01*
X011844Y016830D02*
X000460Y016830D01*
X000460Y016672D02*
X012002Y016672D01*
X012161Y016513D02*
X000460Y016513D01*
X000460Y016355D02*
X012319Y016355D01*
X012478Y016196D02*
X000460Y016196D01*
X000460Y016038D02*
X012636Y016038D01*
X012795Y015879D02*
X000460Y015879D01*
X000460Y015721D02*
X012953Y015721D01*
X013112Y015562D02*
X000460Y015562D01*
X000460Y015404D02*
X013270Y015404D01*
X013429Y015245D02*
X000460Y015245D01*
X000460Y015087D02*
X013587Y015087D01*
X013949Y015404D02*
X021161Y015404D01*
X021320Y015562D02*
X013790Y015562D01*
X013632Y015721D02*
X021478Y015721D01*
X022685Y014611D02*
X000460Y014611D01*
X000460Y014453D02*
X022793Y014453D01*
X023567Y014453D02*
X029293Y014453D01*
X029185Y014611D02*
X023675Y014611D01*
X023722Y014770D02*
X029138Y014770D01*
X029138Y014928D02*
X023722Y014928D01*
X023662Y015087D02*
X029198Y015087D01*
X029325Y015245D02*
X023535Y015245D01*
X025132Y013343D02*
X025228Y013343D01*
X025228Y013185D02*
X025132Y013185D01*
X025132Y013026D02*
X025228Y013026D01*
X025228Y012786D02*
X025742Y012786D01*
X025729Y012702D01*
X025701Y012617D01*
X025661Y012539D01*
X025609Y012467D01*
X025546Y012404D01*
X025475Y012352D01*
X025396Y012312D01*
X025312Y012285D01*
X025228Y012271D01*
X025228Y012786D01*
X025228Y012709D02*
X025132Y012709D01*
X025132Y012551D02*
X025228Y012551D01*
X025228Y012392D02*
X025132Y012392D01*
X025530Y012392D02*
X027330Y012392D01*
X027193Y012551D02*
X025667Y012551D01*
X025730Y012709D02*
X027130Y012709D01*
X027151Y013026D02*
X025709Y013026D01*
X025620Y013185D02*
X027240Y013185D01*
X027442Y013343D02*
X025418Y013343D01*
X027632Y013343D02*
X027728Y013343D01*
X027728Y013185D02*
X027632Y013185D01*
X027632Y013026D02*
X027728Y013026D01*
X027728Y012709D02*
X027632Y012709D01*
X027632Y012551D02*
X027728Y012551D01*
X027728Y012392D02*
X027632Y012392D01*
X030067Y014453D02*
X032577Y014453D01*
X032577Y014611D02*
X030175Y014611D01*
X030222Y014770D02*
X032577Y014770D01*
X032577Y014928D02*
X030222Y014928D01*
X030162Y015087D02*
X032577Y015087D01*
X032577Y015245D02*
X030035Y015245D01*
X031217Y016513D02*
X028143Y016513D01*
X028161Y016539D02*
X028201Y016617D01*
X028229Y016702D01*
X028242Y016786D01*
X027728Y016786D01*
X027728Y016271D01*
X027812Y016285D01*
X027896Y016312D01*
X027975Y016352D01*
X028046Y016404D01*
X028109Y016467D01*
X028161Y016539D01*
X028219Y016672D02*
X031141Y016672D01*
X031139Y016989D02*
X028221Y016989D01*
X028147Y017147D02*
X031213Y017147D01*
X031373Y017306D02*
X027987Y017306D01*
X027728Y017306D02*
X027632Y017306D01*
X027632Y017147D02*
X027728Y017147D01*
X027728Y016989D02*
X027632Y016989D01*
X027632Y016672D02*
X027728Y016672D01*
X027728Y016513D02*
X027632Y016513D01*
X027632Y016355D02*
X027728Y016355D01*
X027978Y016355D02*
X031382Y016355D01*
X032221Y016989D02*
X032577Y016989D01*
X032577Y017147D02*
X032147Y017147D01*
X032577Y017940D02*
X026550Y017940D01*
X026709Y018098D02*
X032577Y018098D01*
X032577Y020476D02*
X032349Y020476D01*
X032387Y020634D02*
X032577Y020634D01*
X032577Y020793D02*
X032387Y020793D01*
X032387Y020951D02*
X032577Y020951D01*
X032577Y021110D02*
X032387Y021110D01*
X032387Y021268D02*
X032577Y021268D01*
X032577Y021427D02*
X032387Y021427D01*
X032387Y021585D02*
X032577Y021585D01*
X032577Y021744D02*
X032387Y021744D01*
X032387Y021902D02*
X032577Y021902D01*
X032577Y022061D02*
X032387Y022061D01*
X032326Y022219D02*
X032577Y022219D01*
X032577Y023646D02*
X030419Y023646D01*
X030419Y023804D02*
X030911Y023804D01*
X030558Y023963D02*
X030419Y023963D01*
X030112Y024438D02*
X019035Y024438D01*
X019156Y024597D02*
X030027Y024597D01*
X029984Y024755D02*
X019210Y024755D01*
X019210Y024914D02*
X029942Y024914D01*
X029941Y025072D02*
X019155Y025072D01*
X019032Y025231D02*
X029941Y025231D01*
X029973Y025389D02*
X003064Y025389D01*
X003096Y025231D02*
X003328Y025231D01*
X003205Y025072D02*
X003096Y025072D01*
X003095Y024914D02*
X003150Y024914D01*
X003150Y024755D02*
X003053Y024755D01*
X003010Y024597D02*
X003204Y024597D01*
X003325Y024438D02*
X002925Y024438D01*
X002834Y024280D02*
X003440Y024280D01*
X003440Y024121D02*
X002680Y024121D01*
X002479Y023963D02*
X003440Y023963D01*
X003440Y023804D02*
X002127Y023804D01*
X001383Y023804D02*
X000460Y023804D01*
X000460Y023646D02*
X003440Y023646D01*
X003440Y023487D02*
X000460Y023487D01*
X000460Y023329D02*
X003440Y023329D01*
X003440Y023170D02*
X000460Y023170D01*
X000460Y023012D02*
X003440Y023012D01*
X003440Y022853D02*
X000460Y022853D01*
X000460Y022695D02*
X003440Y022695D01*
X003440Y022536D02*
X000460Y022536D01*
X000460Y022378D02*
X003440Y022378D01*
X003440Y022219D02*
X000460Y022219D01*
X000460Y022061D02*
X003440Y022061D01*
X003440Y021902D02*
X000460Y021902D01*
X000460Y021744D02*
X003440Y021744D01*
X003440Y021585D02*
X000460Y021585D01*
X000460Y021427D02*
X003440Y021427D01*
X003440Y021268D02*
X000460Y021268D01*
X000460Y021110D02*
X003440Y021110D01*
X003440Y020951D02*
X000460Y020951D01*
X000460Y020793D02*
X003440Y020793D01*
X003440Y020634D02*
X000460Y020634D01*
X000460Y020476D02*
X003440Y020476D01*
X003440Y020317D02*
X000460Y020317D01*
X000460Y020159D02*
X003440Y020159D01*
X003440Y020000D02*
X000460Y020000D01*
X000460Y019842D02*
X003440Y019842D01*
X003440Y019683D02*
X000460Y019683D01*
X000460Y019525D02*
X003440Y019525D01*
X003440Y019366D02*
X000460Y019366D01*
X000460Y019208D02*
X003440Y019208D01*
X003440Y019049D02*
X000460Y019049D01*
X000460Y018891D02*
X003440Y018891D01*
X003440Y018732D02*
X000460Y018732D01*
X000460Y018574D02*
X003440Y018574D01*
X003423Y018415D02*
X000460Y018415D01*
X000460Y018257D02*
X003264Y018257D01*
X003106Y018098D02*
X000460Y018098D01*
X000460Y017940D02*
X002855Y017940D01*
X002624Y017781D02*
X000460Y017781D01*
X000460Y017623D02*
X002572Y017623D01*
X002592Y017464D02*
X000460Y017464D01*
X000460Y017306D02*
X002701Y017306D01*
X002930Y017583D02*
X003680Y018333D01*
X003680Y024833D01*
X004035Y024438D02*
X004325Y024438D01*
X004204Y024597D02*
X004156Y024597D01*
X003920Y024280D02*
X012787Y024280D01*
X011325Y024438D02*
X011035Y024438D01*
X011156Y024597D02*
X011204Y024597D01*
X011205Y025072D02*
X011155Y025072D01*
X011032Y025231D02*
X011328Y025231D01*
X010328Y025231D02*
X010032Y025231D01*
X010155Y025072D02*
X010205Y025072D01*
X010204Y024597D02*
X010156Y024597D01*
X010035Y024438D02*
X010325Y024438D01*
X009325Y024438D02*
X009035Y024438D01*
X009156Y024597D02*
X009204Y024597D01*
X009205Y025072D02*
X009155Y025072D01*
X009032Y025231D02*
X009328Y025231D01*
X008328Y025231D02*
X008032Y025231D01*
X008155Y025072D02*
X008205Y025072D01*
X008204Y024597D02*
X008156Y024597D01*
X008035Y024438D02*
X008325Y024438D01*
X007325Y024438D02*
X007035Y024438D01*
X007156Y024597D02*
X007204Y024597D01*
X007205Y025072D02*
X007155Y025072D01*
X007032Y025231D02*
X007328Y025231D01*
X006328Y025231D02*
X006060Y025231D01*
X006175Y025072D02*
X006205Y025072D01*
X005700Y025072D02*
X005660Y025072D01*
X005660Y024914D02*
X005700Y024914D01*
X005700Y024755D02*
X005660Y024755D01*
X005660Y024597D02*
X005700Y024597D01*
X005700Y024438D02*
X005660Y024438D01*
X005297Y024438D02*
X005035Y024438D01*
X005156Y024597D02*
X005183Y024597D01*
X005155Y025072D02*
X005185Y025072D01*
X005300Y025231D02*
X005032Y025231D01*
X005660Y025231D02*
X005700Y025231D01*
X006177Y024597D02*
X006204Y024597D01*
X006325Y024438D02*
X006063Y024438D01*
X004328Y025231D02*
X004032Y025231D01*
X004155Y025072D02*
X004205Y025072D01*
X003021Y025548D02*
X030016Y025548D01*
X030088Y025706D02*
X002949Y025706D01*
X002858Y025865D02*
X030179Y025865D01*
X030316Y026023D02*
X002721Y026023D01*
X002551Y026182D02*
X030486Y026182D01*
X030760Y026340D02*
X002277Y026340D01*
X000499Y024597D02*
X000460Y024597D01*
X000460Y024438D02*
X000584Y024438D01*
X000676Y024280D02*
X000460Y024280D01*
X000460Y024121D02*
X000830Y024121D01*
X001030Y023963D02*
X000460Y023963D01*
X011430Y020833D02*
X013180Y020833D01*
X012950Y021110D02*
X011660Y021110D01*
X011571Y017781D02*
X012624Y017781D01*
X012572Y017623D02*
X011730Y017623D01*
X011888Y017464D02*
X012592Y017464D01*
X012701Y017306D02*
X012047Y017306D01*
X012205Y017147D02*
X017527Y017147D01*
X017582Y016989D02*
X012364Y016989D01*
X012522Y016830D02*
X017677Y016830D01*
X017930Y017083D02*
X017430Y017583D01*
X012930Y017583D01*
X013159Y017306D02*
X017368Y017306D01*
X017730Y017623D02*
X019940Y017623D01*
X019940Y017781D02*
X017571Y017781D01*
X017888Y017464D02*
X019940Y017464D01*
X019940Y017306D02*
X018214Y017306D01*
X018288Y017147D02*
X019940Y017147D01*
X019940Y016989D02*
X018278Y016989D01*
X018183Y016830D02*
X019940Y016830D01*
X019940Y016672D02*
X012681Y016672D01*
X012839Y016513D02*
X019940Y016513D01*
X019940Y016355D02*
X012998Y016355D01*
X013156Y016196D02*
X019839Y016196D01*
X019822Y016038D02*
X013315Y016038D01*
X013473Y015879D02*
X019878Y015879D01*
X017411Y011441D02*
X032577Y011441D01*
X032577Y011283D02*
X017570Y011283D01*
X017728Y011124D02*
X032577Y011124D01*
X032577Y011600D02*
X013253Y011600D01*
X013094Y011758D02*
X032577Y011758D01*
X032577Y011917D02*
X012936Y011917D01*
X012777Y012075D02*
X032577Y012075D01*
X025851Y008271D02*
X020259Y008271D01*
X020401Y008113D02*
X025709Y008113D01*
X025643Y007954D02*
X020467Y007954D01*
X020472Y007796D02*
X025638Y007796D01*
X025674Y007637D02*
X020436Y007637D01*
X020343Y007479D02*
X025767Y007479D01*
X024598Y006211D02*
X027762Y006211D01*
X027660Y006052D02*
X024700Y006052D01*
X024740Y005894D02*
X027620Y005894D01*
X027626Y005735D02*
X024734Y005735D01*
X024729Y005702D02*
X024742Y005786D01*
X024228Y005786D01*
X024228Y005271D01*
X024312Y005285D01*
X024396Y005312D01*
X024475Y005352D01*
X024546Y005404D01*
X024609Y005467D01*
X024661Y005539D01*
X024701Y005617D01*
X024729Y005702D01*
X024681Y005577D02*
X027679Y005577D01*
X027800Y005418D02*
X024560Y005418D01*
X024228Y005418D02*
X024132Y005418D01*
X024132Y005577D02*
X024228Y005577D01*
X024228Y005735D02*
X024132Y005735D01*
X024132Y005894D02*
X024228Y005894D01*
X024228Y006052D02*
X024132Y006052D01*
X024132Y006211D02*
X024228Y006211D01*
X023762Y006211D02*
X022348Y006211D01*
X022450Y006052D02*
X023660Y006052D01*
X023620Y005894D02*
X022490Y005894D01*
X022492Y005786D02*
X021978Y005786D01*
X021978Y005271D01*
X022062Y005285D01*
X022146Y005312D01*
X022225Y005352D01*
X022296Y005404D01*
X022359Y005467D01*
X022411Y005539D01*
X022451Y005617D01*
X022479Y005702D01*
X022492Y005786D01*
X022484Y005735D02*
X023626Y005735D01*
X023679Y005577D02*
X022431Y005577D01*
X022310Y005418D02*
X023800Y005418D01*
X021978Y005418D02*
X021882Y005418D01*
X021882Y005577D02*
X021978Y005577D01*
X021978Y005735D02*
X021882Y005735D01*
X021882Y005894D02*
X021978Y005894D01*
X021978Y006052D02*
X021882Y006052D01*
X021882Y006211D02*
X021978Y006211D01*
X021512Y006211D02*
X018348Y006211D01*
X018450Y006052D02*
X021410Y006052D01*
X021370Y005894D02*
X018490Y005894D01*
X018492Y005786D02*
X017978Y005786D01*
X017978Y005271D01*
X018062Y005285D01*
X018146Y005312D01*
X018225Y005352D01*
X018296Y005404D01*
X018359Y005467D01*
X018411Y005539D01*
X018451Y005617D01*
X018479Y005702D01*
X018492Y005786D01*
X018484Y005735D02*
X021376Y005735D01*
X021429Y005577D02*
X018431Y005577D01*
X018310Y005418D02*
X021550Y005418D01*
X019517Y007479D02*
X013843Y007479D01*
X013936Y007637D02*
X019424Y007637D01*
X019388Y007796D02*
X013972Y007796D01*
X013967Y007954D02*
X019393Y007954D01*
X019459Y008113D02*
X013901Y008113D01*
X013759Y008271D02*
X019601Y008271D01*
X018296Y009404D02*
X018225Y009352D01*
X018146Y009312D01*
X018062Y009285D01*
X017978Y009271D01*
X017978Y009786D01*
X018492Y009786D01*
X018479Y009702D01*
X018451Y009617D01*
X018411Y009539D01*
X018359Y009467D01*
X018296Y009404D01*
X018264Y009381D02*
X021596Y009381D01*
X021448Y009539D02*
X018412Y009539D01*
X018477Y009698D02*
X021383Y009698D01*
X021398Y010015D02*
X018462Y010015D01*
X018378Y010173D02*
X021482Y010173D01*
X021669Y010332D02*
X018191Y010332D01*
X017978Y010332D02*
X017882Y010332D01*
X017882Y010173D02*
X017978Y010173D01*
X017978Y010015D02*
X017882Y010015D01*
X017882Y009698D02*
X017978Y009698D01*
X017978Y009539D02*
X017882Y009539D01*
X017882Y009381D02*
X017978Y009381D01*
X017596Y009381D02*
X017038Y009381D01*
X016980Y009539D02*
X017448Y009539D01*
X016680Y009333D02*
X016680Y010833D01*
X012680Y010833D01*
X009680Y013833D01*
X009262Y013502D02*
X009098Y013502D01*
X008882Y013343D02*
X009478Y013343D01*
X009989Y013185D02*
X000460Y013185D01*
X000460Y013343D02*
X003478Y013343D01*
X003262Y013502D02*
X000460Y013502D01*
X000460Y013660D02*
X003178Y013660D01*
X003150Y013819D02*
X000460Y013819D01*
X000460Y013977D02*
X003166Y013977D01*
X003233Y014136D02*
X000460Y014136D01*
X000460Y014294D02*
X003408Y014294D01*
X003952Y014294D02*
X004408Y014294D01*
X004233Y014136D02*
X004127Y014136D01*
X004098Y013502D02*
X004262Y013502D01*
X004478Y013343D02*
X003882Y013343D01*
X004882Y013343D02*
X005478Y013343D01*
X005262Y013502D02*
X005098Y013502D01*
X005127Y014136D02*
X005233Y014136D01*
X005408Y014294D02*
X004952Y014294D01*
X005952Y014294D02*
X006408Y014294D01*
X006233Y014136D02*
X006127Y014136D01*
X006098Y013502D02*
X006262Y013502D01*
X006478Y013343D02*
X005882Y013343D01*
X006882Y013343D02*
X007478Y013343D01*
X007262Y013502D02*
X007098Y013502D01*
X007127Y014136D02*
X007233Y014136D01*
X007408Y014294D02*
X006952Y014294D01*
X007952Y014294D02*
X008408Y014294D01*
X008233Y014136D02*
X008127Y014136D01*
X008098Y013502D02*
X008262Y013502D01*
X008478Y013343D02*
X007882Y013343D01*
X008952Y014294D02*
X009408Y014294D01*
X009233Y014136D02*
X009127Y014136D01*
X010148Y013026D02*
X000460Y013026D01*
X000460Y012868D02*
X010306Y012868D01*
X010465Y012709D02*
X000460Y012709D01*
X000460Y012551D02*
X010623Y012551D01*
X010782Y012392D02*
X000460Y012392D01*
X000460Y012234D02*
X010940Y012234D01*
X011099Y012075D02*
X000460Y012075D01*
X000460Y011917D02*
X011257Y011917D01*
X011416Y011758D02*
X000460Y011758D01*
X000460Y011600D02*
X011574Y011600D01*
X011733Y011441D02*
X000460Y011441D01*
X000460Y011283D02*
X011891Y011283D01*
X012050Y011124D02*
X000460Y011124D01*
X000460Y010966D02*
X012208Y010966D01*
X012367Y010807D02*
X000460Y010807D01*
X000460Y010649D02*
X012525Y010649D01*
X011878Y010173D02*
X014982Y010173D01*
X015001Y010200D02*
X014949Y010128D01*
X014909Y010049D01*
X014881Y009965D01*
X014868Y009881D01*
X015382Y009881D01*
X015382Y009786D01*
X014868Y009786D01*
X014881Y009702D01*
X014909Y009617D01*
X014949Y009539D01*
X015001Y009467D01*
X015064Y009404D01*
X015135Y009352D01*
X015214Y009312D01*
X015298Y009285D01*
X015382Y009271D01*
X015382Y009786D01*
X015478Y009786D01*
X015478Y009881D01*
X015992Y009881D01*
X015979Y009965D01*
X015951Y010049D01*
X015911Y010128D01*
X015859Y010200D01*
X015796Y010262D01*
X015725Y010314D01*
X015646Y010355D01*
X015562Y010382D01*
X015478Y010395D01*
X015478Y009881D01*
X015382Y009881D01*
X015382Y010395D01*
X015298Y010382D01*
X015214Y010355D01*
X015135Y010314D01*
X015064Y010262D01*
X015001Y010200D01*
X014898Y010015D02*
X011962Y010015D01*
X011951Y010049D02*
X011911Y010128D01*
X011859Y010200D01*
X011796Y010262D01*
X011725Y010314D01*
X011646Y010355D01*
X011562Y010382D01*
X011478Y010395D01*
X011478Y009881D01*
X011992Y009881D01*
X011979Y009965D01*
X011951Y010049D01*
X011992Y009786D02*
X011478Y009786D01*
X011478Y009881D01*
X011382Y009881D01*
X011382Y009786D01*
X010868Y009786D01*
X010881Y009702D01*
X010909Y009617D01*
X010949Y009539D01*
X011001Y009467D01*
X011064Y009404D01*
X011135Y009352D01*
X011214Y009312D01*
X011298Y009285D01*
X011382Y009271D01*
X011382Y009786D01*
X011478Y009786D01*
X011478Y009271D01*
X011562Y009285D01*
X011646Y009312D01*
X011725Y009352D01*
X011796Y009404D01*
X011859Y009467D01*
X011911Y009539D01*
X011951Y009617D01*
X011979Y009702D01*
X011992Y009786D01*
X011977Y009698D02*
X014883Y009698D01*
X014948Y009539D02*
X011912Y009539D01*
X011764Y009381D02*
X015096Y009381D01*
X015382Y009381D02*
X015478Y009381D01*
X015478Y009271D02*
X015562Y009285D01*
X015646Y009312D01*
X015725Y009352D01*
X015796Y009404D01*
X015859Y009467D01*
X015911Y009539D01*
X015951Y009617D01*
X015979Y009702D01*
X015992Y009786D01*
X015478Y009786D01*
X015478Y009271D01*
X015478Y009539D02*
X015382Y009539D01*
X015382Y009698D02*
X015478Y009698D01*
X015478Y009856D02*
X016440Y009856D01*
X016440Y009698D02*
X015977Y009698D01*
X015912Y009539D02*
X016380Y009539D01*
X016322Y009381D02*
X015764Y009381D01*
X015382Y009856D02*
X011478Y009856D01*
X011382Y009856D02*
X008978Y009856D01*
X008978Y009881D02*
X009492Y009881D01*
X009479Y009965D01*
X009451Y010049D01*
X009411Y010128D01*
X009359Y010200D01*
X009296Y010262D01*
X009225Y010314D01*
X009146Y010355D01*
X009062Y010382D01*
X008978Y010395D01*
X008978Y009881D01*
X008978Y009786D01*
X009492Y009786D01*
X009479Y009702D01*
X009451Y009617D01*
X009411Y009539D01*
X009359Y009467D01*
X009296Y009404D01*
X009225Y009352D01*
X009146Y009312D01*
X009062Y009285D01*
X008978Y009271D01*
X008978Y009786D01*
X008882Y009786D01*
X008368Y009786D01*
X008381Y009702D01*
X008409Y009617D01*
X008449Y009539D01*
X008501Y009467D01*
X008564Y009404D01*
X008635Y009352D01*
X008714Y009312D01*
X008798Y009285D01*
X008882Y009271D01*
X008882Y009786D01*
X008882Y009881D01*
X008368Y009881D01*
X008381Y009965D01*
X008409Y010049D01*
X008449Y010128D01*
X008501Y010200D01*
X008564Y010262D01*
X008635Y010314D01*
X008714Y010355D01*
X008798Y010382D01*
X008882Y010395D01*
X008882Y009881D01*
X008978Y009881D01*
X008882Y009856D02*
X004978Y009856D01*
X004978Y009881D02*
X005492Y009881D01*
X005479Y009965D01*
X005451Y010049D01*
X005411Y010128D01*
X005359Y010200D01*
X005296Y010262D01*
X005225Y010314D01*
X005146Y010355D01*
X005062Y010382D01*
X004978Y010395D01*
X004978Y009881D01*
X004978Y009786D01*
X005492Y009786D01*
X005479Y009702D01*
X005451Y009617D01*
X005411Y009539D01*
X005359Y009467D01*
X005296Y009404D01*
X005225Y009352D01*
X005146Y009312D01*
X005062Y009285D01*
X004978Y009271D01*
X004978Y009786D01*
X004882Y009786D01*
X004368Y009786D01*
X004381Y009702D01*
X004409Y009617D01*
X004449Y009539D01*
X004501Y009467D01*
X004564Y009404D01*
X004635Y009352D01*
X004714Y009312D01*
X004798Y009285D01*
X004882Y009271D01*
X004882Y009786D01*
X004882Y009881D01*
X004368Y009881D01*
X004381Y009965D01*
X004409Y010049D01*
X004449Y010128D01*
X004501Y010200D01*
X004564Y010262D01*
X004635Y010314D01*
X004714Y010355D01*
X004798Y010382D01*
X004882Y010395D01*
X004882Y009881D01*
X004978Y009881D01*
X004882Y009856D02*
X000460Y009856D01*
X000460Y009698D02*
X004383Y009698D01*
X004448Y009539D02*
X000460Y009539D01*
X000460Y009381D02*
X004596Y009381D01*
X004882Y009381D02*
X004978Y009381D01*
X004978Y009539D02*
X004882Y009539D01*
X004882Y009698D02*
X004978Y009698D01*
X004978Y010015D02*
X004882Y010015D01*
X004882Y010173D02*
X004978Y010173D01*
X004978Y010332D02*
X004882Y010332D01*
X004669Y010332D02*
X000460Y010332D01*
X000460Y010490D02*
X016440Y010490D01*
X016440Y010332D02*
X015691Y010332D01*
X015478Y010332D02*
X015382Y010332D01*
X015382Y010173D02*
X015478Y010173D01*
X015478Y010015D02*
X015382Y010015D01*
X015169Y010332D02*
X011691Y010332D01*
X011478Y010332D02*
X011382Y010332D01*
X011382Y010395D02*
X011298Y010382D01*
X011214Y010355D01*
X011135Y010314D01*
X011064Y010262D01*
X011001Y010200D01*
X010949Y010128D01*
X010909Y010049D01*
X010881Y009965D01*
X010868Y009881D01*
X011382Y009881D01*
X011382Y010395D01*
X011382Y010173D02*
X011478Y010173D01*
X011478Y010015D02*
X011382Y010015D01*
X011382Y009698D02*
X011478Y009698D01*
X011478Y009539D02*
X011382Y009539D01*
X011382Y009381D02*
X011478Y009381D01*
X011096Y009381D02*
X009264Y009381D01*
X009412Y009539D02*
X010948Y009539D01*
X010883Y009698D02*
X009477Y009698D01*
X009462Y010015D02*
X010898Y010015D01*
X010982Y010173D02*
X009378Y010173D01*
X009191Y010332D02*
X011169Y010332D01*
X012411Y011441D02*
X012733Y011441D01*
X012891Y011283D02*
X012570Y011283D01*
X012728Y011124D02*
X013057Y011124D01*
X012977Y011197D02*
X012977Y011197D01*
X012574Y011600D02*
X012253Y011600D01*
X012094Y011758D02*
X012416Y011758D01*
X012257Y011917D02*
X011936Y011917D01*
X011777Y012075D02*
X012099Y012075D01*
X011940Y012234D02*
X011619Y012234D01*
X011460Y012392D02*
X011782Y012392D01*
X011623Y012551D02*
X011302Y012551D01*
X011143Y012709D02*
X011465Y012709D01*
X011306Y012868D02*
X010985Y012868D01*
X010826Y013026D02*
X011148Y013026D01*
X010989Y013185D02*
X010668Y013185D01*
X012882Y013343D02*
X013478Y013343D01*
X013262Y013502D02*
X013098Y013502D01*
X013127Y014136D02*
X013233Y014136D01*
X013408Y014294D02*
X012952Y014294D01*
X016885Y010966D02*
X017208Y010966D01*
X017367Y010807D02*
X016920Y010807D01*
X016920Y010649D02*
X017525Y010649D01*
X017477Y010697D02*
X017477Y010697D01*
X016440Y010173D02*
X015878Y010173D01*
X015962Y010015D02*
X016440Y010015D01*
X016338Y009222D02*
X000460Y009222D01*
X000460Y009064D02*
X016443Y009064D01*
X015848Y006211D02*
X017512Y006211D01*
X017410Y006052D02*
X015950Y006052D01*
X015990Y005894D02*
X017370Y005894D01*
X017376Y005735D02*
X015984Y005735D01*
X015979Y005702D02*
X015992Y005786D01*
X015478Y005786D01*
X015478Y005271D01*
X015562Y005285D01*
X015646Y005312D01*
X015725Y005352D01*
X015796Y005404D01*
X015859Y005467D01*
X015911Y005539D01*
X015951Y005617D01*
X015979Y005702D01*
X015931Y005577D02*
X017429Y005577D01*
X017550Y005418D02*
X015810Y005418D01*
X015478Y005418D02*
X015382Y005418D01*
X015382Y005577D02*
X015478Y005577D01*
X015478Y005735D02*
X015382Y005735D01*
X015382Y005894D02*
X015478Y005894D01*
X015478Y006052D02*
X015382Y006052D01*
X015382Y006211D02*
X015478Y006211D01*
X015012Y006211D02*
X011848Y006211D01*
X011950Y006052D02*
X014910Y006052D01*
X014870Y005894D02*
X011990Y005894D01*
X011992Y005786D02*
X011478Y005786D01*
X011478Y005271D01*
X011562Y005285D01*
X011646Y005312D01*
X011725Y005352D01*
X011796Y005404D01*
X011859Y005467D01*
X011911Y005539D01*
X011951Y005617D01*
X011979Y005702D01*
X011992Y005786D01*
X011984Y005735D02*
X014876Y005735D01*
X014929Y005577D02*
X011931Y005577D01*
X011810Y005418D02*
X015050Y005418D01*
X013017Y007479D02*
X007343Y007479D01*
X007436Y007637D02*
X012924Y007637D01*
X012888Y007796D02*
X007472Y007796D01*
X007467Y007954D02*
X012893Y007954D01*
X012959Y008113D02*
X007401Y008113D01*
X007259Y008271D02*
X013101Y008271D01*
X011478Y006211D02*
X011382Y006211D01*
X011382Y006052D02*
X011478Y006052D01*
X011478Y005894D02*
X011382Y005894D01*
X011382Y005735D02*
X011478Y005735D01*
X011478Y005577D02*
X011382Y005577D01*
X011382Y005418D02*
X011478Y005418D01*
X011050Y005418D02*
X009310Y005418D01*
X009296Y005404D02*
X009359Y005467D01*
X009411Y005539D01*
X009451Y005617D01*
X009479Y005702D01*
X009492Y005786D01*
X008978Y005786D01*
X008978Y005271D01*
X009062Y005285D01*
X009146Y005312D01*
X009225Y005352D01*
X009296Y005404D01*
X009431Y005577D02*
X010929Y005577D01*
X010876Y005735D02*
X009484Y005735D01*
X009490Y005894D02*
X010870Y005894D01*
X010910Y006052D02*
X009450Y006052D01*
X009348Y006211D02*
X011012Y006211D01*
X008978Y006211D02*
X008882Y006211D01*
X008882Y006052D02*
X008978Y006052D01*
X008978Y005894D02*
X008882Y005894D01*
X008882Y005735D02*
X008978Y005735D01*
X008978Y005577D02*
X008882Y005577D01*
X008882Y005418D02*
X008978Y005418D01*
X008550Y005418D02*
X005310Y005418D01*
X005296Y005404D02*
X005359Y005467D01*
X005411Y005539D01*
X005451Y005617D01*
X005479Y005702D01*
X005492Y005786D01*
X004978Y005786D01*
X004978Y005271D01*
X005062Y005285D01*
X005146Y005312D01*
X005225Y005352D01*
X005296Y005404D01*
X005431Y005577D02*
X008429Y005577D01*
X008376Y005735D02*
X005484Y005735D01*
X005490Y005894D02*
X008370Y005894D01*
X008410Y006052D02*
X005450Y006052D01*
X005348Y006211D02*
X008512Y006211D01*
X006517Y007479D02*
X000460Y007479D01*
X000460Y007637D02*
X006424Y007637D01*
X006388Y007796D02*
X000460Y007796D01*
X000460Y007954D02*
X006393Y007954D01*
X006459Y008113D02*
X000460Y008113D01*
X000460Y008271D02*
X006601Y008271D01*
X005264Y009381D02*
X008596Y009381D01*
X008448Y009539D02*
X005412Y009539D01*
X005477Y009698D02*
X008383Y009698D01*
X008398Y010015D02*
X005462Y010015D01*
X005378Y010173D02*
X008482Y010173D01*
X008669Y010332D02*
X005191Y010332D01*
X004482Y010173D02*
X000460Y010173D01*
X000460Y010015D02*
X004398Y010015D01*
X008882Y010015D02*
X008978Y010015D01*
X008978Y010173D02*
X008882Y010173D01*
X008882Y010332D02*
X008978Y010332D01*
X008978Y009698D02*
X008882Y009698D01*
X008882Y009539D02*
X008978Y009539D01*
X008978Y009381D02*
X008882Y009381D01*
X004978Y006211D02*
X004882Y006211D01*
X004882Y006052D02*
X004978Y006052D01*
X004978Y005894D02*
X004882Y005894D01*
X004882Y005735D02*
X004978Y005735D01*
X004978Y005577D02*
X004882Y005577D01*
X004882Y005418D02*
X004978Y005418D01*
X001343Y006686D02*
X000460Y006686D01*
X000460Y006528D02*
X001012Y006528D01*
X000819Y006369D02*
X000460Y006369D01*
X000460Y006211D02*
X000670Y006211D01*
X000578Y006052D02*
X000460Y006052D01*
X000460Y005894D02*
X000497Y005894D01*
X017882Y005894D02*
X017978Y005894D01*
X017978Y006052D02*
X017882Y006052D01*
X017882Y006211D02*
X017978Y006211D01*
X017978Y005735D02*
X017882Y005735D01*
X017882Y005577D02*
X017978Y005577D01*
X017978Y005418D02*
X017882Y005418D01*
X021882Y009381D02*
X021978Y009381D01*
X021978Y009539D02*
X021882Y009539D01*
X021882Y009698D02*
X021978Y009698D01*
X021978Y010015D02*
X021882Y010015D01*
X021882Y010173D02*
X021978Y010173D01*
X021978Y010332D02*
X021882Y010332D01*
X028132Y006211D02*
X028228Y006211D01*
X028228Y006052D02*
X028132Y006052D01*
X028132Y005894D02*
X028228Y005894D01*
X028228Y005735D02*
X028132Y005735D01*
X028132Y005577D02*
X028228Y005577D01*
X028228Y005418D02*
X028132Y005418D01*
X022847Y022219D02*
X022811Y022219D01*
X022962Y022378D02*
X022652Y022378D01*
X022494Y022536D02*
X023120Y022536D01*
X018325Y024438D02*
X018035Y024438D01*
X018156Y024597D02*
X018204Y024597D01*
X018205Y025072D02*
X018155Y025072D01*
X018032Y025231D02*
X018328Y025231D01*
X031654Y023804D02*
X032577Y023804D01*
X032577Y023963D02*
X032007Y023963D01*
X032207Y024121D02*
X032577Y024121D01*
X032577Y024280D02*
X032361Y024280D01*
X032453Y024438D02*
X032577Y024438D01*
X032577Y024597D02*
X032538Y024597D01*
D15*
X026180Y021333D03*
X026430Y016083D03*
X020180Y016083D03*
X019180Y018083D03*
X017930Y017083D03*
X012930Y017583D03*
X013180Y020833D03*
X012680Y021833D03*
X011430Y020833D03*
X017680Y021333D03*
X018680Y022333D03*
X019930Y023333D03*
X002930Y017583D03*
X016680Y009333D03*
X023180Y009333D03*
D16*
X031282Y025093D03*
X001755Y025093D03*
X001755Y005408D03*
D17*
X031282Y005408D03*
M02*
