%
M48
M72
T01C0.0236
T02C0.0400
T03C0.0472
T04C0.0510
T05C0.1260
%
T01
X16680Y9333
X23180Y9333
X20180Y16083
X19180Y18083
X17930Y17083
X12930Y17583
X13180Y20833
X12680Y21833
X11430Y20833
X17680Y21333
X18680Y22333
X19930Y23333
X26180Y21333
X26430Y16083
X2930Y17583
T02
X3680Y13833
X4680Y13833
X5680Y13833
X6680Y13833
X7680Y13833
X8680Y13833
X9680Y13833
X10680Y13833
X11680Y13833
X12680Y13833
X13680Y13833
X14680Y13833
X15680Y13833
X16680Y13833
X17680Y13833
X18680Y13833
X26180Y18333
X26180Y23833
X18680Y24833
X17680Y24833
X16680Y24833
X15680Y24833
X14680Y24833
X13680Y24833
X12680Y24833
X11680Y24833
X10680Y24833
X9680Y24833
X8680Y24833
X7680Y24833
X6680Y24833
X5680Y24833
X4680Y24833
X3680Y24833
T03
X22546Y21757
X23314Y22003
X22546Y20910
X23314Y20664
X29046Y20910
X29814Y20664
X29046Y21757
X29814Y22003
T04
X31680Y16833
X29680Y14833
X27680Y16833
X25180Y16833
X23180Y14833
X21180Y16833
X21180Y12833
X21930Y9833
X24180Y9833
X26180Y7833
X28180Y9833
X27680Y12833
X25180Y12833
X19930Y7833
X17930Y9833
X15430Y9833
X13430Y7833
X11430Y9833
X8930Y9833
X6930Y7833
X4930Y9833
X4930Y5833
X8930Y5833
X11430Y5833
X15430Y5833
X17930Y5833
X21930Y5833
X24180Y5833
X28180Y5833
X31680Y12833
T05
X1755Y5408
X1755Y25093
X31282Y25093
X31282Y5408
M30
