G75*
%MOIN*%
%OFA0B0*%
%FSLAX24Y24*%
%IPPOS*%
%LPD*%
%AMOC8*
5,1,8,0,0,1.08239X$1,22.5*
%
%ADD10R,0.0425X0.0413*%
%ADD11R,0.0394X0.0551*%
%ADD12R,0.0433X0.0394*%
%ADD13R,0.0630X0.0709*%
%ADD14R,0.0472X0.0236*%
%ADD15R,0.0394X0.0433*%
%ADD16R,0.0413X0.0425*%
%ADD17R,0.0551X0.0394*%
%ADD18R,0.0220X0.0520*%
%ADD19R,0.0630X0.1575*%
%ADD20R,0.0390X0.0520*%
%ADD21R,0.0630X0.0315*%
%ADD22R,0.1181X0.0827*%
D10*
X005680Y010864D03*
X005680Y011553D03*
X012180Y011553D03*
X012180Y010864D03*
D11*
X010554Y010400D03*
X009806Y010400D03*
X010180Y011266D03*
X009806Y009266D03*
X010554Y009266D03*
X010180Y008400D03*
D12*
X009845Y007583D03*
X010515Y007583D03*
X008055Y010874D03*
X008055Y011543D03*
X006930Y011543D03*
X006930Y010874D03*
X013430Y010874D03*
X013430Y011543D03*
X014555Y011543D03*
X014555Y010874D03*
X016680Y008418D03*
X016680Y007749D03*
X023180Y007749D03*
X023180Y008418D03*
X020180Y014749D03*
X020180Y015418D03*
X018930Y016499D03*
X018930Y017168D03*
X015265Y015833D03*
X014595Y015833D03*
X014180Y016999D03*
X014180Y017668D03*
X013930Y021249D03*
X013930Y021918D03*
X018680Y021418D03*
X018680Y020749D03*
X026430Y015418D03*
X026430Y014749D03*
X002015Y017583D03*
X001345Y017583D03*
D13*
X001129Y013583D03*
X002231Y013583D03*
X002231Y012083D03*
X001129Y012083D03*
D14*
X015166Y016959D03*
X015166Y017707D03*
X016194Y017707D03*
X016194Y017333D03*
X016194Y016959D03*
X015944Y021209D03*
X015944Y021583D03*
X015944Y021957D03*
X014916Y021957D03*
X014916Y021209D03*
D15*
X017095Y022083D03*
X017765Y022083D03*
X016265Y023083D03*
X015595Y023083D03*
X014765Y023083D03*
X014095Y023083D03*
X017345Y020083D03*
X018015Y020083D03*
X016515Y018833D03*
X015845Y018833D03*
X015015Y018833D03*
X014345Y018833D03*
X017345Y017833D03*
X018015Y017833D03*
X018265Y015833D03*
X017595Y015833D03*
D16*
X016774Y015833D03*
X016086Y015833D03*
X015836Y020083D03*
X016524Y020083D03*
X015024Y020083D03*
X014336Y020083D03*
D17*
X020247Y018957D03*
X020247Y018209D03*
X021113Y018583D03*
X020247Y023959D03*
X020247Y024707D03*
X021113Y024333D03*
D18*
X002054Y016053D03*
X001680Y016053D03*
X001306Y016053D03*
X001306Y015113D03*
X002054Y015113D03*
D19*
X002180Y007883D03*
X002180Y010284D03*
X030930Y010284D03*
X030930Y007883D03*
D20*
X010550Y006483D03*
X009810Y006483D03*
X010180Y005683D03*
D21*
X002363Y020099D03*
X002363Y020591D03*
X002363Y021083D03*
X002363Y021575D03*
X002363Y022068D03*
D22*
X001221Y023072D03*
X001221Y019095D03*
M02*
