G75*
%MOIN*%
%OFA0B0*%
%FSLAX24Y24*%
%IPPOS*%
%LPD*%
%AMOC8*
5,1,8,0,0,1.08239X$1,22.5*
%
%ADD10C,0.0709*%
%ADD11C,0.0765*%
%ADD12R,0.0425X0.0413*%
%ADD13R,0.0394X0.0551*%
%ADD14R,0.0433X0.0394*%
%ADD15C,0.0740*%
%ADD16R,0.0630X0.0709*%
%ADD17R,0.0472X0.0236*%
%ADD18R,0.0394X0.0433*%
%ADD19R,0.0413X0.0425*%
%ADD20R,0.0551X0.0394*%
%ADD21R,0.0220X0.0520*%
%ADD22R,0.0630X0.1575*%
%ADD23OC8,0.0760*%
%ADD24R,0.0390X0.0520*%
%ADD25R,0.0630X0.0315*%
%ADD26R,0.1181X0.0827*%
%ADD27C,0.0160*%
%ADD28C,0.0396*%
%ADD29C,0.2362*%
%ADD30C,0.2540*%
%ADD31C,0.0100*%
D10*
X023314Y020664D02*
X023815Y020163D01*
X022546Y020910D02*
X022045Y020409D01*
X022546Y021757D02*
X022045Y022258D01*
X023314Y022003D02*
X023815Y022504D01*
X028545Y022258D02*
X029046Y021757D01*
X029814Y022003D02*
X030315Y022504D01*
X029046Y020910D02*
X028545Y020409D01*
X029814Y020664D02*
X030315Y020163D01*
D11*
X031680Y016833D03*
X029680Y014833D03*
X027680Y016833D03*
X025180Y016833D03*
X023180Y014833D03*
X021180Y016833D03*
X021180Y012833D03*
X021930Y009833D03*
X024180Y009833D03*
X026180Y007833D03*
X028180Y009833D03*
X027680Y012833D03*
X025180Y012833D03*
X019930Y007833D03*
X017930Y009833D03*
X015430Y009833D03*
X013430Y007833D03*
X011430Y009833D03*
X008930Y009833D03*
X006930Y007833D03*
X004930Y009833D03*
X004930Y005833D03*
X008930Y005833D03*
X011430Y005833D03*
X015430Y005833D03*
X017930Y005833D03*
X021930Y005833D03*
X024180Y005833D03*
X028180Y005833D03*
X031680Y012833D03*
D12*
X012180Y011553D03*
X012180Y010864D03*
X005680Y010864D03*
X005680Y011553D03*
D13*
X009806Y010400D03*
X010554Y010400D03*
X010180Y011266D03*
X009806Y009266D03*
X010554Y009266D03*
X010180Y008400D03*
D14*
X009845Y007583D03*
X010515Y007583D03*
X008055Y010874D03*
X008055Y011543D03*
X006930Y011543D03*
X006930Y010874D03*
X013430Y010874D03*
X013430Y011543D03*
X014555Y011543D03*
X014555Y010874D03*
X016680Y008418D03*
X016680Y007749D03*
X023180Y007749D03*
X023180Y008418D03*
X020180Y014749D03*
X020180Y015418D03*
X018930Y016499D03*
X018930Y017168D03*
X015265Y015833D03*
X014595Y015833D03*
X014180Y016999D03*
X014180Y017668D03*
X013930Y021249D03*
X013930Y021918D03*
X018680Y021418D03*
X018680Y020749D03*
X026430Y015418D03*
X026430Y014749D03*
X002015Y017583D03*
X001345Y017583D03*
D15*
X003680Y013833D03*
X004680Y013833D03*
X005680Y013833D03*
X006680Y013833D03*
X007680Y013833D03*
X008680Y013833D03*
X009680Y013833D03*
X010680Y013833D03*
X011680Y013833D03*
X012680Y013833D03*
X013680Y013833D03*
X014680Y013833D03*
X015680Y013833D03*
X016680Y013833D03*
X017680Y013833D03*
X018680Y013833D03*
X018680Y024833D03*
X017680Y024833D03*
X016680Y024833D03*
X015680Y024833D03*
X014680Y024833D03*
X013680Y024833D03*
X012680Y024833D03*
X011680Y024833D03*
X010680Y024833D03*
X009680Y024833D03*
X008680Y024833D03*
X007680Y024833D03*
X006680Y024833D03*
X005680Y024833D03*
X004680Y024833D03*
X003680Y024833D03*
D16*
X002231Y013583D03*
X001129Y013583D03*
X001129Y012083D03*
X002231Y012083D03*
D17*
X015166Y016959D03*
X015166Y017707D03*
X016194Y017707D03*
X016194Y017333D03*
X016194Y016959D03*
X015944Y021209D03*
X015944Y021583D03*
X015944Y021957D03*
X014916Y021957D03*
X014916Y021209D03*
D18*
X017095Y022083D03*
X017765Y022083D03*
X016265Y023083D03*
X015595Y023083D03*
X014765Y023083D03*
X014095Y023083D03*
X017345Y020083D03*
X018015Y020083D03*
X016515Y018833D03*
X015845Y018833D03*
X015015Y018833D03*
X014345Y018833D03*
X017345Y017833D03*
X018015Y017833D03*
X018265Y015833D03*
X017595Y015833D03*
D19*
X016774Y015833D03*
X016086Y015833D03*
X015836Y020083D03*
X016524Y020083D03*
X015024Y020083D03*
X014336Y020083D03*
D20*
X020247Y018957D03*
X020247Y018209D03*
X021113Y018583D03*
X020247Y023959D03*
X020247Y024707D03*
X021113Y024333D03*
D21*
X002054Y016053D03*
X001680Y016053D03*
X001306Y016053D03*
X001306Y015113D03*
X002054Y015113D03*
D22*
X002180Y010284D03*
X002180Y007883D03*
X030930Y007883D03*
X030930Y010284D03*
D23*
X026180Y018333D03*
X026180Y023833D03*
D24*
X010550Y006483D03*
X009810Y006483D03*
X010180Y005683D03*
D25*
X002363Y020099D03*
X002363Y020591D03*
X002363Y021083D03*
X002363Y021575D03*
X002363Y022068D03*
D26*
X001221Y023072D03*
X001221Y019095D03*
D27*
X002272Y004158D02*
X002104Y004113D01*
X030665Y004113D01*
X030404Y004264D01*
X030138Y004530D01*
X029950Y004856D01*
X029852Y005220D01*
X029852Y005596D01*
X029950Y005960D01*
X030138Y006286D01*
X030404Y006552D01*
X030730Y006741D01*
X031094Y006838D01*
X031471Y006838D01*
X031834Y006741D01*
X032160Y006552D01*
X032427Y006286D01*
X032577Y006025D01*
X032577Y024744D01*
X032532Y024576D01*
X032356Y024270D01*
X032106Y024020D01*
X031800Y023843D01*
X031459Y023752D01*
X031106Y023752D01*
X030765Y023843D01*
X030459Y024020D01*
X030419Y024060D01*
X030419Y023640D01*
X030376Y023537D01*
X030297Y023458D01*
X030194Y023416D01*
X028666Y023416D01*
X028563Y023458D01*
X028484Y023537D01*
X028441Y023640D01*
X028441Y024066D01*
X028484Y024169D01*
X028563Y024248D01*
X028666Y024290D01*
X028777Y024290D01*
X030083Y024290D01*
X030194Y024290D01*
X030198Y024289D01*
X030033Y024576D01*
X029941Y024917D01*
X029941Y025270D01*
X030033Y025611D01*
X030209Y025917D01*
X030459Y026166D01*
X030765Y026343D01*
X030933Y026388D01*
X002104Y026388D01*
X002272Y026343D01*
X002578Y026166D01*
X002828Y025917D01*
X003005Y025611D01*
X003096Y025270D01*
X003096Y024917D01*
X003005Y024576D01*
X002828Y024270D01*
X002578Y024020D01*
X002272Y023843D01*
X001931Y023752D01*
X001578Y023752D01*
X001237Y023843D01*
X000931Y024020D01*
X000682Y024270D01*
X000505Y024576D01*
X000460Y024744D01*
X000460Y005757D01*
X000505Y005926D01*
X000682Y006232D01*
X000931Y006481D01*
X001237Y006658D01*
X001578Y006749D01*
X001931Y006749D01*
X002272Y006658D01*
X002578Y006481D01*
X002828Y006232D01*
X003005Y005926D01*
X003096Y005585D01*
X003096Y005232D01*
X003005Y004890D01*
X002828Y004585D01*
X002578Y004335D01*
X002272Y004158D01*
X002242Y004150D02*
X030601Y004150D01*
X030359Y004309D02*
X002533Y004309D01*
X002711Y004467D02*
X030201Y004467D01*
X030083Y004626D02*
X029306Y004626D01*
X029316Y004630D02*
X029383Y004697D01*
X029420Y004786D01*
X029420Y008234D01*
X030536Y009350D01*
X030549Y009337D01*
X031311Y009337D01*
X031405Y009430D01*
X031405Y011138D01*
X031311Y011232D01*
X030920Y011232D01*
X030920Y019234D01*
X031316Y019630D01*
X031383Y019697D01*
X031420Y019786D01*
X031420Y020684D01*
X031383Y020772D01*
X030347Y021809D01*
X030751Y022212D01*
X030829Y022401D01*
X030829Y022606D01*
X030751Y022795D01*
X030606Y022940D01*
X030417Y023018D01*
X030213Y023018D01*
X030024Y022940D01*
X029593Y022509D01*
X029066Y023037D01*
X028978Y023073D01*
X024097Y023073D01*
X024009Y023037D01*
X023969Y022997D01*
X023917Y023018D01*
X023713Y023018D01*
X023524Y022940D01*
X022878Y022294D01*
X022836Y022194D01*
X022336Y022694D01*
X022147Y022772D01*
X021943Y022772D01*
X021891Y022751D01*
X021353Y023289D01*
X021353Y023498D01*
X022017Y023498D01*
X022020Y023501D01*
X022063Y023458D01*
X022166Y023416D01*
X023694Y023416D01*
X023797Y023458D01*
X023876Y023537D01*
X023919Y023640D01*
X023919Y024066D01*
X023876Y024169D01*
X023797Y024248D01*
X023694Y024290D01*
X022166Y024290D01*
X022140Y024280D01*
X022140Y025920D01*
X022017Y026043D01*
X020718Y026043D01*
X020680Y026005D01*
X020642Y026043D01*
X019218Y026043D01*
X019095Y025920D01*
X019095Y025168D01*
X018980Y025283D01*
X018785Y025363D01*
X018575Y025363D01*
X018380Y025283D01*
X018231Y025134D01*
X018180Y025011D01*
X018129Y025134D01*
X017980Y025283D01*
X017785Y025363D01*
X017575Y025363D01*
X017380Y025283D01*
X017231Y025134D01*
X017180Y025011D01*
X017129Y025134D01*
X016980Y025283D01*
X016785Y025363D01*
X016575Y025363D01*
X016380Y025283D01*
X016231Y025134D01*
X016180Y025011D01*
X016129Y025134D01*
X015980Y025283D01*
X015785Y025363D01*
X015575Y025363D01*
X015380Y025283D01*
X015231Y025134D01*
X015180Y025011D01*
X015129Y025134D01*
X014980Y025283D01*
X014785Y025363D01*
X014575Y025363D01*
X014380Y025283D01*
X014231Y025134D01*
X014180Y025011D01*
X014129Y025134D01*
X013980Y025283D01*
X013785Y025363D01*
X013575Y025363D01*
X013380Y025283D01*
X013231Y025134D01*
X013180Y025011D01*
X013129Y025134D01*
X012980Y025283D01*
X012785Y025363D01*
X012575Y025363D01*
X012380Y025283D01*
X012231Y025134D01*
X012180Y025011D01*
X012129Y025134D01*
X011980Y025283D01*
X011785Y025363D01*
X011575Y025363D01*
X011380Y025283D01*
X011231Y025134D01*
X011180Y025011D01*
X011129Y025134D01*
X010980Y025283D01*
X010785Y025363D01*
X010575Y025363D01*
X010380Y025283D01*
X010231Y025134D01*
X010180Y025011D01*
X010129Y025134D01*
X009980Y025283D01*
X009785Y025363D01*
X009575Y025363D01*
X009380Y025283D01*
X009231Y025134D01*
X009180Y025011D01*
X009129Y025134D01*
X008980Y025283D01*
X008785Y025363D01*
X008575Y025363D01*
X008380Y025283D01*
X008231Y025134D01*
X008180Y025011D01*
X008129Y025134D01*
X007980Y025283D01*
X007785Y025363D01*
X007575Y025363D01*
X007380Y025283D01*
X007231Y025134D01*
X007180Y025011D01*
X007129Y025134D01*
X006980Y025283D01*
X006785Y025363D01*
X006575Y025363D01*
X006380Y025283D01*
X006231Y025134D01*
X006191Y025039D01*
X006190Y025044D01*
X006150Y025122D01*
X006100Y025192D01*
X006038Y025253D01*
X005968Y025304D01*
X005891Y025343D01*
X005809Y025370D01*
X005723Y025383D01*
X005700Y025383D01*
X005700Y024853D01*
X005660Y024853D01*
X005660Y025383D01*
X005637Y025383D01*
X005551Y025370D01*
X005469Y025343D01*
X005392Y025304D01*
X005322Y025253D01*
X005260Y025192D01*
X005210Y025122D01*
X005170Y025044D01*
X005169Y025039D01*
X005129Y025134D01*
X004980Y025283D01*
X004785Y025363D01*
X004575Y025363D01*
X004380Y025283D01*
X004231Y025134D01*
X004180Y025011D01*
X004129Y025134D01*
X003980Y025283D01*
X003785Y025363D01*
X003575Y025363D01*
X003380Y025283D01*
X003231Y025134D01*
X003150Y024939D01*
X003150Y024728D01*
X003231Y024533D01*
X003380Y024384D01*
X003575Y024303D01*
X003785Y024303D01*
X003980Y024384D01*
X004129Y024533D01*
X004180Y024655D01*
X004231Y024533D01*
X004380Y024384D01*
X004575Y024303D01*
X004785Y024303D01*
X004980Y024384D01*
X005129Y024533D01*
X005169Y024628D01*
X005170Y024622D01*
X005210Y024545D01*
X005260Y024475D01*
X005322Y024414D01*
X005392Y024363D01*
X005469Y024324D01*
X005551Y024297D01*
X005637Y024283D01*
X005660Y024283D01*
X005660Y024813D01*
X005700Y024813D01*
X005700Y024283D01*
X005723Y024283D01*
X005809Y024297D01*
X005891Y024324D01*
X005968Y024363D01*
X006038Y024414D01*
X006100Y024475D01*
X006150Y024545D01*
X006190Y024622D01*
X006191Y024628D01*
X006231Y024533D01*
X006380Y024384D01*
X006575Y024303D01*
X006785Y024303D01*
X006980Y024384D01*
X007129Y024533D01*
X007180Y024655D01*
X007231Y024533D01*
X007380Y024384D01*
X007575Y024303D01*
X007785Y024303D01*
X007980Y024384D01*
X008129Y024533D01*
X008180Y024655D01*
X008231Y024533D01*
X008380Y024384D01*
X008575Y024303D01*
X008785Y024303D01*
X008828Y024321D01*
X006815Y022308D01*
X002822Y022308D01*
X002744Y022385D01*
X001982Y022385D01*
X001888Y022291D01*
X001888Y021844D01*
X001910Y021822D01*
X001888Y021799D01*
X001888Y021352D01*
X001910Y021329D01*
X001888Y021307D01*
X001888Y020860D01*
X001898Y020849D01*
X001880Y020818D01*
X001868Y020772D01*
X001868Y020591D01*
X001868Y020410D01*
X001880Y020364D01*
X001898Y020333D01*
X001888Y020323D01*
X001888Y019875D01*
X001982Y019782D01*
X002123Y019782D01*
X002123Y019433D01*
X002160Y019345D01*
X004506Y016999D01*
X002861Y015353D01*
X002324Y015353D01*
X002324Y015440D01*
X002230Y015533D01*
X001878Y015533D01*
X001784Y015440D01*
X001784Y014787D01*
X001814Y014757D01*
X001814Y014062D01*
X001756Y014004D01*
X001756Y013163D01*
X001850Y013069D01*
X001991Y013069D01*
X001991Y012598D01*
X001850Y012598D01*
X001756Y012504D01*
X001756Y011663D01*
X001850Y011569D01*
X001991Y011569D01*
X001991Y011232D01*
X001799Y011232D01*
X001705Y011138D01*
X001705Y009430D01*
X001799Y009337D01*
X002561Y009337D01*
X002655Y009430D01*
X002655Y009470D01*
X003440Y008685D01*
X003440Y004786D01*
X003477Y004697D01*
X003544Y004630D01*
X003632Y004593D01*
X029228Y004593D01*
X029316Y004630D01*
X029419Y004784D02*
X029991Y004784D01*
X029927Y004943D02*
X029420Y004943D01*
X029420Y005101D02*
X029884Y005101D01*
X029852Y005260D02*
X029420Y005260D01*
X029420Y005418D02*
X029852Y005418D01*
X029852Y005577D02*
X029420Y005577D01*
X029420Y005735D02*
X029890Y005735D01*
X029932Y005894D02*
X029420Y005894D01*
X029420Y006052D02*
X030003Y006052D01*
X030095Y006211D02*
X029420Y006211D01*
X029420Y006369D02*
X030221Y006369D01*
X030380Y006528D02*
X029420Y006528D01*
X029420Y006686D02*
X030636Y006686D01*
X030591Y006915D02*
X030853Y006915D01*
X030853Y007805D01*
X031007Y007805D01*
X031007Y006915D01*
X031269Y006915D01*
X031314Y006927D01*
X031355Y006951D01*
X031389Y006985D01*
X031413Y007026D01*
X031425Y007071D01*
X031425Y007805D01*
X031007Y007805D01*
X031007Y007960D01*
X030853Y007960D01*
X030853Y008850D01*
X030591Y008850D01*
X030546Y008838D01*
X030505Y008814D01*
X030471Y008780D01*
X030447Y008739D01*
X030435Y008694D01*
X030435Y007960D01*
X030853Y007960D01*
X030853Y007805D01*
X030435Y007805D01*
X030435Y007071D01*
X030447Y007026D01*
X030471Y006985D01*
X030505Y006951D01*
X030546Y006927D01*
X030591Y006915D01*
X030460Y007003D02*
X029420Y007003D01*
X029420Y006845D02*
X032577Y006845D01*
X032577Y007003D02*
X031400Y007003D01*
X031425Y007162D02*
X032577Y007162D01*
X032577Y007320D02*
X031425Y007320D01*
X031425Y007479D02*
X032577Y007479D01*
X032577Y007637D02*
X031425Y007637D01*
X031425Y007796D02*
X032577Y007796D01*
X032577Y007954D02*
X031007Y007954D01*
X031007Y007960D02*
X031425Y007960D01*
X031425Y008694D01*
X031413Y008739D01*
X031389Y008780D01*
X031355Y008814D01*
X031314Y008838D01*
X031269Y008850D01*
X031007Y008850D01*
X031007Y007960D01*
X031007Y008113D02*
X030853Y008113D01*
X030853Y008271D02*
X031007Y008271D01*
X031007Y008430D02*
X030853Y008430D01*
X030853Y008588D02*
X031007Y008588D01*
X031007Y008747D02*
X030853Y008747D01*
X030452Y008747D02*
X029933Y008747D01*
X030091Y008905D02*
X032577Y008905D01*
X032577Y008747D02*
X031408Y008747D01*
X031425Y008588D02*
X032577Y008588D01*
X032577Y008430D02*
X031425Y008430D01*
X031425Y008271D02*
X032577Y008271D01*
X032577Y008113D02*
X031425Y008113D01*
X031007Y007796D02*
X030853Y007796D01*
X030853Y007954D02*
X029420Y007954D01*
X029420Y007796D02*
X030435Y007796D01*
X030435Y007637D02*
X029420Y007637D01*
X029420Y007479D02*
X030435Y007479D01*
X030435Y007320D02*
X029420Y007320D01*
X029420Y007162D02*
X030435Y007162D01*
X030853Y007162D02*
X031007Y007162D01*
X031007Y007320D02*
X030853Y007320D01*
X030853Y007479D02*
X031007Y007479D01*
X031007Y007637D02*
X030853Y007637D01*
X030435Y008113D02*
X029420Y008113D01*
X029457Y008271D02*
X030435Y008271D01*
X030435Y008430D02*
X029616Y008430D01*
X029774Y008588D02*
X030435Y008588D01*
X030250Y009064D02*
X032577Y009064D01*
X032577Y009222D02*
X030408Y009222D01*
X030047Y009539D02*
X028662Y009539D01*
X028661Y009539D02*
X028701Y009617D01*
X028729Y009702D01*
X028742Y009786D01*
X028228Y009786D01*
X028228Y009881D01*
X028742Y009881D01*
X028729Y009965D01*
X028701Y010049D01*
X028661Y010128D01*
X028609Y010200D01*
X028546Y010262D01*
X028475Y010314D01*
X028396Y010355D01*
X028312Y010382D01*
X028228Y010395D01*
X028228Y009881D01*
X028132Y009881D01*
X028132Y009786D01*
X027618Y009786D01*
X027631Y009702D01*
X027659Y009617D01*
X027699Y009539D01*
X027751Y009467D01*
X027814Y009404D01*
X027885Y009352D01*
X027964Y009312D01*
X028048Y009285D01*
X028132Y009271D01*
X028132Y009786D01*
X028228Y009786D01*
X028228Y009271D01*
X028312Y009285D01*
X028396Y009312D01*
X028475Y009352D01*
X028546Y009404D01*
X028609Y009467D01*
X028661Y009539D01*
X028727Y009698D02*
X030205Y009698D01*
X030364Y009856D02*
X028228Y009856D01*
X028132Y009856D02*
X024228Y009856D01*
X024228Y009881D02*
X024742Y009881D01*
X024729Y009965D01*
X024701Y010049D01*
X024661Y010128D01*
X024609Y010200D01*
X024546Y010262D01*
X024475Y010314D01*
X024396Y010355D01*
X024312Y010382D01*
X024228Y010395D01*
X024228Y009881D01*
X024228Y009786D01*
X024742Y009786D01*
X024729Y009702D01*
X024701Y009617D01*
X024661Y009539D01*
X024609Y009467D01*
X024546Y009404D01*
X024475Y009352D01*
X024396Y009312D01*
X024312Y009285D01*
X024228Y009271D01*
X024228Y009786D01*
X024132Y009786D01*
X023618Y009786D01*
X023631Y009702D01*
X023659Y009617D01*
X023699Y009539D01*
X023751Y009467D01*
X023814Y009404D01*
X023885Y009352D01*
X023964Y009312D01*
X024048Y009285D01*
X024132Y009271D01*
X024132Y009786D01*
X024132Y009881D01*
X023618Y009881D01*
X023631Y009965D01*
X023659Y010049D01*
X023699Y010128D01*
X023751Y010200D01*
X023814Y010262D01*
X023885Y010314D01*
X023964Y010355D01*
X024048Y010382D01*
X024132Y010395D01*
X024132Y009881D01*
X024228Y009881D01*
X024132Y009856D02*
X021978Y009856D01*
X021978Y009881D02*
X022492Y009881D01*
X022479Y009965D01*
X022451Y010049D01*
X022411Y010128D01*
X022359Y010200D01*
X022296Y010262D01*
X022225Y010314D01*
X022146Y010355D01*
X022062Y010382D01*
X021978Y010395D01*
X021978Y009881D01*
X021978Y009786D01*
X022492Y009786D01*
X022479Y009702D01*
X022451Y009617D01*
X022411Y009539D01*
X022359Y009467D01*
X022296Y009404D01*
X022225Y009352D01*
X022146Y009312D01*
X022062Y009285D01*
X021978Y009271D01*
X021978Y009786D01*
X021882Y009786D01*
X021368Y009786D01*
X021381Y009702D01*
X021409Y009617D01*
X021449Y009539D01*
X021501Y009467D01*
X021564Y009404D01*
X021635Y009352D01*
X021714Y009312D01*
X021798Y009285D01*
X021882Y009271D01*
X021882Y009786D01*
X021882Y009881D01*
X021368Y009881D01*
X021381Y009965D01*
X021409Y010049D01*
X021449Y010128D01*
X021501Y010200D01*
X021564Y010262D01*
X021635Y010314D01*
X021714Y010355D01*
X021798Y010382D01*
X021882Y010395D01*
X021882Y009881D01*
X021978Y009881D01*
X021882Y009856D02*
X017978Y009856D01*
X017978Y009881D02*
X018492Y009881D01*
X018479Y009965D01*
X018451Y010049D01*
X018411Y010128D01*
X018359Y010200D01*
X018296Y010262D01*
X018225Y010314D01*
X018146Y010355D01*
X018062Y010382D01*
X017978Y010395D01*
X017978Y009881D01*
X017978Y009786D01*
X018492Y009786D01*
X018479Y009702D01*
X018451Y009617D01*
X018411Y009539D01*
X018359Y009467D01*
X018296Y009404D01*
X018225Y009352D01*
X018146Y009312D01*
X018062Y009285D01*
X017978Y009271D01*
X017978Y009786D01*
X017882Y009786D01*
X017368Y009786D01*
X017381Y009702D01*
X017409Y009617D01*
X017449Y009539D01*
X017501Y009467D01*
X017564Y009404D01*
X017635Y009352D01*
X017714Y009312D01*
X017798Y009285D01*
X017882Y009271D01*
X017882Y009786D01*
X017882Y009881D01*
X017368Y009881D01*
X017381Y009965D01*
X017409Y010049D01*
X017449Y010128D01*
X017501Y010200D01*
X017564Y010262D01*
X017635Y010314D01*
X017714Y010355D01*
X017798Y010382D01*
X017882Y010395D01*
X017882Y009881D01*
X017978Y009881D01*
X017882Y009856D02*
X015478Y009856D01*
X015478Y009881D02*
X015992Y009881D01*
X015979Y009965D01*
X015951Y010049D01*
X015911Y010128D01*
X015859Y010200D01*
X015796Y010262D01*
X015725Y010314D01*
X015646Y010355D01*
X015562Y010382D01*
X015478Y010395D01*
X015478Y009881D01*
X015478Y009786D01*
X015992Y009786D01*
X015979Y009702D01*
X015951Y009617D01*
X015911Y009539D01*
X015859Y009467D01*
X015796Y009404D01*
X015725Y009352D01*
X015646Y009312D01*
X015562Y009285D01*
X015478Y009271D01*
X015478Y009786D01*
X015382Y009786D01*
X014868Y009786D01*
X014881Y009702D01*
X014909Y009617D01*
X014949Y009539D01*
X015001Y009467D01*
X015064Y009404D01*
X015135Y009352D01*
X015214Y009312D01*
X015298Y009285D01*
X015382Y009271D01*
X015382Y009786D01*
X015382Y009881D01*
X014868Y009881D01*
X014881Y009965D01*
X014909Y010049D01*
X014949Y010128D01*
X015001Y010200D01*
X015064Y010262D01*
X015135Y010314D01*
X015214Y010355D01*
X015298Y010382D01*
X015382Y010395D01*
X015382Y009881D01*
X015478Y009881D01*
X015382Y009856D02*
X013670Y009856D01*
X013670Y009698D02*
X014883Y009698D01*
X014948Y009539D02*
X013670Y009539D01*
X013670Y009381D02*
X015096Y009381D01*
X015382Y009381D02*
X015478Y009381D01*
X015478Y009539D02*
X015382Y009539D01*
X015382Y009698D02*
X015478Y009698D01*
X015478Y010015D02*
X015382Y010015D01*
X015382Y010173D02*
X015478Y010173D01*
X015478Y010332D02*
X015382Y010332D01*
X015169Y010332D02*
X013670Y010332D01*
X013670Y010490D02*
X030455Y010490D01*
X030455Y010332D02*
X028441Y010332D01*
X028228Y010332D02*
X028132Y010332D01*
X028132Y010395D02*
X028048Y010382D01*
X027964Y010355D01*
X027885Y010314D01*
X027814Y010262D01*
X027751Y010200D01*
X027699Y010128D01*
X027659Y010049D01*
X027631Y009965D01*
X027618Y009881D01*
X028132Y009881D01*
X028132Y010395D01*
X028132Y010173D02*
X028228Y010173D01*
X028228Y010015D02*
X028132Y010015D01*
X028132Y009698D02*
X028228Y009698D01*
X028228Y009539D02*
X028132Y009539D01*
X028132Y009381D02*
X028228Y009381D01*
X028514Y009381D02*
X029888Y009381D01*
X029730Y009222D02*
X023522Y009222D01*
X023538Y009262D02*
X023484Y009130D01*
X023420Y009067D01*
X023420Y008775D01*
X023463Y008775D01*
X023557Y008681D01*
X023557Y008155D01*
X023485Y008083D01*
X023557Y008012D01*
X023557Y007989D01*
X025657Y007989D01*
X025720Y008141D01*
X025873Y008293D01*
X026072Y008376D01*
X026288Y008376D01*
X026487Y008293D01*
X026640Y008141D01*
X026722Y007941D01*
X026722Y007725D01*
X026640Y007526D01*
X026487Y007373D01*
X026288Y007291D01*
X026072Y007291D01*
X025873Y007373D01*
X025737Y007509D01*
X023557Y007509D01*
X023557Y007486D01*
X023463Y007392D01*
X022897Y007392D01*
X022803Y007486D01*
X022803Y008012D01*
X022875Y008083D01*
X022803Y008155D01*
X022803Y008681D01*
X022897Y008775D01*
X022940Y008775D01*
X022940Y009067D01*
X022876Y009130D01*
X022822Y009262D01*
X022822Y009405D01*
X022876Y009536D01*
X022977Y009637D01*
X023109Y009691D01*
X023251Y009691D01*
X023383Y009637D01*
X023484Y009536D01*
X023538Y009405D01*
X023538Y009262D01*
X023538Y009381D02*
X023846Y009381D01*
X023698Y009539D02*
X023480Y009539D01*
X023633Y009698D02*
X022477Y009698D01*
X022412Y009539D02*
X022880Y009539D01*
X022822Y009381D02*
X022264Y009381D01*
X021978Y009381D02*
X021882Y009381D01*
X021882Y009539D02*
X021978Y009539D01*
X021978Y009698D02*
X021882Y009698D01*
X021882Y010015D02*
X021978Y010015D01*
X021978Y010173D02*
X021882Y010173D01*
X021882Y010332D02*
X021978Y010332D01*
X022191Y010332D02*
X023919Y010332D01*
X024132Y010332D02*
X024228Y010332D01*
X024228Y010173D02*
X024132Y010173D01*
X024132Y010015D02*
X024228Y010015D01*
X024228Y009698D02*
X024132Y009698D01*
X024132Y009539D02*
X024228Y009539D01*
X024228Y009381D02*
X024132Y009381D01*
X024514Y009381D02*
X027846Y009381D01*
X027698Y009539D02*
X024662Y009539D01*
X024727Y009698D02*
X027633Y009698D01*
X027648Y010015D02*
X024712Y010015D01*
X024628Y010173D02*
X027732Y010173D01*
X027919Y010332D02*
X024441Y010332D01*
X023732Y010173D02*
X022378Y010173D01*
X022462Y010015D02*
X023648Y010015D01*
X023180Y009333D02*
X023180Y008418D01*
X023557Y008430D02*
X028960Y008430D01*
X028977Y008469D02*
X028940Y008381D01*
X028940Y005073D01*
X010420Y005073D01*
X010420Y005263D01*
X010441Y005263D01*
X010535Y005357D01*
X010535Y006010D01*
X010501Y006043D01*
X010532Y006043D01*
X010532Y006466D01*
X010175Y006466D01*
X010175Y006200D01*
X010187Y006154D01*
X010211Y006113D01*
X010220Y006103D01*
X010111Y006103D01*
X010165Y006157D01*
X010165Y006810D01*
X010071Y006903D01*
X010050Y006903D01*
X010050Y007226D01*
X010128Y007226D01*
X010166Y007264D01*
X010188Y007242D01*
X010229Y007219D01*
X010274Y007206D01*
X010496Y007206D01*
X010496Y007565D01*
X010533Y007565D01*
X010533Y007602D01*
X010496Y007602D01*
X010496Y007960D01*
X010274Y007960D01*
X010229Y007948D01*
X010188Y007924D01*
X010166Y007902D01*
X010128Y007940D01*
X010085Y007940D01*
X010085Y007965D01*
X010443Y007965D01*
X010537Y008058D01*
X010537Y008742D01*
X010448Y008831D01*
X010817Y008831D01*
X010911Y008925D01*
X010911Y009264D01*
X010920Y009286D01*
X010920Y009381D01*
X010911Y009403D01*
X010911Y009608D01*
X010817Y009702D01*
X010794Y009702D01*
X010794Y009965D01*
X010817Y009965D01*
X010911Y010058D01*
X010911Y010418D01*
X011806Y011313D01*
X011807Y011313D01*
X011807Y011280D01*
X011867Y011220D01*
X011857Y011215D01*
X011823Y011181D01*
X011800Y011140D01*
X011787Y011094D01*
X011787Y010887D01*
X012157Y010887D01*
X012157Y010840D01*
X012203Y010840D01*
X012203Y010477D01*
X012416Y010477D01*
X012462Y010489D01*
X012503Y010513D01*
X012537Y010547D01*
X012560Y010588D01*
X012573Y010633D01*
X012573Y010840D01*
X012203Y010840D01*
X012203Y010887D01*
X012573Y010887D01*
X012573Y011094D01*
X012560Y011140D01*
X012537Y011181D01*
X012503Y011215D01*
X012493Y011220D01*
X012553Y011280D01*
X012553Y011313D01*
X013053Y011313D01*
X013053Y011280D01*
X013125Y011208D01*
X013053Y011137D01*
X013053Y010611D01*
X013147Y010517D01*
X013190Y010517D01*
X013190Y008321D01*
X013123Y008293D01*
X012970Y008141D01*
X012888Y007941D01*
X012888Y007725D01*
X012970Y007526D01*
X013123Y007373D01*
X013322Y007291D01*
X013538Y007291D01*
X013737Y007373D01*
X013890Y007526D01*
X013972Y007725D01*
X013972Y007941D01*
X013890Y008141D01*
X013737Y008293D01*
X013670Y008321D01*
X013670Y010517D01*
X013713Y010517D01*
X013807Y010611D01*
X013807Y011117D01*
X014102Y010822D01*
X014169Y010755D01*
X014178Y010751D01*
X014178Y010611D01*
X014272Y010517D01*
X014838Y010517D01*
X014932Y010611D01*
X014932Y011137D01*
X014860Y011208D01*
X014932Y011280D01*
X014932Y011806D01*
X014920Y011818D01*
X014920Y013359D01*
X014980Y013384D01*
X015129Y013533D01*
X015180Y013655D01*
X015231Y013533D01*
X015380Y013384D01*
X015575Y013303D01*
X015785Y013303D01*
X015980Y013384D01*
X016129Y013533D01*
X016169Y013628D01*
X016170Y013622D01*
X016210Y013545D01*
X016260Y013475D01*
X016322Y013414D01*
X016392Y013363D01*
X016469Y013324D01*
X016551Y013297D01*
X016637Y013283D01*
X016660Y013283D01*
X016660Y013813D01*
X016700Y013813D01*
X016700Y013283D01*
X016723Y013283D01*
X016809Y013297D01*
X016891Y013324D01*
X016968Y013363D01*
X017038Y013414D01*
X017100Y013475D01*
X017150Y013545D01*
X017190Y013622D01*
X017191Y013628D01*
X017231Y013533D01*
X017380Y013384D01*
X017575Y013303D01*
X017785Y013303D01*
X017980Y013384D01*
X018129Y013533D01*
X018180Y013655D01*
X018231Y013533D01*
X018380Y013384D01*
X018575Y013303D01*
X018785Y013303D01*
X018980Y013384D01*
X019129Y013533D01*
X019210Y013728D01*
X019210Y013939D01*
X019129Y014134D01*
X018980Y014283D01*
X018785Y014363D01*
X018575Y014363D01*
X018380Y014283D01*
X018231Y014134D01*
X018180Y014011D01*
X018129Y014134D01*
X017980Y014283D01*
X017785Y014363D01*
X017575Y014363D01*
X017380Y014283D01*
X017231Y014134D01*
X017191Y014039D01*
X017190Y014044D01*
X017150Y014122D01*
X017100Y014192D01*
X017038Y014253D01*
X016968Y014304D01*
X016891Y014343D01*
X016809Y014370D01*
X016723Y014383D01*
X016700Y014383D01*
X016700Y013853D01*
X016660Y013853D01*
X016660Y014383D01*
X016637Y014383D01*
X016551Y014370D01*
X016469Y014343D01*
X016392Y014304D01*
X016322Y014253D01*
X016260Y014192D01*
X016210Y014122D01*
X016170Y014044D01*
X016169Y014039D01*
X016129Y014134D01*
X015980Y014283D01*
X015785Y014363D01*
X015575Y014363D01*
X015380Y014283D01*
X015231Y014134D01*
X015180Y014011D01*
X015129Y014134D01*
X014980Y014283D01*
X014785Y014363D01*
X014575Y014363D01*
X014380Y014283D01*
X014231Y014134D01*
X014180Y014011D01*
X014129Y014134D01*
X013980Y014283D01*
X013785Y014363D01*
X013575Y014363D01*
X013380Y014283D01*
X013231Y014134D01*
X013180Y014011D01*
X013129Y014134D01*
X012980Y014283D01*
X012785Y014363D01*
X012575Y014363D01*
X012380Y014283D01*
X012231Y014134D01*
X012180Y014011D01*
X012129Y014134D01*
X011980Y014283D01*
X011785Y014363D01*
X011575Y014363D01*
X011380Y014283D01*
X011231Y014134D01*
X011180Y014011D01*
X011129Y014134D01*
X010980Y014283D01*
X010785Y014363D01*
X010575Y014363D01*
X010380Y014283D01*
X010231Y014134D01*
X010180Y014011D01*
X010129Y014134D01*
X009980Y014283D01*
X009785Y014363D01*
X009575Y014363D01*
X009380Y014283D01*
X009231Y014134D01*
X009180Y014011D01*
X009129Y014134D01*
X008980Y014283D01*
X008785Y014363D01*
X008575Y014363D01*
X008380Y014283D01*
X008231Y014134D01*
X008180Y014011D01*
X008129Y014134D01*
X007980Y014283D01*
X007785Y014363D01*
X007575Y014363D01*
X007380Y014283D01*
X007231Y014134D01*
X007180Y014011D01*
X007129Y014134D01*
X006980Y014283D01*
X006785Y014363D01*
X006575Y014363D01*
X006380Y014283D01*
X006231Y014134D01*
X006180Y014011D01*
X006129Y014134D01*
X005980Y014283D01*
X005785Y014363D01*
X005575Y014363D01*
X005380Y014283D01*
X005231Y014134D01*
X005180Y014011D01*
X005129Y014134D01*
X004980Y014283D01*
X004785Y014363D01*
X004575Y014363D01*
X004380Y014283D01*
X004231Y014134D01*
X004180Y014011D01*
X004129Y014134D01*
X003980Y014283D01*
X003785Y014363D01*
X003575Y014363D01*
X003380Y014283D01*
X003231Y014134D01*
X003150Y013939D01*
X003150Y013728D01*
X003231Y013533D01*
X003380Y013384D01*
X003575Y013303D01*
X003785Y013303D01*
X003980Y013384D01*
X004129Y013533D01*
X004180Y013655D01*
X004231Y013533D01*
X004380Y013384D01*
X004575Y013303D01*
X004785Y013303D01*
X004980Y013384D01*
X005129Y013533D01*
X005180Y013655D01*
X005231Y013533D01*
X005380Y013384D01*
X005575Y013303D01*
X005785Y013303D01*
X005980Y013384D01*
X006129Y013533D01*
X006180Y013655D01*
X006231Y013533D01*
X006380Y013384D01*
X006575Y013303D01*
X006785Y013303D01*
X006980Y013384D01*
X007129Y013533D01*
X007180Y013655D01*
X007231Y013533D01*
X007380Y013384D01*
X007575Y013303D01*
X007785Y013303D01*
X007980Y013384D01*
X008129Y013533D01*
X008180Y013655D01*
X008231Y013533D01*
X008380Y013384D01*
X008575Y013303D01*
X008785Y013303D01*
X008980Y013384D01*
X009129Y013533D01*
X009180Y013655D01*
X009231Y013533D01*
X009380Y013384D01*
X009575Y013303D01*
X009785Y013303D01*
X009980Y013384D01*
X010129Y013533D01*
X010180Y013655D01*
X010231Y013533D01*
X010380Y013384D01*
X010575Y013303D01*
X010785Y013303D01*
X010980Y013384D01*
X011129Y013533D01*
X011180Y013655D01*
X011231Y013533D01*
X011380Y013384D01*
X011575Y013303D01*
X011785Y013303D01*
X011980Y013384D01*
X012129Y013533D01*
X012180Y013655D01*
X012231Y013533D01*
X012380Y013384D01*
X012575Y013303D01*
X012785Y013303D01*
X012980Y013384D01*
X013129Y013533D01*
X013180Y013655D01*
X013231Y013533D01*
X013380Y013384D01*
X013440Y013359D01*
X013440Y012323D01*
X008548Y012323D01*
X008459Y012287D01*
X008072Y011900D01*
X007772Y011900D01*
X007678Y011806D01*
X007678Y011424D01*
X007356Y011746D01*
X007307Y011767D01*
X007307Y011806D01*
X007213Y011900D01*
X006647Y011900D01*
X006553Y011806D01*
X006553Y011793D01*
X006053Y011793D01*
X006053Y011826D01*
X005959Y011920D01*
X005401Y011920D01*
X005307Y011826D01*
X005307Y011280D01*
X005367Y011220D01*
X005357Y011215D01*
X005323Y011181D01*
X005300Y011140D01*
X005287Y011094D01*
X005287Y010887D01*
X005657Y010887D01*
X005657Y010840D01*
X005703Y010840D01*
X005703Y010477D01*
X005916Y010477D01*
X005962Y010489D01*
X006003Y010513D01*
X006037Y010547D01*
X006060Y010588D01*
X006073Y010633D01*
X006073Y010840D01*
X005703Y010840D01*
X005703Y010887D01*
X006073Y010887D01*
X006073Y011094D01*
X006060Y011140D01*
X006037Y011181D01*
X006003Y011215D01*
X005993Y011220D01*
X006053Y011280D01*
X006053Y011313D01*
X006553Y011313D01*
X006553Y011280D01*
X006625Y011208D01*
X006553Y011137D01*
X006553Y010611D01*
X006647Y010517D01*
X006690Y010517D01*
X006690Y008321D01*
X006623Y008293D01*
X006470Y008141D01*
X006388Y007941D01*
X006388Y007725D01*
X006470Y007526D01*
X006623Y007373D01*
X006822Y007291D01*
X007038Y007291D01*
X007237Y007373D01*
X007390Y007526D01*
X007472Y007725D01*
X007472Y007941D01*
X007390Y008141D01*
X007237Y008293D01*
X007170Y008321D01*
X007170Y010517D01*
X007213Y010517D01*
X007307Y010611D01*
X007307Y011117D01*
X007678Y010745D01*
X007678Y010611D01*
X007772Y010517D01*
X007940Y010517D01*
X007940Y009286D01*
X007977Y009197D01*
X008477Y008697D01*
X008544Y008630D01*
X008632Y008593D01*
X009421Y008593D01*
X009509Y008630D01*
X009710Y008831D01*
X009912Y008831D01*
X009823Y008742D01*
X009823Y008383D01*
X009709Y008269D01*
X009642Y008202D01*
X009605Y008113D01*
X007401Y008113D01*
X007467Y007954D02*
X009605Y007954D01*
X009605Y007940D02*
X009563Y007940D01*
X009469Y007846D01*
X009469Y007320D01*
X009563Y007226D01*
X009570Y007226D01*
X009570Y006903D01*
X009549Y006903D01*
X009455Y006810D01*
X009455Y006157D01*
X009549Y006063D01*
X009879Y006063D01*
X009825Y006010D01*
X009825Y005357D01*
X009919Y005263D01*
X009940Y005263D01*
X009940Y005073D01*
X003920Y005073D01*
X003920Y008832D01*
X003883Y008920D01*
X003816Y008988D01*
X002655Y010149D01*
X002655Y011138D01*
X002561Y011232D01*
X002471Y011232D01*
X002471Y011569D01*
X002612Y011569D01*
X002706Y011663D01*
X002706Y012504D01*
X002612Y012598D01*
X002471Y012598D01*
X002471Y013069D01*
X002612Y013069D01*
X002706Y013163D01*
X002706Y014004D01*
X002612Y014098D01*
X002294Y014098D01*
X002294Y014757D01*
X002324Y014787D01*
X002324Y014873D01*
X003008Y014873D01*
X003096Y014910D01*
X004945Y016759D01*
X013803Y016759D01*
X013803Y016736D01*
X013897Y016642D01*
X014463Y016642D01*
X014540Y016719D01*
X014825Y016719D01*
X014863Y016681D01*
X015025Y016681D01*
X015025Y016190D01*
X014982Y016190D01*
X014944Y016152D01*
X014922Y016174D01*
X014881Y016198D01*
X014836Y016210D01*
X014614Y016210D01*
X014614Y015852D01*
X014577Y015852D01*
X014577Y016210D01*
X014355Y016210D01*
X014309Y016198D01*
X014268Y016174D01*
X014235Y016141D01*
X014211Y016100D01*
X014199Y016054D01*
X014199Y015852D01*
X014577Y015852D01*
X014577Y015815D01*
X014199Y015815D01*
X014199Y015613D01*
X014211Y015567D01*
X014235Y015526D01*
X014268Y015492D01*
X014309Y015469D01*
X014355Y015456D01*
X014577Y015456D01*
X014577Y015815D01*
X014614Y015815D01*
X014614Y015456D01*
X014836Y015456D01*
X014881Y015469D01*
X014922Y015492D01*
X014944Y015514D01*
X014982Y015476D01*
X015547Y015476D01*
X015641Y015570D01*
X015641Y016096D01*
X015547Y016190D01*
X015505Y016190D01*
X015505Y016718D01*
X015562Y016775D01*
X015562Y017144D01*
X015468Y017237D01*
X014863Y017237D01*
X014825Y017199D01*
X014557Y017199D01*
X014557Y017262D01*
X014485Y017333D01*
X014557Y017405D01*
X014557Y017467D01*
X014825Y017467D01*
X014863Y017429D01*
X015468Y017429D01*
X015562Y017523D01*
X015562Y017892D01*
X015468Y017985D01*
X014863Y017985D01*
X014825Y017947D01*
X014540Y017947D01*
X014463Y018025D01*
X013897Y018025D01*
X013803Y017931D01*
X013803Y017823D01*
X013196Y017823D01*
X013133Y017887D01*
X013001Y017941D01*
X012859Y017941D01*
X012727Y017887D01*
X012626Y017786D01*
X012572Y017655D01*
X012572Y017512D01*
X012626Y017380D01*
X012727Y017280D01*
X012826Y017239D01*
X011670Y017239D01*
X011670Y020567D01*
X011734Y020630D01*
X011788Y020762D01*
X011788Y020905D01*
X011734Y021036D01*
X011633Y021137D01*
X011501Y021191D01*
X011359Y021191D01*
X011227Y021137D01*
X011126Y021036D01*
X011072Y020905D01*
X011072Y020762D01*
X011126Y020630D01*
X011190Y020567D01*
X011190Y017239D01*
X004945Y017239D01*
X002603Y019580D01*
X002603Y019782D01*
X002744Y019782D01*
X002838Y019875D01*
X002838Y020323D01*
X002828Y020333D01*
X002846Y020364D01*
X002858Y020410D01*
X002858Y020591D01*
X002363Y020591D01*
X001868Y020591D01*
X002363Y020591D01*
X002363Y020591D01*
X002363Y020591D01*
X002858Y020591D01*
X002858Y020772D01*
X002846Y020818D01*
X002831Y020843D01*
X007978Y020843D01*
X008066Y020880D01*
X011514Y024328D01*
X011575Y024303D01*
X011785Y024303D01*
X011980Y024384D01*
X012129Y024533D01*
X012180Y024655D01*
X012231Y024533D01*
X012380Y024384D01*
X012575Y024303D01*
X012785Y024303D01*
X012980Y024384D01*
X013129Y024533D01*
X013180Y024655D01*
X013231Y024533D01*
X013380Y024384D01*
X013440Y024359D01*
X013440Y023933D01*
X012044Y022537D01*
X011977Y022469D01*
X011940Y022381D01*
X011940Y020951D01*
X011977Y020863D01*
X013989Y018851D01*
X013989Y018551D01*
X014082Y018457D01*
X014608Y018457D01*
X014680Y018528D01*
X014752Y018457D01*
X015278Y018457D01*
X015371Y018551D01*
X015371Y018593D01*
X015489Y018593D01*
X015489Y018551D01*
X015582Y018457D01*
X015605Y018457D01*
X015605Y018008D01*
X015642Y017920D01*
X015709Y017853D01*
X015709Y017853D01*
X015798Y017764D01*
X015798Y017534D01*
X015790Y017521D01*
X015778Y017475D01*
X015778Y017333D01*
X015778Y017192D01*
X015790Y017146D01*
X015798Y017132D01*
X015798Y016775D01*
X015892Y016681D01*
X015954Y016681D01*
X015954Y016206D01*
X015813Y016206D01*
X015719Y016112D01*
X015719Y015554D01*
X015813Y015461D01*
X016358Y015461D01*
X016430Y015532D01*
X016502Y015461D01*
X017047Y015461D01*
X017141Y015554D01*
X017141Y015593D01*
X017239Y015593D01*
X017239Y015551D01*
X017332Y015457D01*
X017858Y015457D01*
X017930Y015528D01*
X018002Y015457D01*
X018528Y015457D01*
X018621Y015551D01*
X018621Y015851D01*
X018913Y016142D01*
X019213Y016142D01*
X019307Y016236D01*
X019307Y016343D01*
X019478Y016343D01*
X019566Y016380D01*
X019633Y016447D01*
X020383Y017197D01*
X020434Y017248D01*
X020800Y017248D01*
X020751Y017200D01*
X020699Y017128D01*
X020659Y017049D01*
X020631Y016965D01*
X020618Y016881D01*
X021132Y016881D01*
X021132Y016786D01*
X020618Y016786D01*
X020631Y016702D01*
X020659Y016617D01*
X020699Y016539D01*
X020751Y016467D01*
X020814Y016404D01*
X020885Y016352D01*
X020964Y016312D01*
X021048Y016285D01*
X021132Y016271D01*
X021132Y016786D01*
X021228Y016786D01*
X021228Y016881D01*
X021742Y016881D01*
X021729Y016965D01*
X021701Y017049D01*
X021661Y017128D01*
X021609Y017200D01*
X021560Y017248D01*
X023017Y017248D01*
X023112Y017343D01*
X024942Y017343D01*
X024885Y017314D01*
X024814Y017262D01*
X024751Y017200D01*
X024699Y017128D01*
X024659Y017049D01*
X024631Y016965D01*
X024618Y016881D01*
X025132Y016881D01*
X025132Y016786D01*
X024618Y016786D01*
X024631Y016702D01*
X024659Y016617D01*
X024699Y016539D01*
X024751Y016467D01*
X024814Y016404D01*
X024885Y016352D01*
X024964Y016312D01*
X025048Y016285D01*
X025132Y016271D01*
X025132Y016786D01*
X025228Y016786D01*
X025228Y016881D01*
X025742Y016881D01*
X025729Y016965D01*
X025701Y017049D01*
X025661Y017128D01*
X025609Y017200D01*
X025546Y017262D01*
X025475Y017314D01*
X025396Y017355D01*
X025317Y017380D01*
X025383Y017447D01*
X025843Y017907D01*
X025956Y017793D01*
X026404Y017793D01*
X026720Y018110D01*
X026720Y018557D01*
X026404Y018873D01*
X025956Y018873D01*
X025640Y018557D01*
X025640Y018383D01*
X025081Y017823D01*
X023140Y017823D01*
X023140Y018295D01*
X023059Y018376D01*
X023694Y018376D01*
X023797Y018419D01*
X023876Y018498D01*
X023919Y018600D01*
X023919Y019027D01*
X023891Y019093D01*
X026728Y019093D01*
X026816Y019130D01*
X026883Y019197D01*
X028031Y020345D01*
X028031Y020307D01*
X028109Y020118D01*
X028254Y019973D01*
X028443Y019895D01*
X028647Y019895D01*
X028836Y019973D01*
X029336Y020473D01*
X029378Y020373D01*
X030024Y019727D01*
X030213Y019649D01*
X030417Y019649D01*
X030606Y019727D01*
X030751Y019872D01*
X030829Y020061D01*
X030829Y020265D01*
X030751Y020454D01*
X030105Y021100D01*
X029916Y021178D01*
X029712Y021178D01*
X029524Y021101D01*
X029482Y021201D01*
X029350Y021333D01*
X029482Y021465D01*
X029524Y021566D01*
X029712Y021488D01*
X029916Y021488D01*
X029968Y021510D01*
X030940Y020537D01*
X030940Y019933D01*
X030477Y019469D01*
X030440Y019381D01*
X030440Y018073D01*
X028132Y018073D01*
X028044Y018037D01*
X027977Y017969D01*
X027940Y017881D01*
X027940Y017786D01*
X027977Y017697D01*
X028044Y017630D01*
X028132Y017593D01*
X030440Y017593D01*
X030440Y010786D01*
X030455Y010749D01*
X030455Y009948D01*
X028977Y008469D01*
X029096Y008588D02*
X023557Y008588D01*
X023491Y008747D02*
X029254Y008747D01*
X029413Y008905D02*
X023420Y008905D01*
X023420Y009064D02*
X029571Y009064D01*
X029180Y008333D02*
X030680Y009833D01*
X030930Y010284D01*
X030930Y010833D01*
X030680Y010833D01*
X030680Y017833D01*
X028180Y017833D01*
X027964Y017940D02*
X026550Y017940D01*
X026709Y018098D02*
X030440Y018098D01*
X030440Y018257D02*
X026720Y018257D01*
X026720Y018415D02*
X028571Y018415D01*
X028563Y018419D02*
X028666Y018376D01*
X030194Y018376D01*
X030297Y018419D01*
X030376Y018498D01*
X030419Y018600D01*
X030419Y019027D01*
X030376Y019130D01*
X030297Y019209D01*
X030194Y019251D01*
X030083Y019251D01*
X028777Y019251D01*
X028666Y019251D01*
X028563Y019209D01*
X028484Y019130D01*
X028441Y019027D01*
X028441Y018600D01*
X028484Y018498D01*
X028563Y018419D01*
X028452Y018574D02*
X026703Y018574D01*
X026545Y018732D02*
X028441Y018732D01*
X028441Y018891D02*
X023919Y018891D01*
X023919Y018732D02*
X025815Y018732D01*
X025657Y018574D02*
X023908Y018574D01*
X023789Y018415D02*
X025640Y018415D01*
X025514Y018257D02*
X023140Y018257D01*
X023140Y018098D02*
X025356Y018098D01*
X025197Y017940D02*
X023140Y017940D01*
X023075Y017306D02*
X024873Y017306D01*
X024713Y017147D02*
X021647Y017147D01*
X021721Y016989D02*
X024639Y016989D01*
X024641Y016672D02*
X021719Y016672D01*
X021729Y016702D02*
X021742Y016786D01*
X021228Y016786D01*
X021228Y016271D01*
X021312Y016285D01*
X021396Y016312D01*
X021475Y016352D01*
X021546Y016404D01*
X021609Y016467D01*
X021661Y016539D01*
X021701Y016617D01*
X021729Y016702D01*
X021643Y016513D02*
X024717Y016513D01*
X024882Y016355D02*
X021478Y016355D01*
X021228Y016355D02*
X021132Y016355D01*
X021132Y016513D02*
X021228Y016513D01*
X021228Y016672D02*
X021132Y016672D01*
X021132Y016830D02*
X020016Y016830D01*
X019858Y016672D02*
X020641Y016672D01*
X020717Y016513D02*
X019699Y016513D01*
X019506Y016355D02*
X019945Y016355D01*
X019977Y016387D02*
X019876Y016286D01*
X019822Y016155D01*
X019822Y016012D01*
X019876Y015880D01*
X019940Y015817D01*
X019940Y015775D01*
X019897Y015775D01*
X019803Y015681D01*
X019803Y015155D01*
X019875Y015083D01*
X019803Y015012D01*
X019803Y014486D01*
X019897Y014392D01*
X020463Y014392D01*
X020557Y014486D01*
X020557Y014593D01*
X022692Y014593D01*
X022720Y014526D01*
X022873Y014373D01*
X023072Y014291D01*
X023288Y014291D01*
X023487Y014373D01*
X023640Y014526D01*
X023722Y014725D01*
X023722Y014941D01*
X023640Y015141D01*
X023487Y015293D01*
X023288Y015376D01*
X023072Y015376D01*
X022873Y015293D01*
X022720Y015141D01*
X022692Y015073D01*
X020495Y015073D01*
X020485Y015083D01*
X020557Y015155D01*
X020557Y015681D01*
X020463Y015775D01*
X020420Y015775D01*
X020420Y015817D01*
X020484Y015880D01*
X020538Y016012D01*
X020538Y016155D01*
X020484Y016286D01*
X020383Y016387D01*
X020251Y016441D01*
X020109Y016441D01*
X019977Y016387D01*
X019839Y016196D02*
X019267Y016196D01*
X019430Y016583D02*
X019015Y016583D01*
X018930Y016499D01*
X018265Y015833D01*
X018621Y015721D02*
X019843Y015721D01*
X019878Y015879D02*
X018650Y015879D01*
X018809Y016038D02*
X019822Y016038D01*
X020180Y016083D02*
X020180Y015418D01*
X020557Y015404D02*
X026053Y015404D01*
X026053Y015562D02*
X020557Y015562D01*
X020517Y015721D02*
X026093Y015721D01*
X026053Y015681D02*
X026147Y015775D01*
X026190Y015775D01*
X026190Y015817D01*
X026126Y015880D01*
X026072Y016012D01*
X026072Y016155D01*
X026126Y016286D01*
X026227Y016387D01*
X026359Y016441D01*
X026501Y016441D01*
X026633Y016387D01*
X026734Y016286D01*
X026788Y016155D01*
X026788Y016012D01*
X026734Y015880D01*
X026670Y015817D01*
X026670Y015775D01*
X026713Y015775D01*
X026807Y015681D01*
X026807Y015155D01*
X026735Y015083D01*
X026745Y015073D01*
X029192Y015073D01*
X029220Y015141D01*
X029373Y015293D01*
X029572Y015376D01*
X029788Y015376D01*
X029987Y015293D01*
X030140Y015141D01*
X030222Y014941D01*
X030222Y014725D01*
X030140Y014526D01*
X029987Y014373D01*
X029788Y014291D01*
X029572Y014291D01*
X029373Y014373D01*
X029220Y014526D01*
X029192Y014593D01*
X026807Y014593D01*
X026807Y014486D01*
X026713Y014392D01*
X026147Y014392D01*
X026053Y014486D01*
X026053Y015012D01*
X026125Y015083D01*
X026053Y015155D01*
X026053Y015681D01*
X026128Y015879D02*
X020482Y015879D01*
X020538Y016038D02*
X026072Y016038D01*
X026089Y016196D02*
X020521Y016196D01*
X020415Y016355D02*
X020882Y016355D01*
X021228Y016830D02*
X025132Y016830D01*
X025228Y016830D02*
X027632Y016830D01*
X027632Y016786D02*
X027118Y016786D01*
X027131Y016702D01*
X027159Y016617D01*
X027199Y016539D01*
X027251Y016467D01*
X027314Y016404D01*
X027385Y016352D01*
X027464Y016312D01*
X027548Y016285D01*
X027632Y016271D01*
X027632Y016786D01*
X027632Y016881D01*
X027118Y016881D01*
X027131Y016965D01*
X027159Y017049D01*
X027199Y017128D01*
X027251Y017200D01*
X027314Y017262D01*
X027385Y017314D01*
X027464Y017355D01*
X027548Y017382D01*
X027632Y017395D01*
X027632Y016881D01*
X027728Y016881D01*
X028242Y016881D01*
X028229Y016965D01*
X028201Y017049D01*
X028161Y017128D01*
X028109Y017200D01*
X028046Y017262D01*
X027975Y017314D01*
X027896Y017355D01*
X027812Y017382D01*
X027728Y017395D01*
X027728Y016881D01*
X027728Y016786D01*
X028242Y016786D01*
X028229Y016702D01*
X028201Y016617D01*
X028161Y016539D01*
X028109Y016467D01*
X028046Y016404D01*
X027975Y016352D01*
X027896Y016312D01*
X027812Y016285D01*
X027728Y016271D01*
X027728Y016786D01*
X027632Y016786D01*
X027728Y016830D02*
X030440Y016830D01*
X030440Y016672D02*
X028219Y016672D01*
X028143Y016513D02*
X030440Y016513D01*
X030440Y016355D02*
X027978Y016355D01*
X027728Y016355D02*
X027632Y016355D01*
X027632Y016513D02*
X027728Y016513D01*
X027728Y016672D02*
X027632Y016672D01*
X027632Y016989D02*
X027728Y016989D01*
X027728Y017147D02*
X027632Y017147D01*
X027632Y017306D02*
X027728Y017306D01*
X027987Y017306D02*
X030440Y017306D01*
X030440Y017464D02*
X025400Y017464D01*
X025487Y017306D02*
X027373Y017306D01*
X027213Y017147D02*
X025647Y017147D01*
X025721Y016989D02*
X027139Y016989D01*
X027141Y016672D02*
X025719Y016672D01*
X025729Y016702D02*
X025742Y016786D01*
X025228Y016786D01*
X025228Y016271D01*
X025312Y016285D01*
X025396Y016312D01*
X025475Y016352D01*
X025546Y016404D01*
X025609Y016467D01*
X025661Y016539D01*
X025701Y016617D01*
X025729Y016702D01*
X025643Y016513D02*
X027217Y016513D01*
X027382Y016355D02*
X026665Y016355D01*
X026771Y016196D02*
X030440Y016196D01*
X030440Y016038D02*
X026788Y016038D01*
X026732Y015879D02*
X030440Y015879D01*
X030440Y015721D02*
X026767Y015721D01*
X026807Y015562D02*
X030440Y015562D01*
X030440Y015404D02*
X026807Y015404D01*
X026807Y015245D02*
X029325Y015245D01*
X029198Y015087D02*
X026739Y015087D01*
X026515Y014833D02*
X026430Y014749D01*
X026515Y014833D02*
X029680Y014833D01*
X030067Y014453D02*
X030440Y014453D01*
X030440Y014611D02*
X030175Y014611D01*
X030222Y014770D02*
X030440Y014770D01*
X030440Y014928D02*
X030222Y014928D01*
X030162Y015087D02*
X030440Y015087D01*
X030440Y015245D02*
X030035Y015245D01*
X030920Y015245D02*
X032577Y015245D01*
X032577Y015087D02*
X030920Y015087D01*
X030920Y014928D02*
X032577Y014928D01*
X032577Y014770D02*
X030920Y014770D01*
X030920Y014611D02*
X032577Y014611D01*
X032577Y014453D02*
X030920Y014453D01*
X030920Y014294D02*
X032577Y014294D01*
X032577Y014136D02*
X030920Y014136D01*
X030920Y013977D02*
X032577Y013977D01*
X032577Y013819D02*
X030920Y013819D01*
X030920Y013660D02*
X032577Y013660D01*
X032577Y013502D02*
X030920Y013502D01*
X030920Y013343D02*
X031442Y013343D01*
X031464Y013355D02*
X031385Y013314D01*
X031314Y013262D01*
X031251Y013200D01*
X031199Y013128D01*
X031159Y013049D01*
X031131Y012965D01*
X031118Y012881D01*
X031632Y012881D01*
X031632Y012786D01*
X031118Y012786D01*
X031131Y012702D01*
X031159Y012617D01*
X031199Y012539D01*
X031251Y012467D01*
X031314Y012404D01*
X031385Y012352D01*
X031464Y012312D01*
X031548Y012285D01*
X031632Y012271D01*
X031632Y012786D01*
X031728Y012786D01*
X031728Y012881D01*
X032242Y012881D01*
X032229Y012965D01*
X032201Y013049D01*
X032161Y013128D01*
X032109Y013200D01*
X032046Y013262D01*
X031975Y013314D01*
X031896Y013355D01*
X031812Y013382D01*
X031728Y013395D01*
X031728Y012881D01*
X031632Y012881D01*
X031632Y013395D01*
X031548Y013382D01*
X031464Y013355D01*
X031632Y013343D02*
X031728Y013343D01*
X031728Y013185D02*
X031632Y013185D01*
X031632Y013026D02*
X031728Y013026D01*
X031728Y012868D02*
X032577Y012868D01*
X032577Y013026D02*
X032209Y013026D01*
X032120Y013185D02*
X032577Y013185D01*
X032577Y013343D02*
X031918Y013343D01*
X031632Y012868D02*
X030920Y012868D01*
X030920Y013026D02*
X031151Y013026D01*
X031240Y013185D02*
X030920Y013185D01*
X030440Y013185D02*
X028120Y013185D01*
X028109Y013200D02*
X028046Y013262D01*
X027975Y013314D01*
X027896Y013355D01*
X027812Y013382D01*
X027728Y013395D01*
X027728Y012881D01*
X028242Y012881D01*
X028229Y012965D01*
X028201Y013049D01*
X028161Y013128D01*
X028109Y013200D01*
X028209Y013026D02*
X030440Y013026D01*
X030440Y012868D02*
X027728Y012868D01*
X027728Y012881D02*
X027728Y012786D01*
X028242Y012786D01*
X028229Y012702D01*
X028201Y012617D01*
X028161Y012539D01*
X028109Y012467D01*
X028046Y012404D01*
X027975Y012352D01*
X027896Y012312D01*
X027812Y012285D01*
X027728Y012271D01*
X027728Y012786D01*
X027632Y012786D01*
X027118Y012786D01*
X027131Y012702D01*
X027159Y012617D01*
X027199Y012539D01*
X027251Y012467D01*
X027314Y012404D01*
X027385Y012352D01*
X027464Y012312D01*
X027548Y012285D01*
X027632Y012271D01*
X027632Y012786D01*
X027632Y012881D01*
X027118Y012881D01*
X027131Y012965D01*
X027159Y013049D01*
X027199Y013128D01*
X027251Y013200D01*
X027314Y013262D01*
X027385Y013314D01*
X027464Y013355D01*
X027548Y013382D01*
X027632Y013395D01*
X027632Y012881D01*
X027728Y012881D01*
X027632Y012868D02*
X025228Y012868D01*
X025228Y012881D02*
X025742Y012881D01*
X025729Y012965D01*
X025701Y013049D01*
X025661Y013128D01*
X025609Y013200D01*
X025546Y013262D01*
X025475Y013314D01*
X025396Y013355D01*
X025312Y013382D01*
X025228Y013395D01*
X025228Y012881D01*
X025228Y012786D01*
X025742Y012786D01*
X025729Y012702D01*
X025701Y012617D01*
X025661Y012539D01*
X025609Y012467D01*
X025546Y012404D01*
X025475Y012352D01*
X025396Y012312D01*
X025312Y012285D01*
X025228Y012271D01*
X025228Y012786D01*
X025132Y012786D01*
X024618Y012786D01*
X024631Y012702D01*
X024659Y012617D01*
X024699Y012539D01*
X024751Y012467D01*
X024814Y012404D01*
X024885Y012352D01*
X024964Y012312D01*
X025048Y012285D01*
X025132Y012271D01*
X025132Y012786D01*
X025132Y012881D01*
X024618Y012881D01*
X024631Y012965D01*
X024659Y013049D01*
X024699Y013128D01*
X024751Y013200D01*
X024814Y013262D01*
X024885Y013314D01*
X024964Y013355D01*
X025048Y013382D01*
X025132Y013395D01*
X025132Y012881D01*
X025228Y012881D01*
X025132Y012868D02*
X021228Y012868D01*
X021228Y012881D02*
X021742Y012881D01*
X021729Y012965D01*
X021701Y013049D01*
X021661Y013128D01*
X021609Y013200D01*
X021546Y013262D01*
X021475Y013314D01*
X021396Y013355D01*
X021312Y013382D01*
X021228Y013395D01*
X021228Y012881D01*
X021228Y012786D01*
X021742Y012786D01*
X021729Y012702D01*
X021701Y012617D01*
X021661Y012539D01*
X021609Y012467D01*
X021546Y012404D01*
X021475Y012352D01*
X021396Y012312D01*
X021312Y012285D01*
X021228Y012271D01*
X021228Y012786D01*
X021132Y012786D01*
X020618Y012786D01*
X020631Y012702D01*
X020659Y012617D01*
X020699Y012539D01*
X020751Y012467D01*
X020814Y012404D01*
X020885Y012352D01*
X020964Y012312D01*
X021048Y012285D01*
X021132Y012271D01*
X021132Y012786D01*
X021132Y012881D01*
X020618Y012881D01*
X020631Y012965D01*
X020659Y013049D01*
X020699Y013128D01*
X020751Y013200D01*
X020814Y013262D01*
X020885Y013314D01*
X020964Y013355D01*
X021048Y013382D01*
X021132Y013395D01*
X021132Y012881D01*
X021228Y012881D01*
X021132Y012868D02*
X014920Y012868D01*
X014920Y013026D02*
X020651Y013026D01*
X020740Y013185D02*
X014920Y013185D01*
X014920Y013343D02*
X015478Y013343D01*
X015262Y013502D02*
X015098Y013502D01*
X014680Y013833D02*
X014680Y011668D01*
X014555Y011543D01*
X014932Y011600D02*
X030440Y011600D01*
X030440Y011758D02*
X014932Y011758D01*
X014920Y011917D02*
X030440Y011917D01*
X030440Y012075D02*
X014920Y012075D01*
X014920Y012234D02*
X030440Y012234D01*
X030440Y012392D02*
X028030Y012392D01*
X028167Y012551D02*
X030440Y012551D01*
X030440Y012709D02*
X028230Y012709D01*
X027728Y012709D02*
X027632Y012709D01*
X027632Y012551D02*
X027728Y012551D01*
X027728Y012392D02*
X027632Y012392D01*
X027330Y012392D02*
X025530Y012392D01*
X025667Y012551D02*
X027193Y012551D01*
X027130Y012709D02*
X025730Y012709D01*
X025709Y013026D02*
X027151Y013026D01*
X027240Y013185D02*
X025620Y013185D01*
X025418Y013343D02*
X027442Y013343D01*
X027632Y013343D02*
X027728Y013343D01*
X027728Y013185D02*
X027632Y013185D01*
X027632Y013026D02*
X027728Y013026D01*
X027918Y013343D02*
X030440Y013343D01*
X030440Y013502D02*
X019098Y013502D01*
X019182Y013660D02*
X030440Y013660D01*
X030440Y013819D02*
X019210Y013819D01*
X019194Y013977D02*
X030440Y013977D01*
X030440Y014136D02*
X019127Y014136D01*
X018952Y014294D02*
X023064Y014294D01*
X023296Y014294D02*
X029564Y014294D01*
X029796Y014294D02*
X030440Y014294D01*
X029293Y014453D02*
X026774Y014453D01*
X026086Y014453D02*
X023567Y014453D01*
X023675Y014611D02*
X026053Y014611D01*
X026053Y014770D02*
X023722Y014770D01*
X023722Y014928D02*
X026053Y014928D01*
X026121Y015087D02*
X023662Y015087D01*
X023535Y015245D02*
X026053Y015245D01*
X026430Y015418D02*
X026430Y016083D01*
X026195Y016355D02*
X025478Y016355D01*
X025228Y016355D02*
X025132Y016355D01*
X025132Y016513D02*
X025228Y016513D01*
X025228Y016672D02*
X025132Y016672D01*
X025180Y017583D02*
X020430Y017583D01*
X020247Y017400D01*
X019430Y016583D01*
X019331Y016823D02*
X019251Y016823D01*
X019257Y016827D01*
X019291Y016861D01*
X019314Y016902D01*
X019327Y016947D01*
X019327Y017150D01*
X018948Y017150D01*
X018948Y017186D01*
X018912Y017186D01*
X018912Y017150D01*
X018533Y017150D01*
X018533Y016947D01*
X018546Y016902D01*
X018569Y016861D01*
X018603Y016827D01*
X018613Y016821D01*
X018553Y016762D01*
X018553Y016462D01*
X018302Y016210D01*
X018002Y016210D01*
X017930Y016138D01*
X017858Y016210D01*
X017835Y016210D01*
X017835Y016649D01*
X017911Y016725D01*
X018001Y016725D01*
X018133Y016780D01*
X018234Y016880D01*
X018288Y017012D01*
X018288Y017155D01*
X018234Y017286D01*
X018133Y017387D01*
X018001Y017441D01*
X017859Y017441D01*
X017727Y017387D01*
X017670Y017330D01*
X017670Y017518D01*
X017680Y017528D01*
X017752Y017457D01*
X018278Y017457D01*
X018371Y017551D01*
X018371Y017851D01*
X019019Y018498D01*
X019345Y018498D01*
X019345Y017545D01*
X019345Y017371D01*
X019468Y017248D01*
X019756Y017248D01*
X019331Y016823D01*
X019338Y016830D02*
X019260Y016830D01*
X019327Y016989D02*
X019496Y016989D01*
X019655Y017147D02*
X019327Y017147D01*
X019327Y017186D02*
X019327Y017389D01*
X019314Y017434D01*
X019291Y017475D01*
X019257Y017509D01*
X019216Y017533D01*
X019170Y017545D01*
X018948Y017545D01*
X018948Y017186D01*
X019327Y017186D01*
X019327Y017306D02*
X019410Y017306D01*
X019345Y017464D02*
X019297Y017464D01*
X019345Y017623D02*
X018371Y017623D01*
X018371Y017781D02*
X019345Y017781D01*
X019345Y017940D02*
X018461Y017940D01*
X018619Y018098D02*
X019345Y018098D01*
X019345Y018257D02*
X018778Y018257D01*
X018936Y018415D02*
X019345Y018415D01*
X019139Y018957D02*
X018015Y017833D01*
X018139Y017957D01*
X018052Y018210D02*
X017752Y018210D01*
X017680Y018138D01*
X017608Y018210D01*
X017082Y018210D01*
X016989Y018116D01*
X016989Y017551D01*
X017082Y017457D01*
X017190Y017457D01*
X017190Y017433D01*
X016957Y017199D01*
X016610Y017199D01*
X016610Y017333D01*
X016194Y017333D01*
X015778Y017333D01*
X016194Y017333D01*
X016194Y017333D01*
X016194Y017333D01*
X016610Y017333D01*
X016610Y017475D01*
X016598Y017521D01*
X016590Y017534D01*
X016590Y017892D01*
X016497Y017985D01*
X016255Y017985D01*
X016085Y018156D01*
X016085Y018457D01*
X016108Y018457D01*
X016168Y018516D01*
X016174Y018506D01*
X016207Y018473D01*
X016248Y018449D01*
X016294Y018437D01*
X016496Y018437D01*
X016496Y018815D01*
X016533Y018815D01*
X016533Y018852D01*
X016496Y018852D01*
X016496Y019230D01*
X016294Y019230D01*
X016248Y019218D01*
X016207Y019194D01*
X016174Y019160D01*
X016168Y019150D01*
X016108Y019210D01*
X015582Y019210D01*
X015489Y019116D01*
X015489Y019073D01*
X015371Y019073D01*
X015371Y019116D01*
X015278Y019210D01*
X014752Y019210D01*
X014680Y019138D01*
X014608Y019210D01*
X014308Y019210D01*
X012996Y020522D01*
X013109Y020475D01*
X013251Y020475D01*
X013383Y020530D01*
X013484Y020630D01*
X013538Y020762D01*
X013538Y020852D01*
X013613Y020926D01*
X013647Y020892D01*
X014213Y020892D01*
X014290Y020969D01*
X014575Y020969D01*
X014613Y020931D01*
X014676Y020931D01*
X014676Y020417D01*
X014653Y020440D01*
X014612Y020464D01*
X014566Y020476D01*
X014359Y020476D01*
X014359Y020107D01*
X014312Y020107D01*
X014312Y020476D01*
X014105Y020476D01*
X014059Y020464D01*
X014018Y020440D01*
X013985Y020406D01*
X013961Y020365D01*
X013949Y020320D01*
X013949Y020107D01*
X014312Y020107D01*
X014312Y020060D01*
X013949Y020060D01*
X013949Y019847D01*
X013961Y019801D01*
X013985Y019760D01*
X014018Y019727D01*
X014059Y019703D01*
X014105Y019691D01*
X014312Y019691D01*
X014312Y020060D01*
X014359Y020060D01*
X014359Y019691D01*
X014566Y019691D01*
X014612Y019703D01*
X014653Y019727D01*
X014686Y019760D01*
X014692Y019770D01*
X014752Y019711D01*
X015297Y019711D01*
X015391Y019804D01*
X015391Y020362D01*
X015297Y020456D01*
X015156Y020456D01*
X015156Y020931D01*
X015218Y020931D01*
X015312Y021025D01*
X015312Y021394D01*
X015218Y021487D01*
X014613Y021487D01*
X014575Y021449D01*
X014307Y021449D01*
X014307Y021512D01*
X014235Y021583D01*
X014307Y021655D01*
X014307Y021717D01*
X014575Y021717D01*
X014613Y021679D01*
X015218Y021679D01*
X015312Y021773D01*
X015312Y022142D01*
X015218Y022235D01*
X014613Y022235D01*
X014575Y022197D01*
X014290Y022197D01*
X014213Y022275D01*
X013647Y022275D01*
X013553Y022181D01*
X013553Y022073D01*
X012946Y022073D01*
X012883Y022137D01*
X012751Y022191D01*
X012609Y022191D01*
X012477Y022137D01*
X012420Y022080D01*
X012420Y022234D01*
X013883Y023697D01*
X013920Y023786D01*
X013920Y024359D01*
X013980Y024384D01*
X014129Y024533D01*
X014180Y024655D01*
X014231Y024533D01*
X014380Y024384D01*
X014440Y024359D01*
X014440Y023933D01*
X014044Y023537D01*
X013977Y023469D01*
X013973Y023460D01*
X013832Y023460D01*
X013739Y023366D01*
X013739Y022801D01*
X013832Y022707D01*
X014358Y022707D01*
X014430Y022778D01*
X014502Y022707D01*
X015028Y022707D01*
X015121Y022801D01*
X015121Y022843D01*
X015239Y022843D01*
X015239Y022801D01*
X015332Y022707D01*
X015355Y022707D01*
X015355Y022258D01*
X015392Y022170D01*
X015459Y022103D01*
X015548Y022014D01*
X015548Y021784D01*
X015540Y021771D01*
X015528Y021725D01*
X015528Y021583D01*
X015528Y021442D01*
X015540Y021396D01*
X015548Y021382D01*
X015548Y021025D01*
X015642Y020931D01*
X015704Y020931D01*
X015704Y020456D01*
X015563Y020456D01*
X015469Y020362D01*
X015469Y019804D01*
X015563Y019711D01*
X016108Y019711D01*
X016180Y019782D01*
X016252Y019711D01*
X016797Y019711D01*
X016891Y019804D01*
X016891Y019843D01*
X016989Y019843D01*
X016989Y019801D01*
X017082Y019707D01*
X017608Y019707D01*
X017680Y019778D01*
X017752Y019707D01*
X018278Y019707D01*
X018371Y019801D01*
X018371Y020101D01*
X018470Y020199D01*
X018470Y018628D01*
X018052Y018210D01*
X018099Y018257D02*
X016085Y018257D01*
X016085Y018415D02*
X018257Y018415D01*
X018416Y018574D02*
X016886Y018574D01*
X016891Y018593D02*
X016891Y018815D01*
X016533Y018815D01*
X016533Y018437D01*
X016735Y018437D01*
X016781Y018449D01*
X016822Y018473D01*
X016856Y018506D01*
X016879Y018547D01*
X016891Y018593D01*
X016891Y018732D02*
X018470Y018732D01*
X018470Y018891D02*
X016891Y018891D01*
X016891Y018852D02*
X016891Y019074D01*
X016879Y019119D01*
X016856Y019160D01*
X016822Y019194D01*
X016781Y019218D01*
X016735Y019230D01*
X016533Y019230D01*
X016533Y018852D01*
X016891Y018852D01*
X016891Y019049D02*
X018470Y019049D01*
X018470Y019208D02*
X016798Y019208D01*
X016533Y019208D02*
X016496Y019208D01*
X016496Y019049D02*
X016533Y019049D01*
X016533Y018891D02*
X016496Y018891D01*
X016496Y018732D02*
X016533Y018732D01*
X016533Y018574D02*
X016496Y018574D01*
X016143Y018098D02*
X016989Y018098D01*
X016989Y017940D02*
X016542Y017940D01*
X016590Y017781D02*
X016989Y017781D01*
X016989Y017623D02*
X016590Y017623D01*
X016610Y017464D02*
X017075Y017464D01*
X017063Y017306D02*
X016610Y017306D01*
X016194Y016959D02*
X017056Y016959D01*
X017430Y017333D01*
X017430Y017749D01*
X017345Y017833D01*
X017670Y017464D02*
X017744Y017464D01*
X017930Y017083D02*
X017595Y016749D01*
X017595Y015833D01*
X016774Y015833D01*
X016774Y015928D01*
X017141Y015562D02*
X017239Y015562D01*
X017872Y016196D02*
X017988Y016196D01*
X017835Y016355D02*
X018447Y016355D01*
X018553Y016513D02*
X017835Y016513D01*
X017858Y016672D02*
X018553Y016672D01*
X018600Y016830D02*
X018183Y016830D01*
X018278Y016989D02*
X018533Y016989D01*
X018533Y017147D02*
X018288Y017147D01*
X018214Y017306D02*
X018533Y017306D01*
X018533Y017389D02*
X018533Y017186D01*
X018912Y017186D01*
X018912Y017545D01*
X018690Y017545D01*
X018644Y017533D01*
X018603Y017509D01*
X018569Y017475D01*
X018546Y017434D01*
X018533Y017389D01*
X018563Y017464D02*
X018285Y017464D01*
X018912Y017464D02*
X018948Y017464D01*
X018948Y017306D02*
X018912Y017306D01*
X020175Y016989D02*
X020639Y016989D01*
X020713Y017147D02*
X020333Y017147D01*
X020383Y017197D02*
X020383Y017197D01*
X020247Y017400D02*
X020247Y018209D01*
X020247Y018957D02*
X019139Y018957D01*
X018470Y019366D02*
X014152Y019366D01*
X013993Y019525D02*
X018470Y019525D01*
X018470Y019683D02*
X013835Y019683D01*
X013950Y019842D02*
X013676Y019842D01*
X013518Y020000D02*
X013949Y020000D01*
X013949Y020159D02*
X013359Y020159D01*
X013201Y020317D02*
X013949Y020317D01*
X014105Y020476D02*
X013253Y020476D01*
X013107Y020476D02*
X013042Y020476D01*
X013180Y020833D02*
X013595Y021249D01*
X013930Y021249D01*
X013930Y021209D01*
X014916Y021209D01*
X014916Y020083D01*
X015024Y020083D01*
X015391Y020159D02*
X015469Y020159D01*
X015469Y020317D02*
X015391Y020317D01*
X015156Y020476D02*
X015704Y020476D01*
X015704Y020634D02*
X015156Y020634D01*
X015156Y020793D02*
X015704Y020793D01*
X015622Y020951D02*
X015238Y020951D01*
X015312Y021110D02*
X015548Y021110D01*
X015548Y021268D02*
X015312Y021268D01*
X015279Y021427D02*
X015532Y021427D01*
X015528Y021583D02*
X015944Y021583D01*
X015944Y021583D01*
X015528Y021583D01*
X015528Y021585D02*
X014237Y021585D01*
X013930Y021918D02*
X013845Y021833D01*
X012680Y021833D01*
X012420Y022219D02*
X013592Y022219D01*
X013930Y021957D02*
X013930Y021918D01*
X013930Y021957D02*
X014916Y021957D01*
X015312Y021902D02*
X015548Y021902D01*
X015533Y021744D02*
X015283Y021744D01*
X015312Y022061D02*
X015501Y022061D01*
X015372Y022219D02*
X015234Y022219D01*
X015355Y022378D02*
X012564Y022378D01*
X012722Y022536D02*
X015355Y022536D01*
X015355Y022695D02*
X012881Y022695D01*
X013039Y022853D02*
X013739Y022853D01*
X013739Y023012D02*
X013198Y023012D01*
X013356Y023170D02*
X013739Y023170D01*
X013739Y023329D02*
X013515Y023329D01*
X013673Y023487D02*
X013995Y023487D01*
X014153Y023646D02*
X013832Y023646D01*
X013920Y023804D02*
X014312Y023804D01*
X014440Y023963D02*
X013920Y023963D01*
X013920Y024121D02*
X014440Y024121D01*
X014440Y024280D02*
X013920Y024280D01*
X014035Y024438D02*
X014325Y024438D01*
X014204Y024597D02*
X014156Y024597D01*
X013680Y024833D02*
X013680Y023833D01*
X012180Y022333D01*
X012180Y020999D01*
X014345Y018833D01*
X013989Y018732D02*
X011670Y018732D01*
X011670Y018574D02*
X013989Y018574D01*
X013948Y018891D02*
X011670Y018891D01*
X011670Y019049D02*
X013790Y019049D01*
X013631Y019208D02*
X011670Y019208D01*
X011670Y019366D02*
X013473Y019366D01*
X013314Y019525D02*
X011670Y019525D01*
X011670Y019683D02*
X013156Y019683D01*
X012997Y019842D02*
X011670Y019842D01*
X011670Y020000D02*
X012839Y020000D01*
X012680Y020159D02*
X011670Y020159D01*
X011670Y020317D02*
X012522Y020317D01*
X012363Y020476D02*
X011670Y020476D01*
X011735Y020634D02*
X012205Y020634D01*
X012046Y020793D02*
X011788Y020793D01*
X011769Y020951D02*
X011940Y020951D01*
X011940Y021110D02*
X011660Y021110D01*
X011940Y021268D02*
X008454Y021268D01*
X008296Y021110D02*
X011200Y021110D01*
X011091Y020951D02*
X008137Y020951D01*
X007930Y021083D02*
X011680Y024833D01*
X012035Y024438D02*
X012325Y024438D01*
X012204Y024597D02*
X012156Y024597D01*
X012155Y025072D02*
X012205Y025072D01*
X012328Y025231D02*
X012032Y025231D01*
X011328Y025231D02*
X011032Y025231D01*
X011155Y025072D02*
X011205Y025072D01*
X010680Y024833D02*
X007422Y021575D01*
X002363Y021575D01*
X001888Y021585D02*
X000460Y021585D01*
X000460Y021427D02*
X001888Y021427D01*
X001888Y021268D02*
X000460Y021268D01*
X000460Y021110D02*
X001888Y021110D01*
X001888Y020951D02*
X000460Y020951D01*
X000460Y020793D02*
X001874Y020793D01*
X001868Y020634D02*
X000460Y020634D01*
X000460Y020476D02*
X001868Y020476D01*
X001888Y020317D02*
X000460Y020317D01*
X000460Y020159D02*
X001888Y020159D01*
X001888Y020000D02*
X000460Y020000D01*
X000460Y019842D02*
X001922Y019842D01*
X001878Y019669D02*
X000565Y019669D01*
X000471Y019575D01*
X000471Y018615D01*
X000565Y018522D01*
X001878Y018522D01*
X001972Y018615D01*
X001972Y019575D01*
X001878Y019669D01*
X001972Y019525D02*
X002123Y019525D01*
X002123Y019683D02*
X000460Y019683D01*
X000460Y019525D02*
X000471Y019525D01*
X000460Y019366D02*
X000471Y019366D01*
X000460Y019208D02*
X000471Y019208D01*
X000460Y019049D02*
X000471Y019049D01*
X000460Y018891D02*
X000471Y018891D01*
X000460Y018732D02*
X000471Y018732D01*
X000460Y018574D02*
X000512Y018574D01*
X000460Y018415D02*
X003089Y018415D01*
X003248Y018257D02*
X000460Y018257D01*
X000460Y018098D02*
X003406Y018098D01*
X003565Y017940D02*
X003005Y017940D01*
X003001Y017941D02*
X002859Y017941D01*
X002727Y017887D01*
X002664Y017823D01*
X002391Y017823D01*
X002391Y017846D01*
X002297Y017940D01*
X001732Y017940D01*
X001694Y017902D01*
X001672Y017924D01*
X001631Y017948D01*
X001586Y017960D01*
X001364Y017960D01*
X001364Y017602D01*
X001327Y017602D01*
X001327Y017960D01*
X001105Y017960D01*
X001059Y017948D01*
X001018Y017924D01*
X000985Y017891D01*
X000961Y017850D01*
X000949Y017804D01*
X000949Y017602D01*
X001327Y017602D01*
X001327Y017565D01*
X000949Y017565D01*
X000949Y017363D01*
X000961Y017317D01*
X000985Y017276D01*
X001018Y017242D01*
X001059Y017219D01*
X001105Y017206D01*
X001327Y017206D01*
X001327Y017565D01*
X001364Y017565D01*
X001364Y017206D01*
X001586Y017206D01*
X001631Y017219D01*
X001672Y017242D01*
X001694Y017264D01*
X001732Y017226D01*
X001814Y017226D01*
X001814Y016823D01*
X001382Y016823D01*
X001294Y016787D01*
X001227Y016719D01*
X001103Y016595D01*
X001066Y016507D01*
X001066Y016410D01*
X001036Y016380D01*
X001036Y015727D01*
X001130Y015633D01*
X001482Y015633D01*
X001484Y015635D01*
X001501Y015626D01*
X001546Y015613D01*
X001680Y015613D01*
X001680Y016053D01*
X001680Y015613D01*
X001814Y015613D01*
X001859Y015626D01*
X001876Y015635D01*
X001878Y015633D01*
X002230Y015633D01*
X002324Y015727D01*
X002324Y016380D01*
X002294Y016410D01*
X002294Y017226D01*
X002297Y017226D01*
X002391Y017320D01*
X002391Y017343D01*
X002664Y017343D01*
X002727Y017280D01*
X002859Y017225D01*
X003001Y017225D01*
X003133Y017280D01*
X003234Y017380D01*
X003288Y017512D01*
X003288Y017655D01*
X003234Y017786D01*
X003133Y017887D01*
X003001Y017941D01*
X002855Y017940D02*
X002298Y017940D01*
X001732Y017940D02*
X001645Y017940D01*
X001364Y017940D02*
X001327Y017940D01*
X001327Y017781D02*
X001364Y017781D01*
X001364Y017623D02*
X001327Y017623D01*
X001327Y017464D02*
X001364Y017464D01*
X001364Y017306D02*
X001327Y017306D01*
X001814Y017147D02*
X000460Y017147D01*
X000460Y016989D02*
X001814Y016989D01*
X001814Y016830D02*
X000460Y016830D01*
X000460Y016672D02*
X001179Y016672D01*
X001069Y016513D02*
X000460Y016513D01*
X000460Y016355D02*
X001036Y016355D01*
X001036Y016196D02*
X000460Y016196D01*
X000460Y016038D02*
X001036Y016038D01*
X001036Y015879D02*
X000460Y015879D01*
X000460Y015721D02*
X001042Y015721D01*
X001130Y015533D02*
X001036Y015440D01*
X001036Y014787D01*
X001130Y014693D01*
X001482Y014693D01*
X001576Y014787D01*
X001576Y015440D01*
X001482Y015533D01*
X001130Y015533D01*
X001036Y015404D02*
X000460Y015404D01*
X000460Y015562D02*
X003070Y015562D01*
X003228Y015721D02*
X002318Y015721D01*
X002324Y015879D02*
X003387Y015879D01*
X003545Y016038D02*
X002324Y016038D01*
X002324Y016196D02*
X003704Y016196D01*
X003862Y016355D02*
X002324Y016355D01*
X002294Y016513D02*
X004021Y016513D01*
X004179Y016672D02*
X002294Y016672D01*
X002294Y016830D02*
X004338Y016830D01*
X004496Y016989D02*
X002294Y016989D01*
X002294Y017147D02*
X004357Y017147D01*
X004199Y017306D02*
X003159Y017306D01*
X003268Y017464D02*
X004040Y017464D01*
X003882Y017623D02*
X003288Y017623D01*
X003236Y017781D02*
X003723Y017781D01*
X004085Y018098D02*
X011190Y018098D01*
X011190Y017940D02*
X004244Y017940D01*
X004402Y017781D02*
X011190Y017781D01*
X011190Y017623D02*
X004561Y017623D01*
X004719Y017464D02*
X011190Y017464D01*
X011190Y017306D02*
X004878Y017306D01*
X004845Y016999D02*
X002363Y019481D01*
X002363Y020099D01*
X002838Y020159D02*
X011190Y020159D01*
X011190Y020317D02*
X002838Y020317D01*
X002858Y020476D02*
X011190Y020476D01*
X011125Y020634D02*
X002858Y020634D01*
X002853Y020793D02*
X011072Y020793D01*
X011430Y020833D02*
X011430Y016999D01*
X004845Y016999D01*
X002960Y015113D01*
X002054Y015113D01*
X002054Y013760D01*
X002231Y013583D01*
X002231Y012083D01*
X002231Y010335D01*
X002180Y010284D01*
X003680Y008784D01*
X003680Y004833D01*
X010180Y004833D01*
X010180Y005683D01*
X010535Y005735D02*
X010876Y005735D01*
X010881Y005702D02*
X010909Y005617D01*
X010949Y005539D01*
X011001Y005467D01*
X011064Y005404D01*
X011135Y005352D01*
X011214Y005312D01*
X011298Y005285D01*
X011382Y005271D01*
X011382Y005786D01*
X010868Y005786D01*
X010881Y005702D01*
X010929Y005577D02*
X010535Y005577D01*
X010535Y005418D02*
X011050Y005418D01*
X011382Y005418D02*
X011478Y005418D01*
X011478Y005271D02*
X011562Y005285D01*
X011646Y005312D01*
X011725Y005352D01*
X011796Y005404D01*
X011859Y005467D01*
X011911Y005539D01*
X011951Y005617D01*
X011979Y005702D01*
X011992Y005786D01*
X011478Y005786D01*
X011478Y005881D01*
X011992Y005881D01*
X011979Y005965D01*
X011951Y006049D01*
X011911Y006128D01*
X011859Y006200D01*
X011796Y006262D01*
X011725Y006314D01*
X011646Y006355D01*
X011562Y006382D01*
X011478Y006395D01*
X011478Y005881D01*
X011382Y005881D01*
X011382Y005786D01*
X011478Y005786D01*
X011478Y005271D01*
X011478Y005577D02*
X011382Y005577D01*
X011382Y005735D02*
X011478Y005735D01*
X011478Y005894D02*
X011382Y005894D01*
X011382Y005881D02*
X011382Y006395D01*
X011298Y006382D01*
X011214Y006355D01*
X011135Y006314D01*
X011064Y006262D01*
X011001Y006200D01*
X010949Y006128D01*
X010909Y006049D01*
X010881Y005965D01*
X010868Y005881D01*
X011382Y005881D01*
X011382Y006052D02*
X011478Y006052D01*
X011478Y006211D02*
X011382Y006211D01*
X011382Y006369D02*
X011478Y006369D01*
X011601Y006369D02*
X015259Y006369D01*
X015298Y006382D02*
X015214Y006355D01*
X015135Y006314D01*
X015064Y006262D01*
X015001Y006200D01*
X014949Y006128D01*
X014909Y006049D01*
X014881Y005965D01*
X014868Y005881D01*
X015382Y005881D01*
X015382Y005786D01*
X014868Y005786D01*
X014881Y005702D01*
X014909Y005617D01*
X014949Y005539D01*
X015001Y005467D01*
X015064Y005404D01*
X015135Y005352D01*
X015214Y005312D01*
X015298Y005285D01*
X015382Y005271D01*
X015382Y005786D01*
X015478Y005786D01*
X015478Y005881D01*
X015992Y005881D01*
X015979Y005965D01*
X015951Y006049D01*
X015911Y006128D01*
X015859Y006200D01*
X015796Y006262D01*
X015725Y006314D01*
X015646Y006355D01*
X015562Y006382D01*
X015478Y006395D01*
X015478Y005881D01*
X015382Y005881D01*
X015382Y006395D01*
X015298Y006382D01*
X015382Y006369D02*
X015478Y006369D01*
X015601Y006369D02*
X017759Y006369D01*
X017798Y006382D02*
X017714Y006355D01*
X017635Y006314D01*
X017564Y006262D01*
X017501Y006200D01*
X017449Y006128D01*
X017409Y006049D01*
X017381Y005965D01*
X017368Y005881D01*
X017882Y005881D01*
X017882Y005786D01*
X017368Y005786D01*
X017381Y005702D01*
X017409Y005617D01*
X017449Y005539D01*
X017501Y005467D01*
X017564Y005404D01*
X017635Y005352D01*
X017714Y005312D01*
X017798Y005285D01*
X017882Y005271D01*
X017882Y005786D01*
X017978Y005786D01*
X017978Y005881D01*
X018492Y005881D01*
X018479Y005965D01*
X018451Y006049D01*
X018411Y006128D01*
X018359Y006200D01*
X018296Y006262D01*
X018225Y006314D01*
X018146Y006355D01*
X018062Y006382D01*
X017978Y006395D01*
X017978Y005881D01*
X017882Y005881D01*
X017882Y006395D01*
X017798Y006382D01*
X017882Y006369D02*
X017978Y006369D01*
X018101Y006369D02*
X021759Y006369D01*
X021798Y006382D02*
X021714Y006355D01*
X021635Y006314D01*
X021564Y006262D01*
X021501Y006200D01*
X021449Y006128D01*
X021409Y006049D01*
X021381Y005965D01*
X021368Y005881D01*
X021882Y005881D01*
X021882Y005786D01*
X021368Y005786D01*
X021381Y005702D01*
X021409Y005617D01*
X021449Y005539D01*
X021501Y005467D01*
X021564Y005404D01*
X021635Y005352D01*
X021714Y005312D01*
X021798Y005285D01*
X021882Y005271D01*
X021882Y005786D01*
X021978Y005786D01*
X021978Y005881D01*
X022492Y005881D01*
X022479Y005965D01*
X022451Y006049D01*
X022411Y006128D01*
X022359Y006200D01*
X022296Y006262D01*
X022225Y006314D01*
X022146Y006355D01*
X022062Y006382D01*
X021978Y006395D01*
X021978Y005881D01*
X021882Y005881D01*
X021882Y006395D01*
X021798Y006382D01*
X021882Y006369D02*
X021978Y006369D01*
X022101Y006369D02*
X024009Y006369D01*
X024048Y006382D02*
X023964Y006355D01*
X023885Y006314D01*
X023814Y006262D01*
X023751Y006200D01*
X023699Y006128D01*
X023659Y006049D01*
X023631Y005965D01*
X023618Y005881D01*
X024132Y005881D01*
X024132Y005786D01*
X023618Y005786D01*
X023631Y005702D01*
X023659Y005617D01*
X023699Y005539D01*
X023751Y005467D01*
X023814Y005404D01*
X023885Y005352D01*
X023964Y005312D01*
X024048Y005285D01*
X024132Y005271D01*
X024132Y005786D01*
X024228Y005786D01*
X024228Y005881D01*
X024742Y005881D01*
X024729Y005965D01*
X024701Y006049D01*
X024661Y006128D01*
X024609Y006200D01*
X024546Y006262D01*
X024475Y006314D01*
X024396Y006355D01*
X024312Y006382D01*
X024228Y006395D01*
X024228Y005881D01*
X024132Y005881D01*
X024132Y006395D01*
X024048Y006382D01*
X024132Y006369D02*
X024228Y006369D01*
X024351Y006369D02*
X028009Y006369D01*
X028048Y006382D02*
X027964Y006355D01*
X027885Y006314D01*
X027814Y006262D01*
X027751Y006200D01*
X027699Y006128D01*
X027659Y006049D01*
X027631Y005965D01*
X027618Y005881D01*
X028132Y005881D01*
X028132Y005786D01*
X027618Y005786D01*
X027631Y005702D01*
X027659Y005617D01*
X027699Y005539D01*
X027751Y005467D01*
X027814Y005404D01*
X027885Y005352D01*
X027964Y005312D01*
X028048Y005285D01*
X028132Y005271D01*
X028132Y005786D01*
X028228Y005786D01*
X028228Y005881D01*
X028742Y005881D01*
X028729Y005965D01*
X028701Y006049D01*
X028661Y006128D01*
X028609Y006200D01*
X028546Y006262D01*
X028475Y006314D01*
X028396Y006355D01*
X028312Y006382D01*
X028228Y006395D01*
X028228Y005881D01*
X028132Y005881D01*
X028132Y006395D01*
X028048Y006382D01*
X028132Y006369D02*
X028228Y006369D01*
X028351Y006369D02*
X028940Y006369D01*
X028940Y006211D02*
X028598Y006211D01*
X028700Y006052D02*
X028940Y006052D01*
X028940Y005894D02*
X028740Y005894D01*
X028742Y005786D02*
X028228Y005786D01*
X028228Y005271D01*
X028312Y005285D01*
X028396Y005312D01*
X028475Y005352D01*
X028546Y005404D01*
X028609Y005467D01*
X028661Y005539D01*
X028701Y005617D01*
X028729Y005702D01*
X028742Y005786D01*
X028734Y005735D02*
X028940Y005735D01*
X028940Y005577D02*
X028681Y005577D01*
X028560Y005418D02*
X028940Y005418D01*
X028940Y005260D02*
X010420Y005260D01*
X010420Y005101D02*
X028940Y005101D01*
X029180Y004833D02*
X029180Y008333D01*
X028940Y008271D02*
X026509Y008271D01*
X026651Y008113D02*
X028940Y008113D01*
X028940Y007954D02*
X026717Y007954D01*
X026722Y007796D02*
X028940Y007796D01*
X028940Y007637D02*
X026686Y007637D01*
X026593Y007479D02*
X028940Y007479D01*
X028940Y007320D02*
X026359Y007320D01*
X026001Y007320D02*
X020109Y007320D01*
X020038Y007291D02*
X020237Y007373D01*
X020390Y007526D01*
X020472Y007725D01*
X020472Y007941D01*
X020390Y008141D01*
X020237Y008293D01*
X020038Y008376D01*
X019822Y008376D01*
X019623Y008293D01*
X019470Y008141D01*
X019407Y007989D01*
X017057Y007989D01*
X017057Y008012D01*
X016985Y008083D01*
X017057Y008155D01*
X017057Y008681D01*
X016963Y008775D01*
X016920Y008775D01*
X016920Y009067D01*
X016984Y009130D01*
X017038Y009262D01*
X017038Y009405D01*
X016984Y009536D01*
X016883Y009637D01*
X016751Y009691D01*
X016609Y009691D01*
X016477Y009637D01*
X016376Y009536D01*
X016322Y009405D01*
X016322Y009262D01*
X016376Y009130D01*
X016440Y009067D01*
X016440Y008775D01*
X016397Y008775D01*
X016303Y008681D01*
X016303Y008155D01*
X016375Y008083D01*
X016303Y008012D01*
X016303Y007486D01*
X016397Y007392D01*
X016963Y007392D01*
X017057Y007486D01*
X017057Y007509D01*
X019487Y007509D01*
X019623Y007373D01*
X019822Y007291D01*
X020038Y007291D01*
X019751Y007320D02*
X013609Y007320D01*
X013843Y007479D02*
X016310Y007479D01*
X016303Y007637D02*
X013936Y007637D01*
X013972Y007796D02*
X016303Y007796D01*
X016303Y007954D02*
X013967Y007954D01*
X013901Y008113D02*
X016345Y008113D01*
X016303Y008271D02*
X013759Y008271D01*
X013670Y008430D02*
X016303Y008430D01*
X016303Y008588D02*
X013670Y008588D01*
X013670Y008747D02*
X016369Y008747D01*
X016440Y008905D02*
X013670Y008905D01*
X013670Y009064D02*
X016440Y009064D01*
X016338Y009222D02*
X013670Y009222D01*
X013190Y009222D02*
X010911Y009222D01*
X010911Y009064D02*
X013190Y009064D01*
X013190Y008905D02*
X010892Y008905D01*
X010613Y009266D02*
X010680Y009333D01*
X010613Y009266D02*
X010554Y009266D01*
X010554Y010400D01*
X011707Y011553D01*
X012180Y011553D01*
X013420Y011553D01*
X013430Y011543D01*
X013720Y011543D01*
X014305Y010958D01*
X014470Y010958D01*
X014555Y010874D01*
X014932Y010807D02*
X030440Y010807D01*
X030440Y010966D02*
X014932Y010966D01*
X014932Y011124D02*
X030440Y011124D01*
X030440Y011283D02*
X014932Y011283D01*
X014932Y011441D02*
X030440Y011441D01*
X030920Y011441D02*
X032577Y011441D01*
X032577Y011283D02*
X030920Y011283D01*
X030920Y011600D02*
X032577Y011600D01*
X032577Y011758D02*
X030920Y011758D01*
X030920Y011917D02*
X032577Y011917D01*
X032577Y012075D02*
X030920Y012075D01*
X030920Y012234D02*
X032577Y012234D01*
X032577Y012392D02*
X032030Y012392D01*
X032046Y012404D02*
X032109Y012467D01*
X032161Y012539D01*
X032201Y012617D01*
X032229Y012702D01*
X032242Y012786D01*
X031728Y012786D01*
X031728Y012271D01*
X031812Y012285D01*
X031896Y012312D01*
X031975Y012352D01*
X032046Y012404D01*
X032167Y012551D02*
X032577Y012551D01*
X032577Y012709D02*
X032230Y012709D01*
X031728Y012709D02*
X031632Y012709D01*
X031632Y012551D02*
X031728Y012551D01*
X031728Y012392D02*
X031632Y012392D01*
X031330Y012392D02*
X030920Y012392D01*
X030920Y012551D02*
X031193Y012551D01*
X031130Y012709D02*
X030920Y012709D01*
X031405Y011124D02*
X032577Y011124D01*
X032577Y010966D02*
X031405Y010966D01*
X031405Y010807D02*
X032577Y010807D01*
X032577Y010649D02*
X031405Y010649D01*
X031405Y010490D02*
X032577Y010490D01*
X032577Y010332D02*
X031405Y010332D01*
X031405Y010173D02*
X032577Y010173D01*
X032577Y010015D02*
X031405Y010015D01*
X031405Y009856D02*
X032577Y009856D01*
X032577Y009698D02*
X031405Y009698D01*
X031405Y009539D02*
X032577Y009539D01*
X032577Y009381D02*
X031355Y009381D01*
X030455Y010015D02*
X028712Y010015D01*
X028628Y010173D02*
X030455Y010173D01*
X030455Y010649D02*
X014932Y010649D01*
X014982Y010173D02*
X013670Y010173D01*
X013670Y010015D02*
X014898Y010015D01*
X015691Y010332D02*
X017669Y010332D01*
X017882Y010332D02*
X017978Y010332D01*
X017978Y010173D02*
X017882Y010173D01*
X017882Y010015D02*
X017978Y010015D01*
X017978Y009698D02*
X017882Y009698D01*
X017882Y009539D02*
X017978Y009539D01*
X017978Y009381D02*
X017882Y009381D01*
X017596Y009381D02*
X017038Y009381D01*
X017022Y009222D02*
X022838Y009222D01*
X022940Y009064D02*
X016920Y009064D01*
X016920Y008905D02*
X022940Y008905D01*
X022869Y008747D02*
X016991Y008747D01*
X017057Y008588D02*
X022803Y008588D01*
X022803Y008430D02*
X017057Y008430D01*
X017057Y008271D02*
X019601Y008271D01*
X019459Y008113D02*
X017015Y008113D01*
X016680Y008418D02*
X016680Y009333D01*
X016322Y009381D02*
X015764Y009381D01*
X015912Y009539D02*
X016380Y009539D01*
X015977Y009698D02*
X017383Y009698D01*
X017448Y009539D02*
X016980Y009539D01*
X017398Y010015D02*
X015962Y010015D01*
X015878Y010173D02*
X017482Y010173D01*
X018191Y010332D02*
X021669Y010332D01*
X021482Y010173D02*
X018378Y010173D01*
X018462Y010015D02*
X021398Y010015D01*
X021383Y009698D02*
X018477Y009698D01*
X018412Y009539D02*
X021448Y009539D01*
X021596Y009381D02*
X018264Y009381D01*
X019845Y007749D02*
X019930Y007833D01*
X019845Y007749D02*
X016680Y007749D01*
X017050Y007479D02*
X019517Y007479D01*
X020343Y007479D02*
X022810Y007479D01*
X022803Y007637D02*
X020436Y007637D01*
X020472Y007796D02*
X022803Y007796D01*
X022803Y007954D02*
X020467Y007954D01*
X020401Y008113D02*
X022845Y008113D01*
X022803Y008271D02*
X020259Y008271D01*
X021512Y006211D02*
X018348Y006211D01*
X018450Y006052D02*
X021410Y006052D01*
X021370Y005894D02*
X018490Y005894D01*
X018492Y005786D02*
X017978Y005786D01*
X017978Y005271D01*
X018062Y005285D01*
X018146Y005312D01*
X018225Y005352D01*
X018296Y005404D01*
X018359Y005467D01*
X018411Y005539D01*
X018451Y005617D01*
X018479Y005702D01*
X018492Y005786D01*
X018484Y005735D02*
X021376Y005735D01*
X021429Y005577D02*
X018431Y005577D01*
X018310Y005418D02*
X021550Y005418D01*
X021882Y005418D02*
X021978Y005418D01*
X021978Y005271D02*
X022062Y005285D01*
X022146Y005312D01*
X022225Y005352D01*
X022296Y005404D01*
X022359Y005467D01*
X022411Y005539D01*
X022451Y005617D01*
X022479Y005702D01*
X022492Y005786D01*
X021978Y005786D01*
X021978Y005271D01*
X021978Y005577D02*
X021882Y005577D01*
X021882Y005735D02*
X021978Y005735D01*
X021978Y005894D02*
X021882Y005894D01*
X021882Y006052D02*
X021978Y006052D01*
X021978Y006211D02*
X021882Y006211D01*
X022348Y006211D02*
X023762Y006211D01*
X023660Y006052D02*
X022450Y006052D01*
X022490Y005894D02*
X023620Y005894D01*
X023626Y005735D02*
X022484Y005735D01*
X022431Y005577D02*
X023679Y005577D01*
X023800Y005418D02*
X022310Y005418D01*
X024132Y005418D02*
X024228Y005418D01*
X024228Y005271D02*
X024312Y005285D01*
X024396Y005312D01*
X024475Y005352D01*
X024546Y005404D01*
X024609Y005467D01*
X024661Y005539D01*
X024701Y005617D01*
X024729Y005702D01*
X024742Y005786D01*
X024228Y005786D01*
X024228Y005271D01*
X024228Y005577D02*
X024132Y005577D01*
X024132Y005735D02*
X024228Y005735D01*
X024228Y005894D02*
X024132Y005894D01*
X024132Y006052D02*
X024228Y006052D01*
X024228Y006211D02*
X024132Y006211D01*
X024598Y006211D02*
X027762Y006211D01*
X027660Y006052D02*
X024700Y006052D01*
X024740Y005894D02*
X027620Y005894D01*
X027626Y005735D02*
X024734Y005735D01*
X024681Y005577D02*
X027679Y005577D01*
X027800Y005418D02*
X024560Y005418D01*
X023550Y007479D02*
X025767Y007479D01*
X026095Y007749D02*
X023180Y007749D01*
X023515Y008113D02*
X025709Y008113D01*
X025851Y008271D02*
X023557Y008271D01*
X026095Y007749D02*
X026180Y007833D01*
X028132Y006211D02*
X028228Y006211D01*
X028228Y006052D02*
X028132Y006052D01*
X028132Y005894D02*
X028228Y005894D01*
X028228Y005735D02*
X028132Y005735D01*
X028132Y005577D02*
X028228Y005577D01*
X028228Y005418D02*
X028132Y005418D01*
X029180Y004833D02*
X010180Y004833D01*
X009940Y005101D02*
X003920Y005101D01*
X003920Y005260D02*
X009940Y005260D01*
X009825Y005418D02*
X009310Y005418D01*
X009296Y005404D02*
X009359Y005467D01*
X009411Y005539D01*
X009451Y005617D01*
X009479Y005702D01*
X009492Y005786D01*
X008978Y005786D01*
X008978Y005881D01*
X009492Y005881D01*
X009479Y005965D01*
X009451Y006049D01*
X009411Y006128D01*
X009359Y006200D01*
X009296Y006262D01*
X009225Y006314D01*
X009146Y006355D01*
X009062Y006382D01*
X008978Y006395D01*
X008978Y005881D01*
X008882Y005881D01*
X008882Y005786D01*
X008368Y005786D01*
X008381Y005702D01*
X008409Y005617D01*
X008449Y005539D01*
X008501Y005467D01*
X008564Y005404D01*
X008635Y005352D01*
X008714Y005312D01*
X008798Y005285D01*
X008882Y005271D01*
X008882Y005786D01*
X008978Y005786D01*
X008978Y005271D01*
X009062Y005285D01*
X009146Y005312D01*
X009225Y005352D01*
X009296Y005404D01*
X009431Y005577D02*
X009825Y005577D01*
X009825Y005735D02*
X009484Y005735D01*
X009490Y005894D02*
X009825Y005894D01*
X009868Y006052D02*
X009450Y006052D01*
X009455Y006211D02*
X009348Y006211D01*
X009455Y006369D02*
X009101Y006369D01*
X008978Y006369D02*
X008882Y006369D01*
X008882Y006395D02*
X008798Y006382D01*
X008714Y006355D01*
X008635Y006314D01*
X008564Y006262D01*
X008501Y006200D01*
X008449Y006128D01*
X008409Y006049D01*
X008381Y005965D01*
X008368Y005881D01*
X008882Y005881D01*
X008882Y006395D01*
X008759Y006369D02*
X005101Y006369D01*
X005062Y006382D02*
X004978Y006395D01*
X004978Y005881D01*
X005492Y005881D01*
X005479Y005965D01*
X005451Y006049D01*
X005411Y006128D01*
X005359Y006200D01*
X005296Y006262D01*
X005225Y006314D01*
X005146Y006355D01*
X005062Y006382D01*
X004978Y006369D02*
X004882Y006369D01*
X004882Y006395D02*
X004798Y006382D01*
X004714Y006355D01*
X004635Y006314D01*
X004564Y006262D01*
X004501Y006200D01*
X004449Y006128D01*
X004409Y006049D01*
X004381Y005965D01*
X004368Y005881D01*
X004882Y005881D01*
X004882Y005786D01*
X004368Y005786D01*
X004381Y005702D01*
X004409Y005617D01*
X004449Y005539D01*
X004501Y005467D01*
X004564Y005404D01*
X004635Y005352D01*
X004714Y005312D01*
X004798Y005285D01*
X004882Y005271D01*
X004882Y005786D01*
X004978Y005786D01*
X004978Y005881D01*
X004882Y005881D01*
X004882Y006395D01*
X004759Y006369D02*
X003920Y006369D01*
X003920Y006211D02*
X004512Y006211D01*
X004410Y006052D02*
X003920Y006052D01*
X003920Y005894D02*
X004370Y005894D01*
X004376Y005735D02*
X003920Y005735D01*
X003920Y005577D02*
X004429Y005577D01*
X004550Y005418D02*
X003920Y005418D01*
X003440Y005418D02*
X003096Y005418D01*
X003096Y005260D02*
X003440Y005260D01*
X003440Y005101D02*
X003061Y005101D01*
X003019Y004943D02*
X003440Y004943D01*
X003441Y004784D02*
X002943Y004784D01*
X002852Y004626D02*
X003554Y004626D01*
X003440Y005577D02*
X003096Y005577D01*
X003056Y005735D02*
X003440Y005735D01*
X003440Y005894D02*
X003013Y005894D01*
X002931Y006052D02*
X003440Y006052D01*
X003440Y006211D02*
X002840Y006211D01*
X002690Y006369D02*
X003440Y006369D01*
X003440Y006528D02*
X002498Y006528D01*
X002166Y006686D02*
X003440Y006686D01*
X003440Y006845D02*
X000460Y006845D01*
X000460Y007003D02*
X001710Y007003D01*
X001721Y006985D02*
X001755Y006951D01*
X001796Y006927D01*
X001841Y006915D01*
X002103Y006915D01*
X002103Y007805D01*
X002257Y007805D01*
X002257Y006915D01*
X002519Y006915D01*
X002564Y006927D01*
X002605Y006951D01*
X002639Y006985D01*
X002663Y007026D01*
X002675Y007071D01*
X002675Y007805D01*
X002257Y007805D01*
X002257Y007960D01*
X002103Y007960D01*
X002103Y008850D01*
X001841Y008850D01*
X001796Y008838D01*
X001755Y008814D01*
X001721Y008780D01*
X001697Y008739D01*
X001685Y008694D01*
X001685Y007960D01*
X002103Y007960D01*
X002103Y007805D01*
X001685Y007805D01*
X001685Y007071D01*
X001697Y007026D01*
X001721Y006985D01*
X001685Y007162D02*
X000460Y007162D01*
X000460Y007320D02*
X001685Y007320D01*
X001685Y007479D02*
X000460Y007479D01*
X000460Y007637D02*
X001685Y007637D01*
X001685Y007796D02*
X000460Y007796D01*
X000460Y007954D02*
X002103Y007954D01*
X002257Y007954D02*
X003440Y007954D01*
X003440Y007796D02*
X002675Y007796D01*
X002675Y007637D02*
X003440Y007637D01*
X003440Y007479D02*
X002675Y007479D01*
X002675Y007320D02*
X003440Y007320D01*
X003440Y007162D02*
X002675Y007162D01*
X002650Y007003D02*
X003440Y007003D01*
X003920Y007003D02*
X009570Y007003D01*
X009570Y007162D02*
X003920Y007162D01*
X003920Y007320D02*
X006751Y007320D01*
X006517Y007479D02*
X003920Y007479D01*
X003920Y007637D02*
X006424Y007637D01*
X006388Y007796D02*
X003920Y007796D01*
X003920Y007954D02*
X006393Y007954D01*
X006459Y008113D02*
X003920Y008113D01*
X003920Y008271D02*
X006601Y008271D01*
X006690Y008430D02*
X003920Y008430D01*
X003920Y008588D02*
X006690Y008588D01*
X006690Y008747D02*
X003920Y008747D01*
X003890Y008905D02*
X006690Y008905D01*
X006690Y009064D02*
X003740Y009064D01*
X003816Y008988D02*
X003816Y008988D01*
X003581Y009222D02*
X006690Y009222D01*
X006690Y009381D02*
X005264Y009381D01*
X005296Y009404D02*
X005225Y009352D01*
X005146Y009312D01*
X005062Y009285D01*
X004978Y009271D01*
X004978Y009786D01*
X004978Y009881D01*
X005492Y009881D01*
X005479Y009965D01*
X005451Y010049D01*
X005411Y010128D01*
X005359Y010200D01*
X005296Y010262D01*
X005225Y010314D01*
X005146Y010355D01*
X005062Y010382D01*
X004978Y010395D01*
X004978Y009881D01*
X004882Y009881D01*
X004882Y009786D01*
X004368Y009786D01*
X004381Y009702D01*
X004409Y009617D01*
X004449Y009539D01*
X004501Y009467D01*
X004564Y009404D01*
X004635Y009352D01*
X004714Y009312D01*
X004798Y009285D01*
X004882Y009271D01*
X004882Y009786D01*
X004978Y009786D01*
X005492Y009786D01*
X005479Y009702D01*
X005451Y009617D01*
X005411Y009539D01*
X005359Y009467D01*
X005296Y009404D01*
X005412Y009539D02*
X006690Y009539D01*
X006690Y009698D02*
X005477Y009698D01*
X005462Y010015D02*
X006690Y010015D01*
X006690Y010173D02*
X005378Y010173D01*
X005191Y010332D02*
X006690Y010332D01*
X006690Y010490D02*
X005964Y010490D01*
X006073Y010649D02*
X006553Y010649D01*
X006553Y010807D02*
X006073Y010807D01*
X006073Y010966D02*
X006553Y010966D01*
X006553Y011124D02*
X006065Y011124D01*
X006053Y011283D02*
X006553Y011283D01*
X006920Y011553D02*
X005680Y011553D01*
X005307Y011600D02*
X002643Y011600D01*
X002706Y011758D02*
X005307Y011758D01*
X005398Y011917D02*
X002706Y011917D01*
X002706Y012075D02*
X008248Y012075D01*
X008089Y011917D02*
X005962Y011917D01*
X005307Y011441D02*
X002471Y011441D01*
X002471Y011283D02*
X005307Y011283D01*
X005295Y011124D02*
X002655Y011124D01*
X002655Y010966D02*
X005287Y010966D01*
X005287Y010840D02*
X005287Y010633D01*
X005300Y010588D01*
X005323Y010547D01*
X005357Y010513D01*
X005398Y010489D01*
X005444Y010477D01*
X005657Y010477D01*
X005657Y010840D01*
X005287Y010840D01*
X005287Y010807D02*
X002655Y010807D01*
X002655Y010649D02*
X005287Y010649D01*
X005396Y010490D02*
X002655Y010490D01*
X002655Y010332D02*
X004669Y010332D01*
X004635Y010314D02*
X004564Y010262D01*
X004501Y010200D01*
X004449Y010128D01*
X004409Y010049D01*
X004381Y009965D01*
X004368Y009881D01*
X004882Y009881D01*
X004882Y010395D01*
X004798Y010382D01*
X004714Y010355D01*
X004635Y010314D01*
X004482Y010173D02*
X002655Y010173D01*
X002789Y010015D02*
X004398Y010015D01*
X004383Y009698D02*
X003106Y009698D01*
X003264Y009539D02*
X004448Y009539D01*
X004596Y009381D02*
X003423Y009381D01*
X003061Y009064D02*
X000460Y009064D01*
X000460Y009222D02*
X002902Y009222D01*
X002744Y009381D02*
X002605Y009381D01*
X002947Y009856D02*
X004882Y009856D01*
X004978Y009856D02*
X006690Y009856D01*
X007170Y009856D02*
X007940Y009856D01*
X007940Y009698D02*
X007170Y009698D01*
X007170Y009539D02*
X007940Y009539D01*
X007940Y009381D02*
X007170Y009381D01*
X007170Y009222D02*
X007966Y009222D01*
X008110Y009064D02*
X007170Y009064D01*
X007170Y008905D02*
X008269Y008905D01*
X008427Y008747D02*
X007170Y008747D01*
X007170Y008588D02*
X009823Y008588D01*
X009823Y008430D02*
X007170Y008430D01*
X007259Y008271D02*
X009712Y008271D01*
X009605Y008113D02*
X009605Y007940D01*
X009469Y007796D02*
X007472Y007796D01*
X007436Y007637D02*
X009469Y007637D01*
X009469Y007479D02*
X007343Y007479D01*
X007109Y007320D02*
X009469Y007320D01*
X009810Y007548D02*
X009810Y006483D01*
X010165Y006528D02*
X010175Y006528D01*
X010175Y006501D02*
X010532Y006501D01*
X010532Y006466D01*
X010568Y006466D01*
X010568Y006501D01*
X010925Y006501D01*
X010925Y006767D01*
X010913Y006813D01*
X010889Y006854D01*
X010856Y006887D01*
X010814Y006911D01*
X010769Y006923D01*
X010568Y006923D01*
X010568Y006501D01*
X010532Y006501D01*
X010532Y006923D01*
X010331Y006923D01*
X010286Y006911D01*
X010244Y006887D01*
X010211Y006854D01*
X010187Y006813D01*
X010175Y006767D01*
X010175Y006501D01*
X010165Y006369D02*
X010175Y006369D01*
X010165Y006211D02*
X010175Y006211D01*
X010532Y006211D02*
X010568Y006211D01*
X010568Y006369D02*
X010532Y006369D01*
X010568Y006466D02*
X010568Y006043D01*
X010769Y006043D01*
X010814Y006056D01*
X010856Y006079D01*
X010889Y006113D01*
X010913Y006154D01*
X010925Y006200D01*
X010925Y006466D01*
X010568Y006466D01*
X010568Y006528D02*
X010532Y006528D01*
X010532Y006686D02*
X010568Y006686D01*
X010568Y006845D02*
X010532Y006845D01*
X010206Y006845D02*
X010130Y006845D01*
X010165Y006686D02*
X010175Y006686D01*
X010050Y007003D02*
X028940Y007003D01*
X028940Y006845D02*
X010894Y006845D01*
X010925Y006686D02*
X028940Y006686D01*
X028940Y006528D02*
X010925Y006528D01*
X010925Y006369D02*
X011259Y006369D01*
X011012Y006211D02*
X010925Y006211D01*
X010910Y006052D02*
X010802Y006052D01*
X010870Y005894D02*
X010535Y005894D01*
X010532Y006052D02*
X010568Y006052D01*
X011848Y006211D02*
X015012Y006211D01*
X014910Y006052D02*
X011950Y006052D01*
X011990Y005894D02*
X014870Y005894D01*
X014876Y005735D02*
X011984Y005735D01*
X011931Y005577D02*
X014929Y005577D01*
X015050Y005418D02*
X011810Y005418D01*
X010801Y007219D02*
X010842Y007242D01*
X010875Y007276D01*
X010899Y007317D01*
X010911Y007363D01*
X010911Y007565D01*
X010533Y007565D01*
X010533Y007206D01*
X010755Y007206D01*
X010801Y007219D01*
X010900Y007320D02*
X013251Y007320D01*
X013017Y007479D02*
X010911Y007479D01*
X010911Y007602D02*
X010911Y007804D01*
X010899Y007850D01*
X010875Y007891D01*
X010842Y007924D01*
X010801Y007948D01*
X010755Y007960D01*
X010533Y007960D01*
X010533Y007602D01*
X010911Y007602D01*
X010911Y007637D02*
X012924Y007637D01*
X012888Y007796D02*
X010911Y007796D01*
X010777Y007954D02*
X012893Y007954D01*
X012959Y008113D02*
X010537Y008113D01*
X010537Y008271D02*
X013101Y008271D01*
X013190Y008430D02*
X010537Y008430D01*
X010537Y008588D02*
X013190Y008588D01*
X013190Y008747D02*
X010532Y008747D01*
X010286Y008836D02*
X010074Y008836D01*
X010163Y008925D01*
X010163Y009608D01*
X010069Y009702D01*
X010046Y009702D01*
X010046Y009965D01*
X010069Y009965D01*
X010163Y010058D01*
X010163Y010742D01*
X010094Y010811D01*
X010162Y010811D01*
X010162Y011248D01*
X010198Y011248D01*
X010198Y010811D01*
X010266Y010811D01*
X010197Y010742D01*
X010197Y010058D01*
X010291Y009965D01*
X010314Y009965D01*
X010314Y009702D01*
X010291Y009702D01*
X010197Y009608D01*
X010197Y008925D01*
X010286Y008836D01*
X010216Y008905D02*
X010144Y008905D01*
X010163Y009064D02*
X010197Y009064D01*
X010197Y009222D02*
X010163Y009222D01*
X010163Y009381D02*
X010197Y009381D01*
X010197Y009539D02*
X010163Y009539D01*
X010073Y009698D02*
X010287Y009698D01*
X010314Y009856D02*
X010046Y009856D01*
X010119Y010015D02*
X010241Y010015D01*
X010197Y010173D02*
X010163Y010173D01*
X010163Y010332D02*
X010197Y010332D01*
X010197Y010490D02*
X010163Y010490D01*
X010163Y010649D02*
X010197Y010649D01*
X010262Y010807D02*
X010098Y010807D01*
X010162Y010966D02*
X010198Y010966D01*
X010198Y011124D02*
X010162Y011124D01*
X010162Y011248D02*
X009803Y011248D01*
X009803Y010967D01*
X009815Y010921D01*
X009839Y010880D01*
X009873Y010847D01*
X009892Y010836D01*
X009543Y010836D01*
X009449Y010742D01*
X009449Y010058D01*
X009543Y009965D01*
X009566Y009965D01*
X009566Y009702D01*
X009543Y009702D01*
X009449Y009608D01*
X009449Y009249D01*
X009274Y009073D01*
X008779Y009073D01*
X008420Y009433D01*
X008420Y009595D01*
X008449Y009539D01*
X008501Y009467D01*
X008564Y009404D01*
X008635Y009352D01*
X008714Y009312D01*
X008798Y009285D01*
X008882Y009271D01*
X008882Y009786D01*
X008978Y009786D01*
X008978Y009881D01*
X009492Y009881D01*
X009479Y009965D01*
X009451Y010049D01*
X009411Y010128D01*
X009359Y010200D01*
X009296Y010262D01*
X009225Y010314D01*
X009146Y010355D01*
X009062Y010382D01*
X008978Y010395D01*
X008978Y009881D01*
X008882Y009881D01*
X008882Y010395D01*
X008798Y010382D01*
X008714Y010355D01*
X008635Y010314D01*
X008564Y010262D01*
X008501Y010200D01*
X008449Y010128D01*
X008420Y010071D01*
X008420Y010599D01*
X008432Y010611D01*
X008432Y011137D01*
X008360Y011208D01*
X008432Y011280D01*
X008432Y011580D01*
X008695Y011843D01*
X011825Y011843D01*
X011807Y011826D01*
X011807Y011793D01*
X011659Y011793D01*
X011571Y011756D01*
X010650Y010836D01*
X010468Y010836D01*
X010487Y010847D01*
X010521Y010880D01*
X010545Y010921D01*
X010557Y010967D01*
X010557Y011248D01*
X010198Y011248D01*
X010198Y011285D01*
X010162Y011285D01*
X010162Y011722D01*
X009959Y011722D01*
X009914Y011710D01*
X009873Y011686D01*
X009839Y011653D01*
X009815Y011611D01*
X009803Y011566D01*
X009803Y011285D01*
X010162Y011285D01*
X010162Y011248D01*
X010162Y011283D02*
X008432Y011283D01*
X008432Y011441D02*
X009803Y011441D01*
X009812Y011600D02*
X008451Y011600D01*
X008610Y011758D02*
X011576Y011758D01*
X011414Y011600D02*
X010548Y011600D01*
X010545Y011611D02*
X010521Y011653D01*
X010487Y011686D01*
X010446Y011710D01*
X010401Y011722D01*
X010198Y011722D01*
X010198Y011285D01*
X010557Y011285D01*
X010557Y011566D01*
X010545Y011611D01*
X010557Y011441D02*
X011256Y011441D01*
X011097Y011283D02*
X010198Y011283D01*
X010198Y011441D02*
X010162Y011441D01*
X010162Y011600D02*
X010198Y011600D01*
X010557Y011124D02*
X010939Y011124D01*
X010780Y010966D02*
X010557Y010966D01*
X010984Y010490D02*
X011896Y010490D01*
X011898Y010489D02*
X011944Y010477D01*
X012157Y010477D01*
X012157Y010840D01*
X011787Y010840D01*
X011787Y010633D01*
X011800Y010588D01*
X011823Y010547D01*
X011857Y010513D01*
X011898Y010489D01*
X011787Y010649D02*
X011142Y010649D01*
X011301Y010807D02*
X011787Y010807D01*
X011787Y010966D02*
X011459Y010966D01*
X011618Y011124D02*
X011795Y011124D01*
X011807Y011283D02*
X011776Y011283D01*
X012157Y010807D02*
X012203Y010807D01*
X012203Y010649D02*
X012157Y010649D01*
X012157Y010490D02*
X012203Y010490D01*
X012464Y010490D02*
X013190Y010490D01*
X013190Y010332D02*
X011691Y010332D01*
X011725Y010314D02*
X011646Y010355D01*
X011562Y010382D01*
X011478Y010395D01*
X011478Y009881D01*
X011992Y009881D01*
X011979Y009965D01*
X011951Y010049D01*
X011911Y010128D01*
X011859Y010200D01*
X011796Y010262D01*
X011725Y010314D01*
X011878Y010173D02*
X013190Y010173D01*
X013190Y010015D02*
X011962Y010015D01*
X011992Y009786D02*
X011478Y009786D01*
X011478Y009881D01*
X011382Y009881D01*
X011382Y009786D01*
X010868Y009786D01*
X010881Y009702D01*
X010909Y009617D01*
X010949Y009539D01*
X011001Y009467D01*
X011064Y009404D01*
X011135Y009352D01*
X011214Y009312D01*
X011298Y009285D01*
X011382Y009271D01*
X011382Y009786D01*
X011478Y009786D01*
X011478Y009271D01*
X011562Y009285D01*
X011646Y009312D01*
X011725Y009352D01*
X011796Y009404D01*
X011859Y009467D01*
X011911Y009539D01*
X011951Y009617D01*
X011979Y009702D01*
X011992Y009786D01*
X011977Y009698D02*
X013190Y009698D01*
X013190Y009856D02*
X011478Y009856D01*
X011382Y009856D02*
X010794Y009856D01*
X010868Y009881D02*
X011382Y009881D01*
X011382Y010395D01*
X011298Y010382D01*
X011214Y010355D01*
X011135Y010314D01*
X011064Y010262D01*
X011001Y010200D01*
X010949Y010128D01*
X010909Y010049D01*
X010881Y009965D01*
X010868Y009881D01*
X010867Y010015D02*
X010898Y010015D01*
X010911Y010173D02*
X010982Y010173D01*
X010911Y010332D02*
X011169Y010332D01*
X011382Y010332D02*
X011478Y010332D01*
X011478Y010173D02*
X011382Y010173D01*
X011382Y010015D02*
X011478Y010015D01*
X011478Y009698D02*
X011382Y009698D01*
X011382Y009539D02*
X011478Y009539D01*
X011478Y009381D02*
X011382Y009381D01*
X011096Y009381D02*
X010920Y009381D01*
X010911Y009539D02*
X010948Y009539D01*
X010883Y009698D02*
X010821Y009698D01*
X011764Y009381D02*
X013190Y009381D01*
X013190Y009539D02*
X011912Y009539D01*
X012573Y010649D02*
X013053Y010649D01*
X013053Y010807D02*
X012573Y010807D01*
X012573Y010966D02*
X013053Y010966D01*
X013053Y011124D02*
X012565Y011124D01*
X012553Y011283D02*
X013053Y011283D01*
X013430Y010874D02*
X013430Y007833D01*
X015382Y006211D02*
X015478Y006211D01*
X015478Y006052D02*
X015382Y006052D01*
X015382Y005894D02*
X015478Y005894D01*
X015478Y005786D02*
X015992Y005786D01*
X015979Y005702D01*
X015951Y005617D01*
X015911Y005539D01*
X015859Y005467D01*
X015796Y005404D01*
X015725Y005352D01*
X015646Y005312D01*
X015562Y005285D01*
X015478Y005271D01*
X015478Y005786D01*
X015478Y005735D02*
X015382Y005735D01*
X015382Y005577D02*
X015478Y005577D01*
X015478Y005418D02*
X015382Y005418D01*
X015810Y005418D02*
X017550Y005418D01*
X017429Y005577D02*
X015931Y005577D01*
X015984Y005735D02*
X017376Y005735D01*
X017370Y005894D02*
X015990Y005894D01*
X015950Y006052D02*
X017410Y006052D01*
X017512Y006211D02*
X015848Y006211D01*
X017882Y006211D02*
X017978Y006211D01*
X017978Y006052D02*
X017882Y006052D01*
X017882Y005894D02*
X017978Y005894D01*
X017978Y005735D02*
X017882Y005735D01*
X017882Y005577D02*
X017978Y005577D01*
X017978Y005418D02*
X017882Y005418D01*
X014178Y010649D02*
X013807Y010649D01*
X013807Y010807D02*
X014117Y010807D01*
X014102Y010822D02*
X014102Y010822D01*
X013958Y010966D02*
X013807Y010966D01*
X013680Y012083D02*
X008595Y012083D01*
X008055Y011543D01*
X007678Y011600D02*
X007503Y011600D01*
X007661Y011441D02*
X007678Y011441D01*
X007678Y011758D02*
X007328Y011758D01*
X007220Y011543D02*
X007930Y010833D01*
X008015Y010833D01*
X008055Y010874D01*
X008095Y010833D01*
X008180Y010833D01*
X008180Y009333D01*
X008680Y008833D01*
X009373Y008833D01*
X009806Y009266D01*
X009806Y010400D01*
X009449Y010332D02*
X009191Y010332D01*
X008978Y010332D02*
X008882Y010332D01*
X008882Y010173D02*
X008978Y010173D01*
X008978Y010015D02*
X008882Y010015D01*
X008978Y009856D02*
X009566Y009856D01*
X009492Y009786D02*
X008978Y009786D01*
X008978Y009271D01*
X009062Y009285D01*
X009146Y009312D01*
X009225Y009352D01*
X009296Y009404D01*
X009359Y009467D01*
X009411Y009539D01*
X009451Y009617D01*
X009479Y009702D01*
X009492Y009786D01*
X009477Y009698D02*
X009539Y009698D01*
X009449Y009539D02*
X009412Y009539D01*
X009449Y009381D02*
X009264Y009381D01*
X009423Y009222D02*
X008630Y009222D01*
X008596Y009381D02*
X008472Y009381D01*
X008448Y009539D02*
X008420Y009539D01*
X008882Y009539D02*
X008978Y009539D01*
X008978Y009381D02*
X008882Y009381D01*
X008882Y009698D02*
X008978Y009698D01*
X009462Y010015D02*
X009493Y010015D01*
X009449Y010173D02*
X009378Y010173D01*
X009449Y010490D02*
X008420Y010490D01*
X008420Y010332D02*
X008669Y010332D01*
X008482Y010173D02*
X008420Y010173D01*
X008432Y010649D02*
X009449Y010649D01*
X009514Y010807D02*
X008432Y010807D01*
X008432Y010966D02*
X009803Y010966D01*
X009803Y011124D02*
X008432Y011124D01*
X007940Y010490D02*
X007170Y010490D01*
X007170Y010332D02*
X007940Y010332D01*
X007940Y010173D02*
X007170Y010173D01*
X007170Y010015D02*
X007940Y010015D01*
X007678Y010649D02*
X007307Y010649D01*
X007307Y010807D02*
X007617Y010807D01*
X007458Y010966D02*
X007307Y010966D01*
X006930Y010874D02*
X006930Y007833D01*
X005348Y006211D02*
X008512Y006211D01*
X008410Y006052D02*
X005450Y006052D01*
X005490Y005894D02*
X008370Y005894D01*
X008376Y005735D02*
X005484Y005735D01*
X005479Y005702D02*
X005492Y005786D01*
X004978Y005786D01*
X004978Y005271D01*
X005062Y005285D01*
X005146Y005312D01*
X005225Y005352D01*
X005296Y005404D01*
X005359Y005467D01*
X005411Y005539D01*
X005451Y005617D01*
X005479Y005702D01*
X005431Y005577D02*
X008429Y005577D01*
X008550Y005418D02*
X005310Y005418D01*
X004978Y005418D02*
X004882Y005418D01*
X004882Y005577D02*
X004978Y005577D01*
X004978Y005735D02*
X004882Y005735D01*
X004882Y005894D02*
X004978Y005894D01*
X004978Y006052D02*
X004882Y006052D01*
X004882Y006211D02*
X004978Y006211D01*
X003920Y006528D02*
X009455Y006528D01*
X009455Y006686D02*
X003920Y006686D01*
X003920Y006845D02*
X009490Y006845D01*
X010050Y007162D02*
X028940Y007162D01*
X030853Y007003D02*
X031007Y007003D01*
X031928Y006686D02*
X032577Y006686D01*
X032577Y006528D02*
X032185Y006528D01*
X032343Y006369D02*
X032577Y006369D01*
X032577Y006211D02*
X032470Y006211D01*
X032562Y006052D02*
X032577Y006052D01*
X025228Y012392D02*
X025132Y012392D01*
X025132Y012551D02*
X025228Y012551D01*
X025228Y012709D02*
X025132Y012709D01*
X025132Y013026D02*
X025228Y013026D01*
X025228Y013185D02*
X025132Y013185D01*
X025132Y013343D02*
X025228Y013343D01*
X024942Y013343D02*
X021418Y013343D01*
X021228Y013343D02*
X021132Y013343D01*
X021132Y013185D02*
X021228Y013185D01*
X021228Y013026D02*
X021132Y013026D01*
X021132Y012709D02*
X021228Y012709D01*
X021228Y012551D02*
X021132Y012551D01*
X021132Y012392D02*
X021228Y012392D01*
X021530Y012392D02*
X024830Y012392D01*
X024693Y012551D02*
X021667Y012551D01*
X021730Y012709D02*
X024630Y012709D01*
X024651Y013026D02*
X021709Y013026D01*
X021620Y013185D02*
X024740Y013185D01*
X023180Y014833D02*
X020265Y014833D01*
X020180Y014749D01*
X019803Y014770D02*
X002307Y014770D01*
X002294Y014611D02*
X019803Y014611D01*
X019836Y014453D02*
X002294Y014453D01*
X002294Y014294D02*
X003408Y014294D01*
X003233Y014136D02*
X002294Y014136D01*
X001814Y014136D02*
X000460Y014136D01*
X000460Y014294D02*
X001814Y014294D01*
X001680Y014333D02*
X001180Y013833D01*
X001180Y013635D01*
X001129Y013583D01*
X001129Y012083D01*
X001206Y012075D02*
X001756Y012075D01*
X001624Y012006D02*
X001206Y012006D01*
X001206Y011549D01*
X001467Y011549D01*
X001513Y011561D01*
X001554Y011585D01*
X001588Y011618D01*
X001612Y011660D01*
X001624Y011705D01*
X001624Y012006D01*
X001624Y011917D02*
X001756Y011917D01*
X001756Y011758D02*
X001624Y011758D01*
X001569Y011600D02*
X001819Y011600D01*
X001991Y011441D02*
X000460Y011441D01*
X000460Y011283D02*
X001991Y011283D01*
X001705Y011124D02*
X000460Y011124D01*
X000460Y010966D02*
X001705Y010966D01*
X001705Y010807D02*
X000460Y010807D01*
X000460Y010649D02*
X001705Y010649D01*
X001705Y010490D02*
X000460Y010490D01*
X000460Y010332D02*
X001705Y010332D01*
X001705Y010173D02*
X000460Y010173D01*
X000460Y010015D02*
X001705Y010015D01*
X001705Y009856D02*
X000460Y009856D01*
X000460Y009698D02*
X001705Y009698D01*
X001705Y009539D02*
X000460Y009539D01*
X000460Y009381D02*
X001755Y009381D01*
X002257Y008850D02*
X002257Y007960D01*
X002675Y007960D01*
X002675Y008694D01*
X002663Y008739D01*
X002639Y008780D01*
X002605Y008814D01*
X002564Y008838D01*
X002519Y008850D01*
X002257Y008850D01*
X002257Y008747D02*
X002103Y008747D01*
X002103Y008588D02*
X002257Y008588D01*
X002257Y008430D02*
X002103Y008430D01*
X002103Y008271D02*
X002257Y008271D01*
X002257Y008113D02*
X002103Y008113D01*
X002103Y007796D02*
X002257Y007796D01*
X002257Y007637D02*
X002103Y007637D01*
X002103Y007479D02*
X002257Y007479D01*
X002257Y007320D02*
X002103Y007320D01*
X002103Y007162D02*
X002257Y007162D01*
X002257Y007003D02*
X002103Y007003D01*
X001343Y006686D02*
X000460Y006686D01*
X000460Y006528D02*
X001012Y006528D01*
X000819Y006369D02*
X000460Y006369D01*
X000460Y006211D02*
X000670Y006211D01*
X000578Y006052D02*
X000460Y006052D01*
X000460Y005894D02*
X000497Y005894D01*
X000460Y008113D02*
X001685Y008113D01*
X001685Y008271D02*
X000460Y008271D01*
X000460Y008430D02*
X001685Y008430D01*
X001685Y008588D02*
X000460Y008588D01*
X000460Y008747D02*
X001702Y008747D01*
X002658Y008747D02*
X003378Y008747D01*
X003440Y008588D02*
X002675Y008588D01*
X002675Y008430D02*
X003440Y008430D01*
X003440Y008271D02*
X002675Y008271D01*
X002675Y008113D02*
X003440Y008113D01*
X003219Y008905D02*
X000460Y008905D01*
X000790Y011549D02*
X001051Y011549D01*
X001051Y012006D01*
X000634Y012006D01*
X000634Y011705D01*
X000646Y011660D01*
X000670Y011618D01*
X000703Y011585D01*
X000744Y011561D01*
X000790Y011549D01*
X000688Y011600D02*
X000460Y011600D01*
X000460Y011758D02*
X000634Y011758D01*
X000634Y011917D02*
X000460Y011917D01*
X000460Y012075D02*
X001051Y012075D01*
X001051Y012006D02*
X001051Y012161D01*
X000634Y012161D01*
X000634Y012461D01*
X000646Y012507D01*
X000670Y012548D01*
X000703Y012582D01*
X000744Y012605D01*
X000790Y012618D01*
X001051Y012618D01*
X001051Y012161D01*
X001206Y012161D01*
X001206Y012618D01*
X001467Y012618D01*
X001513Y012605D01*
X001554Y012582D01*
X001588Y012548D01*
X001612Y012507D01*
X001624Y012461D01*
X001624Y012161D01*
X001206Y012161D01*
X001206Y012006D01*
X001051Y012006D01*
X001051Y011917D02*
X001206Y011917D01*
X001206Y011758D02*
X001051Y011758D01*
X001051Y011600D02*
X001206Y011600D01*
X001206Y012234D02*
X001051Y012234D01*
X001051Y012392D02*
X001206Y012392D01*
X001206Y012551D02*
X001051Y012551D01*
X000672Y012551D02*
X000460Y012551D01*
X000460Y012709D02*
X001991Y012709D01*
X001991Y012868D02*
X000460Y012868D01*
X000460Y013026D02*
X001991Y013026D01*
X001756Y013185D02*
X001618Y013185D01*
X001624Y013205D02*
X001624Y013506D01*
X001206Y013506D01*
X001206Y013049D01*
X001467Y013049D01*
X001513Y013061D01*
X001554Y013085D01*
X001588Y013118D01*
X001612Y013160D01*
X001624Y013205D01*
X001624Y013343D02*
X001756Y013343D01*
X001756Y013502D02*
X001624Y013502D01*
X001624Y013661D02*
X001206Y013661D01*
X001051Y013661D01*
X001051Y013506D01*
X000634Y013506D01*
X000634Y013205D01*
X000646Y013160D01*
X000670Y013118D01*
X000703Y013085D01*
X000744Y013061D01*
X000790Y013049D01*
X001051Y013049D01*
X001051Y013506D01*
X001206Y013506D01*
X001206Y013661D01*
X001206Y014118D01*
X001467Y014118D01*
X001513Y014105D01*
X001554Y014082D01*
X001588Y014048D01*
X001612Y014007D01*
X001624Y013961D01*
X001624Y013661D01*
X001756Y013660D02*
X001206Y013660D01*
X001051Y013661D02*
X001051Y014118D01*
X000790Y014118D01*
X000744Y014105D01*
X000703Y014082D01*
X000670Y014048D01*
X000646Y014007D01*
X000634Y013961D01*
X000634Y013661D01*
X001051Y013661D01*
X001051Y013660D02*
X000460Y013660D01*
X000460Y013502D02*
X000634Y013502D01*
X000634Y013343D02*
X000460Y013343D01*
X000460Y013185D02*
X000639Y013185D01*
X001051Y013185D02*
X001206Y013185D01*
X001206Y013343D02*
X001051Y013343D01*
X001051Y013502D02*
X001206Y013502D01*
X001206Y013819D02*
X001051Y013819D01*
X001051Y013977D02*
X001206Y013977D01*
X001619Y013977D02*
X001756Y013977D01*
X001756Y013819D02*
X001624Y013819D01*
X001680Y014333D02*
X001680Y016053D01*
X001680Y016053D01*
X001680Y016038D02*
X001680Y016038D01*
X001680Y015879D02*
X001680Y015879D01*
X001680Y015721D02*
X001680Y015721D01*
X001576Y015404D02*
X001784Y015404D01*
X001784Y015245D02*
X001576Y015245D01*
X001576Y015087D02*
X001784Y015087D01*
X001784Y014928D02*
X001576Y014928D01*
X001559Y014770D02*
X001801Y014770D01*
X001814Y014611D02*
X000460Y014611D01*
X000460Y014453D02*
X001814Y014453D01*
X001053Y014770D02*
X000460Y014770D01*
X000460Y014928D02*
X001036Y014928D01*
X001036Y015087D02*
X000460Y015087D01*
X000460Y015245D02*
X001036Y015245D01*
X001306Y016053D02*
X001306Y016459D01*
X001430Y016583D01*
X002054Y016583D01*
X002054Y017544D01*
X002015Y017583D01*
X002930Y017583D01*
X002701Y017306D02*
X002377Y017306D01*
X002054Y016583D02*
X002054Y016053D01*
X002324Y015404D02*
X002911Y015404D01*
X003273Y015087D02*
X019871Y015087D01*
X019803Y015245D02*
X003431Y015245D01*
X003590Y015404D02*
X019803Y015404D01*
X019803Y015562D02*
X018621Y015562D01*
X019803Y014928D02*
X003114Y014928D01*
X003952Y014294D02*
X004408Y014294D01*
X004233Y014136D02*
X004127Y014136D01*
X004098Y013502D02*
X004262Y013502D01*
X004478Y013343D02*
X003882Y013343D01*
X003478Y013343D02*
X002706Y013343D01*
X002706Y013185D02*
X013440Y013185D01*
X013440Y013343D02*
X012882Y013343D01*
X013098Y013502D02*
X013262Y013502D01*
X013680Y013833D02*
X013680Y012083D01*
X013440Y012392D02*
X002706Y012392D01*
X002706Y012234D02*
X008406Y012234D01*
X008478Y013343D02*
X007882Y013343D01*
X008098Y013502D02*
X008262Y013502D01*
X008882Y013343D02*
X009478Y013343D01*
X009262Y013502D02*
X009098Y013502D01*
X009127Y014136D02*
X009233Y014136D01*
X009408Y014294D02*
X008952Y014294D01*
X008408Y014294D02*
X007952Y014294D01*
X008127Y014136D02*
X008233Y014136D01*
X007408Y014294D02*
X006952Y014294D01*
X007127Y014136D02*
X007233Y014136D01*
X007262Y013502D02*
X007098Y013502D01*
X006882Y013343D02*
X007478Y013343D01*
X006478Y013343D02*
X005882Y013343D01*
X006098Y013502D02*
X006262Y013502D01*
X006233Y014136D02*
X006127Y014136D01*
X005952Y014294D02*
X006408Y014294D01*
X005408Y014294D02*
X004952Y014294D01*
X005127Y014136D02*
X005233Y014136D01*
X005262Y013502D02*
X005098Y013502D01*
X004882Y013343D02*
X005478Y013343D01*
X006920Y011553D02*
X006930Y011543D01*
X007220Y011543D01*
X005703Y010807D02*
X005657Y010807D01*
X005657Y010649D02*
X005703Y010649D01*
X005703Y010490D02*
X005657Y010490D01*
X004978Y010332D02*
X004882Y010332D01*
X004882Y010173D02*
X004978Y010173D01*
X004978Y010015D02*
X004882Y010015D01*
X004882Y009698D02*
X004978Y009698D01*
X004978Y009539D02*
X004882Y009539D01*
X004882Y009381D02*
X004978Y009381D01*
X001756Y012234D02*
X001624Y012234D01*
X001624Y012392D02*
X001756Y012392D01*
X001803Y012551D02*
X001585Y012551D01*
X002471Y012709D02*
X013440Y012709D01*
X013440Y012551D02*
X002659Y012551D01*
X002471Y012868D02*
X013440Y012868D01*
X013440Y013026D02*
X002471Y013026D01*
X002706Y013502D02*
X003262Y013502D01*
X003178Y013660D02*
X002706Y013660D01*
X002706Y013819D02*
X003150Y013819D01*
X003166Y013977D02*
X002706Y013977D01*
X003748Y015562D02*
X014214Y015562D01*
X014199Y015721D02*
X003907Y015721D01*
X004065Y015879D02*
X014199Y015879D01*
X014199Y016038D02*
X004224Y016038D01*
X004382Y016196D02*
X014307Y016196D01*
X014577Y016196D02*
X014614Y016196D01*
X014614Y016038D02*
X014577Y016038D01*
X014577Y015879D02*
X014614Y015879D01*
X014614Y015721D02*
X014577Y015721D01*
X014577Y015562D02*
X014614Y015562D01*
X014884Y016196D02*
X015025Y016196D01*
X015025Y016355D02*
X004541Y016355D01*
X004699Y016513D02*
X015025Y016513D01*
X015025Y016672D02*
X014493Y016672D01*
X014219Y016959D02*
X014180Y016999D01*
X011430Y016999D01*
X011670Y017306D02*
X012701Y017306D01*
X012592Y017464D02*
X011670Y017464D01*
X011670Y017623D02*
X012572Y017623D01*
X012624Y017781D02*
X011670Y017781D01*
X011670Y017940D02*
X012855Y017940D01*
X013005Y017940D02*
X013812Y017940D01*
X014095Y017583D02*
X014180Y017668D01*
X014219Y017707D01*
X015166Y017707D01*
X014828Y017464D02*
X014557Y017464D01*
X014512Y017306D02*
X015778Y017306D01*
X015778Y017464D02*
X015503Y017464D01*
X015562Y017623D02*
X015798Y017623D01*
X015781Y017781D02*
X015562Y017781D01*
X015514Y017940D02*
X015634Y017940D01*
X015605Y018098D02*
X011670Y018098D01*
X011670Y018257D02*
X015605Y018257D01*
X015605Y018415D02*
X011670Y018415D01*
X011190Y018415D02*
X003768Y018415D01*
X003927Y018257D02*
X011190Y018257D01*
X011190Y018574D02*
X003610Y018574D01*
X003451Y018732D02*
X011190Y018732D01*
X011190Y018891D02*
X003293Y018891D01*
X003134Y019049D02*
X011190Y019049D01*
X011190Y019208D02*
X002976Y019208D01*
X002817Y019366D02*
X011190Y019366D01*
X011190Y019525D02*
X002659Y019525D01*
X002603Y019683D02*
X011190Y019683D01*
X011190Y019842D02*
X002805Y019842D01*
X002838Y020000D02*
X011190Y020000D01*
X011940Y021427D02*
X008613Y021427D01*
X008771Y021585D02*
X011940Y021585D01*
X011940Y021744D02*
X008930Y021744D01*
X009088Y021902D02*
X011940Y021902D01*
X011940Y022061D02*
X009247Y022061D01*
X009405Y022219D02*
X011940Y022219D01*
X011940Y022378D02*
X009564Y022378D01*
X009722Y022536D02*
X012044Y022536D01*
X012202Y022695D02*
X009881Y022695D01*
X010039Y022853D02*
X012361Y022853D01*
X012519Y023012D02*
X010198Y023012D01*
X010356Y023170D02*
X012678Y023170D01*
X012836Y023329D02*
X010515Y023329D01*
X010673Y023487D02*
X012995Y023487D01*
X013153Y023646D02*
X010832Y023646D01*
X010990Y023804D02*
X013312Y023804D01*
X013440Y023963D02*
X011149Y023963D01*
X011307Y024121D02*
X013440Y024121D01*
X013440Y024280D02*
X011466Y024280D01*
X010328Y025231D02*
X010032Y025231D01*
X010155Y025072D02*
X010205Y025072D01*
X009680Y024833D02*
X006914Y022068D01*
X002363Y022068D01*
X002752Y022378D02*
X006885Y022378D01*
X007044Y022536D02*
X001916Y022536D01*
X001878Y022498D02*
X001972Y022592D01*
X001972Y023551D01*
X001878Y023645D01*
X000565Y023645D01*
X000471Y023551D01*
X000471Y022592D01*
X000565Y022498D01*
X001878Y022498D01*
X001975Y022378D02*
X000460Y022378D01*
X000460Y022536D02*
X000526Y022536D01*
X000471Y022695D02*
X000460Y022695D01*
X000460Y022853D02*
X000471Y022853D01*
X000460Y023012D02*
X000471Y023012D01*
X000460Y023170D02*
X000471Y023170D01*
X000460Y023329D02*
X000471Y023329D01*
X000460Y023487D02*
X000471Y023487D01*
X000460Y023646D02*
X008153Y023646D01*
X008312Y023804D02*
X002127Y023804D01*
X001972Y023487D02*
X007995Y023487D01*
X007836Y023329D02*
X001972Y023329D01*
X001972Y023170D02*
X007678Y023170D01*
X007519Y023012D02*
X001972Y023012D01*
X001972Y022853D02*
X007361Y022853D01*
X007202Y022695D02*
X001972Y022695D01*
X001888Y022219D02*
X000460Y022219D01*
X000460Y022061D02*
X001888Y022061D01*
X001888Y021902D02*
X000460Y021902D01*
X000460Y021744D02*
X001888Y021744D01*
X002363Y021083D02*
X007930Y021083D01*
X008470Y023963D02*
X002479Y023963D01*
X002680Y024121D02*
X008629Y024121D01*
X008787Y024280D02*
X002834Y024280D01*
X002925Y024438D02*
X003325Y024438D01*
X003204Y024597D02*
X003010Y024597D01*
X003053Y024755D02*
X003150Y024755D01*
X003150Y024914D02*
X003095Y024914D01*
X003096Y025072D02*
X003205Y025072D01*
X003096Y025231D02*
X003328Y025231D01*
X003064Y025389D02*
X019095Y025389D01*
X019095Y025231D02*
X019032Y025231D01*
X019095Y025548D02*
X003021Y025548D01*
X002949Y025706D02*
X019095Y025706D01*
X019095Y025865D02*
X002858Y025865D01*
X002721Y026023D02*
X019198Y026023D01*
X018328Y025231D02*
X018032Y025231D01*
X018155Y025072D02*
X018205Y025072D01*
X018180Y024655D02*
X018231Y024533D01*
X018380Y024384D01*
X018575Y024303D01*
X018785Y024303D01*
X018940Y024367D01*
X018940Y023933D01*
X017977Y022969D01*
X017940Y022881D01*
X017940Y022598D01*
X017802Y022460D01*
X017502Y022460D01*
X017430Y022388D01*
X017358Y022460D01*
X016832Y022460D01*
X016739Y022366D01*
X016739Y021801D01*
X016832Y021707D01*
X016940Y021707D01*
X016940Y021683D01*
X016707Y021449D01*
X016360Y021449D01*
X016360Y021583D01*
X015944Y021583D01*
X015944Y021583D01*
X016360Y021583D01*
X016360Y021725D01*
X016348Y021771D01*
X016340Y021784D01*
X016340Y022142D01*
X016247Y022235D01*
X016005Y022235D01*
X015835Y022406D01*
X015835Y022707D01*
X015858Y022707D01*
X015918Y022766D01*
X015924Y022756D01*
X015957Y022723D01*
X015998Y022699D01*
X016044Y022687D01*
X016246Y022687D01*
X016246Y023065D01*
X016283Y023065D01*
X016283Y023102D01*
X016246Y023102D01*
X016246Y023480D01*
X016044Y023480D01*
X015998Y023468D01*
X015957Y023444D01*
X015924Y023410D01*
X015918Y023400D01*
X015858Y023460D01*
X015332Y023460D01*
X015239Y023366D01*
X015239Y023323D01*
X015121Y023323D01*
X015121Y023366D01*
X015028Y023460D01*
X014646Y023460D01*
X014883Y023697D01*
X014920Y023786D01*
X014920Y024359D01*
X014980Y024384D01*
X015129Y024533D01*
X015180Y024655D01*
X015231Y024533D01*
X015380Y024384D01*
X015575Y024303D01*
X015785Y024303D01*
X015980Y024384D01*
X016129Y024533D01*
X016180Y024655D01*
X016231Y024533D01*
X016380Y024384D01*
X016575Y024303D01*
X016785Y024303D01*
X016980Y024384D01*
X017129Y024533D01*
X017180Y024655D01*
X017231Y024533D01*
X017380Y024384D01*
X017575Y024303D01*
X017785Y024303D01*
X017980Y024384D01*
X018129Y024533D01*
X018180Y024655D01*
X018156Y024597D02*
X018204Y024597D01*
X018325Y024438D02*
X018035Y024438D01*
X017325Y024438D02*
X017035Y024438D01*
X017156Y024597D02*
X017204Y024597D01*
X017205Y025072D02*
X017155Y025072D01*
X017032Y025231D02*
X017328Y025231D01*
X016328Y025231D02*
X016032Y025231D01*
X016155Y025072D02*
X016205Y025072D01*
X016204Y024597D02*
X016156Y024597D01*
X016035Y024438D02*
X016325Y024438D01*
X015325Y024438D02*
X015035Y024438D01*
X014920Y024280D02*
X018940Y024280D01*
X018940Y024121D02*
X014920Y024121D01*
X014920Y023963D02*
X018940Y023963D01*
X018812Y023804D02*
X014920Y023804D01*
X014832Y023646D02*
X018653Y023646D01*
X018495Y023487D02*
X014673Y023487D01*
X014765Y023083D02*
X015595Y023083D01*
X015595Y022306D01*
X015944Y021957D01*
X016340Y021902D02*
X016739Y021902D01*
X016739Y022061D02*
X016340Y022061D01*
X016263Y022219D02*
X016739Y022219D01*
X016750Y022378D02*
X015863Y022378D01*
X015835Y022536D02*
X017878Y022536D01*
X017940Y022695D02*
X016515Y022695D01*
X016531Y022699D02*
X016572Y022723D01*
X016606Y022756D01*
X016629Y022797D01*
X016641Y022843D01*
X016641Y023065D01*
X016283Y023065D01*
X016283Y022687D01*
X016485Y022687D01*
X016531Y022699D01*
X016641Y022853D02*
X017940Y022853D01*
X018019Y023012D02*
X016641Y023012D01*
X016641Y023102D02*
X016283Y023102D01*
X016283Y023480D01*
X016485Y023480D01*
X016531Y023468D01*
X016572Y023444D01*
X016606Y023410D01*
X016629Y023369D01*
X016641Y023324D01*
X016641Y023102D01*
X016641Y023170D02*
X018178Y023170D01*
X018336Y023329D02*
X016640Y023329D01*
X016283Y023329D02*
X016246Y023329D01*
X016246Y023170D02*
X016283Y023170D01*
X016283Y023012D02*
X016246Y023012D01*
X016246Y022853D02*
X016283Y022853D01*
X016283Y022695D02*
X016246Y022695D01*
X016014Y022695D02*
X015835Y022695D01*
X015239Y023329D02*
X015121Y023329D01*
X014680Y023833D02*
X014180Y023333D01*
X014180Y023168D01*
X014095Y023083D01*
X014268Y022219D02*
X014597Y022219D01*
X015944Y021209D02*
X016806Y021209D01*
X017180Y021583D01*
X017180Y021999D01*
X017095Y022083D01*
X017420Y021768D02*
X017430Y021778D01*
X017502Y021707D01*
X018028Y021707D01*
X018121Y021801D01*
X018121Y022101D01*
X018383Y022363D01*
X018420Y022451D01*
X018420Y022734D01*
X019220Y023534D01*
X019220Y023263D01*
X019190Y023190D01*
X019190Y020989D01*
X019057Y020989D01*
X019057Y021012D01*
X018997Y021071D01*
X019007Y021077D01*
X019041Y021111D01*
X019064Y021152D01*
X019077Y021197D01*
X019077Y021400D01*
X018698Y021400D01*
X018698Y021436D01*
X018662Y021436D01*
X018662Y021400D01*
X018283Y021400D01*
X018283Y021197D01*
X018296Y021152D01*
X018319Y021111D01*
X018353Y021077D01*
X018363Y021071D01*
X018303Y021012D01*
X018303Y020712D01*
X018052Y020460D01*
X017752Y020460D01*
X017680Y020388D01*
X017608Y020460D01*
X017585Y020460D01*
X017585Y020899D01*
X017661Y020975D01*
X017751Y020975D01*
X017883Y021030D01*
X017984Y021130D01*
X018038Y021262D01*
X018038Y021405D01*
X017984Y021536D01*
X017883Y021637D01*
X017751Y021691D01*
X017609Y021691D01*
X017477Y021637D01*
X017420Y021580D01*
X017420Y021768D01*
X017420Y021744D02*
X017464Y021744D01*
X017426Y021585D02*
X017420Y021585D01*
X017680Y021333D02*
X017345Y020999D01*
X017345Y020083D01*
X016524Y020083D01*
X016891Y019842D02*
X016989Y019842D01*
X017585Y020476D02*
X018068Y020476D01*
X018226Y020634D02*
X017585Y020634D01*
X017585Y020793D02*
X018303Y020793D01*
X018303Y020951D02*
X017637Y020951D01*
X017963Y021110D02*
X018320Y021110D01*
X018283Y021268D02*
X018038Y021268D01*
X018029Y021427D02*
X018662Y021427D01*
X018662Y021436D02*
X018283Y021436D01*
X018283Y021639D01*
X018296Y021684D01*
X018319Y021725D01*
X018353Y021759D01*
X018394Y021783D01*
X018440Y021795D01*
X018662Y021795D01*
X018662Y021436D01*
X018698Y021436D02*
X018698Y021795D01*
X018920Y021795D01*
X018966Y021783D01*
X019007Y021759D01*
X019041Y021725D01*
X019064Y021684D01*
X019077Y021639D01*
X019077Y021436D01*
X018698Y021436D01*
X018698Y021427D02*
X019190Y021427D01*
X019190Y021585D02*
X019077Y021585D01*
X019022Y021744D02*
X019190Y021744D01*
X019190Y021902D02*
X018121Y021902D01*
X018121Y022061D02*
X019190Y022061D01*
X019190Y022219D02*
X018240Y022219D01*
X018390Y022378D02*
X019190Y022378D01*
X019190Y022536D02*
X018420Y022536D01*
X018420Y022695D02*
X019190Y022695D01*
X019190Y022853D02*
X018539Y022853D01*
X018698Y023012D02*
X019190Y023012D01*
X019190Y023170D02*
X018856Y023170D01*
X019015Y023329D02*
X019220Y023329D01*
X019220Y023487D02*
X019173Y023487D01*
X019430Y023142D02*
X020247Y023959D01*
X020765Y023498D02*
X020873Y023498D01*
X020873Y023142D01*
X020910Y023054D01*
X020977Y022986D01*
X021552Y022411D01*
X021531Y022360D01*
X021531Y022155D01*
X021609Y021966D01*
X022242Y021333D01*
X021609Y020700D01*
X021531Y020511D01*
X021531Y020307D01*
X021609Y020118D01*
X021754Y019973D01*
X021943Y019895D01*
X022147Y019895D01*
X022336Y019973D01*
X022836Y020473D01*
X022878Y020373D01*
X023524Y019727D01*
X023713Y019649D01*
X023917Y019649D01*
X024106Y019727D01*
X024251Y019872D01*
X024329Y020061D01*
X024329Y020265D01*
X024251Y020454D01*
X023605Y021100D01*
X023416Y021178D01*
X023212Y021178D01*
X023024Y021101D01*
X022982Y021201D01*
X022850Y021333D01*
X022982Y021465D01*
X023024Y021566D01*
X023212Y021488D01*
X023416Y021488D01*
X023605Y021567D01*
X024251Y022212D01*
X024329Y022401D01*
X024329Y022593D01*
X028153Y022593D01*
X028109Y022549D01*
X028031Y022360D01*
X028031Y022155D01*
X028109Y021966D01*
X028541Y021534D01*
X026581Y019573D01*
X022112Y019573D01*
X021140Y020545D01*
X021017Y020668D01*
X020848Y020668D01*
X020848Y020680D01*
X020848Y022098D01*
X020805Y022201D01*
X020726Y022279D01*
X020689Y022295D01*
X020765Y022371D01*
X020765Y023498D01*
X020765Y023487D02*
X020873Y023487D01*
X020873Y023329D02*
X020765Y023329D01*
X020765Y023170D02*
X020873Y023170D01*
X020951Y023012D02*
X020765Y023012D01*
X020765Y022853D02*
X021110Y022853D01*
X020977Y022986D02*
X020977Y022986D01*
X021113Y023190D02*
X022546Y021757D01*
X022148Y021427D02*
X020848Y021427D01*
X020848Y021585D02*
X021990Y021585D01*
X021831Y021744D02*
X020848Y021744D01*
X020848Y021902D02*
X021673Y021902D01*
X021570Y022061D02*
X020848Y022061D01*
X020786Y022219D02*
X021531Y022219D01*
X021538Y022378D02*
X020765Y022378D01*
X020765Y022536D02*
X021427Y022536D01*
X021268Y022695D02*
X020765Y022695D01*
X021113Y023190D02*
X021113Y024333D01*
X021353Y023487D02*
X022034Y023487D01*
X021472Y023170D02*
X032577Y023170D01*
X032577Y023012D02*
X030432Y023012D01*
X030198Y023012D02*
X029091Y023012D01*
X029249Y022853D02*
X029937Y022853D01*
X029779Y022695D02*
X029408Y022695D01*
X029566Y022536D02*
X029620Y022536D01*
X029814Y022003D02*
X029814Y021949D01*
X028930Y022833D01*
X024145Y022833D01*
X023314Y022003D01*
X022962Y022378D02*
X022652Y022378D01*
X022494Y022536D02*
X023120Y022536D01*
X023279Y022695D02*
X022334Y022695D01*
X021789Y022853D02*
X023437Y022853D01*
X023698Y023012D02*
X021630Y023012D01*
X021353Y023329D02*
X025921Y023329D01*
X025956Y023293D02*
X026404Y023293D01*
X026720Y023610D01*
X026720Y024057D01*
X026404Y024373D01*
X025956Y024373D01*
X025640Y024057D01*
X025640Y023610D01*
X025956Y023293D01*
X025762Y023487D02*
X023826Y023487D01*
X023919Y023646D02*
X025640Y023646D01*
X025640Y023804D02*
X023919Y023804D01*
X023919Y023963D02*
X025640Y023963D01*
X025704Y024121D02*
X023896Y024121D01*
X023720Y024280D02*
X025863Y024280D01*
X026497Y024280D02*
X028640Y024280D01*
X028464Y024121D02*
X026656Y024121D01*
X026720Y023963D02*
X028441Y023963D01*
X028441Y023804D02*
X026720Y023804D01*
X026720Y023646D02*
X028441Y023646D01*
X028534Y023487D02*
X026598Y023487D01*
X026439Y023329D02*
X032577Y023329D01*
X032577Y023487D02*
X030326Y023487D01*
X030419Y023646D02*
X032577Y023646D01*
X032577Y023804D02*
X031654Y023804D01*
X032007Y023963D02*
X032577Y023963D01*
X032577Y024121D02*
X032207Y024121D01*
X032361Y024280D02*
X032577Y024280D01*
X032577Y024438D02*
X032453Y024438D01*
X032538Y024597D02*
X032577Y024597D01*
X030911Y023804D02*
X030419Y023804D01*
X030419Y023963D02*
X030558Y023963D01*
X030112Y024438D02*
X022140Y024438D01*
X022140Y024597D02*
X030027Y024597D01*
X029984Y024755D02*
X022140Y024755D01*
X022140Y024914D02*
X029942Y024914D01*
X029941Y025072D02*
X022140Y025072D01*
X022140Y025231D02*
X029941Y025231D01*
X029973Y025389D02*
X022140Y025389D01*
X022140Y025548D02*
X030016Y025548D01*
X030088Y025706D02*
X022140Y025706D01*
X022140Y025865D02*
X030179Y025865D01*
X030316Y026023D02*
X022037Y026023D01*
X020698Y026023D02*
X020662Y026023D01*
X020247Y024707D02*
X020054Y024707D01*
X020053Y024708D01*
X019555Y024708D01*
X019180Y024333D01*
X019180Y023833D01*
X018180Y022833D01*
X018180Y022499D01*
X017765Y022083D01*
X017889Y022207D01*
X017765Y022083D02*
X017639Y022207D01*
X018065Y021744D02*
X018338Y021744D01*
X018283Y021585D02*
X017934Y021585D01*
X018662Y021585D02*
X018698Y021585D01*
X018698Y021744D02*
X018662Y021744D01*
X019077Y021268D02*
X019190Y021268D01*
X019190Y021110D02*
X019040Y021110D01*
X019345Y020749D02*
X018680Y020749D01*
X018015Y020083D01*
X018371Y020000D02*
X018470Y020000D01*
X018470Y019842D02*
X018371Y019842D01*
X018430Y020159D02*
X018470Y020159D01*
X019345Y020749D02*
X019430Y020833D01*
X019430Y023142D01*
X020848Y021268D02*
X022177Y021268D01*
X022019Y021110D02*
X020848Y021110D01*
X020848Y020951D02*
X021860Y020951D01*
X021702Y020793D02*
X020848Y020793D01*
X021051Y020634D02*
X021582Y020634D01*
X021531Y020476D02*
X021209Y020476D01*
X021368Y020317D02*
X021531Y020317D01*
X021526Y020159D02*
X021592Y020159D01*
X021685Y020000D02*
X021726Y020000D01*
X021843Y019842D02*
X023409Y019842D01*
X023250Y020000D02*
X022364Y020000D01*
X022522Y020159D02*
X023092Y020159D01*
X022933Y020317D02*
X022681Y020317D01*
X022002Y019683D02*
X023629Y019683D01*
X024001Y019683D02*
X026691Y019683D01*
X026849Y019842D02*
X024221Y019842D01*
X024304Y020000D02*
X027008Y020000D01*
X027166Y020159D02*
X024329Y020159D01*
X024308Y020317D02*
X027325Y020317D01*
X027226Y020387D02*
X027305Y020466D01*
X027348Y020569D01*
X027348Y020680D01*
X027348Y021986D01*
X027348Y022098D01*
X027305Y022201D01*
X027226Y022279D01*
X027123Y022322D01*
X026697Y022322D01*
X026594Y022279D01*
X026515Y022201D01*
X026473Y022098D01*
X026473Y020569D01*
X026515Y020466D01*
X026594Y020387D01*
X026697Y020345D01*
X027123Y020345D01*
X027226Y020387D01*
X027309Y020476D02*
X027483Y020476D01*
X027348Y020634D02*
X027642Y020634D01*
X027800Y020793D02*
X027348Y020793D01*
X027348Y020951D02*
X027959Y020951D01*
X028117Y021110D02*
X027348Y021110D01*
X027348Y021268D02*
X028276Y021268D01*
X028434Y021427D02*
X027348Y021427D01*
X027348Y021585D02*
X028490Y021585D01*
X028331Y021744D02*
X027348Y021744D01*
X027348Y021902D02*
X028173Y021902D01*
X028070Y022061D02*
X027348Y022061D01*
X027286Y022219D02*
X028031Y022219D01*
X028038Y022378D02*
X024320Y022378D01*
X024329Y022536D02*
X028104Y022536D01*
X029046Y021757D02*
X029046Y021699D01*
X026680Y019333D01*
X021863Y019333D01*
X021113Y018583D01*
X023909Y019049D02*
X028451Y019049D01*
X028562Y019208D02*
X026894Y019208D01*
X027052Y019366D02*
X030440Y019366D01*
X030440Y019208D02*
X030298Y019208D01*
X030409Y019049D02*
X030440Y019049D01*
X030440Y018891D02*
X030419Y018891D01*
X030419Y018732D02*
X030440Y018732D01*
X030440Y018574D02*
X030408Y018574D01*
X030440Y018415D02*
X030289Y018415D01*
X030920Y018415D02*
X032577Y018415D01*
X032577Y018257D02*
X030920Y018257D01*
X030920Y018098D02*
X032577Y018098D01*
X032577Y017940D02*
X030920Y017940D01*
X030920Y017781D02*
X032577Y017781D01*
X032577Y017623D02*
X030920Y017623D01*
X030920Y017464D02*
X032577Y017464D01*
X032577Y017306D02*
X031987Y017306D01*
X031975Y017314D02*
X031896Y017355D01*
X031812Y017382D01*
X031728Y017395D01*
X031728Y016881D01*
X032242Y016881D01*
X032229Y016965D01*
X032201Y017049D01*
X032161Y017128D01*
X032109Y017200D01*
X032046Y017262D01*
X031975Y017314D01*
X032147Y017147D02*
X032577Y017147D01*
X032577Y016989D02*
X032221Y016989D01*
X032242Y016786D02*
X031728Y016786D01*
X031728Y016881D01*
X031632Y016881D01*
X031632Y016786D01*
X031118Y016786D01*
X031131Y016702D01*
X031159Y016617D01*
X031199Y016539D01*
X031251Y016467D01*
X031314Y016404D01*
X031385Y016352D01*
X031464Y016312D01*
X031548Y016285D01*
X031632Y016271D01*
X031632Y016786D01*
X031728Y016786D01*
X031728Y016271D01*
X031812Y016285D01*
X031896Y016312D01*
X031975Y016352D01*
X032046Y016404D01*
X032109Y016467D01*
X032161Y016539D01*
X032201Y016617D01*
X032229Y016702D01*
X032242Y016786D01*
X032219Y016672D02*
X032577Y016672D01*
X032577Y016830D02*
X031728Y016830D01*
X031632Y016830D02*
X030920Y016830D01*
X030920Y016672D02*
X031141Y016672D01*
X031217Y016513D02*
X030920Y016513D01*
X030920Y016355D02*
X031382Y016355D01*
X031632Y016355D02*
X031728Y016355D01*
X031728Y016513D02*
X031632Y016513D01*
X031632Y016672D02*
X031728Y016672D01*
X031632Y016881D02*
X031118Y016881D01*
X031131Y016965D01*
X031159Y017049D01*
X031199Y017128D01*
X031251Y017200D01*
X031314Y017262D01*
X031385Y017314D01*
X031464Y017355D01*
X031548Y017382D01*
X031632Y017395D01*
X031632Y016881D01*
X031632Y016989D02*
X031728Y016989D01*
X031728Y017147D02*
X031632Y017147D01*
X031632Y017306D02*
X031728Y017306D01*
X031373Y017306D02*
X030920Y017306D01*
X030920Y017147D02*
X031213Y017147D01*
X031139Y016989D02*
X030920Y016989D01*
X030440Y016989D02*
X028221Y016989D01*
X028147Y017147D02*
X030440Y017147D01*
X030680Y017833D02*
X030680Y019333D01*
X031180Y019833D01*
X031180Y020636D01*
X029814Y022003D01*
X030050Y021427D02*
X029444Y021427D01*
X029415Y021268D02*
X030209Y021268D01*
X030082Y021110D02*
X030367Y021110D01*
X030254Y020951D02*
X030526Y020951D01*
X030412Y020793D02*
X030684Y020793D01*
X030571Y020634D02*
X030843Y020634D01*
X030940Y020476D02*
X030729Y020476D01*
X030808Y020317D02*
X030940Y020317D01*
X030940Y020159D02*
X030829Y020159D01*
X030804Y020000D02*
X030940Y020000D01*
X030849Y019842D02*
X030721Y019842D01*
X030691Y019683D02*
X030501Y019683D01*
X030532Y019525D02*
X027211Y019525D01*
X027369Y019683D02*
X030129Y019683D01*
X029909Y019842D02*
X027528Y019842D01*
X027686Y020000D02*
X028226Y020000D01*
X028092Y020159D02*
X027845Y020159D01*
X028003Y020317D02*
X028031Y020317D01*
X028864Y020000D02*
X029750Y020000D01*
X029592Y020159D02*
X029022Y020159D01*
X029181Y020317D02*
X029433Y020317D01*
X029520Y021110D02*
X029546Y021110D01*
X030412Y021744D02*
X031512Y021744D01*
X031512Y021902D02*
X030441Y021902D01*
X030599Y022061D02*
X031512Y022061D01*
X031512Y022098D02*
X031512Y020569D01*
X031555Y020466D01*
X031634Y020387D01*
X031737Y020345D01*
X032163Y020345D01*
X032266Y020387D01*
X032345Y020466D01*
X032387Y020569D01*
X032387Y020680D01*
X032387Y021986D01*
X032387Y022098D01*
X032345Y022201D01*
X032266Y022279D01*
X032163Y022322D01*
X031737Y022322D01*
X031634Y022279D01*
X031555Y022201D01*
X031512Y022098D01*
X031574Y022219D02*
X030754Y022219D01*
X030820Y022378D02*
X032577Y022378D01*
X032577Y022536D02*
X030829Y022536D01*
X030792Y022695D02*
X032577Y022695D01*
X032577Y022853D02*
X030693Y022853D01*
X032326Y022219D02*
X032577Y022219D01*
X032577Y022061D02*
X032387Y022061D01*
X032387Y021902D02*
X032577Y021902D01*
X032577Y021744D02*
X032387Y021744D01*
X032387Y021585D02*
X032577Y021585D01*
X032577Y021427D02*
X032387Y021427D01*
X032387Y021268D02*
X032577Y021268D01*
X032577Y021110D02*
X032387Y021110D01*
X032387Y020951D02*
X032577Y020951D01*
X032577Y020793D02*
X032387Y020793D01*
X032387Y020634D02*
X032577Y020634D01*
X032577Y020476D02*
X032349Y020476D01*
X032577Y020317D02*
X031420Y020317D01*
X031420Y020159D02*
X032577Y020159D01*
X032577Y020000D02*
X031420Y020000D01*
X031420Y019842D02*
X032577Y019842D01*
X032577Y019683D02*
X031369Y019683D01*
X031211Y019525D02*
X032577Y019525D01*
X032577Y019366D02*
X031052Y019366D01*
X030920Y019208D02*
X032577Y019208D01*
X032577Y019049D02*
X030920Y019049D01*
X030920Y018891D02*
X032577Y018891D01*
X032577Y018732D02*
X030920Y018732D01*
X030920Y018574D02*
X032577Y018574D01*
X031551Y020476D02*
X031420Y020476D01*
X031420Y020634D02*
X031512Y020634D01*
X031512Y020793D02*
X031363Y020793D01*
X031512Y020951D02*
X031205Y020951D01*
X031046Y021110D02*
X031512Y021110D01*
X031512Y021268D02*
X030888Y021268D01*
X030729Y021427D02*
X031512Y021427D01*
X031512Y021585D02*
X030571Y021585D01*
X026534Y022219D02*
X025826Y022219D01*
X025845Y022201D02*
X025766Y022279D01*
X025663Y022322D01*
X025237Y022322D01*
X025134Y022279D01*
X025055Y022201D01*
X025012Y022098D01*
X025012Y020569D01*
X025055Y020466D01*
X025134Y020387D01*
X025237Y020345D01*
X025663Y020345D01*
X025766Y020387D01*
X025845Y020466D01*
X025887Y020569D01*
X025887Y020680D01*
X025887Y021986D01*
X025887Y022098D01*
X025845Y022201D01*
X025887Y022061D02*
X026473Y022061D01*
X026473Y021902D02*
X025887Y021902D01*
X025887Y021744D02*
X026473Y021744D01*
X026473Y021585D02*
X025887Y021585D01*
X025887Y021427D02*
X026473Y021427D01*
X026473Y021268D02*
X025887Y021268D01*
X025887Y021110D02*
X026473Y021110D01*
X026473Y020951D02*
X025887Y020951D01*
X025887Y020793D02*
X026473Y020793D01*
X026473Y020634D02*
X025887Y020634D01*
X025849Y020476D02*
X026511Y020476D01*
X025051Y020476D02*
X024229Y020476D01*
X024071Y020634D02*
X025012Y020634D01*
X025012Y020793D02*
X023912Y020793D01*
X023754Y020951D02*
X025012Y020951D01*
X025012Y021110D02*
X023582Y021110D01*
X023624Y021585D02*
X025012Y021585D01*
X025012Y021427D02*
X022944Y021427D01*
X022915Y021268D02*
X025012Y021268D01*
X025012Y021744D02*
X023782Y021744D01*
X023941Y021902D02*
X025012Y021902D01*
X025012Y022061D02*
X024099Y022061D01*
X024254Y022219D02*
X025074Y022219D01*
X023984Y023012D02*
X023932Y023012D01*
X022847Y022219D02*
X022811Y022219D01*
X023020Y021110D02*
X023046Y021110D01*
X025930Y018333D02*
X025180Y017583D01*
X025559Y017623D02*
X028061Y017623D01*
X027942Y017781D02*
X025717Y017781D01*
X025930Y018333D02*
X026180Y018333D01*
X022825Y015245D02*
X020557Y015245D01*
X020489Y015087D02*
X022698Y015087D01*
X022793Y014453D02*
X020524Y014453D01*
X020942Y013343D02*
X018882Y013343D01*
X018478Y013343D02*
X017882Y013343D01*
X018098Y013502D02*
X018262Y013502D01*
X018233Y014136D02*
X018127Y014136D01*
X017952Y014294D02*
X018408Y014294D01*
X017408Y014294D02*
X016981Y014294D01*
X017140Y014136D02*
X017233Y014136D01*
X016700Y014136D02*
X016660Y014136D01*
X016660Y014294D02*
X016700Y014294D01*
X016700Y013977D02*
X016660Y013977D01*
X016660Y013660D02*
X016700Y013660D01*
X016700Y013502D02*
X016660Y013502D01*
X016660Y013343D02*
X016700Y013343D01*
X016930Y013343D02*
X017478Y013343D01*
X017262Y013502D02*
X017119Y013502D01*
X016430Y013343D02*
X015882Y013343D01*
X016098Y013502D02*
X016241Y013502D01*
X016220Y014136D02*
X016127Y014136D01*
X015952Y014294D02*
X016379Y014294D01*
X015408Y014294D02*
X014952Y014294D01*
X015127Y014136D02*
X015233Y014136D01*
X014408Y014294D02*
X013952Y014294D01*
X014127Y014136D02*
X014233Y014136D01*
X013408Y014294D02*
X012952Y014294D01*
X013127Y014136D02*
X013233Y014136D01*
X012408Y014294D02*
X011952Y014294D01*
X012127Y014136D02*
X012233Y014136D01*
X012262Y013502D02*
X012098Y013502D01*
X011882Y013343D02*
X012478Y013343D01*
X011478Y013343D02*
X010882Y013343D01*
X011098Y013502D02*
X011262Y013502D01*
X011233Y014136D02*
X011127Y014136D01*
X010952Y014294D02*
X011408Y014294D01*
X010408Y014294D02*
X009952Y014294D01*
X010127Y014136D02*
X010233Y014136D01*
X010262Y013502D02*
X010098Y013502D01*
X009882Y013343D02*
X010478Y013343D01*
X013867Y016672D02*
X004858Y016672D01*
X002931Y018574D02*
X001930Y018574D01*
X001972Y018732D02*
X002772Y018732D01*
X002614Y018891D02*
X001972Y018891D01*
X001972Y019049D02*
X002455Y019049D01*
X002297Y019208D02*
X001972Y019208D01*
X001972Y019366D02*
X002151Y019366D01*
X001045Y017940D02*
X000460Y017940D01*
X000460Y017781D02*
X000949Y017781D01*
X000949Y017623D02*
X000460Y017623D01*
X000460Y017464D02*
X000949Y017464D01*
X000968Y017306D02*
X000460Y017306D01*
X000460Y013977D02*
X000638Y013977D01*
X000634Y013819D02*
X000460Y013819D01*
X000460Y012392D02*
X000634Y012392D01*
X000634Y012234D02*
X000460Y012234D01*
X008882Y006211D02*
X008978Y006211D01*
X008978Y006052D02*
X008882Y006052D01*
X008882Y005894D02*
X008978Y005894D01*
X008978Y005735D02*
X008882Y005735D01*
X008882Y005577D02*
X008978Y005577D01*
X008978Y005418D02*
X008882Y005418D01*
X010496Y007320D02*
X010533Y007320D01*
X010533Y007479D02*
X010496Y007479D01*
X010496Y007637D02*
X010533Y007637D01*
X010533Y007796D02*
X010496Y007796D01*
X010496Y007954D02*
X010533Y007954D01*
X010253Y007954D02*
X010085Y007954D01*
X009845Y008066D02*
X009845Y007583D01*
X009810Y007548D01*
X009845Y008066D02*
X010180Y008400D01*
X009828Y008747D02*
X009626Y008747D01*
X014920Y012392D02*
X020830Y012392D01*
X020693Y012551D02*
X014920Y012551D01*
X014920Y012709D02*
X020630Y012709D01*
X016194Y015942D02*
X016086Y015833D01*
X016194Y015942D02*
X016194Y016959D01*
X015954Y016672D02*
X015505Y016672D01*
X015505Y016513D02*
X015954Y016513D01*
X015954Y016355D02*
X015505Y016355D01*
X015505Y016196D02*
X015803Y016196D01*
X015719Y016038D02*
X015641Y016038D01*
X015641Y015879D02*
X015719Y015879D01*
X015719Y015721D02*
X015641Y015721D01*
X015633Y015562D02*
X015719Y015562D01*
X015265Y015833D02*
X015265Y016860D01*
X015166Y016959D01*
X014219Y016959D01*
X014095Y017583D02*
X012930Y017583D01*
X014610Y019208D02*
X014750Y019208D01*
X015015Y018833D02*
X015845Y018833D01*
X015845Y018056D01*
X016194Y017707D01*
X015790Y017147D02*
X015558Y017147D01*
X015562Y016989D02*
X015798Y016989D01*
X015798Y016830D02*
X015562Y016830D01*
X015489Y018574D02*
X015371Y018574D01*
X015280Y019208D02*
X015580Y019208D01*
X016110Y019208D02*
X016231Y019208D01*
X015469Y019842D02*
X015391Y019842D01*
X015391Y020000D02*
X015469Y020000D01*
X015836Y020083D02*
X015944Y020083D01*
X015944Y021209D01*
X016360Y021585D02*
X016843Y021585D01*
X016795Y021744D02*
X016355Y021744D01*
X014676Y020793D02*
X013538Y020793D01*
X013485Y020634D02*
X014676Y020634D01*
X014676Y020476D02*
X014566Y020476D01*
X014359Y020476D02*
X014312Y020476D01*
X014312Y020317D02*
X014359Y020317D01*
X014359Y020159D02*
X014312Y020159D01*
X014312Y020000D02*
X014359Y020000D01*
X014359Y019842D02*
X014312Y019842D01*
X014272Y020951D02*
X014593Y020951D01*
X014680Y023833D02*
X014680Y024833D01*
X015156Y024597D02*
X015204Y024597D01*
X015205Y025072D02*
X015155Y025072D01*
X015032Y025231D02*
X015328Y025231D01*
X014328Y025231D02*
X014032Y025231D01*
X014155Y025072D02*
X014205Y025072D01*
X013328Y025231D02*
X013032Y025231D01*
X013155Y025072D02*
X013205Y025072D01*
X013204Y024597D02*
X013156Y024597D01*
X013035Y024438D02*
X013325Y024438D01*
X009328Y025231D02*
X009032Y025231D01*
X009155Y025072D02*
X009205Y025072D01*
X008328Y025231D02*
X008032Y025231D01*
X008155Y025072D02*
X008205Y025072D01*
X008204Y024597D02*
X008156Y024597D01*
X008035Y024438D02*
X008325Y024438D01*
X007325Y024438D02*
X007035Y024438D01*
X007156Y024597D02*
X007204Y024597D01*
X007205Y025072D02*
X007155Y025072D01*
X007032Y025231D02*
X007328Y025231D01*
X006328Y025231D02*
X006060Y025231D01*
X006175Y025072D02*
X006205Y025072D01*
X005700Y025072D02*
X005660Y025072D01*
X005660Y024914D02*
X005700Y024914D01*
X005700Y024755D02*
X005660Y024755D01*
X005660Y024597D02*
X005700Y024597D01*
X005700Y024438D02*
X005660Y024438D01*
X005297Y024438D02*
X005035Y024438D01*
X005156Y024597D02*
X005183Y024597D01*
X005155Y025072D02*
X005185Y025072D01*
X005300Y025231D02*
X005032Y025231D01*
X005660Y025231D02*
X005700Y025231D01*
X006177Y024597D02*
X006204Y024597D01*
X006325Y024438D02*
X006063Y024438D01*
X004325Y024438D02*
X004035Y024438D01*
X004156Y024597D02*
X004204Y024597D01*
X004205Y025072D02*
X004155Y025072D01*
X004032Y025231D02*
X004328Y025231D01*
X002551Y026182D02*
X030486Y026182D01*
X030760Y026340D02*
X002277Y026340D01*
X000499Y024597D02*
X000460Y024597D01*
X000460Y024438D02*
X000584Y024438D01*
X000676Y024280D02*
X000460Y024280D01*
X000460Y024121D02*
X000830Y024121D01*
X001030Y023963D02*
X000460Y023963D01*
X000460Y023804D02*
X001383Y023804D01*
X030920Y016196D02*
X032577Y016196D01*
X032577Y016038D02*
X030920Y016038D01*
X030920Y015879D02*
X032577Y015879D01*
X032577Y015721D02*
X030920Y015721D01*
X030920Y015562D02*
X032577Y015562D01*
X032577Y015404D02*
X030920Y015404D01*
X031978Y016355D02*
X032577Y016355D01*
X032577Y016513D02*
X032143Y016513D01*
D28*
X026430Y016083D03*
X026180Y021333D03*
X019930Y023333D03*
X018680Y022333D03*
X017680Y021333D03*
X019180Y018083D03*
X017930Y017083D03*
X020180Y016083D03*
X012930Y017583D03*
X013180Y020833D03*
X012680Y021833D03*
X011430Y020833D03*
X002930Y017583D03*
X016680Y009333D03*
X023180Y009333D03*
D29*
X031282Y025093D03*
X001755Y025093D03*
X001755Y005408D03*
D30*
X031282Y005408D03*
D31*
X022930Y017458D02*
X019555Y017458D01*
X019555Y018458D01*
X020430Y018458D01*
X020430Y018208D01*
X022930Y018208D01*
X022930Y017458D01*
X022930Y017525D02*
X019555Y017525D01*
X019555Y017623D02*
X022930Y017623D01*
X022930Y017722D02*
X019555Y017722D01*
X019555Y017820D02*
X022930Y017820D01*
X022930Y017919D02*
X019555Y017919D01*
X019555Y018017D02*
X022930Y018017D01*
X022930Y018116D02*
X019555Y018116D01*
X019555Y018214D02*
X020430Y018214D01*
X020430Y018313D02*
X019555Y018313D01*
X019555Y018411D02*
X020430Y018411D01*
X020680Y018458D02*
X020680Y020401D01*
X020709Y020413D01*
X020755Y020458D01*
X020930Y020458D01*
X022055Y019333D01*
X022055Y019158D01*
X022009Y019113D01*
X021971Y019021D01*
X021971Y018606D01*
X022009Y018515D01*
X022055Y018469D01*
X022055Y018458D01*
X020680Y018458D01*
X020680Y018510D02*
X022014Y018510D01*
X021971Y018608D02*
X020680Y018608D01*
X020680Y018707D02*
X021971Y018707D01*
X021971Y018805D02*
X020680Y018805D01*
X020680Y018904D02*
X021971Y018904D01*
X021971Y019002D02*
X020680Y019002D01*
X020680Y019101D02*
X022004Y019101D01*
X022055Y019199D02*
X020680Y019199D01*
X020680Y019298D02*
X022055Y019298D01*
X021992Y019396D02*
X020680Y019396D01*
X020680Y019495D02*
X021893Y019495D01*
X021795Y019593D02*
X020680Y019593D01*
X020680Y019692D02*
X021696Y019692D01*
X021598Y019790D02*
X020680Y019790D01*
X020680Y019889D02*
X021499Y019889D01*
X021401Y019987D02*
X020680Y019987D01*
X020680Y020086D02*
X021302Y020086D01*
X021204Y020184D02*
X020680Y020184D01*
X020680Y020283D02*
X021105Y020283D01*
X021007Y020381D02*
X020680Y020381D01*
X020430Y020333D02*
X018680Y020333D01*
X018680Y018708D01*
X020430Y018708D01*
X020430Y020333D01*
X020430Y020283D02*
X018680Y020283D01*
X018680Y020184D02*
X020430Y020184D01*
X020430Y020086D02*
X018680Y020086D01*
X018680Y019987D02*
X020430Y019987D01*
X020430Y019889D02*
X018680Y019889D01*
X018680Y019790D02*
X020430Y019790D01*
X020430Y019692D02*
X018680Y019692D01*
X018680Y019593D02*
X020430Y019593D01*
X020430Y019495D02*
X018680Y019495D01*
X018680Y019396D02*
X020430Y019396D01*
X020430Y019298D02*
X018680Y019298D01*
X018680Y019199D02*
X020430Y019199D01*
X020430Y019101D02*
X018680Y019101D01*
X018680Y019002D02*
X020430Y019002D01*
X020430Y018904D02*
X018680Y018904D01*
X018680Y018805D02*
X020430Y018805D01*
X020555Y022458D02*
X019430Y022458D01*
X019430Y024208D01*
X020555Y024208D01*
X020555Y022458D01*
X020555Y022548D02*
X019430Y022548D01*
X019430Y022647D02*
X020555Y022647D01*
X020555Y022745D02*
X019430Y022745D01*
X019430Y022844D02*
X020555Y022844D01*
X020555Y022942D02*
X019430Y022942D01*
X019430Y023041D02*
X020555Y023041D01*
X020555Y023139D02*
X019430Y023139D01*
X019430Y023238D02*
X020555Y023238D01*
X020555Y023336D02*
X019430Y023336D01*
X019430Y023435D02*
X020555Y023435D01*
X020555Y023533D02*
X019430Y023533D01*
X019430Y023632D02*
X020555Y023632D01*
X020555Y023730D02*
X019430Y023730D01*
X019430Y023829D02*
X020555Y023829D01*
X020555Y023927D02*
X019430Y023927D01*
X019430Y024026D02*
X020555Y024026D01*
X020555Y024124D02*
X019430Y024124D01*
X019305Y024458D02*
X019305Y025833D01*
X020555Y025833D01*
X020555Y024458D01*
X019305Y024458D01*
X019305Y024518D02*
X020555Y024518D01*
X020555Y024617D02*
X019305Y024617D01*
X019305Y024715D02*
X020555Y024715D01*
X020555Y024814D02*
X019305Y024814D01*
X019305Y024912D02*
X020555Y024912D01*
X020555Y025011D02*
X019305Y025011D01*
X019305Y025109D02*
X020555Y025109D01*
X020555Y025208D02*
X019305Y025208D01*
X019305Y025306D02*
X020555Y025306D01*
X020555Y025405D02*
X019305Y025405D01*
X019305Y025503D02*
X020555Y025503D01*
X020555Y025602D02*
X019305Y025602D01*
X019305Y025700D02*
X020555Y025700D01*
X020555Y025799D02*
X019305Y025799D01*
X020805Y025799D02*
X021930Y025799D01*
X021930Y025833D02*
X021930Y023708D01*
X020805Y023708D01*
X020805Y025833D01*
X021930Y025833D01*
X021930Y025700D02*
X020805Y025700D01*
X020805Y025602D02*
X021930Y025602D01*
X021930Y025503D02*
X020805Y025503D01*
X020805Y025405D02*
X021930Y025405D01*
X021930Y025306D02*
X020805Y025306D01*
X020805Y025208D02*
X021930Y025208D01*
X021930Y025109D02*
X020805Y025109D01*
X020805Y025011D02*
X021930Y025011D01*
X021930Y024912D02*
X020805Y024912D01*
X020805Y024814D02*
X021930Y024814D01*
X021930Y024715D02*
X020805Y024715D01*
X020805Y024617D02*
X021930Y024617D01*
X021930Y024518D02*
X020805Y024518D01*
X020805Y024420D02*
X021930Y024420D01*
X021930Y024321D02*
X020805Y024321D01*
X020805Y024223D02*
X021930Y024223D01*
X021930Y024124D02*
X020805Y024124D01*
X020805Y024026D02*
X021930Y024026D01*
X021930Y023927D02*
X020805Y023927D01*
X020805Y023829D02*
X021930Y023829D01*
X021930Y023730D02*
X020805Y023730D01*
M02*
