G75*
%MOIN*%
%OFA0B0*%
%FSLAX24Y24*%
%IPPOS*%
%LPD*%
%AMOC8*
5,1,8,0,0,1.08239X$1,22.5*
%
%ADD10C,0.0709*%
%ADD11C,0.0765*%
%ADD12C,0.0740*%
%ADD13OC8,0.0760*%
%ADD14C,0.0160*%
%ADD15C,0.0396*%
%ADD16C,0.2362*%
%ADD17C,0.2540*%
D10*
X027545Y012909D02*
X028046Y013410D01*
X028814Y013164D02*
X029315Y012663D01*
X028046Y014257D02*
X027545Y014758D01*
X028814Y014503D02*
X029315Y015004D01*
X029315Y019663D02*
X028814Y020164D01*
X028046Y020410D02*
X027545Y019909D01*
X028046Y021257D02*
X027545Y021758D01*
X028814Y021503D02*
X029315Y022004D01*
D11*
X027930Y009833D03*
X025930Y007833D03*
X023930Y009833D03*
X021430Y009833D03*
X019430Y007833D03*
X017430Y009833D03*
X015430Y009833D03*
X013430Y007833D03*
X011430Y009833D03*
X008930Y009833D03*
X006930Y007833D03*
X004930Y009833D03*
X004930Y005833D03*
X008930Y005833D03*
X011430Y005833D03*
X015430Y005833D03*
X017430Y005833D03*
X021430Y005833D03*
X023930Y005833D03*
X027930Y005833D03*
D12*
X019180Y014333D03*
X018180Y014333D03*
X017180Y014333D03*
X016180Y014333D03*
X015180Y014333D03*
X014180Y014333D03*
X013180Y014333D03*
X012180Y014333D03*
X011180Y014333D03*
X010180Y014333D03*
X009180Y014333D03*
X008180Y014333D03*
X007180Y014333D03*
X006180Y014333D03*
X005180Y014333D03*
X004180Y014333D03*
X004180Y025333D03*
X005180Y025333D03*
X006180Y025333D03*
X007180Y025333D03*
X008180Y025333D03*
X009180Y025333D03*
X010180Y025333D03*
X011180Y025333D03*
X012180Y025333D03*
X013180Y025333D03*
X014180Y025333D03*
X015180Y025333D03*
X016180Y025333D03*
X017180Y025333D03*
X018180Y025333D03*
X019180Y025333D03*
D13*
X024180Y019833D03*
X024180Y014333D03*
X031180Y008833D03*
D14*
X030355Y004313D02*
X002541Y004313D01*
X002578Y004335D01*
X002828Y004585D01*
X003005Y004890D01*
X003096Y005232D01*
X003096Y005585D01*
X003005Y005926D01*
X002828Y006232D01*
X002578Y006481D01*
X002272Y006658D01*
X001931Y006749D01*
X001578Y006749D01*
X001237Y006658D01*
X000931Y006481D01*
X000682Y006232D01*
X000660Y006194D01*
X000660Y024307D01*
X000682Y024270D01*
X000931Y024020D01*
X001237Y023843D01*
X001578Y023752D01*
X001931Y023752D01*
X002272Y023843D01*
X002578Y024020D01*
X002828Y024270D01*
X003005Y024576D01*
X003096Y024917D01*
X003096Y025270D01*
X003005Y025611D01*
X002828Y025917D01*
X002771Y025973D01*
X030266Y025973D01*
X030209Y025917D01*
X030033Y025611D01*
X029941Y025270D01*
X029941Y024917D01*
X030033Y024576D01*
X030209Y024270D01*
X030459Y024020D01*
X030765Y023843D01*
X031106Y023752D01*
X031459Y023752D01*
X031800Y023843D01*
X032106Y024020D01*
X032192Y024106D01*
X032192Y006521D01*
X032160Y006552D01*
X031834Y006741D01*
X031471Y006838D01*
X031094Y006838D01*
X030730Y006741D01*
X030404Y006552D01*
X030138Y006286D01*
X029950Y005960D01*
X029852Y005596D01*
X029852Y005220D01*
X029950Y004856D01*
X030138Y004530D01*
X030355Y004313D01*
X030201Y004467D02*
X002711Y004467D01*
X002852Y004626D02*
X030083Y004626D01*
X029991Y004784D02*
X002943Y004784D01*
X003019Y004943D02*
X029927Y004943D01*
X029884Y005101D02*
X003061Y005101D01*
X003096Y005260D02*
X029852Y005260D01*
X029852Y005418D02*
X028310Y005418D01*
X028296Y005404D02*
X028359Y005467D01*
X028411Y005539D01*
X028451Y005617D01*
X028479Y005702D01*
X028492Y005786D01*
X027978Y005786D01*
X027978Y005881D01*
X028492Y005881D01*
X028479Y005965D01*
X028451Y006049D01*
X028411Y006128D01*
X028359Y006200D01*
X028296Y006262D01*
X028225Y006314D01*
X028146Y006355D01*
X028062Y006382D01*
X027978Y006395D01*
X027978Y005881D01*
X027882Y005881D01*
X027882Y005786D01*
X027368Y005786D01*
X027381Y005702D01*
X027409Y005617D01*
X027449Y005539D01*
X027501Y005467D01*
X027564Y005404D01*
X027635Y005352D01*
X027714Y005312D01*
X027798Y005285D01*
X027882Y005271D01*
X027882Y005786D01*
X027978Y005786D01*
X027978Y005271D01*
X028062Y005285D01*
X028146Y005312D01*
X028225Y005352D01*
X028296Y005404D01*
X028431Y005577D02*
X029852Y005577D01*
X029890Y005735D02*
X028484Y005735D01*
X028490Y005894D02*
X029932Y005894D01*
X030003Y006052D02*
X028450Y006052D01*
X028348Y006211D02*
X030095Y006211D01*
X030221Y006369D02*
X028101Y006369D01*
X027978Y006369D02*
X027882Y006369D01*
X027882Y006395D02*
X027798Y006382D01*
X027714Y006355D01*
X027635Y006314D01*
X027564Y006262D01*
X027501Y006200D01*
X027449Y006128D01*
X027409Y006049D01*
X027381Y005965D01*
X027368Y005881D01*
X027882Y005881D01*
X027882Y006395D01*
X027759Y006369D02*
X024101Y006369D01*
X024062Y006382D02*
X023978Y006395D01*
X023978Y005881D01*
X024492Y005881D01*
X024479Y005965D01*
X024451Y006049D01*
X024411Y006128D01*
X024359Y006200D01*
X024296Y006262D01*
X024225Y006314D01*
X024146Y006355D01*
X024062Y006382D01*
X023978Y006369D02*
X023882Y006369D01*
X023882Y006395D02*
X023798Y006382D01*
X023714Y006355D01*
X023635Y006314D01*
X023564Y006262D01*
X023501Y006200D01*
X023449Y006128D01*
X023409Y006049D01*
X023381Y005965D01*
X023368Y005881D01*
X023882Y005881D01*
X023882Y005786D01*
X023368Y005786D01*
X023381Y005702D01*
X023409Y005617D01*
X023449Y005539D01*
X023501Y005467D01*
X023564Y005404D01*
X023635Y005352D01*
X023714Y005312D01*
X023798Y005285D01*
X023882Y005271D01*
X023882Y005786D01*
X023978Y005786D01*
X023978Y005881D01*
X023882Y005881D01*
X023882Y006395D01*
X023759Y006369D02*
X021601Y006369D01*
X021562Y006382D02*
X021478Y006395D01*
X021478Y005881D01*
X021992Y005881D01*
X021979Y005965D01*
X021951Y006049D01*
X021911Y006128D01*
X021859Y006200D01*
X021796Y006262D01*
X021725Y006314D01*
X021646Y006355D01*
X021562Y006382D01*
X021478Y006369D02*
X021382Y006369D01*
X021382Y006395D02*
X021298Y006382D01*
X021214Y006355D01*
X021135Y006314D01*
X021064Y006262D01*
X021001Y006200D01*
X020949Y006128D01*
X020909Y006049D01*
X020881Y005965D01*
X020868Y005881D01*
X021382Y005881D01*
X021382Y005786D01*
X020868Y005786D01*
X020881Y005702D01*
X020909Y005617D01*
X020949Y005539D01*
X021001Y005467D01*
X021064Y005404D01*
X021135Y005352D01*
X021214Y005312D01*
X021298Y005285D01*
X021382Y005271D01*
X021382Y005786D01*
X021478Y005786D01*
X021478Y005881D01*
X021382Y005881D01*
X021382Y006395D01*
X021259Y006369D02*
X017601Y006369D01*
X017562Y006382D02*
X017478Y006395D01*
X017478Y005881D01*
X017992Y005881D01*
X017979Y005965D01*
X017951Y006049D01*
X017911Y006128D01*
X017859Y006200D01*
X017796Y006262D01*
X017725Y006314D01*
X017646Y006355D01*
X017562Y006382D01*
X017478Y006369D02*
X017382Y006369D01*
X017382Y006395D02*
X017298Y006382D01*
X017214Y006355D01*
X017135Y006314D01*
X017064Y006262D01*
X017001Y006200D01*
X016949Y006128D01*
X016909Y006049D01*
X016881Y005965D01*
X016868Y005881D01*
X017382Y005881D01*
X017382Y005786D01*
X016868Y005786D01*
X016881Y005702D01*
X016909Y005617D01*
X016949Y005539D01*
X017001Y005467D01*
X017064Y005404D01*
X017135Y005352D01*
X017214Y005312D01*
X017298Y005285D01*
X017382Y005271D01*
X017382Y005786D01*
X017478Y005786D01*
X017478Y005881D01*
X017382Y005881D01*
X017382Y006395D01*
X017259Y006369D02*
X015601Y006369D01*
X015562Y006382D02*
X015478Y006395D01*
X015478Y005881D01*
X015992Y005881D01*
X015979Y005965D01*
X015951Y006049D01*
X015911Y006128D01*
X015859Y006200D01*
X015796Y006262D01*
X015725Y006314D01*
X015646Y006355D01*
X015562Y006382D01*
X015478Y006369D02*
X015382Y006369D01*
X015382Y006395D02*
X015298Y006382D01*
X015214Y006355D01*
X015135Y006314D01*
X015064Y006262D01*
X015001Y006200D01*
X014949Y006128D01*
X014909Y006049D01*
X014881Y005965D01*
X014868Y005881D01*
X015382Y005881D01*
X015382Y005786D01*
X014868Y005786D01*
X014881Y005702D01*
X014909Y005617D01*
X014949Y005539D01*
X015001Y005467D01*
X015064Y005404D01*
X015135Y005352D01*
X015214Y005312D01*
X015298Y005285D01*
X015382Y005271D01*
X015382Y005786D01*
X015478Y005786D01*
X015478Y005881D01*
X015382Y005881D01*
X015382Y006395D01*
X015259Y006369D02*
X011601Y006369D01*
X011562Y006382D02*
X011646Y006355D01*
X011725Y006314D01*
X011796Y006262D01*
X011859Y006200D01*
X011911Y006128D01*
X011951Y006049D01*
X011979Y005965D01*
X011992Y005881D01*
X011478Y005881D01*
X011478Y005786D01*
X011992Y005786D01*
X011979Y005702D01*
X011951Y005617D01*
X011911Y005539D01*
X011859Y005467D01*
X011796Y005404D01*
X011725Y005352D01*
X011646Y005312D01*
X011562Y005285D01*
X011478Y005271D01*
X011478Y005786D01*
X011382Y005786D01*
X010868Y005786D01*
X010881Y005702D01*
X010909Y005617D01*
X010949Y005539D01*
X011001Y005467D01*
X011064Y005404D01*
X011135Y005352D01*
X011214Y005312D01*
X011298Y005285D01*
X011382Y005271D01*
X011382Y005786D01*
X011382Y005881D01*
X010868Y005881D01*
X010881Y005965D01*
X010909Y006049D01*
X010949Y006128D01*
X011001Y006200D01*
X011064Y006262D01*
X011135Y006314D01*
X011214Y006355D01*
X011298Y006382D01*
X011382Y006395D01*
X011382Y005881D01*
X011478Y005881D01*
X011478Y006395D01*
X011562Y006382D01*
X011478Y006369D02*
X011382Y006369D01*
X011259Y006369D02*
X009101Y006369D01*
X009062Y006382D02*
X008978Y006395D01*
X008978Y005881D01*
X009492Y005881D01*
X009479Y005965D01*
X009451Y006049D01*
X009411Y006128D01*
X009359Y006200D01*
X009296Y006262D01*
X009225Y006314D01*
X009146Y006355D01*
X009062Y006382D01*
X008978Y006369D02*
X008882Y006369D01*
X008882Y006395D02*
X008798Y006382D01*
X008714Y006355D01*
X008635Y006314D01*
X008564Y006262D01*
X008501Y006200D01*
X008449Y006128D01*
X008409Y006049D01*
X008381Y005965D01*
X008368Y005881D01*
X008882Y005881D01*
X008882Y005786D01*
X008368Y005786D01*
X008381Y005702D01*
X008409Y005617D01*
X008449Y005539D01*
X008501Y005467D01*
X008564Y005404D01*
X008635Y005352D01*
X008714Y005312D01*
X008798Y005285D01*
X008882Y005271D01*
X008882Y005786D01*
X008978Y005786D01*
X008978Y005881D01*
X008882Y005881D01*
X008882Y006395D01*
X008759Y006369D02*
X005101Y006369D01*
X005062Y006382D02*
X004978Y006395D01*
X004978Y005881D01*
X005492Y005881D01*
X005479Y005965D01*
X005451Y006049D01*
X005411Y006128D01*
X005359Y006200D01*
X005296Y006262D01*
X005225Y006314D01*
X005146Y006355D01*
X005062Y006382D01*
X004978Y006369D02*
X004882Y006369D01*
X004882Y006395D02*
X004798Y006382D01*
X004714Y006355D01*
X004635Y006314D01*
X004564Y006262D01*
X004501Y006200D01*
X004449Y006128D01*
X004409Y006049D01*
X004381Y005965D01*
X004368Y005881D01*
X004882Y005881D01*
X004882Y005786D01*
X004368Y005786D01*
X004381Y005702D01*
X004409Y005617D01*
X004449Y005539D01*
X004501Y005467D01*
X004564Y005404D01*
X004635Y005352D01*
X004714Y005312D01*
X004798Y005285D01*
X004882Y005271D01*
X004882Y005786D01*
X004978Y005786D01*
X004978Y005881D01*
X004882Y005881D01*
X004882Y006395D01*
X004759Y006369D02*
X002690Y006369D01*
X002840Y006211D02*
X004512Y006211D01*
X004410Y006052D02*
X002931Y006052D01*
X003013Y005894D02*
X004370Y005894D01*
X004376Y005735D02*
X003056Y005735D01*
X003096Y005577D02*
X004429Y005577D01*
X004550Y005418D02*
X003096Y005418D01*
X002498Y006528D02*
X030380Y006528D01*
X030636Y006686D02*
X002166Y006686D01*
X001343Y006686D02*
X000660Y006686D01*
X000660Y006528D02*
X001012Y006528D01*
X000819Y006369D02*
X000660Y006369D01*
X000660Y006211D02*
X000670Y006211D01*
X000660Y006845D02*
X032192Y006845D01*
X032192Y007003D02*
X000660Y007003D01*
X000660Y007162D02*
X032192Y007162D01*
X032192Y007320D02*
X026109Y007320D01*
X026038Y007291D02*
X026237Y007373D01*
X026390Y007526D01*
X026472Y007725D01*
X026472Y007941D01*
X026390Y008141D01*
X026237Y008293D01*
X026038Y008376D01*
X025822Y008376D01*
X025623Y008293D01*
X025470Y008141D01*
X025442Y008073D01*
X024779Y008073D01*
X022920Y009933D01*
X022920Y010381D01*
X022883Y010469D01*
X019816Y013537D01*
X019728Y013573D01*
X011420Y013573D01*
X011420Y013859D01*
X011480Y013884D01*
X011629Y014033D01*
X011680Y014155D01*
X011731Y014033D01*
X011880Y013884D01*
X012075Y013803D01*
X012285Y013803D01*
X012480Y013884D01*
X012629Y014033D01*
X012680Y014155D01*
X012731Y014033D01*
X012880Y013884D01*
X013075Y013803D01*
X013285Y013803D01*
X013480Y013884D01*
X013629Y014033D01*
X013680Y014155D01*
X013731Y014033D01*
X013880Y013884D01*
X014075Y013803D01*
X014285Y013803D01*
X014480Y013884D01*
X014629Y014033D01*
X014680Y014155D01*
X014731Y014033D01*
X014880Y013884D01*
X015075Y013803D01*
X015285Y013803D01*
X015480Y013884D01*
X015629Y014033D01*
X015680Y014155D01*
X015731Y014033D01*
X015880Y013884D01*
X016075Y013803D01*
X016285Y013803D01*
X016480Y013884D01*
X016629Y014033D01*
X016669Y014128D01*
X016670Y014122D01*
X016710Y014045D01*
X016760Y013975D01*
X016822Y013914D01*
X016892Y013863D01*
X016969Y013824D01*
X017051Y013797D01*
X017137Y013783D01*
X017160Y013783D01*
X017160Y014313D01*
X017200Y014313D01*
X017200Y013783D01*
X017223Y013783D01*
X017309Y013797D01*
X017391Y013824D01*
X017468Y013863D01*
X017538Y013914D01*
X017600Y013975D01*
X017650Y014045D01*
X017690Y014122D01*
X017691Y014128D01*
X017731Y014033D01*
X017880Y013884D01*
X018075Y013803D01*
X018285Y013803D01*
X018480Y013884D01*
X018629Y014033D01*
X018680Y014155D01*
X018731Y014033D01*
X018880Y013884D01*
X019075Y013803D01*
X019285Y013803D01*
X019480Y013884D01*
X019629Y014033D01*
X019710Y014228D01*
X019710Y014439D01*
X019629Y014634D01*
X019480Y014783D01*
X019285Y014863D01*
X019075Y014863D01*
X018880Y014783D01*
X018731Y014634D01*
X018680Y014511D01*
X018629Y014634D01*
X018480Y014783D01*
X018285Y014863D01*
X018075Y014863D01*
X017880Y014783D01*
X017731Y014634D01*
X017691Y014539D01*
X017690Y014544D01*
X017650Y014622D01*
X017600Y014692D01*
X017538Y014753D01*
X017468Y014804D01*
X017391Y014843D01*
X017309Y014870D01*
X017223Y014883D01*
X017200Y014883D01*
X017200Y014353D01*
X017160Y014353D01*
X017160Y014883D01*
X017137Y014883D01*
X017051Y014870D01*
X016969Y014843D01*
X016892Y014804D01*
X016822Y014753D01*
X016760Y014692D01*
X016710Y014622D01*
X016670Y014544D01*
X016669Y014539D01*
X016629Y014634D01*
X016480Y014783D01*
X016285Y014863D01*
X016075Y014863D01*
X015880Y014783D01*
X015731Y014634D01*
X015680Y014511D01*
X015629Y014634D01*
X015480Y014783D01*
X015285Y014863D01*
X015075Y014863D01*
X014880Y014783D01*
X014731Y014634D01*
X014680Y014511D01*
X014629Y014634D01*
X014480Y014783D01*
X014285Y014863D01*
X014075Y014863D01*
X013880Y014783D01*
X013731Y014634D01*
X013680Y014511D01*
X013629Y014634D01*
X013480Y014783D01*
X013285Y014863D01*
X013075Y014863D01*
X012880Y014783D01*
X012731Y014634D01*
X012680Y014511D01*
X012629Y014634D01*
X012480Y014783D01*
X012285Y014863D01*
X012075Y014863D01*
X011880Y014783D01*
X011731Y014634D01*
X011680Y014511D01*
X011629Y014634D01*
X011480Y014783D01*
X011285Y014863D01*
X011075Y014863D01*
X010880Y014783D01*
X010731Y014634D01*
X010680Y014511D01*
X010629Y014634D01*
X010480Y014783D01*
X010285Y014863D01*
X010075Y014863D01*
X009880Y014783D01*
X009731Y014634D01*
X009680Y014511D01*
X009629Y014634D01*
X009480Y014783D01*
X009285Y014863D01*
X009075Y014863D01*
X008880Y014783D01*
X008731Y014634D01*
X008680Y014511D01*
X008629Y014634D01*
X008480Y014783D01*
X008285Y014863D01*
X008075Y014863D01*
X007880Y014783D01*
X007731Y014634D01*
X007680Y014511D01*
X007629Y014634D01*
X007480Y014783D01*
X007285Y014863D01*
X007075Y014863D01*
X006880Y014783D01*
X006731Y014634D01*
X006680Y014511D01*
X006629Y014634D01*
X006480Y014783D01*
X006285Y014863D01*
X006075Y014863D01*
X005880Y014783D01*
X005731Y014634D01*
X005680Y014511D01*
X005629Y014634D01*
X005480Y014783D01*
X005285Y014863D01*
X005075Y014863D01*
X004880Y014783D01*
X004731Y014634D01*
X004680Y014511D01*
X004629Y014634D01*
X004480Y014783D01*
X004285Y014863D01*
X004075Y014863D01*
X003880Y014783D01*
X003731Y014634D01*
X003650Y014439D01*
X003650Y014228D01*
X003731Y014033D01*
X003880Y013884D01*
X004075Y013803D01*
X004285Y013803D01*
X004480Y013884D01*
X004629Y014033D01*
X004680Y014155D01*
X004731Y014033D01*
X004880Y013884D01*
X005075Y013803D01*
X005285Y013803D01*
X005480Y013884D01*
X005629Y014033D01*
X005680Y014155D01*
X005731Y014033D01*
X005880Y013884D01*
X006075Y013803D01*
X006285Y013803D01*
X006480Y013884D01*
X006629Y014033D01*
X006680Y014155D01*
X006731Y014033D01*
X006880Y013884D01*
X007075Y013803D01*
X007285Y013803D01*
X007480Y013884D01*
X007629Y014033D01*
X007680Y014155D01*
X007731Y014033D01*
X007880Y013884D01*
X008075Y013803D01*
X008285Y013803D01*
X008480Y013884D01*
X008629Y014033D01*
X008680Y014155D01*
X008731Y014033D01*
X008880Y013884D01*
X009075Y013803D01*
X009285Y013803D01*
X009480Y013884D01*
X009629Y014033D01*
X009680Y014155D01*
X009731Y014033D01*
X009880Y013884D01*
X009940Y013859D01*
X009940Y012786D01*
X009977Y012697D01*
X010044Y012630D01*
X010132Y012593D01*
X017581Y012593D01*
X019190Y010984D01*
X019190Y008321D01*
X019123Y008293D01*
X018970Y008141D01*
X018888Y007941D01*
X018888Y007725D01*
X018970Y007526D01*
X019123Y007373D01*
X019322Y007291D01*
X019538Y007291D01*
X019737Y007373D01*
X019890Y007526D01*
X019972Y007725D01*
X019972Y007941D01*
X019890Y008141D01*
X019737Y008293D01*
X019670Y008321D01*
X019670Y011131D01*
X019633Y011219D01*
X019566Y011287D01*
X017816Y013037D01*
X017728Y013073D01*
X010420Y013073D01*
X010420Y013859D01*
X010480Y013884D01*
X010629Y014033D01*
X010680Y014155D01*
X010731Y014033D01*
X010880Y013884D01*
X010940Y013859D01*
X010940Y013286D01*
X010977Y013197D01*
X011044Y013130D01*
X011132Y013093D01*
X019581Y013093D01*
X022440Y010234D01*
X022440Y009786D01*
X022477Y009697D01*
X024477Y007697D01*
X024544Y007630D01*
X024632Y007593D01*
X025442Y007593D01*
X025470Y007526D01*
X025623Y007373D01*
X025822Y007291D01*
X026038Y007291D01*
X025751Y007320D02*
X019609Y007320D01*
X019843Y007479D02*
X025517Y007479D01*
X025930Y007833D02*
X024680Y007833D01*
X022680Y009833D01*
X022680Y010333D01*
X019680Y013333D01*
X011180Y013333D01*
X011180Y014333D01*
X010688Y014136D02*
X010672Y014136D01*
X010574Y013977D02*
X010786Y013977D01*
X010940Y013819D02*
X010420Y013819D01*
X010420Y013660D02*
X010940Y013660D01*
X010940Y013502D02*
X010420Y013502D01*
X010420Y013343D02*
X010940Y013343D01*
X010989Y013185D02*
X010420Y013185D01*
X009940Y013185D02*
X000660Y013185D01*
X000660Y013343D02*
X009940Y013343D01*
X009940Y013502D02*
X000660Y013502D01*
X000660Y013660D02*
X009940Y013660D01*
X009940Y013819D02*
X009323Y013819D01*
X009037Y013819D02*
X008323Y013819D01*
X008037Y013819D02*
X007323Y013819D01*
X007037Y013819D02*
X006323Y013819D01*
X006037Y013819D02*
X005323Y013819D01*
X005037Y013819D02*
X004323Y013819D01*
X004037Y013819D02*
X000660Y013819D01*
X000660Y013977D02*
X003786Y013977D01*
X003688Y014136D02*
X000660Y014136D01*
X000660Y014294D02*
X003650Y014294D01*
X003656Y014453D02*
X000660Y014453D01*
X000660Y014611D02*
X003721Y014611D01*
X003867Y014770D02*
X000660Y014770D01*
X000660Y014928D02*
X019940Y014928D01*
X019940Y014770D02*
X019493Y014770D01*
X019639Y014611D02*
X019940Y014611D01*
X019940Y014600D02*
X019876Y014536D01*
X019822Y014405D01*
X019822Y014262D01*
X019876Y014130D01*
X019977Y014030D01*
X020109Y013975D01*
X020251Y013975D01*
X020383Y014030D01*
X020484Y014130D01*
X020538Y014262D01*
X020538Y014405D01*
X020484Y014536D01*
X020420Y014600D01*
X020420Y015881D01*
X020383Y015969D01*
X019420Y016933D01*
X019420Y018881D01*
X019383Y018969D01*
X019038Y019315D01*
X019038Y019405D01*
X018984Y019536D01*
X018926Y019593D01*
X019414Y019593D01*
X019477Y019530D01*
X019609Y019475D01*
X019751Y019475D01*
X019883Y019530D01*
X019984Y019630D01*
X020038Y019762D01*
X020038Y019905D01*
X019984Y020036D01*
X019883Y020137D01*
X019751Y020191D01*
X019609Y020191D01*
X019477Y020137D01*
X019414Y020073D01*
X015632Y020073D01*
X015544Y020037D01*
X015477Y019969D01*
X015440Y019881D01*
X015440Y019600D01*
X015376Y019536D01*
X015322Y019405D01*
X015322Y019262D01*
X015376Y019130D01*
X015477Y019030D01*
X015609Y018975D01*
X015751Y018975D01*
X015883Y019030D01*
X015984Y019130D01*
X016038Y019262D01*
X016038Y019405D01*
X015984Y019536D01*
X015926Y019593D01*
X018434Y019593D01*
X018376Y019536D01*
X018322Y019405D01*
X018322Y019262D01*
X018376Y019130D01*
X018477Y019030D01*
X018609Y018975D01*
X018699Y018975D01*
X018940Y018734D01*
X018940Y016786D01*
X018977Y016697D01*
X019044Y016630D01*
X019940Y015734D01*
X019940Y014600D01*
X019842Y014453D02*
X019704Y014453D01*
X019710Y014294D02*
X019822Y014294D01*
X019874Y014136D02*
X019672Y014136D01*
X019574Y013977D02*
X020104Y013977D01*
X020256Y013977D02*
X023772Y013977D01*
X023640Y014110D02*
X023956Y013793D01*
X024404Y013793D01*
X024720Y014110D01*
X024720Y014557D01*
X024404Y014873D01*
X023956Y014873D01*
X023640Y014557D01*
X023640Y014110D01*
X023640Y014136D02*
X020486Y014136D01*
X020538Y014294D02*
X023640Y014294D01*
X023640Y014453D02*
X020518Y014453D01*
X020420Y014611D02*
X023694Y014611D01*
X023853Y014770D02*
X020420Y014770D01*
X020420Y014928D02*
X025460Y014928D01*
X025481Y014949D02*
X025346Y014814D01*
X025273Y014637D01*
X025273Y013029D01*
X025346Y012853D01*
X025481Y012718D01*
X025657Y012645D01*
X026163Y012645D01*
X026340Y012718D01*
X026475Y012853D01*
X026548Y013029D01*
X026548Y013220D01*
X026548Y014447D01*
X026548Y014637D01*
X026475Y014814D01*
X026340Y014949D01*
X026163Y015022D01*
X025657Y015022D01*
X025481Y014949D01*
X025328Y014770D02*
X024507Y014770D01*
X024666Y014611D02*
X025273Y014611D01*
X025273Y014453D02*
X024720Y014453D01*
X024720Y014294D02*
X025273Y014294D01*
X025273Y014136D02*
X024720Y014136D01*
X024588Y013977D02*
X025273Y013977D01*
X025273Y013819D02*
X024429Y013819D01*
X023931Y013819D02*
X019323Y013819D01*
X019037Y013819D02*
X018323Y013819D01*
X018037Y013819D02*
X017376Y013819D01*
X017200Y013819D02*
X017160Y013819D01*
X017160Y013977D02*
X017200Y013977D01*
X017200Y014136D02*
X017160Y014136D01*
X017160Y014294D02*
X017200Y014294D01*
X017200Y014453D02*
X017160Y014453D01*
X017160Y014611D02*
X017200Y014611D01*
X017200Y014770D02*
X017160Y014770D01*
X016845Y014770D02*
X016493Y014770D01*
X016639Y014611D02*
X016704Y014611D01*
X016759Y013977D02*
X016574Y013977D01*
X016323Y013819D02*
X016984Y013819D01*
X017601Y013977D02*
X017786Y013977D01*
X017721Y014611D02*
X017656Y014611D01*
X017515Y014770D02*
X017867Y014770D01*
X018493Y014770D02*
X018867Y014770D01*
X018721Y014611D02*
X018639Y014611D01*
X018672Y014136D02*
X018688Y014136D01*
X018786Y013977D02*
X018574Y013977D01*
X019851Y013502D02*
X025273Y013502D01*
X025273Y013660D02*
X011420Y013660D01*
X011420Y013819D02*
X012037Y013819D01*
X012323Y013819D02*
X013037Y013819D01*
X013323Y013819D02*
X014037Y013819D01*
X014323Y013819D02*
X015037Y013819D01*
X015323Y013819D02*
X016037Y013819D01*
X015786Y013977D02*
X015574Y013977D01*
X015672Y014136D02*
X015688Y014136D01*
X015721Y014611D02*
X015639Y014611D01*
X015493Y014770D02*
X015867Y014770D01*
X014867Y014770D02*
X014493Y014770D01*
X014639Y014611D02*
X014721Y014611D01*
X014688Y014136D02*
X014672Y014136D01*
X014574Y013977D02*
X014786Y013977D01*
X013786Y013977D02*
X013574Y013977D01*
X013672Y014136D02*
X013688Y014136D01*
X013721Y014611D02*
X013639Y014611D01*
X013493Y014770D02*
X013867Y014770D01*
X012867Y014770D02*
X012493Y014770D01*
X012639Y014611D02*
X012721Y014611D01*
X012688Y014136D02*
X012672Y014136D01*
X012574Y013977D02*
X012786Y013977D01*
X011786Y013977D02*
X011574Y013977D01*
X011672Y014136D02*
X011688Y014136D01*
X011721Y014611D02*
X011639Y014611D01*
X011493Y014770D02*
X011867Y014770D01*
X010867Y014770D02*
X010493Y014770D01*
X010639Y014611D02*
X010721Y014611D01*
X010180Y014333D02*
X010180Y012833D01*
X017680Y012833D01*
X019430Y011083D01*
X019430Y007833D01*
X018924Y007637D02*
X013936Y007637D01*
X013972Y007725D02*
X013890Y007526D01*
X013737Y007373D01*
X013538Y007291D01*
X013322Y007291D01*
X013123Y007373D01*
X012970Y007526D01*
X012888Y007725D01*
X012888Y007941D01*
X012970Y008141D01*
X013123Y008293D01*
X013322Y008376D01*
X013538Y008376D01*
X013737Y008293D01*
X013890Y008141D01*
X013972Y007941D01*
X013972Y007725D01*
X013972Y007796D02*
X018888Y007796D01*
X018893Y007954D02*
X013967Y007954D01*
X013901Y008113D02*
X018959Y008113D01*
X019101Y008271D02*
X013759Y008271D01*
X013101Y008271D02*
X007259Y008271D01*
X007237Y008293D02*
X007038Y008376D01*
X006822Y008376D01*
X006623Y008293D01*
X006470Y008141D01*
X006388Y007941D01*
X006388Y007725D01*
X006470Y007526D01*
X006623Y007373D01*
X006822Y007291D01*
X007038Y007291D01*
X007237Y007373D01*
X007390Y007526D01*
X007472Y007725D01*
X007472Y007941D01*
X007390Y008141D01*
X007237Y008293D01*
X007401Y008113D02*
X012959Y008113D01*
X012893Y007954D02*
X007467Y007954D01*
X007472Y007796D02*
X012888Y007796D01*
X012924Y007637D02*
X007436Y007637D01*
X007343Y007479D02*
X013017Y007479D01*
X013251Y007320D02*
X007109Y007320D01*
X006751Y007320D02*
X000660Y007320D01*
X000660Y007479D02*
X006517Y007479D01*
X006424Y007637D02*
X000660Y007637D01*
X000660Y007796D02*
X006388Y007796D01*
X006393Y007954D02*
X000660Y007954D01*
X000660Y008113D02*
X006459Y008113D01*
X006601Y008271D02*
X000660Y008271D01*
X000660Y008430D02*
X019190Y008430D01*
X019190Y008588D02*
X000660Y008588D01*
X000660Y008747D02*
X019190Y008747D01*
X019190Y008905D02*
X000660Y008905D01*
X000660Y009064D02*
X019190Y009064D01*
X019190Y009222D02*
X000660Y009222D01*
X000660Y009381D02*
X004596Y009381D01*
X004564Y009404D02*
X004635Y009352D01*
X004714Y009312D01*
X004798Y009285D01*
X004882Y009271D01*
X004882Y009786D01*
X004368Y009786D01*
X004381Y009702D01*
X004409Y009617D01*
X004449Y009539D01*
X004501Y009467D01*
X004564Y009404D01*
X004448Y009539D02*
X000660Y009539D01*
X000660Y009698D02*
X004383Y009698D01*
X004368Y009881D02*
X004882Y009881D01*
X004882Y009786D01*
X004978Y009786D01*
X004978Y009881D01*
X005492Y009881D01*
X005479Y009965D01*
X005451Y010049D01*
X005411Y010128D01*
X005359Y010200D01*
X005296Y010262D01*
X005225Y010314D01*
X005146Y010355D01*
X005062Y010382D01*
X004978Y010395D01*
X004978Y009881D01*
X004882Y009881D01*
X004882Y010395D01*
X004798Y010382D01*
X004714Y010355D01*
X004635Y010314D01*
X004564Y010262D01*
X004501Y010200D01*
X004449Y010128D01*
X004409Y010049D01*
X004381Y009965D01*
X004368Y009881D01*
X004398Y010015D02*
X000660Y010015D01*
X000660Y010173D02*
X004482Y010173D01*
X004669Y010332D02*
X000660Y010332D01*
X000660Y010490D02*
X019190Y010490D01*
X019190Y010332D02*
X017691Y010332D01*
X017725Y010314D02*
X017646Y010355D01*
X017562Y010382D01*
X017478Y010395D01*
X017478Y009881D01*
X017992Y009881D01*
X017979Y009965D01*
X017951Y010049D01*
X017911Y010128D01*
X017859Y010200D01*
X017796Y010262D01*
X017725Y010314D01*
X017878Y010173D02*
X019190Y010173D01*
X019190Y010015D02*
X017962Y010015D01*
X017992Y009786D02*
X017478Y009786D01*
X017478Y009881D01*
X017382Y009881D01*
X017382Y009786D01*
X016868Y009786D01*
X016881Y009702D01*
X016909Y009617D01*
X016949Y009539D01*
X017001Y009467D01*
X017064Y009404D01*
X017135Y009352D01*
X017214Y009312D01*
X017298Y009285D01*
X017382Y009271D01*
X017382Y009786D01*
X017478Y009786D01*
X017478Y009271D01*
X017562Y009285D01*
X017646Y009312D01*
X017725Y009352D01*
X017796Y009404D01*
X017859Y009467D01*
X017911Y009539D01*
X017951Y009617D01*
X017979Y009702D01*
X017992Y009786D01*
X017977Y009698D02*
X019190Y009698D01*
X019190Y009856D02*
X017478Y009856D01*
X017382Y009856D02*
X015478Y009856D01*
X015478Y009881D02*
X015992Y009881D01*
X015979Y009965D01*
X015951Y010049D01*
X015911Y010128D01*
X015859Y010200D01*
X015796Y010262D01*
X015725Y010314D01*
X015646Y010355D01*
X015562Y010382D01*
X015478Y010395D01*
X015478Y009881D01*
X015478Y009786D01*
X015992Y009786D01*
X015979Y009702D01*
X015951Y009617D01*
X015911Y009539D01*
X015859Y009467D01*
X015796Y009404D01*
X015725Y009352D01*
X015646Y009312D01*
X015562Y009285D01*
X015478Y009271D01*
X015478Y009786D01*
X015382Y009786D01*
X014868Y009786D01*
X014881Y009702D01*
X014909Y009617D01*
X014949Y009539D01*
X015001Y009467D01*
X015064Y009404D01*
X015135Y009352D01*
X015214Y009312D01*
X015298Y009285D01*
X015382Y009271D01*
X015382Y009786D01*
X015382Y009881D01*
X014868Y009881D01*
X014881Y009965D01*
X014909Y010049D01*
X014949Y010128D01*
X015001Y010200D01*
X015064Y010262D01*
X015135Y010314D01*
X015214Y010355D01*
X015298Y010382D01*
X015382Y010395D01*
X015382Y009881D01*
X015478Y009881D01*
X015382Y009856D02*
X011478Y009856D01*
X011478Y009881D02*
X011992Y009881D01*
X011979Y009965D01*
X011951Y010049D01*
X011911Y010128D01*
X011859Y010200D01*
X011796Y010262D01*
X011725Y010314D01*
X011646Y010355D01*
X011562Y010382D01*
X011478Y010395D01*
X011478Y009881D01*
X011478Y009786D01*
X011992Y009786D01*
X011979Y009702D01*
X011951Y009617D01*
X011911Y009539D01*
X011859Y009467D01*
X011796Y009404D01*
X011725Y009352D01*
X011646Y009312D01*
X011562Y009285D01*
X011478Y009271D01*
X011478Y009786D01*
X011382Y009786D01*
X010868Y009786D01*
X010881Y009702D01*
X010909Y009617D01*
X010949Y009539D01*
X011001Y009467D01*
X011064Y009404D01*
X011135Y009352D01*
X011214Y009312D01*
X011298Y009285D01*
X011382Y009271D01*
X011382Y009786D01*
X011382Y009881D01*
X010868Y009881D01*
X010881Y009965D01*
X010909Y010049D01*
X010949Y010128D01*
X011001Y010200D01*
X011064Y010262D01*
X011135Y010314D01*
X011214Y010355D01*
X011298Y010382D01*
X011382Y010395D01*
X011382Y009881D01*
X011478Y009881D01*
X011382Y009856D02*
X008978Y009856D01*
X008978Y009881D02*
X009492Y009881D01*
X009479Y009965D01*
X009451Y010049D01*
X009411Y010128D01*
X009359Y010200D01*
X009296Y010262D01*
X009225Y010314D01*
X009146Y010355D01*
X009062Y010382D01*
X008978Y010395D01*
X008978Y009881D01*
X008978Y009786D01*
X009492Y009786D01*
X009479Y009702D01*
X009451Y009617D01*
X009411Y009539D01*
X009359Y009467D01*
X009296Y009404D01*
X009225Y009352D01*
X009146Y009312D01*
X009062Y009285D01*
X008978Y009271D01*
X008978Y009786D01*
X008882Y009786D01*
X008368Y009786D01*
X008381Y009702D01*
X008409Y009617D01*
X008449Y009539D01*
X008501Y009467D01*
X008564Y009404D01*
X008635Y009352D01*
X008714Y009312D01*
X008798Y009285D01*
X008882Y009271D01*
X008882Y009786D01*
X008882Y009881D01*
X008368Y009881D01*
X008381Y009965D01*
X008409Y010049D01*
X008449Y010128D01*
X008501Y010200D01*
X008564Y010262D01*
X008635Y010314D01*
X008714Y010355D01*
X008798Y010382D01*
X008882Y010395D01*
X008882Y009881D01*
X008978Y009881D01*
X008882Y009856D02*
X004978Y009856D01*
X004978Y009786D02*
X005492Y009786D01*
X005479Y009702D01*
X005451Y009617D01*
X005411Y009539D01*
X005359Y009467D01*
X005296Y009404D01*
X005225Y009352D01*
X005146Y009312D01*
X005062Y009285D01*
X004978Y009271D01*
X004978Y009786D01*
X004978Y009698D02*
X004882Y009698D01*
X004882Y009856D02*
X000660Y009856D01*
X000660Y010649D02*
X019190Y010649D01*
X019190Y010807D02*
X000660Y010807D01*
X000660Y010966D02*
X019190Y010966D01*
X019050Y011124D02*
X000660Y011124D01*
X000660Y011283D02*
X018891Y011283D01*
X018733Y011441D02*
X000660Y011441D01*
X000660Y011600D02*
X018574Y011600D01*
X018416Y011758D02*
X000660Y011758D01*
X000660Y011917D02*
X018257Y011917D01*
X018099Y012075D02*
X000660Y012075D01*
X000660Y012234D02*
X017940Y012234D01*
X017782Y012392D02*
X000660Y012392D01*
X000660Y012551D02*
X017623Y012551D01*
X018143Y012709D02*
X019965Y012709D01*
X020123Y012551D02*
X018302Y012551D01*
X018460Y012392D02*
X020282Y012392D01*
X020440Y012234D02*
X018619Y012234D01*
X018777Y012075D02*
X020599Y012075D01*
X020757Y011917D02*
X018936Y011917D01*
X019094Y011758D02*
X020916Y011758D01*
X021074Y011600D02*
X019253Y011600D01*
X019411Y011441D02*
X021233Y011441D01*
X021391Y011283D02*
X019570Y011283D01*
X019670Y011124D02*
X021550Y011124D01*
X021708Y010966D02*
X019670Y010966D01*
X019670Y010807D02*
X021867Y010807D01*
X022025Y010649D02*
X019670Y010649D01*
X019670Y010490D02*
X022184Y010490D01*
X022342Y010332D02*
X021691Y010332D01*
X021725Y010314D02*
X021646Y010355D01*
X021562Y010382D01*
X021478Y010395D01*
X021478Y009881D01*
X021992Y009881D01*
X021979Y009965D01*
X021951Y010049D01*
X021911Y010128D01*
X021859Y010200D01*
X021796Y010262D01*
X021725Y010314D01*
X021878Y010173D02*
X022440Y010173D01*
X022440Y010015D02*
X021962Y010015D01*
X021992Y009786D02*
X021478Y009786D01*
X021478Y009881D01*
X021382Y009881D01*
X021382Y009786D01*
X020868Y009786D01*
X020881Y009702D01*
X020909Y009617D01*
X020949Y009539D01*
X021001Y009467D01*
X021064Y009404D01*
X021135Y009352D01*
X021214Y009312D01*
X021298Y009285D01*
X021382Y009271D01*
X021382Y009786D01*
X021478Y009786D01*
X021478Y009271D01*
X021562Y009285D01*
X021646Y009312D01*
X021725Y009352D01*
X021796Y009404D01*
X021859Y009467D01*
X021911Y009539D01*
X021951Y009617D01*
X021979Y009702D01*
X021992Y009786D01*
X021977Y009698D02*
X022476Y009698D01*
X022440Y009856D02*
X021478Y009856D01*
X021382Y009856D02*
X019670Y009856D01*
X019670Y009698D02*
X020883Y009698D01*
X020948Y009539D02*
X019670Y009539D01*
X019670Y009381D02*
X021096Y009381D01*
X021382Y009381D02*
X021478Y009381D01*
X021478Y009539D02*
X021382Y009539D01*
X021382Y009698D02*
X021478Y009698D01*
X021382Y009881D02*
X020868Y009881D01*
X020881Y009965D01*
X020909Y010049D01*
X020949Y010128D01*
X021001Y010200D01*
X021064Y010262D01*
X021135Y010314D01*
X021214Y010355D01*
X021298Y010382D01*
X021382Y010395D01*
X021382Y009881D01*
X021382Y010015D02*
X021478Y010015D01*
X021478Y010173D02*
X021382Y010173D01*
X021382Y010332D02*
X021478Y010332D01*
X021169Y010332D02*
X019670Y010332D01*
X019670Y010173D02*
X020982Y010173D01*
X020898Y010015D02*
X019670Y010015D01*
X019190Y009539D02*
X017912Y009539D01*
X017764Y009381D02*
X019190Y009381D01*
X019670Y009222D02*
X022952Y009222D01*
X023110Y009064D02*
X019670Y009064D01*
X019670Y008905D02*
X023269Y008905D01*
X023427Y008747D02*
X019670Y008747D01*
X019670Y008588D02*
X023586Y008588D01*
X023744Y008430D02*
X019670Y008430D01*
X019759Y008271D02*
X023903Y008271D01*
X024061Y008113D02*
X019901Y008113D01*
X019967Y007954D02*
X024220Y007954D01*
X024378Y007796D02*
X019972Y007796D01*
X019936Y007637D02*
X024537Y007637D01*
X024477Y007697D02*
X024477Y007697D01*
X024740Y008113D02*
X025459Y008113D01*
X025601Y008271D02*
X024581Y008271D01*
X024423Y008430D02*
X030792Y008430D01*
X030948Y008273D02*
X030620Y008601D01*
X030620Y008813D01*
X031160Y008813D01*
X031200Y008813D01*
X031200Y008273D01*
X031412Y008273D01*
X031740Y008601D01*
X031740Y008813D01*
X031200Y008813D01*
X031200Y008853D01*
X031740Y008853D01*
X031740Y009065D01*
X031412Y009393D01*
X031200Y009393D01*
X031200Y008853D01*
X031160Y008853D01*
X031160Y008813D01*
X031160Y008273D01*
X030948Y008273D01*
X031160Y008430D02*
X031200Y008430D01*
X031200Y008588D02*
X031160Y008588D01*
X031160Y008747D02*
X031200Y008747D01*
X031160Y008853D02*
X030620Y008853D01*
X030620Y009065D01*
X030948Y009393D01*
X031160Y009393D01*
X031160Y008853D01*
X031160Y008905D02*
X031200Y008905D01*
X031200Y009064D02*
X031160Y009064D01*
X031160Y009222D02*
X031200Y009222D01*
X031200Y009381D02*
X031160Y009381D01*
X030936Y009381D02*
X028264Y009381D01*
X028296Y009404D02*
X028359Y009467D01*
X028411Y009539D01*
X028451Y009617D01*
X028479Y009702D01*
X028492Y009786D01*
X027978Y009786D01*
X027978Y009881D01*
X028492Y009881D01*
X028479Y009965D01*
X028451Y010049D01*
X028411Y010128D01*
X028359Y010200D01*
X028296Y010262D01*
X028225Y010314D01*
X028146Y010355D01*
X028062Y010382D01*
X027978Y010395D01*
X027978Y009881D01*
X027882Y009881D01*
X027882Y009786D01*
X027368Y009786D01*
X027381Y009702D01*
X027409Y009617D01*
X027449Y009539D01*
X027501Y009467D01*
X027564Y009404D01*
X027635Y009352D01*
X027714Y009312D01*
X027798Y009285D01*
X027882Y009271D01*
X027882Y009786D01*
X027978Y009786D01*
X027978Y009271D01*
X028062Y009285D01*
X028146Y009312D01*
X028225Y009352D01*
X028296Y009404D01*
X028412Y009539D02*
X032192Y009539D01*
X032192Y009381D02*
X031424Y009381D01*
X031583Y009222D02*
X032192Y009222D01*
X032192Y009064D02*
X031740Y009064D01*
X031740Y008905D02*
X032192Y008905D01*
X032192Y008747D02*
X031740Y008747D01*
X031727Y008588D02*
X032192Y008588D01*
X032192Y008430D02*
X031568Y008430D01*
X032192Y008271D02*
X026259Y008271D01*
X026401Y008113D02*
X032192Y008113D01*
X032192Y007954D02*
X026467Y007954D01*
X026472Y007796D02*
X032192Y007796D01*
X032192Y007637D02*
X026436Y007637D01*
X026343Y007479D02*
X032192Y007479D01*
X032192Y006686D02*
X031928Y006686D01*
X032185Y006528D02*
X032192Y006528D01*
X030633Y008588D02*
X024264Y008588D01*
X024106Y008747D02*
X030620Y008747D01*
X030620Y008905D02*
X023947Y008905D01*
X023789Y009064D02*
X030620Y009064D01*
X030777Y009222D02*
X023630Y009222D01*
X023714Y009312D02*
X023798Y009285D01*
X023882Y009271D01*
X023882Y009786D01*
X023368Y009786D01*
X023381Y009702D01*
X023409Y009617D01*
X023449Y009539D01*
X023501Y009467D01*
X023564Y009404D01*
X023635Y009352D01*
X023714Y009312D01*
X023596Y009381D02*
X023472Y009381D01*
X023448Y009539D02*
X023313Y009539D01*
X023383Y009698D02*
X023155Y009698D01*
X022996Y009856D02*
X023882Y009856D01*
X023882Y009881D02*
X023882Y009786D01*
X023978Y009786D01*
X023978Y009881D01*
X024492Y009881D01*
X024479Y009965D01*
X024451Y010049D01*
X024411Y010128D01*
X024359Y010200D01*
X024296Y010262D01*
X024225Y010314D01*
X024146Y010355D01*
X024062Y010382D01*
X023978Y010395D01*
X023978Y009881D01*
X023882Y009881D01*
X023368Y009881D01*
X023381Y009965D01*
X023409Y010049D01*
X023449Y010128D01*
X023501Y010200D01*
X023564Y010262D01*
X023635Y010314D01*
X023714Y010355D01*
X023798Y010382D01*
X023882Y010395D01*
X023882Y009881D01*
X023978Y009856D02*
X027882Y009856D01*
X027882Y009881D02*
X027368Y009881D01*
X027381Y009965D01*
X027409Y010049D01*
X027449Y010128D01*
X027501Y010200D01*
X027564Y010262D01*
X027635Y010314D01*
X027714Y010355D01*
X027798Y010382D01*
X027882Y010395D01*
X027882Y009881D01*
X027978Y009856D02*
X032192Y009856D01*
X032192Y009698D02*
X028477Y009698D01*
X028462Y010015D02*
X032192Y010015D01*
X032192Y010173D02*
X028378Y010173D01*
X028191Y010332D02*
X032192Y010332D01*
X032192Y010490D02*
X022862Y010490D01*
X022920Y010332D02*
X023669Y010332D01*
X023882Y010332D02*
X023978Y010332D01*
X023978Y010173D02*
X023882Y010173D01*
X023882Y010015D02*
X023978Y010015D01*
X023978Y009786D02*
X024492Y009786D01*
X024479Y009702D01*
X024451Y009617D01*
X024411Y009539D01*
X024359Y009467D01*
X024296Y009404D01*
X024225Y009352D01*
X024146Y009312D01*
X024062Y009285D01*
X023978Y009271D01*
X023978Y009786D01*
X023978Y009698D02*
X023882Y009698D01*
X023882Y009539D02*
X023978Y009539D01*
X023978Y009381D02*
X023882Y009381D01*
X024264Y009381D02*
X027596Y009381D01*
X027448Y009539D02*
X024412Y009539D01*
X024477Y009698D02*
X027383Y009698D01*
X027398Y010015D02*
X024462Y010015D01*
X024378Y010173D02*
X027482Y010173D01*
X027669Y010332D02*
X024191Y010332D01*
X023482Y010173D02*
X022920Y010173D01*
X022920Y010015D02*
X023398Y010015D01*
X022793Y009381D02*
X021764Y009381D01*
X021912Y009539D02*
X022635Y009539D01*
X022704Y010649D02*
X032192Y010649D01*
X032192Y010807D02*
X029469Y010807D01*
X029411Y010749D02*
X029546Y010884D01*
X029619Y011061D01*
X029619Y011567D01*
X029546Y011743D01*
X029411Y011878D01*
X029234Y011951D01*
X029043Y011951D01*
X027817Y011951D01*
X027626Y011951D01*
X027449Y011878D01*
X027314Y011743D01*
X027241Y011567D01*
X027241Y011061D01*
X027314Y010884D01*
X027449Y010749D01*
X027626Y010676D01*
X029234Y010676D01*
X029411Y010749D01*
X029579Y010966D02*
X032192Y010966D01*
X032192Y011124D02*
X029619Y011124D01*
X029619Y011283D02*
X032192Y011283D01*
X032192Y011441D02*
X029619Y011441D01*
X029605Y011600D02*
X032192Y011600D01*
X032192Y011758D02*
X029530Y011758D01*
X029317Y011917D02*
X032192Y011917D01*
X032192Y012075D02*
X021277Y012075D01*
X021119Y012234D02*
X029017Y012234D01*
X029024Y012227D02*
X029213Y012149D01*
X029417Y012149D01*
X029606Y012227D01*
X029751Y012372D01*
X029829Y012561D01*
X029829Y012765D01*
X029751Y012954D01*
X029105Y013600D01*
X028916Y013678D01*
X028712Y013678D01*
X028524Y013601D01*
X028482Y013701D01*
X028350Y013833D01*
X028482Y013965D01*
X028524Y014066D01*
X028712Y013988D01*
X028916Y013988D01*
X029105Y014067D01*
X029751Y014712D01*
X029829Y014901D01*
X029829Y015106D01*
X029751Y015295D01*
X029606Y015440D01*
X029417Y015518D01*
X029213Y015518D01*
X029024Y015440D01*
X028378Y014794D01*
X028336Y014694D01*
X027836Y015194D01*
X027647Y015272D01*
X027443Y015272D01*
X027254Y015194D01*
X027109Y015049D01*
X027031Y014860D01*
X027031Y014655D01*
X027109Y014466D01*
X027742Y013833D01*
X027109Y013200D01*
X027031Y013011D01*
X027031Y012807D01*
X027109Y012618D01*
X027254Y012473D01*
X027443Y012395D01*
X027647Y012395D01*
X027836Y012473D01*
X028336Y012973D01*
X028378Y012873D01*
X029024Y012227D01*
X028858Y012392D02*
X020960Y012392D01*
X020802Y012551D02*
X027176Y012551D01*
X027071Y012709D02*
X026319Y012709D01*
X026481Y012868D02*
X027031Y012868D01*
X027037Y013026D02*
X026547Y013026D01*
X026548Y013185D02*
X027103Y013185D01*
X027252Y013343D02*
X026548Y013343D01*
X026548Y013502D02*
X027411Y013502D01*
X027569Y013660D02*
X026548Y013660D01*
X026548Y013819D02*
X027728Y013819D01*
X027598Y013977D02*
X026548Y013977D01*
X026548Y014136D02*
X027439Y014136D01*
X027281Y014294D02*
X026548Y014294D01*
X026548Y014453D02*
X027122Y014453D01*
X027049Y014611D02*
X026548Y014611D01*
X026493Y014770D02*
X027031Y014770D01*
X027059Y014928D02*
X026360Y014928D01*
X027147Y015087D02*
X020420Y015087D01*
X020420Y015245D02*
X027378Y015245D01*
X027712Y015245D02*
X028829Y015245D01*
X028671Y015087D02*
X027943Y015087D01*
X028102Y014928D02*
X028512Y014928D01*
X028368Y014770D02*
X028260Y014770D01*
X028988Y015404D02*
X020420Y015404D01*
X020420Y015562D02*
X032192Y015562D01*
X032192Y015404D02*
X029642Y015404D01*
X029772Y015245D02*
X032192Y015245D01*
X032192Y015087D02*
X029829Y015087D01*
X029829Y014928D02*
X030500Y014928D01*
X030520Y014949D02*
X030385Y014814D01*
X030312Y014637D01*
X030312Y013029D01*
X030385Y012853D01*
X030520Y012718D01*
X030697Y012645D01*
X031203Y012645D01*
X031379Y012718D01*
X031514Y012853D01*
X031587Y013029D01*
X031587Y013220D01*
X031587Y014447D01*
X031587Y014637D01*
X031514Y014814D01*
X031379Y014949D01*
X031203Y015022D01*
X030697Y015022D01*
X030520Y014949D01*
X030367Y014770D02*
X029775Y014770D01*
X029650Y014611D02*
X030312Y014611D01*
X030312Y014453D02*
X029491Y014453D01*
X029333Y014294D02*
X030312Y014294D01*
X030312Y014136D02*
X029174Y014136D01*
X028960Y013660D02*
X030312Y013660D01*
X030312Y013502D02*
X029203Y013502D01*
X029362Y013343D02*
X030312Y013343D01*
X030312Y013185D02*
X029520Y013185D01*
X029679Y013026D02*
X030313Y013026D01*
X030379Y012868D02*
X029787Y012868D01*
X029829Y012709D02*
X030541Y012709D01*
X029825Y012551D02*
X032192Y012551D01*
X032192Y012709D02*
X031359Y012709D01*
X031520Y012868D02*
X032192Y012868D01*
X032192Y013026D02*
X031586Y013026D01*
X031587Y013185D02*
X032192Y013185D01*
X032192Y013343D02*
X031587Y013343D01*
X031587Y013502D02*
X032192Y013502D01*
X032192Y013660D02*
X031587Y013660D01*
X031587Y013819D02*
X032192Y013819D01*
X032192Y013977D02*
X031587Y013977D01*
X031587Y014136D02*
X032192Y014136D01*
X032192Y014294D02*
X031587Y014294D01*
X031587Y014453D02*
X032192Y014453D01*
X032192Y014611D02*
X031587Y014611D01*
X031532Y014770D02*
X032192Y014770D01*
X032192Y014928D02*
X031400Y014928D01*
X032192Y015721D02*
X029247Y015721D01*
X029234Y015716D02*
X029411Y015789D01*
X029546Y015924D01*
X029619Y016100D01*
X029619Y016606D01*
X029546Y016782D01*
X029411Y016917D01*
X029234Y016990D01*
X029043Y016990D01*
X027817Y016990D01*
X027626Y016990D01*
X027449Y016917D01*
X027314Y016782D01*
X027241Y016606D01*
X027241Y016100D01*
X027314Y015924D01*
X027449Y015789D01*
X027626Y015716D01*
X029234Y015716D01*
X029501Y015879D02*
X032192Y015879D01*
X032192Y016038D02*
X029593Y016038D01*
X029619Y016196D02*
X032192Y016196D01*
X032192Y016355D02*
X029619Y016355D01*
X029619Y016513D02*
X032192Y016513D01*
X032192Y016672D02*
X029591Y016672D01*
X029498Y016830D02*
X032192Y016830D01*
X032192Y016989D02*
X029238Y016989D01*
X029234Y017676D02*
X029411Y017749D01*
X029546Y017884D01*
X029619Y018061D01*
X029619Y018567D01*
X029546Y018743D01*
X029411Y018878D01*
X029234Y018951D01*
X029043Y018951D01*
X027817Y018951D01*
X027626Y018951D01*
X027449Y018878D01*
X027314Y018743D01*
X027241Y018567D01*
X027241Y018061D01*
X027314Y017884D01*
X027449Y017749D01*
X027626Y017676D01*
X029234Y017676D01*
X029443Y017781D02*
X032192Y017781D01*
X032192Y017623D02*
X019420Y017623D01*
X019420Y017781D02*
X027417Y017781D01*
X027291Y017940D02*
X019420Y017940D01*
X019420Y018098D02*
X027241Y018098D01*
X027241Y018257D02*
X019420Y018257D01*
X019420Y018415D02*
X027241Y018415D01*
X027244Y018574D02*
X019420Y018574D01*
X019420Y018732D02*
X027310Y018732D01*
X027480Y018891D02*
X019416Y018891D01*
X019303Y019049D02*
X032192Y019049D01*
X032192Y018891D02*
X029380Y018891D01*
X029550Y018732D02*
X032192Y018732D01*
X032192Y018574D02*
X029616Y018574D01*
X029619Y018415D02*
X032192Y018415D01*
X032192Y018257D02*
X029619Y018257D01*
X029619Y018098D02*
X032192Y018098D01*
X032192Y017940D02*
X029569Y017940D01*
X029417Y019149D02*
X029606Y019227D01*
X029751Y019372D01*
X029829Y019561D01*
X029829Y019765D01*
X029751Y019954D01*
X029105Y020600D01*
X028916Y020678D01*
X028712Y020678D01*
X028524Y020601D01*
X028482Y020701D01*
X028350Y020833D01*
X028482Y020965D01*
X028524Y021066D01*
X028712Y020988D01*
X028916Y020988D01*
X029105Y021067D01*
X029751Y021712D01*
X029829Y021901D01*
X029829Y022106D01*
X029751Y022295D01*
X029606Y022440D01*
X029417Y022518D01*
X029213Y022518D01*
X029024Y022440D01*
X028378Y021794D01*
X028336Y021694D01*
X027836Y022194D01*
X027647Y022272D01*
X027443Y022272D01*
X027254Y022194D01*
X027109Y022049D01*
X027031Y021860D01*
X027031Y021655D01*
X027109Y021466D01*
X027742Y020833D01*
X027109Y020200D01*
X027031Y020011D01*
X027031Y019807D01*
X027109Y019618D01*
X027254Y019473D01*
X027443Y019395D01*
X027647Y019395D01*
X027836Y019473D01*
X028336Y019973D01*
X028378Y019873D01*
X029024Y019227D01*
X029213Y019149D01*
X029417Y019149D01*
X029560Y019208D02*
X032192Y019208D01*
X032192Y019366D02*
X029746Y019366D01*
X029814Y019525D02*
X032192Y019525D01*
X032192Y019683D02*
X031296Y019683D01*
X031379Y019718D02*
X031514Y019853D01*
X031587Y020029D01*
X031587Y020220D01*
X031587Y021447D01*
X031587Y021637D01*
X031514Y021814D01*
X031379Y021949D01*
X031203Y022022D01*
X030697Y022022D01*
X030520Y021949D01*
X030385Y021814D01*
X030312Y021637D01*
X030312Y020029D01*
X030385Y019853D01*
X030520Y019718D01*
X030697Y019645D01*
X031203Y019645D01*
X031379Y019718D01*
X031503Y019842D02*
X032192Y019842D01*
X032192Y020000D02*
X031575Y020000D01*
X031587Y020159D02*
X032192Y020159D01*
X032192Y020317D02*
X031587Y020317D01*
X031587Y020476D02*
X032192Y020476D01*
X032192Y020634D02*
X031587Y020634D01*
X031587Y020793D02*
X032192Y020793D01*
X032192Y020951D02*
X031587Y020951D01*
X031587Y021110D02*
X032192Y021110D01*
X032192Y021268D02*
X031587Y021268D01*
X031587Y021427D02*
X032192Y021427D01*
X032192Y021585D02*
X031587Y021585D01*
X031543Y021744D02*
X032192Y021744D01*
X032192Y021902D02*
X031426Y021902D01*
X030474Y021902D02*
X029829Y021902D01*
X029829Y022061D02*
X032192Y022061D01*
X032192Y022219D02*
X029782Y022219D01*
X029668Y022378D02*
X032192Y022378D01*
X032192Y022536D02*
X017566Y022536D01*
X017408Y022695D02*
X032192Y022695D01*
X032192Y022853D02*
X029475Y022853D01*
X029411Y022789D02*
X029546Y022924D01*
X029619Y023100D01*
X029619Y023606D01*
X029546Y023782D01*
X029411Y023917D01*
X029234Y023990D01*
X029043Y023990D01*
X027817Y023990D01*
X027626Y023990D01*
X027449Y023917D01*
X027314Y023782D01*
X027241Y023606D01*
X027241Y023100D01*
X027314Y022924D01*
X027449Y022789D01*
X027626Y022716D01*
X029234Y022716D01*
X029411Y022789D01*
X029582Y023012D02*
X032192Y023012D01*
X032192Y023170D02*
X029619Y023170D01*
X029619Y023329D02*
X032192Y023329D01*
X032192Y023487D02*
X029619Y023487D01*
X029602Y023646D02*
X032192Y023646D01*
X032192Y023804D02*
X031654Y023804D01*
X032007Y023963D02*
X032192Y023963D01*
X030911Y023804D02*
X029524Y023804D01*
X029301Y023963D02*
X030558Y023963D01*
X030358Y024121D02*
X016148Y024121D01*
X016133Y024137D02*
X016001Y024191D01*
X015859Y024191D01*
X015727Y024137D01*
X015626Y024036D01*
X015572Y023905D01*
X015572Y023762D01*
X015626Y023630D01*
X015727Y023530D01*
X015859Y023475D01*
X015949Y023475D01*
X017690Y021734D01*
X017690Y021100D01*
X017626Y021036D01*
X017572Y020905D01*
X017572Y020762D01*
X017626Y020630D01*
X017727Y020530D01*
X017859Y020475D01*
X018001Y020475D01*
X018133Y020530D01*
X018234Y020630D01*
X018288Y020762D01*
X018288Y020905D01*
X018234Y021036D01*
X018170Y021100D01*
X018170Y021881D01*
X018133Y021969D01*
X016288Y023815D01*
X016288Y023905D01*
X016234Y024036D01*
X016133Y024137D01*
X016264Y023963D02*
X027559Y023963D01*
X027336Y023804D02*
X016298Y023804D01*
X016457Y023646D02*
X027258Y023646D01*
X027241Y023487D02*
X016615Y023487D01*
X016774Y023329D02*
X027241Y023329D01*
X027241Y023170D02*
X016932Y023170D01*
X017091Y023012D02*
X027278Y023012D01*
X027385Y022853D02*
X017249Y022853D01*
X016888Y022536D02*
X000660Y022536D01*
X000660Y022378D02*
X017046Y022378D01*
X017205Y022219D02*
X000660Y022219D01*
X000660Y022061D02*
X017363Y022061D01*
X017522Y021902D02*
X000660Y021902D01*
X000660Y021744D02*
X017680Y021744D01*
X017690Y021585D02*
X000660Y021585D01*
X000660Y021427D02*
X017690Y021427D01*
X017690Y021268D02*
X000660Y021268D01*
X000660Y021110D02*
X017690Y021110D01*
X017591Y020951D02*
X000660Y020951D01*
X000660Y020793D02*
X017572Y020793D01*
X017625Y020634D02*
X000660Y020634D01*
X000660Y020476D02*
X017857Y020476D01*
X018003Y020476D02*
X025273Y020476D01*
X025273Y020634D02*
X018235Y020634D01*
X018288Y020793D02*
X025273Y020793D01*
X025273Y020951D02*
X018269Y020951D01*
X018170Y021110D02*
X025273Y021110D01*
X025273Y021268D02*
X018170Y021268D01*
X018170Y021427D02*
X025273Y021427D01*
X025273Y021585D02*
X018170Y021585D01*
X018170Y021744D02*
X025317Y021744D01*
X025346Y021814D02*
X025273Y021637D01*
X025273Y020029D01*
X025346Y019853D01*
X025481Y019718D01*
X025657Y019645D01*
X026163Y019645D01*
X026340Y019718D01*
X026475Y019853D01*
X026548Y020029D01*
X026548Y020220D01*
X026548Y021447D01*
X026548Y021637D01*
X026475Y021814D01*
X026340Y021949D01*
X026163Y022022D01*
X025657Y022022D01*
X025481Y021949D01*
X025346Y021814D01*
X025434Y021902D02*
X018161Y021902D01*
X018042Y022061D02*
X027121Y022061D01*
X027048Y021902D02*
X026386Y021902D01*
X026504Y021744D02*
X027031Y021744D01*
X027060Y021585D02*
X026548Y021585D01*
X026548Y021427D02*
X027148Y021427D01*
X027307Y021268D02*
X026548Y021268D01*
X026548Y021110D02*
X027465Y021110D01*
X027624Y020951D02*
X026548Y020951D01*
X026548Y020793D02*
X027702Y020793D01*
X027543Y020634D02*
X026548Y020634D01*
X026548Y020476D02*
X027385Y020476D01*
X027226Y020317D02*
X026548Y020317D01*
X026548Y020159D02*
X027092Y020159D01*
X027031Y020000D02*
X026536Y020000D01*
X026464Y019842D02*
X027031Y019842D01*
X027082Y019683D02*
X026257Y019683D01*
X025564Y019683D02*
X024720Y019683D01*
X024720Y019610D02*
X024404Y019293D01*
X023956Y019293D01*
X023640Y019610D01*
X023640Y020057D01*
X023956Y020373D01*
X024404Y020373D01*
X024720Y020057D01*
X024720Y019610D01*
X024635Y019525D02*
X027202Y019525D01*
X027888Y019525D02*
X028726Y019525D01*
X028884Y019366D02*
X024477Y019366D01*
X023883Y019366D02*
X019038Y019366D01*
X018988Y019525D02*
X019489Y019525D01*
X019145Y019208D02*
X029070Y019208D01*
X028567Y019683D02*
X028047Y019683D01*
X028205Y019842D02*
X028409Y019842D01*
X028510Y020634D02*
X028605Y020634D01*
X028391Y020793D02*
X030312Y020793D01*
X030312Y020951D02*
X028468Y020951D01*
X029022Y020634D02*
X030312Y020634D01*
X030312Y020476D02*
X029229Y020476D01*
X029388Y020317D02*
X030312Y020317D01*
X030312Y020159D02*
X029546Y020159D01*
X029705Y020000D02*
X030324Y020000D01*
X030396Y019842D02*
X029798Y019842D01*
X029829Y019683D02*
X030603Y019683D01*
X030312Y021110D02*
X029148Y021110D01*
X029307Y021268D02*
X030312Y021268D01*
X030312Y021427D02*
X029465Y021427D01*
X029624Y021585D02*
X030312Y021585D01*
X030356Y021744D02*
X029764Y021744D01*
X028962Y022378D02*
X017725Y022378D01*
X017883Y022219D02*
X027316Y022219D01*
X027774Y022219D02*
X028803Y022219D01*
X028645Y022061D02*
X027969Y022061D01*
X028128Y021902D02*
X028486Y021902D01*
X028357Y021744D02*
X028286Y021744D01*
X030203Y024280D02*
X020383Y024280D01*
X020484Y024380D01*
X020538Y024512D01*
X020538Y024655D01*
X020484Y024786D01*
X020383Y024887D01*
X020251Y024941D01*
X020109Y024941D01*
X019977Y024887D01*
X019914Y024823D01*
X019334Y024823D01*
X019480Y024884D01*
X019629Y025033D01*
X019710Y025228D01*
X019710Y025439D01*
X019629Y025634D01*
X019480Y025783D01*
X019285Y025863D01*
X019075Y025863D01*
X018880Y025783D01*
X018731Y025634D01*
X018680Y025511D01*
X018629Y025634D01*
X018480Y025783D01*
X018285Y025863D01*
X018075Y025863D01*
X017880Y025783D01*
X017731Y025634D01*
X017680Y025511D01*
X017629Y025634D01*
X017480Y025783D01*
X017285Y025863D01*
X017075Y025863D01*
X016880Y025783D01*
X016731Y025634D01*
X016680Y025511D01*
X016629Y025634D01*
X016480Y025783D01*
X016285Y025863D01*
X016075Y025863D01*
X015880Y025783D01*
X015731Y025634D01*
X015680Y025511D01*
X015629Y025634D01*
X015480Y025783D01*
X015285Y025863D01*
X015075Y025863D01*
X014880Y025783D01*
X014731Y025634D01*
X014680Y025511D01*
X014629Y025634D01*
X014480Y025783D01*
X014285Y025863D01*
X014075Y025863D01*
X013880Y025783D01*
X013731Y025634D01*
X013680Y025511D01*
X013629Y025634D01*
X013480Y025783D01*
X013285Y025863D01*
X013075Y025863D01*
X012880Y025783D01*
X012731Y025634D01*
X012680Y025511D01*
X012629Y025634D01*
X012480Y025783D01*
X012285Y025863D01*
X012075Y025863D01*
X011880Y025783D01*
X011731Y025634D01*
X011680Y025511D01*
X011629Y025634D01*
X011480Y025783D01*
X011285Y025863D01*
X011075Y025863D01*
X010880Y025783D01*
X010731Y025634D01*
X010680Y025511D01*
X010629Y025634D01*
X010480Y025783D01*
X010285Y025863D01*
X010075Y025863D01*
X009880Y025783D01*
X009731Y025634D01*
X009680Y025511D01*
X009629Y025634D01*
X009480Y025783D01*
X009285Y025863D01*
X009075Y025863D01*
X008880Y025783D01*
X008731Y025634D01*
X008680Y025511D01*
X008629Y025634D01*
X008480Y025783D01*
X008285Y025863D01*
X008075Y025863D01*
X007880Y025783D01*
X007731Y025634D01*
X007680Y025511D01*
X007629Y025634D01*
X007480Y025783D01*
X007285Y025863D01*
X007075Y025863D01*
X006880Y025783D01*
X006731Y025634D01*
X006691Y025539D01*
X006690Y025544D01*
X006650Y025622D01*
X006600Y025692D01*
X006538Y025753D01*
X006468Y025804D01*
X006391Y025843D01*
X006309Y025870D01*
X006223Y025883D01*
X006200Y025883D01*
X006200Y025353D01*
X006160Y025353D01*
X006160Y025883D01*
X006137Y025883D01*
X006051Y025870D01*
X005969Y025843D01*
X005892Y025804D01*
X005822Y025753D01*
X005760Y025692D01*
X005710Y025622D01*
X005670Y025544D01*
X005669Y025539D01*
X005629Y025634D01*
X005480Y025783D01*
X005285Y025863D01*
X005075Y025863D01*
X004880Y025783D01*
X004731Y025634D01*
X004680Y025511D01*
X004629Y025634D01*
X004480Y025783D01*
X004285Y025863D01*
X004075Y025863D01*
X003880Y025783D01*
X003731Y025634D01*
X003650Y025439D01*
X003650Y025228D01*
X003731Y025033D01*
X003880Y024884D01*
X004075Y024803D01*
X004285Y024803D01*
X004480Y024884D01*
X004629Y025033D01*
X004680Y025155D01*
X004731Y025033D01*
X004880Y024884D01*
X005075Y024803D01*
X005285Y024803D01*
X005480Y024884D01*
X005629Y025033D01*
X005669Y025128D01*
X005670Y025122D01*
X005710Y025045D01*
X005760Y024975D01*
X005822Y024914D01*
X005892Y024863D01*
X005969Y024824D01*
X006051Y024797D01*
X006137Y024783D01*
X006160Y024783D01*
X006160Y025313D01*
X006200Y025313D01*
X006200Y024783D01*
X006223Y024783D01*
X006309Y024797D01*
X006391Y024824D01*
X006468Y024863D01*
X006538Y024914D01*
X006600Y024975D01*
X006650Y025045D01*
X006690Y025122D01*
X006691Y025128D01*
X006731Y025033D01*
X006880Y024884D01*
X007075Y024803D01*
X007285Y024803D01*
X007480Y024884D01*
X007629Y025033D01*
X007680Y025155D01*
X007731Y025033D01*
X007880Y024884D01*
X008075Y024803D01*
X008285Y024803D01*
X008480Y024884D01*
X008629Y025033D01*
X008680Y025155D01*
X008731Y025033D01*
X008880Y024884D01*
X009075Y024803D01*
X009285Y024803D01*
X009480Y024884D01*
X009629Y025033D01*
X009680Y025155D01*
X009731Y025033D01*
X009880Y024884D01*
X010075Y024803D01*
X010285Y024803D01*
X010480Y024884D01*
X010629Y025033D01*
X010680Y025155D01*
X010731Y025033D01*
X010880Y024884D01*
X011075Y024803D01*
X011285Y024803D01*
X011480Y024884D01*
X011629Y025033D01*
X011680Y025155D01*
X011731Y025033D01*
X011880Y024884D01*
X012075Y024803D01*
X012285Y024803D01*
X012480Y024884D01*
X012629Y025033D01*
X012680Y025155D01*
X012731Y025033D01*
X012880Y024884D01*
X013075Y024803D01*
X013285Y024803D01*
X013480Y024884D01*
X013629Y025033D01*
X013680Y025155D01*
X013731Y025033D01*
X013880Y024884D01*
X014075Y024803D01*
X014084Y024803D01*
X014044Y024787D01*
X012699Y023441D01*
X012609Y023441D01*
X012477Y023387D01*
X012376Y023286D01*
X012322Y023155D01*
X012322Y023012D01*
X000660Y023012D01*
X000660Y023170D02*
X012328Y023170D01*
X012322Y023012D02*
X012376Y022880D01*
X012477Y022780D01*
X012609Y022725D01*
X012751Y022725D01*
X012883Y022780D01*
X012984Y022880D01*
X013038Y023012D01*
X016412Y023012D01*
X016254Y023170D02*
X013106Y023170D01*
X013038Y023102D02*
X014279Y024343D01*
X019914Y024343D01*
X019977Y024280D01*
X014216Y024280D01*
X014057Y024121D02*
X015712Y024121D01*
X015596Y023963D02*
X013899Y023963D01*
X013740Y023804D02*
X015572Y023804D01*
X015620Y023646D02*
X013582Y023646D01*
X013423Y023487D02*
X015829Y023487D01*
X016095Y023329D02*
X013265Y023329D01*
X013038Y023102D02*
X013038Y023012D01*
X012956Y022853D02*
X016571Y022853D01*
X016729Y022695D02*
X000660Y022695D01*
X000660Y022853D02*
X012404Y022853D01*
X012680Y023083D02*
X014180Y024583D01*
X020180Y024583D01*
X020508Y024438D02*
X030112Y024438D01*
X030027Y024597D02*
X020538Y024597D01*
X020496Y024755D02*
X029984Y024755D01*
X029942Y024914D02*
X020318Y024914D01*
X020042Y024914D02*
X019510Y024914D01*
X019646Y025072D02*
X029941Y025072D01*
X029941Y025231D02*
X019710Y025231D01*
X019710Y025389D02*
X029973Y025389D01*
X030016Y025548D02*
X019665Y025548D01*
X019556Y025706D02*
X030088Y025706D01*
X030179Y025865D02*
X006324Y025865D01*
X006200Y025865D02*
X006160Y025865D01*
X006036Y025865D02*
X002858Y025865D01*
X002949Y025706D02*
X003804Y025706D01*
X003695Y025548D02*
X003021Y025548D01*
X003064Y025389D02*
X003650Y025389D01*
X003650Y025231D02*
X003096Y025231D01*
X003096Y025072D02*
X003714Y025072D01*
X003850Y024914D02*
X003095Y024914D01*
X003053Y024755D02*
X014013Y024755D01*
X013854Y024597D02*
X003010Y024597D01*
X002925Y024438D02*
X013696Y024438D01*
X013537Y024280D02*
X002834Y024280D01*
X002680Y024121D02*
X013379Y024121D01*
X013220Y023963D02*
X002479Y023963D01*
X002127Y023804D02*
X013062Y023804D01*
X012903Y023646D02*
X000660Y023646D01*
X000660Y023804D02*
X001383Y023804D01*
X001030Y023963D02*
X000660Y023963D01*
X000660Y024121D02*
X000830Y024121D01*
X000676Y024280D02*
X000660Y024280D01*
X000660Y023487D02*
X012745Y023487D01*
X012419Y023329D02*
X000660Y023329D01*
X002680Y023333D02*
X004680Y023333D01*
X006180Y024833D01*
X006180Y025333D01*
X006160Y025389D02*
X006200Y025389D01*
X006200Y025231D02*
X006160Y025231D01*
X006160Y025072D02*
X006200Y025072D01*
X006200Y024914D02*
X006160Y024914D01*
X005822Y024914D02*
X005510Y024914D01*
X005646Y025072D02*
X005696Y025072D01*
X005672Y025548D02*
X005665Y025548D01*
X005556Y025706D02*
X005775Y025706D01*
X006160Y025706D02*
X006200Y025706D01*
X006200Y025548D02*
X006160Y025548D01*
X006585Y025706D02*
X006804Y025706D01*
X006695Y025548D02*
X006688Y025548D01*
X006664Y025072D02*
X006714Y025072D01*
X006850Y024914D02*
X006538Y024914D01*
X007510Y024914D02*
X007850Y024914D01*
X007714Y025072D02*
X007646Y025072D01*
X007665Y025548D02*
X007695Y025548D01*
X007804Y025706D02*
X007556Y025706D01*
X008556Y025706D02*
X008804Y025706D01*
X008695Y025548D02*
X008665Y025548D01*
X008646Y025072D02*
X008714Y025072D01*
X008850Y024914D02*
X008510Y024914D01*
X009510Y024914D02*
X009850Y024914D01*
X009714Y025072D02*
X009646Y025072D01*
X009665Y025548D02*
X009695Y025548D01*
X009804Y025706D02*
X009556Y025706D01*
X010556Y025706D02*
X010804Y025706D01*
X010695Y025548D02*
X010665Y025548D01*
X010646Y025072D02*
X010714Y025072D01*
X010850Y024914D02*
X010510Y024914D01*
X011510Y024914D02*
X011850Y024914D01*
X011714Y025072D02*
X011646Y025072D01*
X011665Y025548D02*
X011695Y025548D01*
X011804Y025706D02*
X011556Y025706D01*
X012556Y025706D02*
X012804Y025706D01*
X012695Y025548D02*
X012665Y025548D01*
X012646Y025072D02*
X012714Y025072D01*
X012850Y024914D02*
X012510Y024914D01*
X013510Y024914D02*
X013850Y024914D01*
X013714Y025072D02*
X013646Y025072D01*
X013665Y025548D02*
X013695Y025548D01*
X013804Y025706D02*
X013556Y025706D01*
X014556Y025706D02*
X014804Y025706D01*
X014695Y025548D02*
X014665Y025548D01*
X015556Y025706D02*
X015804Y025706D01*
X015695Y025548D02*
X015665Y025548D01*
X016556Y025706D02*
X016804Y025706D01*
X016695Y025548D02*
X016665Y025548D01*
X017556Y025706D02*
X017804Y025706D01*
X017695Y025548D02*
X017665Y025548D01*
X018556Y025706D02*
X018804Y025706D01*
X018695Y025548D02*
X018665Y025548D01*
X019977Y024280D02*
X020109Y024225D01*
X020251Y024225D01*
X020383Y024280D01*
X017930Y021833D02*
X015930Y023833D01*
X017930Y021833D02*
X017930Y020833D01*
X019530Y020159D02*
X000660Y020159D01*
X000660Y020317D02*
X023900Y020317D01*
X023742Y020159D02*
X019830Y020159D01*
X019998Y020000D02*
X023640Y020000D01*
X023640Y019842D02*
X020038Y019842D01*
X020005Y019683D02*
X023640Y019683D01*
X023725Y019525D02*
X019871Y019525D01*
X019680Y019833D02*
X015680Y019833D01*
X015680Y019333D01*
X016016Y019208D02*
X018344Y019208D01*
X018322Y019366D02*
X016038Y019366D01*
X015988Y019525D02*
X018372Y019525D01*
X018680Y019333D02*
X019180Y018833D01*
X019180Y016833D01*
X020180Y015833D01*
X020180Y014333D01*
X019940Y015087D02*
X000660Y015087D01*
X000660Y015245D02*
X019940Y015245D01*
X019940Y015404D02*
X000660Y015404D01*
X000660Y015562D02*
X019940Y015562D01*
X019940Y015721D02*
X000660Y015721D01*
X000660Y015879D02*
X019795Y015879D01*
X019636Y016038D02*
X000660Y016038D01*
X000660Y016196D02*
X019478Y016196D01*
X019319Y016355D02*
X000660Y016355D01*
X000660Y016513D02*
X019161Y016513D01*
X019002Y016672D02*
X000660Y016672D01*
X000660Y016830D02*
X018940Y016830D01*
X018940Y016989D02*
X000660Y016989D01*
X000660Y017147D02*
X018940Y017147D01*
X018940Y017306D02*
X000660Y017306D01*
X000660Y017464D02*
X018940Y017464D01*
X018940Y017623D02*
X000660Y017623D01*
X000660Y017781D02*
X018940Y017781D01*
X018940Y017940D02*
X000660Y017940D01*
X000660Y018098D02*
X018940Y018098D01*
X018940Y018257D02*
X000660Y018257D01*
X000660Y018415D02*
X018940Y018415D01*
X018940Y018574D02*
X000660Y018574D01*
X000660Y018732D02*
X018940Y018732D01*
X018783Y018891D02*
X000660Y018891D01*
X000660Y019049D02*
X015458Y019049D01*
X015344Y019208D02*
X000660Y019208D01*
X000660Y019366D02*
X015322Y019366D01*
X015372Y019525D02*
X000660Y019525D01*
X000660Y019683D02*
X015440Y019683D01*
X015440Y019842D02*
X000660Y019842D01*
X000660Y020000D02*
X015508Y020000D01*
X015902Y019049D02*
X018458Y019049D01*
X019420Y017464D02*
X032192Y017464D01*
X032192Y017306D02*
X019420Y017306D01*
X019420Y017147D02*
X032192Y017147D01*
X030312Y013977D02*
X028487Y013977D01*
X028365Y013819D02*
X030312Y013819D01*
X029760Y012392D02*
X032192Y012392D01*
X032192Y012234D02*
X029613Y012234D01*
X028700Y012551D02*
X027914Y012551D01*
X028073Y012709D02*
X028541Y012709D01*
X028383Y012868D02*
X028231Y012868D01*
X028499Y013660D02*
X028668Y013660D01*
X027543Y011917D02*
X021436Y011917D01*
X021594Y011758D02*
X027330Y011758D01*
X027255Y011600D02*
X021753Y011600D01*
X021911Y011441D02*
X027241Y011441D01*
X027241Y011283D02*
X022070Y011283D01*
X022228Y011124D02*
X027241Y011124D01*
X027281Y010966D02*
X022387Y010966D01*
X022545Y010807D02*
X027391Y010807D01*
X027882Y010332D02*
X027978Y010332D01*
X027978Y010173D02*
X027882Y010173D01*
X027882Y010015D02*
X027978Y010015D01*
X027978Y009698D02*
X027882Y009698D01*
X027882Y009539D02*
X027978Y009539D01*
X027978Y009381D02*
X027882Y009381D01*
X027882Y006211D02*
X027978Y006211D01*
X027978Y006052D02*
X027882Y006052D01*
X027882Y005894D02*
X027978Y005894D01*
X027978Y005735D02*
X027882Y005735D01*
X027882Y005577D02*
X027978Y005577D01*
X027978Y005418D02*
X027882Y005418D01*
X027550Y005418D02*
X024310Y005418D01*
X024296Y005404D02*
X024359Y005467D01*
X024411Y005539D01*
X024451Y005617D01*
X024479Y005702D01*
X024492Y005786D01*
X023978Y005786D01*
X023978Y005271D01*
X024062Y005285D01*
X024146Y005312D01*
X024225Y005352D01*
X024296Y005404D01*
X024431Y005577D02*
X027429Y005577D01*
X027376Y005735D02*
X024484Y005735D01*
X024490Y005894D02*
X027370Y005894D01*
X027410Y006052D02*
X024450Y006052D01*
X024348Y006211D02*
X027512Y006211D01*
X023978Y006211D02*
X023882Y006211D01*
X023882Y006052D02*
X023978Y006052D01*
X023978Y005894D02*
X023882Y005894D01*
X023882Y005735D02*
X023978Y005735D01*
X023978Y005577D02*
X023882Y005577D01*
X023882Y005418D02*
X023978Y005418D01*
X023550Y005418D02*
X021810Y005418D01*
X021796Y005404D02*
X021859Y005467D01*
X021911Y005539D01*
X021951Y005617D01*
X021979Y005702D01*
X021992Y005786D01*
X021478Y005786D01*
X021478Y005271D01*
X021562Y005285D01*
X021646Y005312D01*
X021725Y005352D01*
X021796Y005404D01*
X021931Y005577D02*
X023429Y005577D01*
X023376Y005735D02*
X021984Y005735D01*
X021990Y005894D02*
X023370Y005894D01*
X023410Y006052D02*
X021950Y006052D01*
X021848Y006211D02*
X023512Y006211D01*
X021478Y006211D02*
X021382Y006211D01*
X021382Y006052D02*
X021478Y006052D01*
X021478Y005894D02*
X021382Y005894D01*
X021382Y005735D02*
X021478Y005735D01*
X021478Y005577D02*
X021382Y005577D01*
X021382Y005418D02*
X021478Y005418D01*
X021050Y005418D02*
X017810Y005418D01*
X017796Y005404D02*
X017859Y005467D01*
X017911Y005539D01*
X017951Y005617D01*
X017979Y005702D01*
X017992Y005786D01*
X017478Y005786D01*
X017478Y005271D01*
X017562Y005285D01*
X017646Y005312D01*
X017725Y005352D01*
X017796Y005404D01*
X017931Y005577D02*
X020929Y005577D01*
X020876Y005735D02*
X017984Y005735D01*
X017990Y005894D02*
X020870Y005894D01*
X020910Y006052D02*
X017950Y006052D01*
X017848Y006211D02*
X021012Y006211D01*
X019251Y007320D02*
X013609Y007320D01*
X013843Y007479D02*
X019017Y007479D01*
X017478Y006211D02*
X017382Y006211D01*
X017382Y006052D02*
X017478Y006052D01*
X017478Y005894D02*
X017382Y005894D01*
X017382Y005735D02*
X017478Y005735D01*
X017478Y005577D02*
X017382Y005577D01*
X017382Y005418D02*
X017478Y005418D01*
X017050Y005418D02*
X015810Y005418D01*
X015796Y005404D02*
X015859Y005467D01*
X015911Y005539D01*
X015951Y005617D01*
X015979Y005702D01*
X015992Y005786D01*
X015478Y005786D01*
X015478Y005271D01*
X015562Y005285D01*
X015646Y005312D01*
X015725Y005352D01*
X015796Y005404D01*
X015931Y005577D02*
X016929Y005577D01*
X016876Y005735D02*
X015984Y005735D01*
X015990Y005894D02*
X016870Y005894D01*
X016910Y006052D02*
X015950Y006052D01*
X015848Y006211D02*
X017012Y006211D01*
X015478Y006211D02*
X015382Y006211D01*
X015382Y006052D02*
X015478Y006052D01*
X015478Y005894D02*
X015382Y005894D01*
X015382Y005735D02*
X015478Y005735D01*
X015478Y005577D02*
X015382Y005577D01*
X015382Y005418D02*
X015478Y005418D01*
X015050Y005418D02*
X011810Y005418D01*
X011931Y005577D02*
X014929Y005577D01*
X014876Y005735D02*
X011984Y005735D01*
X011990Y005894D02*
X014870Y005894D01*
X014910Y006052D02*
X011950Y006052D01*
X011848Y006211D02*
X015012Y006211D01*
X011478Y006211D02*
X011382Y006211D01*
X011382Y006052D02*
X011478Y006052D01*
X011478Y005894D02*
X011382Y005894D01*
X011382Y005735D02*
X011478Y005735D01*
X011478Y005577D02*
X011382Y005577D01*
X011382Y005418D02*
X011478Y005418D01*
X011050Y005418D02*
X009310Y005418D01*
X009296Y005404D02*
X009359Y005467D01*
X009411Y005539D01*
X009451Y005617D01*
X009479Y005702D01*
X009492Y005786D01*
X008978Y005786D01*
X008978Y005271D01*
X009062Y005285D01*
X009146Y005312D01*
X009225Y005352D01*
X009296Y005404D01*
X009431Y005577D02*
X010929Y005577D01*
X010876Y005735D02*
X009484Y005735D01*
X009490Y005894D02*
X010870Y005894D01*
X010910Y006052D02*
X009450Y006052D01*
X009348Y006211D02*
X011012Y006211D01*
X008978Y006211D02*
X008882Y006211D01*
X008882Y006052D02*
X008978Y006052D01*
X008978Y005894D02*
X008882Y005894D01*
X008882Y005735D02*
X008978Y005735D01*
X008978Y005577D02*
X008882Y005577D01*
X008882Y005418D02*
X008978Y005418D01*
X008550Y005418D02*
X005310Y005418D01*
X005296Y005404D02*
X005359Y005467D01*
X005411Y005539D01*
X005451Y005617D01*
X005479Y005702D01*
X005492Y005786D01*
X004978Y005786D01*
X004978Y005271D01*
X005062Y005285D01*
X005146Y005312D01*
X005225Y005352D01*
X005296Y005404D01*
X005431Y005577D02*
X008429Y005577D01*
X008376Y005735D02*
X005484Y005735D01*
X005490Y005894D02*
X008370Y005894D01*
X008410Y006052D02*
X005450Y006052D01*
X005348Y006211D02*
X008512Y006211D01*
X004978Y006211D02*
X004882Y006211D01*
X004882Y006052D02*
X004978Y006052D01*
X004978Y005894D02*
X004882Y005894D01*
X004882Y005735D02*
X004978Y005735D01*
X004978Y005577D02*
X004882Y005577D01*
X004882Y005418D02*
X004978Y005418D01*
X004978Y009381D02*
X004882Y009381D01*
X004882Y009539D02*
X004978Y009539D01*
X005264Y009381D02*
X008596Y009381D01*
X008448Y009539D02*
X005412Y009539D01*
X005477Y009698D02*
X008383Y009698D01*
X008398Y010015D02*
X005462Y010015D01*
X005378Y010173D02*
X008482Y010173D01*
X008669Y010332D02*
X005191Y010332D01*
X004978Y010332D02*
X004882Y010332D01*
X004882Y010173D02*
X004978Y010173D01*
X004978Y010015D02*
X004882Y010015D01*
X008882Y010015D02*
X008978Y010015D01*
X008978Y010173D02*
X008882Y010173D01*
X008882Y010332D02*
X008978Y010332D01*
X009191Y010332D02*
X011169Y010332D01*
X011382Y010332D02*
X011478Y010332D01*
X011478Y010173D02*
X011382Y010173D01*
X011382Y010015D02*
X011478Y010015D01*
X011478Y009698D02*
X011382Y009698D01*
X011382Y009539D02*
X011478Y009539D01*
X011478Y009381D02*
X011382Y009381D01*
X011096Y009381D02*
X009264Y009381D01*
X009412Y009539D02*
X010948Y009539D01*
X010883Y009698D02*
X009477Y009698D01*
X009462Y010015D02*
X010898Y010015D01*
X010982Y010173D02*
X009378Y010173D01*
X008978Y009698D02*
X008882Y009698D01*
X008882Y009539D02*
X008978Y009539D01*
X008978Y009381D02*
X008882Y009381D01*
X011764Y009381D02*
X015096Y009381D01*
X014948Y009539D02*
X011912Y009539D01*
X011977Y009698D02*
X014883Y009698D01*
X014898Y010015D02*
X011962Y010015D01*
X011878Y010173D02*
X014982Y010173D01*
X015169Y010332D02*
X011691Y010332D01*
X009972Y012709D02*
X000660Y012709D01*
X000660Y012868D02*
X009940Y012868D01*
X009940Y013026D02*
X000660Y013026D01*
X004574Y013977D02*
X004786Y013977D01*
X004688Y014136D02*
X004672Y014136D01*
X004639Y014611D02*
X004721Y014611D01*
X004867Y014770D02*
X004493Y014770D01*
X005493Y014770D02*
X005867Y014770D01*
X005721Y014611D02*
X005639Y014611D01*
X005672Y014136D02*
X005688Y014136D01*
X005786Y013977D02*
X005574Y013977D01*
X006574Y013977D02*
X006786Y013977D01*
X006688Y014136D02*
X006672Y014136D01*
X006639Y014611D02*
X006721Y014611D01*
X006867Y014770D02*
X006493Y014770D01*
X007493Y014770D02*
X007867Y014770D01*
X007721Y014611D02*
X007639Y014611D01*
X007672Y014136D02*
X007688Y014136D01*
X007786Y013977D02*
X007574Y013977D01*
X008574Y013977D02*
X008786Y013977D01*
X008688Y014136D02*
X008672Y014136D01*
X008639Y014611D02*
X008721Y014611D01*
X008867Y014770D02*
X008493Y014770D01*
X009493Y014770D02*
X009867Y014770D01*
X009721Y014611D02*
X009639Y014611D01*
X009672Y014136D02*
X009688Y014136D01*
X009786Y013977D02*
X009574Y013977D01*
X015382Y010332D02*
X015478Y010332D01*
X015478Y010173D02*
X015382Y010173D01*
X015382Y010015D02*
X015478Y010015D01*
X015478Y009698D02*
X015382Y009698D01*
X015382Y009539D02*
X015478Y009539D01*
X015478Y009381D02*
X015382Y009381D01*
X015764Y009381D02*
X017096Y009381D01*
X016948Y009539D02*
X015912Y009539D01*
X015977Y009698D02*
X016883Y009698D01*
X016868Y009881D02*
X017382Y009881D01*
X017382Y010395D01*
X017298Y010382D01*
X017214Y010355D01*
X017135Y010314D01*
X017064Y010262D01*
X017001Y010200D01*
X016949Y010128D01*
X016909Y010049D01*
X016881Y009965D01*
X016868Y009881D01*
X016898Y010015D02*
X015962Y010015D01*
X015878Y010173D02*
X016982Y010173D01*
X017169Y010332D02*
X015691Y010332D01*
X017382Y010332D02*
X017478Y010332D01*
X017478Y010173D02*
X017382Y010173D01*
X017382Y010015D02*
X017478Y010015D01*
X017478Y009698D02*
X017382Y009698D01*
X017382Y009539D02*
X017478Y009539D01*
X017478Y009381D02*
X017382Y009381D01*
X020643Y012709D02*
X025501Y012709D01*
X025340Y012868D02*
X020485Y012868D01*
X020326Y013026D02*
X025274Y013026D01*
X025273Y013185D02*
X020168Y013185D01*
X020009Y013343D02*
X025273Y013343D01*
X027613Y015721D02*
X020420Y015721D01*
X020420Y015879D02*
X027359Y015879D01*
X027267Y016038D02*
X020315Y016038D01*
X020156Y016196D02*
X027241Y016196D01*
X027241Y016355D02*
X019998Y016355D01*
X019839Y016513D02*
X027241Y016513D01*
X027269Y016672D02*
X019681Y016672D01*
X019522Y016830D02*
X027362Y016830D01*
X027622Y016989D02*
X019420Y016989D01*
X019648Y013026D02*
X017826Y013026D01*
X017985Y012868D02*
X019806Y012868D01*
X024720Y019842D02*
X025357Y019842D01*
X025285Y020000D02*
X024720Y020000D01*
X024618Y020159D02*
X025273Y020159D01*
X025273Y020317D02*
X024460Y020317D01*
X004850Y024914D02*
X004510Y024914D01*
X004646Y025072D02*
X004714Y025072D01*
X004695Y025548D02*
X004665Y025548D01*
X004556Y025706D02*
X004804Y025706D01*
D15*
X002680Y023333D03*
X001180Y023333D03*
X012680Y023083D03*
X015930Y023833D03*
X017930Y020833D03*
X018680Y019333D03*
X019680Y019833D03*
X022430Y022583D03*
X020180Y024583D03*
X015680Y019333D03*
X020180Y014333D03*
X022430Y017083D03*
X002680Y008333D03*
X001180Y008333D03*
X000930Y013333D03*
D16*
X001755Y005408D03*
X001755Y025093D03*
X031282Y025093D03*
D17*
X031282Y005408D03*
M02*
