G75*
%MOIN*%
%OFA0B0*%
%FSLAX24Y24*%
%IPPOS*%
%LPD*%
%AMOC8*
5,1,8,0,0,1.08239X$1,22.5*
%
%ADD10C,0.0000*%
%ADD11C,0.0070*%
%ADD12C,0.0060*%
%ADD13C,0.0050*%
%ADD14C,0.0100*%
%ADD15C,0.0120*%
%ADD16C,0.0040*%
%ADD17C,0.0030*%
%ADD18C,0.0010*%
%ADD19C,0.0080*%
D10*
X000180Y003833D02*
X000180Y026453D01*
X032672Y026453D01*
X032672Y003833D01*
X000180Y003833D01*
X025753Y013125D02*
X026068Y013125D01*
X026068Y014542D01*
X025753Y014542D01*
X025753Y013125D01*
X027721Y011471D02*
X027721Y011156D01*
X029139Y011156D01*
X029139Y011471D01*
X027721Y011471D01*
X030792Y013125D02*
X031107Y013125D01*
X031107Y014542D01*
X030792Y014542D01*
X030792Y013125D01*
X029139Y016196D02*
X027721Y016196D01*
X027721Y016510D01*
X029139Y016510D01*
X029139Y016196D01*
X029139Y018156D02*
X027721Y018156D01*
X027721Y018471D01*
X029139Y018471D01*
X029139Y018156D01*
X030792Y020125D02*
X031107Y020125D01*
X031107Y021542D01*
X030792Y021542D01*
X030792Y020125D01*
X029139Y023196D02*
X027721Y023196D01*
X027721Y023510D01*
X029139Y023510D01*
X029139Y023196D01*
X026068Y021542D02*
X025753Y021542D01*
X025753Y020125D01*
X026068Y020125D01*
X026068Y021542D01*
D11*
X026577Y025092D02*
X026665Y025092D01*
X026754Y025180D01*
X026754Y025622D01*
X026754Y025268D02*
X026489Y025268D01*
X026400Y025357D01*
X026400Y025622D01*
X026205Y025622D02*
X026117Y025622D01*
X025940Y025445D01*
X025940Y025268D02*
X025940Y025622D01*
X025748Y025622D02*
X025571Y025622D01*
X025660Y025710D02*
X025660Y025357D01*
X025748Y025268D01*
X025373Y025445D02*
X025019Y025445D01*
X025019Y025357D02*
X025019Y025534D01*
X025107Y025622D01*
X025284Y025622D01*
X025373Y025534D01*
X025373Y025445D01*
X025284Y025268D02*
X025107Y025268D01*
X025019Y025357D01*
X024820Y025268D02*
X024820Y025534D01*
X024732Y025622D01*
X024643Y025534D01*
X024643Y025268D01*
X024467Y025268D02*
X024467Y025622D01*
X024555Y025622D01*
X024643Y025534D01*
X024268Y025534D02*
X024268Y025357D01*
X024179Y025268D01*
X024002Y025268D01*
X023914Y025357D01*
X023914Y025534D01*
X024002Y025622D01*
X024179Y025622D01*
X024268Y025534D01*
X023723Y025622D02*
X023546Y025622D01*
X023634Y025710D02*
X023634Y025357D01*
X023723Y025268D01*
X023347Y025357D02*
X023347Y025534D01*
X023258Y025622D01*
X023082Y025622D01*
X022993Y025534D01*
X022993Y025357D01*
X023082Y025268D01*
X023258Y025268D01*
X023347Y025357D01*
X022794Y025268D02*
X022794Y025534D01*
X022706Y025622D01*
X022529Y025622D01*
X022441Y025534D01*
X022242Y025534D02*
X022154Y025445D01*
X021888Y025445D01*
X021888Y025268D02*
X021888Y025799D01*
X022154Y025799D01*
X022242Y025710D01*
X022242Y025534D01*
X022441Y025799D02*
X022441Y025268D01*
X021689Y025268D02*
X021424Y025268D01*
X021336Y025357D01*
X021336Y025622D01*
X021137Y025534D02*
X021137Y025357D01*
X021049Y025268D01*
X020783Y025268D01*
X020783Y025092D02*
X020783Y025622D01*
X021049Y025622D01*
X021137Y025534D01*
X021689Y025622D02*
X021689Y025180D01*
X021601Y025092D01*
X021513Y025092D01*
X027505Y025268D02*
X027859Y025268D01*
X027682Y025268D02*
X027682Y025799D01*
X027505Y025622D01*
X028058Y025357D02*
X028146Y025357D01*
X028146Y025268D01*
X028058Y025268D01*
X028058Y025357D01*
X028334Y025357D02*
X028687Y025710D01*
X028687Y025357D01*
X028599Y025268D01*
X028422Y025268D01*
X028334Y025357D01*
X028334Y025710D01*
X028422Y025799D01*
X028599Y025799D01*
X028687Y025710D01*
X028886Y025357D02*
X028975Y025357D01*
X028975Y025268D01*
X028886Y025268D01*
X028886Y025357D01*
X029163Y025268D02*
X029516Y025622D01*
X029516Y025710D01*
X029428Y025799D01*
X029251Y025799D01*
X029163Y025710D01*
X029163Y025268D02*
X029516Y025268D01*
D12*
X024430Y020333D02*
X023930Y020333D01*
X023680Y020083D01*
X023680Y019583D01*
X023930Y019333D01*
X024430Y019333D01*
X024680Y019583D01*
X024680Y020083D01*
X024430Y020333D01*
X019960Y018441D02*
X019960Y017225D01*
X019399Y017225D01*
X019399Y018441D01*
X019960Y018441D01*
X023680Y014583D02*
X023930Y014833D01*
X024430Y014833D01*
X024680Y014583D01*
X024680Y014083D01*
X024430Y013833D01*
X023930Y013833D01*
X023680Y014083D01*
X023680Y014583D01*
X030680Y009083D02*
X030930Y009333D01*
X031430Y009333D01*
X031680Y009083D01*
X031680Y008583D01*
X031430Y008333D01*
X030930Y008333D01*
X030680Y008583D01*
X030680Y009083D01*
X019960Y022725D02*
X019399Y022725D01*
X019399Y023941D01*
X019960Y023941D01*
X019960Y022725D01*
X003137Y014434D02*
X002710Y014434D01*
X002924Y014647D02*
X002924Y014220D01*
X002320Y018933D02*
X002320Y019733D01*
X001810Y018933D02*
X001550Y018933D01*
X001040Y018933D02*
X001040Y019733D01*
X009620Y008143D02*
X009620Y007823D01*
X009840Y007823D01*
X010520Y007823D02*
X010740Y007823D01*
X010740Y008143D01*
D13*
X020675Y014153D02*
X020750Y014078D01*
X020900Y014078D01*
X020975Y014153D01*
X020975Y014228D01*
X020900Y014304D01*
X020750Y014304D01*
X020675Y014379D01*
X020675Y014454D01*
X020750Y014529D01*
X020900Y014529D01*
X020975Y014454D01*
X021135Y014529D02*
X021135Y014078D01*
X021436Y014078D01*
X021596Y014078D02*
X021596Y014529D01*
X021896Y014078D01*
X021896Y014529D01*
X022056Y014454D02*
X022056Y014379D01*
X022131Y014304D01*
X022281Y014304D01*
X022356Y014228D01*
X022356Y014153D01*
X022281Y014078D01*
X022131Y014078D01*
X022056Y014153D01*
X022056Y014454D02*
X022131Y014529D01*
X022281Y014529D01*
X022356Y014454D01*
X022517Y014529D02*
X022517Y014078D01*
X022817Y014078D01*
X022977Y014078D02*
X023277Y014078D01*
X023127Y014078D02*
X023127Y014529D01*
X022977Y014379D01*
X022817Y014529D02*
X022517Y014529D01*
X022517Y014304D02*
X022667Y014304D01*
X021436Y014529D02*
X021135Y014529D01*
X021135Y014304D02*
X021286Y014304D01*
X020245Y018658D02*
X019945Y018658D01*
X020095Y018658D02*
X020095Y019109D01*
X019945Y018959D01*
X019784Y019034D02*
X019709Y019109D01*
X019559Y019109D01*
X019484Y019034D01*
X019484Y018733D01*
X019559Y018658D01*
X019709Y018658D01*
X019784Y018733D01*
X019327Y018658D02*
X019177Y018658D01*
X019252Y018658D02*
X019252Y019109D01*
X019177Y019109D02*
X019327Y019109D01*
X020675Y019653D02*
X020750Y019578D01*
X020900Y019578D01*
X020975Y019653D01*
X020975Y019728D01*
X020900Y019804D01*
X020750Y019804D01*
X020675Y019879D01*
X020675Y019954D01*
X020750Y020029D01*
X020900Y020029D01*
X020975Y019954D01*
X021135Y020029D02*
X021135Y019578D01*
X021436Y019578D01*
X021596Y019578D02*
X021596Y020029D01*
X021896Y019578D01*
X021896Y020029D01*
X022056Y019954D02*
X022056Y019879D01*
X022131Y019804D01*
X022281Y019804D01*
X022356Y019728D01*
X022356Y019653D01*
X022281Y019578D01*
X022131Y019578D01*
X022056Y019653D01*
X022056Y019954D02*
X022131Y020029D01*
X022281Y020029D01*
X022356Y019954D01*
X022517Y020029D02*
X022517Y019578D01*
X022817Y019578D01*
X022977Y019578D02*
X023277Y019879D01*
X023277Y019954D01*
X023202Y020029D01*
X023052Y020029D01*
X022977Y019954D01*
X022817Y020029D02*
X022517Y020029D01*
X022517Y019804D02*
X022667Y019804D01*
X022977Y019578D02*
X023277Y019578D01*
X021436Y020029D02*
X021135Y020029D01*
X021135Y019804D02*
X021286Y019804D01*
X019745Y024158D02*
X019445Y024158D01*
X019745Y024459D01*
X019745Y024534D01*
X019670Y024609D01*
X019520Y024609D01*
X019445Y024534D01*
X019284Y024534D02*
X019209Y024609D01*
X019059Y024609D01*
X018984Y024534D01*
X018984Y024233D01*
X019059Y024158D01*
X019209Y024158D01*
X019284Y024233D01*
X018827Y024158D02*
X018677Y024158D01*
X018752Y024158D02*
X018752Y024609D01*
X018677Y024609D02*
X018827Y024609D01*
X025950Y020833D02*
X025952Y020932D01*
X025958Y021031D01*
X025968Y021130D01*
X025982Y021228D01*
X025999Y021326D01*
X026021Y021423D01*
X026047Y021519D01*
X026076Y021614D01*
X026109Y021707D01*
X026146Y021799D01*
X026186Y021890D01*
X026231Y021979D01*
X026278Y022066D01*
X026329Y022151D01*
X026384Y022234D01*
X026441Y022315D01*
X026502Y022393D01*
X026566Y022469D01*
X026633Y022542D01*
X026703Y022613D01*
X026775Y022680D01*
X026851Y022745D01*
X026928Y022807D01*
X027009Y022865D01*
X027091Y022921D01*
X027176Y022972D01*
X027262Y023021D01*
X027351Y023066D01*
X027441Y023107D01*
X027533Y023145D01*
X027626Y023179D01*
X027720Y023209D01*
X027816Y023236D01*
X027913Y023258D01*
X028010Y023277D01*
X028108Y023292D01*
X028207Y023303D01*
X028306Y023310D01*
X028405Y023313D01*
X028504Y023312D01*
X028604Y023307D01*
X028702Y023298D01*
X028801Y023285D01*
X028899Y023268D01*
X028996Y023248D01*
X029092Y023223D01*
X029187Y023195D01*
X029281Y023162D01*
X029373Y023127D01*
X029464Y023087D01*
X029554Y023044D01*
X029641Y022997D01*
X029727Y022947D01*
X029810Y022893D01*
X029892Y022836D01*
X029971Y022776D01*
X030047Y022713D01*
X030121Y022647D01*
X030192Y022578D01*
X030261Y022506D01*
X030326Y022431D01*
X030389Y022354D01*
X030448Y022275D01*
X030504Y022193D01*
X030557Y022109D01*
X030606Y022023D01*
X030652Y021935D01*
X030694Y021845D01*
X030733Y021753D01*
X030768Y021660D01*
X030799Y021566D01*
X030827Y021471D01*
X030850Y021374D01*
X030870Y021277D01*
X030886Y021179D01*
X030898Y021081D01*
X030906Y020982D01*
X030910Y020883D01*
X030910Y020783D01*
X030906Y020684D01*
X030898Y020585D01*
X030886Y020487D01*
X030870Y020389D01*
X030850Y020292D01*
X030827Y020195D01*
X030799Y020100D01*
X030768Y020006D01*
X030733Y019913D01*
X030694Y019821D01*
X030652Y019731D01*
X030606Y019643D01*
X030557Y019557D01*
X030504Y019473D01*
X030448Y019391D01*
X030389Y019312D01*
X030326Y019235D01*
X030261Y019160D01*
X030192Y019088D01*
X030121Y019019D01*
X030047Y018953D01*
X029971Y018890D01*
X029892Y018830D01*
X029810Y018773D01*
X029727Y018719D01*
X029641Y018669D01*
X029554Y018622D01*
X029464Y018579D01*
X029373Y018539D01*
X029281Y018504D01*
X029187Y018471D01*
X029092Y018443D01*
X028996Y018418D01*
X028899Y018398D01*
X028801Y018381D01*
X028702Y018368D01*
X028604Y018359D01*
X028504Y018354D01*
X028405Y018353D01*
X028306Y018356D01*
X028207Y018363D01*
X028108Y018374D01*
X028010Y018389D01*
X027913Y018408D01*
X027816Y018430D01*
X027720Y018457D01*
X027626Y018487D01*
X027533Y018521D01*
X027441Y018559D01*
X027351Y018600D01*
X027262Y018645D01*
X027176Y018694D01*
X027091Y018745D01*
X027009Y018801D01*
X026928Y018859D01*
X026851Y018921D01*
X026775Y018986D01*
X026703Y019053D01*
X026633Y019124D01*
X026566Y019197D01*
X026502Y019273D01*
X026441Y019351D01*
X026384Y019432D01*
X026329Y019515D01*
X026278Y019600D01*
X026231Y019687D01*
X026186Y019776D01*
X026146Y019867D01*
X026109Y019959D01*
X026076Y020052D01*
X026047Y020147D01*
X026021Y020243D01*
X025999Y020340D01*
X025982Y020438D01*
X025968Y020536D01*
X025958Y020635D01*
X025952Y020734D01*
X025950Y020833D01*
X025950Y013833D02*
X025952Y013932D01*
X025958Y014031D01*
X025968Y014130D01*
X025982Y014228D01*
X025999Y014326D01*
X026021Y014423D01*
X026047Y014519D01*
X026076Y014614D01*
X026109Y014707D01*
X026146Y014799D01*
X026186Y014890D01*
X026231Y014979D01*
X026278Y015066D01*
X026329Y015151D01*
X026384Y015234D01*
X026441Y015315D01*
X026502Y015393D01*
X026566Y015469D01*
X026633Y015542D01*
X026703Y015613D01*
X026775Y015680D01*
X026851Y015745D01*
X026928Y015807D01*
X027009Y015865D01*
X027091Y015921D01*
X027176Y015972D01*
X027262Y016021D01*
X027351Y016066D01*
X027441Y016107D01*
X027533Y016145D01*
X027626Y016179D01*
X027720Y016209D01*
X027816Y016236D01*
X027913Y016258D01*
X028010Y016277D01*
X028108Y016292D01*
X028207Y016303D01*
X028306Y016310D01*
X028405Y016313D01*
X028504Y016312D01*
X028604Y016307D01*
X028702Y016298D01*
X028801Y016285D01*
X028899Y016268D01*
X028996Y016248D01*
X029092Y016223D01*
X029187Y016195D01*
X029281Y016162D01*
X029373Y016127D01*
X029464Y016087D01*
X029554Y016044D01*
X029641Y015997D01*
X029727Y015947D01*
X029810Y015893D01*
X029892Y015836D01*
X029971Y015776D01*
X030047Y015713D01*
X030121Y015647D01*
X030192Y015578D01*
X030261Y015506D01*
X030326Y015431D01*
X030389Y015354D01*
X030448Y015275D01*
X030504Y015193D01*
X030557Y015109D01*
X030606Y015023D01*
X030652Y014935D01*
X030694Y014845D01*
X030733Y014753D01*
X030768Y014660D01*
X030799Y014566D01*
X030827Y014471D01*
X030850Y014374D01*
X030870Y014277D01*
X030886Y014179D01*
X030898Y014081D01*
X030906Y013982D01*
X030910Y013883D01*
X030910Y013783D01*
X030906Y013684D01*
X030898Y013585D01*
X030886Y013487D01*
X030870Y013389D01*
X030850Y013292D01*
X030827Y013195D01*
X030799Y013100D01*
X030768Y013006D01*
X030733Y012913D01*
X030694Y012821D01*
X030652Y012731D01*
X030606Y012643D01*
X030557Y012557D01*
X030504Y012473D01*
X030448Y012391D01*
X030389Y012312D01*
X030326Y012235D01*
X030261Y012160D01*
X030192Y012088D01*
X030121Y012019D01*
X030047Y011953D01*
X029971Y011890D01*
X029892Y011830D01*
X029810Y011773D01*
X029727Y011719D01*
X029641Y011669D01*
X029554Y011622D01*
X029464Y011579D01*
X029373Y011539D01*
X029281Y011504D01*
X029187Y011471D01*
X029092Y011443D01*
X028996Y011418D01*
X028899Y011398D01*
X028801Y011381D01*
X028702Y011368D01*
X028604Y011359D01*
X028504Y011354D01*
X028405Y011353D01*
X028306Y011356D01*
X028207Y011363D01*
X028108Y011374D01*
X028010Y011389D01*
X027913Y011408D01*
X027816Y011430D01*
X027720Y011457D01*
X027626Y011487D01*
X027533Y011521D01*
X027441Y011559D01*
X027351Y011600D01*
X027262Y011645D01*
X027176Y011694D01*
X027091Y011745D01*
X027009Y011801D01*
X026928Y011859D01*
X026851Y011921D01*
X026775Y011986D01*
X026703Y012053D01*
X026633Y012124D01*
X026566Y012197D01*
X026502Y012273D01*
X026441Y012351D01*
X026384Y012432D01*
X026329Y012515D01*
X026278Y012600D01*
X026231Y012687D01*
X026186Y012776D01*
X026146Y012867D01*
X026109Y012959D01*
X026076Y013052D01*
X026047Y013147D01*
X026021Y013243D01*
X025999Y013340D01*
X025982Y013438D01*
X025968Y013536D01*
X025958Y013635D01*
X025952Y013734D01*
X025950Y013833D01*
X030675Y009954D02*
X030675Y009653D01*
X030750Y009578D01*
X030900Y009578D01*
X030975Y009653D01*
X030975Y009804D01*
X030825Y009804D01*
X030675Y009954D02*
X030750Y010029D01*
X030900Y010029D01*
X030975Y009954D01*
X031135Y010029D02*
X031436Y009578D01*
X031436Y010029D01*
X031596Y010029D02*
X031821Y010029D01*
X031896Y009954D01*
X031896Y009653D01*
X031821Y009578D01*
X031596Y009578D01*
X031596Y010029D01*
X031135Y010029D02*
X031135Y009578D01*
D14*
X028292Y009176D02*
X028292Y006491D01*
X028080Y007433D02*
X027730Y007433D01*
X028080Y007433D02*
X028080Y008233D01*
X027730Y008233D01*
X024121Y007833D02*
X024123Y007918D01*
X024129Y008002D01*
X024139Y008087D01*
X024153Y008170D01*
X024170Y008253D01*
X024192Y008335D01*
X024218Y008416D01*
X024247Y008496D01*
X024280Y008574D01*
X024316Y008650D01*
X024356Y008725D01*
X024400Y008798D01*
X024447Y008869D01*
X024497Y008937D01*
X024550Y009003D01*
X024607Y009066D01*
X024666Y009127D01*
X024728Y009185D01*
X024793Y009240D01*
X024860Y009292D01*
X024929Y009340D01*
X025001Y009385D01*
X025075Y009427D01*
X025151Y009465D01*
X025228Y009500D01*
X025307Y009531D01*
X025387Y009559D01*
X025469Y009582D01*
X025551Y009602D01*
X025634Y009618D01*
X025718Y009630D01*
X025803Y009638D01*
X025888Y009642D01*
X025972Y009642D01*
X026057Y009638D01*
X026142Y009630D01*
X026226Y009618D01*
X026309Y009602D01*
X026391Y009582D01*
X026473Y009559D01*
X026553Y009531D01*
X026632Y009500D01*
X026709Y009465D01*
X026785Y009427D01*
X026859Y009385D01*
X026931Y009340D01*
X027000Y009292D01*
X027067Y009240D01*
X027132Y009185D01*
X027194Y009127D01*
X027253Y009066D01*
X027310Y009003D01*
X027363Y008937D01*
X027413Y008869D01*
X027460Y008798D01*
X027504Y008725D01*
X027544Y008650D01*
X027580Y008574D01*
X027613Y008496D01*
X027642Y008416D01*
X027668Y008335D01*
X027690Y008253D01*
X027707Y008170D01*
X027721Y008087D01*
X027731Y008002D01*
X027737Y007918D01*
X027739Y007833D01*
X027737Y007748D01*
X027731Y007664D01*
X027721Y007579D01*
X027707Y007496D01*
X027690Y007413D01*
X027668Y007331D01*
X027642Y007250D01*
X027613Y007170D01*
X027580Y007092D01*
X027544Y007016D01*
X027504Y006941D01*
X027460Y006868D01*
X027413Y006797D01*
X027363Y006729D01*
X027310Y006663D01*
X027253Y006600D01*
X027194Y006539D01*
X027132Y006481D01*
X027067Y006426D01*
X027000Y006374D01*
X026931Y006326D01*
X026859Y006281D01*
X026785Y006239D01*
X026709Y006201D01*
X026632Y006166D01*
X026553Y006135D01*
X026473Y006107D01*
X026391Y006084D01*
X026309Y006064D01*
X026226Y006048D01*
X026142Y006036D01*
X026057Y006028D01*
X025972Y006024D01*
X025888Y006024D01*
X025803Y006028D01*
X025718Y006036D01*
X025634Y006048D01*
X025551Y006064D01*
X025469Y006084D01*
X025387Y006107D01*
X025307Y006135D01*
X025228Y006166D01*
X025151Y006201D01*
X025075Y006239D01*
X025001Y006281D01*
X024929Y006326D01*
X024860Y006374D01*
X024793Y006426D01*
X024728Y006481D01*
X024666Y006539D01*
X024607Y006600D01*
X024550Y006663D01*
X024497Y006729D01*
X024447Y006797D01*
X024400Y006868D01*
X024356Y006941D01*
X024316Y007016D01*
X024280Y007092D01*
X024247Y007170D01*
X024218Y007250D01*
X024192Y007331D01*
X024170Y007413D01*
X024153Y007496D01*
X024139Y007579D01*
X024129Y007664D01*
X024123Y007748D01*
X024121Y007833D01*
X024130Y008233D02*
X023780Y008233D01*
X023780Y007433D01*
X024130Y007433D01*
X023568Y006491D02*
X023568Y009176D01*
X024587Y010196D02*
X027273Y010196D01*
X031429Y012633D02*
X032130Y012633D01*
X032130Y013100D01*
X032130Y013370D02*
X032130Y013837D01*
X032130Y014107D02*
X032130Y014457D01*
X032013Y014574D01*
X031546Y014574D01*
X031429Y014457D01*
X031429Y014107D01*
X032130Y014107D01*
X031780Y013603D02*
X031780Y013370D01*
X032130Y013370D02*
X031429Y013370D01*
X031429Y013837D01*
X031663Y014843D02*
X031429Y015077D01*
X032130Y015077D01*
X032130Y015310D02*
X032130Y014843D01*
X032130Y019633D02*
X031429Y019633D01*
X032130Y019633D02*
X032130Y020100D01*
X032130Y020370D02*
X032130Y020837D01*
X032130Y021107D02*
X032130Y021457D01*
X032013Y021574D01*
X031546Y021574D01*
X031429Y021457D01*
X031429Y021107D01*
X032130Y021107D01*
X031780Y020603D02*
X031780Y020370D01*
X032130Y020370D02*
X031429Y020370D01*
X031429Y020837D01*
X031546Y021843D02*
X031429Y021960D01*
X031429Y022194D01*
X031546Y022310D01*
X031663Y022310D01*
X032130Y021843D01*
X032130Y022310D01*
X020773Y010196D02*
X018087Y010196D01*
X017068Y009176D02*
X017068Y006491D01*
X017280Y007433D02*
X017630Y007433D01*
X017280Y007433D02*
X017280Y008233D01*
X017630Y008233D01*
X017621Y007833D02*
X017623Y007918D01*
X017629Y008002D01*
X017639Y008087D01*
X017653Y008170D01*
X017670Y008253D01*
X017692Y008335D01*
X017718Y008416D01*
X017747Y008496D01*
X017780Y008574D01*
X017816Y008650D01*
X017856Y008725D01*
X017900Y008798D01*
X017947Y008869D01*
X017997Y008937D01*
X018050Y009003D01*
X018107Y009066D01*
X018166Y009127D01*
X018228Y009185D01*
X018293Y009240D01*
X018360Y009292D01*
X018429Y009340D01*
X018501Y009385D01*
X018575Y009427D01*
X018651Y009465D01*
X018728Y009500D01*
X018807Y009531D01*
X018887Y009559D01*
X018969Y009582D01*
X019051Y009602D01*
X019134Y009618D01*
X019218Y009630D01*
X019303Y009638D01*
X019388Y009642D01*
X019472Y009642D01*
X019557Y009638D01*
X019642Y009630D01*
X019726Y009618D01*
X019809Y009602D01*
X019891Y009582D01*
X019973Y009559D01*
X020053Y009531D01*
X020132Y009500D01*
X020209Y009465D01*
X020285Y009427D01*
X020359Y009385D01*
X020431Y009340D01*
X020500Y009292D01*
X020567Y009240D01*
X020632Y009185D01*
X020694Y009127D01*
X020753Y009066D01*
X020810Y009003D01*
X020863Y008937D01*
X020913Y008869D01*
X020960Y008798D01*
X021004Y008725D01*
X021044Y008650D01*
X021080Y008574D01*
X021113Y008496D01*
X021142Y008416D01*
X021168Y008335D01*
X021190Y008253D01*
X021207Y008170D01*
X021221Y008087D01*
X021231Y008002D01*
X021237Y007918D01*
X021239Y007833D01*
X021237Y007748D01*
X021231Y007664D01*
X021221Y007579D01*
X021207Y007496D01*
X021190Y007413D01*
X021168Y007331D01*
X021142Y007250D01*
X021113Y007170D01*
X021080Y007092D01*
X021044Y007016D01*
X021004Y006941D01*
X020960Y006868D01*
X020913Y006797D01*
X020863Y006729D01*
X020810Y006663D01*
X020753Y006600D01*
X020694Y006539D01*
X020632Y006481D01*
X020567Y006426D01*
X020500Y006374D01*
X020431Y006326D01*
X020359Y006281D01*
X020285Y006239D01*
X020209Y006201D01*
X020132Y006166D01*
X020053Y006135D01*
X019973Y006107D01*
X019891Y006084D01*
X019809Y006064D01*
X019726Y006048D01*
X019642Y006036D01*
X019557Y006028D01*
X019472Y006024D01*
X019388Y006024D01*
X019303Y006028D01*
X019218Y006036D01*
X019134Y006048D01*
X019051Y006064D01*
X018969Y006084D01*
X018887Y006107D01*
X018807Y006135D01*
X018728Y006166D01*
X018651Y006201D01*
X018575Y006239D01*
X018501Y006281D01*
X018429Y006326D01*
X018360Y006374D01*
X018293Y006426D01*
X018228Y006481D01*
X018166Y006539D01*
X018107Y006600D01*
X018050Y006663D01*
X017997Y006729D01*
X017947Y006797D01*
X017900Y006868D01*
X017856Y006941D01*
X017816Y007016D01*
X017780Y007092D01*
X017747Y007170D01*
X017718Y007250D01*
X017692Y007331D01*
X017670Y007413D01*
X017653Y007496D01*
X017639Y007579D01*
X017629Y007664D01*
X017623Y007748D01*
X017621Y007833D01*
X015580Y007433D02*
X015580Y008233D01*
X015230Y008233D01*
X015230Y007433D02*
X015580Y007433D01*
X015792Y006491D02*
X015792Y009176D01*
X014773Y010196D02*
X012087Y010196D01*
X011068Y009176D02*
X011068Y006491D01*
X011280Y007433D02*
X011630Y007433D01*
X011280Y007433D02*
X011280Y008233D01*
X011630Y008233D01*
X011621Y007833D02*
X011623Y007918D01*
X011629Y008002D01*
X011639Y008087D01*
X011653Y008170D01*
X011670Y008253D01*
X011692Y008335D01*
X011718Y008416D01*
X011747Y008496D01*
X011780Y008574D01*
X011816Y008650D01*
X011856Y008725D01*
X011900Y008798D01*
X011947Y008869D01*
X011997Y008937D01*
X012050Y009003D01*
X012107Y009066D01*
X012166Y009127D01*
X012228Y009185D01*
X012293Y009240D01*
X012360Y009292D01*
X012429Y009340D01*
X012501Y009385D01*
X012575Y009427D01*
X012651Y009465D01*
X012728Y009500D01*
X012807Y009531D01*
X012887Y009559D01*
X012969Y009582D01*
X013051Y009602D01*
X013134Y009618D01*
X013218Y009630D01*
X013303Y009638D01*
X013388Y009642D01*
X013472Y009642D01*
X013557Y009638D01*
X013642Y009630D01*
X013726Y009618D01*
X013809Y009602D01*
X013891Y009582D01*
X013973Y009559D01*
X014053Y009531D01*
X014132Y009500D01*
X014209Y009465D01*
X014285Y009427D01*
X014359Y009385D01*
X014431Y009340D01*
X014500Y009292D01*
X014567Y009240D01*
X014632Y009185D01*
X014694Y009127D01*
X014753Y009066D01*
X014810Y009003D01*
X014863Y008937D01*
X014913Y008869D01*
X014960Y008798D01*
X015004Y008725D01*
X015044Y008650D01*
X015080Y008574D01*
X015113Y008496D01*
X015142Y008416D01*
X015168Y008335D01*
X015190Y008253D01*
X015207Y008170D01*
X015221Y008087D01*
X015231Y008002D01*
X015237Y007918D01*
X015239Y007833D01*
X015237Y007748D01*
X015231Y007664D01*
X015221Y007579D01*
X015207Y007496D01*
X015190Y007413D01*
X015168Y007331D01*
X015142Y007250D01*
X015113Y007170D01*
X015080Y007092D01*
X015044Y007016D01*
X015004Y006941D01*
X014960Y006868D01*
X014913Y006797D01*
X014863Y006729D01*
X014810Y006663D01*
X014753Y006600D01*
X014694Y006539D01*
X014632Y006481D01*
X014567Y006426D01*
X014500Y006374D01*
X014431Y006326D01*
X014359Y006281D01*
X014285Y006239D01*
X014209Y006201D01*
X014132Y006166D01*
X014053Y006135D01*
X013973Y006107D01*
X013891Y006084D01*
X013809Y006064D01*
X013726Y006048D01*
X013642Y006036D01*
X013557Y006028D01*
X013472Y006024D01*
X013388Y006024D01*
X013303Y006028D01*
X013218Y006036D01*
X013134Y006048D01*
X013051Y006064D01*
X012969Y006084D01*
X012887Y006107D01*
X012807Y006135D01*
X012728Y006166D01*
X012651Y006201D01*
X012575Y006239D01*
X012501Y006281D01*
X012429Y006326D01*
X012360Y006374D01*
X012293Y006426D01*
X012228Y006481D01*
X012166Y006539D01*
X012107Y006600D01*
X012050Y006663D01*
X011997Y006729D01*
X011947Y006797D01*
X011900Y006868D01*
X011856Y006941D01*
X011816Y007016D01*
X011780Y007092D01*
X011747Y007170D01*
X011718Y007250D01*
X011692Y007331D01*
X011670Y007413D01*
X011653Y007496D01*
X011639Y007579D01*
X011629Y007664D01*
X011623Y007748D01*
X011621Y007833D01*
X009292Y006491D02*
X009292Y009176D01*
X009080Y008233D02*
X008730Y008233D01*
X009080Y008233D02*
X009080Y007433D01*
X008730Y007433D01*
X005121Y007833D02*
X005123Y007918D01*
X005129Y008002D01*
X005139Y008087D01*
X005153Y008170D01*
X005170Y008253D01*
X005192Y008335D01*
X005218Y008416D01*
X005247Y008496D01*
X005280Y008574D01*
X005316Y008650D01*
X005356Y008725D01*
X005400Y008798D01*
X005447Y008869D01*
X005497Y008937D01*
X005550Y009003D01*
X005607Y009066D01*
X005666Y009127D01*
X005728Y009185D01*
X005793Y009240D01*
X005860Y009292D01*
X005929Y009340D01*
X006001Y009385D01*
X006075Y009427D01*
X006151Y009465D01*
X006228Y009500D01*
X006307Y009531D01*
X006387Y009559D01*
X006469Y009582D01*
X006551Y009602D01*
X006634Y009618D01*
X006718Y009630D01*
X006803Y009638D01*
X006888Y009642D01*
X006972Y009642D01*
X007057Y009638D01*
X007142Y009630D01*
X007226Y009618D01*
X007309Y009602D01*
X007391Y009582D01*
X007473Y009559D01*
X007553Y009531D01*
X007632Y009500D01*
X007709Y009465D01*
X007785Y009427D01*
X007859Y009385D01*
X007931Y009340D01*
X008000Y009292D01*
X008067Y009240D01*
X008132Y009185D01*
X008194Y009127D01*
X008253Y009066D01*
X008310Y009003D01*
X008363Y008937D01*
X008413Y008869D01*
X008460Y008798D01*
X008504Y008725D01*
X008544Y008650D01*
X008580Y008574D01*
X008613Y008496D01*
X008642Y008416D01*
X008668Y008335D01*
X008690Y008253D01*
X008707Y008170D01*
X008721Y008087D01*
X008731Y008002D01*
X008737Y007918D01*
X008739Y007833D01*
X008737Y007748D01*
X008731Y007664D01*
X008721Y007579D01*
X008707Y007496D01*
X008690Y007413D01*
X008668Y007331D01*
X008642Y007250D01*
X008613Y007170D01*
X008580Y007092D01*
X008544Y007016D01*
X008504Y006941D01*
X008460Y006868D01*
X008413Y006797D01*
X008363Y006729D01*
X008310Y006663D01*
X008253Y006600D01*
X008194Y006539D01*
X008132Y006481D01*
X008067Y006426D01*
X008000Y006374D01*
X007931Y006326D01*
X007859Y006281D01*
X007785Y006239D01*
X007709Y006201D01*
X007632Y006166D01*
X007553Y006135D01*
X007473Y006107D01*
X007391Y006084D01*
X007309Y006064D01*
X007226Y006048D01*
X007142Y006036D01*
X007057Y006028D01*
X006972Y006024D01*
X006888Y006024D01*
X006803Y006028D01*
X006718Y006036D01*
X006634Y006048D01*
X006551Y006064D01*
X006469Y006084D01*
X006387Y006107D01*
X006307Y006135D01*
X006228Y006166D01*
X006151Y006201D01*
X006075Y006239D01*
X006001Y006281D01*
X005929Y006326D01*
X005860Y006374D01*
X005793Y006426D01*
X005728Y006481D01*
X005666Y006539D01*
X005607Y006600D01*
X005550Y006663D01*
X005497Y006729D01*
X005447Y006797D01*
X005400Y006868D01*
X005356Y006941D01*
X005316Y007016D01*
X005280Y007092D01*
X005247Y007170D01*
X005218Y007250D01*
X005192Y007331D01*
X005170Y007413D01*
X005153Y007496D01*
X005139Y007579D01*
X005129Y007664D01*
X005123Y007748D01*
X005121Y007833D01*
X005130Y008233D02*
X004780Y008233D01*
X004780Y007433D01*
X005130Y007433D01*
X004568Y006491D02*
X004568Y009176D01*
X005587Y010196D02*
X008273Y010196D01*
X008273Y005471D02*
X005587Y005471D01*
X005527Y004784D02*
X005527Y004083D01*
X005060Y004784D01*
X005060Y004083D01*
X004791Y004083D02*
X004791Y004550D01*
X004557Y004784D01*
X004324Y004550D01*
X004324Y004083D01*
X004324Y004434D02*
X004791Y004434D01*
X005797Y004434D02*
X006264Y004434D01*
X006264Y004550D02*
X006264Y004083D01*
X006533Y004083D02*
X007001Y004083D01*
X007270Y004200D02*
X007387Y004083D01*
X007620Y004083D01*
X007737Y004200D01*
X007737Y004667D01*
X007620Y004784D01*
X007387Y004784D01*
X007270Y004667D01*
X007270Y004200D01*
X006533Y004083D02*
X006533Y004784D01*
X006264Y004550D02*
X006030Y004784D01*
X005797Y004550D01*
X005797Y004083D01*
X008007Y004200D02*
X008124Y004083D01*
X008357Y004083D01*
X008474Y004200D01*
X008474Y004434D01*
X008240Y004434D01*
X008007Y004667D02*
X008007Y004200D01*
X008007Y004667D02*
X008124Y004784D01*
X008357Y004784D01*
X008474Y004667D01*
X008743Y004550D02*
X008977Y004784D01*
X008977Y004083D01*
X009210Y004083D02*
X008743Y004083D01*
X010824Y004083D02*
X010824Y004550D01*
X011057Y004784D01*
X011291Y004550D01*
X011291Y004083D01*
X011560Y004083D02*
X011560Y004784D01*
X012027Y004083D01*
X012027Y004784D01*
X012297Y004550D02*
X012530Y004784D01*
X012764Y004550D01*
X012764Y004083D01*
X013033Y004083D02*
X013501Y004083D01*
X013770Y004200D02*
X013887Y004083D01*
X014120Y004083D01*
X014237Y004200D01*
X014237Y004667D01*
X014120Y004784D01*
X013887Y004784D01*
X013770Y004667D01*
X013770Y004200D01*
X014507Y004200D02*
X014507Y004667D01*
X014624Y004784D01*
X014857Y004784D01*
X014974Y004667D01*
X014974Y004434D02*
X014740Y004434D01*
X014974Y004434D02*
X014974Y004200D01*
X014857Y004083D01*
X014624Y004083D01*
X014507Y004200D01*
X015243Y004083D02*
X015710Y004550D01*
X015710Y004667D01*
X015594Y004784D01*
X015360Y004784D01*
X015243Y004667D01*
X015243Y004083D02*
X015710Y004083D01*
X017078Y004083D02*
X017428Y004083D01*
X017545Y004200D01*
X017545Y004667D01*
X017428Y004784D01*
X017078Y004784D01*
X017078Y004083D01*
X017815Y004083D02*
X018048Y004083D01*
X017931Y004083D02*
X017931Y004784D01*
X017815Y004784D02*
X018048Y004784D01*
X018306Y004667D02*
X018306Y004200D01*
X018423Y004083D01*
X018656Y004083D01*
X018773Y004200D01*
X018773Y004434D01*
X018539Y004434D01*
X018306Y004667D02*
X018423Y004784D01*
X018656Y004784D01*
X018773Y004667D01*
X019042Y004784D02*
X019276Y004784D01*
X019159Y004784D02*
X019159Y004083D01*
X019042Y004083D02*
X019276Y004083D01*
X019767Y004083D02*
X019767Y004784D01*
X019533Y004784D02*
X020001Y004784D01*
X020270Y004550D02*
X020504Y004784D01*
X020737Y004550D01*
X020737Y004083D01*
X021007Y004083D02*
X021474Y004083D01*
X021743Y004083D02*
X022210Y004083D01*
X021977Y004083D02*
X021977Y004784D01*
X021743Y004550D01*
X021007Y004784D02*
X021007Y004083D01*
X020737Y004434D02*
X020270Y004434D01*
X020270Y004550D02*
X020270Y004083D01*
X020773Y005471D02*
X018087Y005471D01*
X014773Y005471D02*
X012087Y005471D01*
X012297Y004550D02*
X012297Y004083D01*
X012297Y004434D02*
X012764Y004434D01*
X013033Y004784D02*
X013033Y004083D01*
X011291Y004434D02*
X010824Y004434D01*
X021230Y007433D02*
X021580Y007433D01*
X021580Y008233D01*
X021230Y008233D01*
X021792Y009176D02*
X021792Y006491D01*
X023578Y004784D02*
X023928Y004784D01*
X024045Y004667D01*
X024045Y004200D01*
X023928Y004083D01*
X023578Y004083D01*
X023578Y004784D01*
X024315Y004784D02*
X024548Y004784D01*
X024431Y004784D02*
X024431Y004083D01*
X024315Y004083D02*
X024548Y004083D01*
X024806Y004200D02*
X024923Y004083D01*
X025156Y004083D01*
X025273Y004200D01*
X025273Y004434D01*
X025039Y004434D01*
X024806Y004667D02*
X024806Y004200D01*
X024806Y004667D02*
X024923Y004784D01*
X025156Y004784D01*
X025273Y004667D01*
X025542Y004784D02*
X025776Y004784D01*
X025659Y004784D02*
X025659Y004083D01*
X025542Y004083D02*
X025776Y004083D01*
X026267Y004083D02*
X026267Y004784D01*
X026033Y004784D02*
X026501Y004784D01*
X026770Y004550D02*
X027004Y004784D01*
X027237Y004550D01*
X027237Y004083D01*
X027507Y004083D02*
X027974Y004083D01*
X028243Y004083D02*
X028710Y004550D01*
X028710Y004667D01*
X028594Y004784D01*
X028360Y004784D01*
X028243Y004667D01*
X028243Y004083D02*
X028710Y004083D01*
X027507Y004083D02*
X027507Y004784D01*
X027237Y004434D02*
X026770Y004434D01*
X026770Y004550D02*
X026770Y004083D01*
X027273Y005471D02*
X024587Y005471D01*
D15*
X025340Y008030D02*
X025357Y008075D01*
X025378Y008119D01*
X025402Y008161D01*
X025429Y008201D01*
X025459Y008239D01*
X025492Y008275D01*
X025528Y008308D01*
X025566Y008338D01*
X025607Y008364D01*
X025649Y008388D01*
X025693Y008408D01*
X025739Y008425D01*
X025786Y008438D01*
X025833Y008447D01*
X025881Y008453D01*
X025930Y008455D01*
X025979Y008453D01*
X026027Y008447D01*
X026074Y008438D01*
X026121Y008425D01*
X026167Y008408D01*
X026211Y008388D01*
X026253Y008364D01*
X026294Y008338D01*
X026332Y008308D01*
X026368Y008275D01*
X026401Y008239D01*
X026431Y008201D01*
X026458Y008161D01*
X026482Y008119D01*
X026503Y008075D01*
X026520Y008030D01*
X026520Y007636D02*
X026503Y007591D01*
X026482Y007547D01*
X026458Y007505D01*
X026431Y007465D01*
X026401Y007427D01*
X026368Y007391D01*
X026332Y007358D01*
X026294Y007328D01*
X026253Y007302D01*
X026211Y007278D01*
X026167Y007258D01*
X026121Y007241D01*
X026074Y007228D01*
X026027Y007219D01*
X025979Y007213D01*
X025930Y007211D01*
X025881Y007213D01*
X025833Y007219D01*
X025786Y007228D01*
X025739Y007241D01*
X025693Y007258D01*
X025649Y007278D01*
X025607Y007302D01*
X025566Y007328D01*
X025528Y007358D01*
X025492Y007391D01*
X025459Y007427D01*
X025429Y007465D01*
X025402Y007505D01*
X025378Y007547D01*
X025357Y007591D01*
X025340Y007636D01*
X020020Y008030D02*
X020003Y008075D01*
X019982Y008119D01*
X019958Y008161D01*
X019931Y008201D01*
X019901Y008239D01*
X019868Y008275D01*
X019832Y008308D01*
X019794Y008338D01*
X019753Y008364D01*
X019711Y008388D01*
X019667Y008408D01*
X019621Y008425D01*
X019574Y008438D01*
X019527Y008447D01*
X019479Y008453D01*
X019430Y008455D01*
X019381Y008453D01*
X019333Y008447D01*
X019286Y008438D01*
X019239Y008425D01*
X019193Y008408D01*
X019149Y008388D01*
X019107Y008364D01*
X019066Y008338D01*
X019028Y008308D01*
X018992Y008275D01*
X018959Y008239D01*
X018929Y008201D01*
X018902Y008161D01*
X018878Y008119D01*
X018857Y008075D01*
X018840Y008030D01*
X018840Y007636D02*
X018857Y007591D01*
X018878Y007547D01*
X018902Y007505D01*
X018929Y007465D01*
X018959Y007427D01*
X018992Y007391D01*
X019028Y007358D01*
X019066Y007328D01*
X019107Y007302D01*
X019149Y007278D01*
X019193Y007258D01*
X019239Y007241D01*
X019286Y007228D01*
X019333Y007219D01*
X019381Y007213D01*
X019430Y007211D01*
X019479Y007213D01*
X019527Y007219D01*
X019574Y007228D01*
X019621Y007241D01*
X019667Y007258D01*
X019711Y007278D01*
X019753Y007302D01*
X019794Y007328D01*
X019832Y007358D01*
X019868Y007391D01*
X019901Y007427D01*
X019931Y007465D01*
X019958Y007505D01*
X019982Y007547D01*
X020003Y007591D01*
X020020Y007636D01*
X014020Y008030D02*
X014003Y008075D01*
X013982Y008119D01*
X013958Y008161D01*
X013931Y008201D01*
X013901Y008239D01*
X013868Y008275D01*
X013832Y008308D01*
X013794Y008338D01*
X013753Y008364D01*
X013711Y008388D01*
X013667Y008408D01*
X013621Y008425D01*
X013574Y008438D01*
X013527Y008447D01*
X013479Y008453D01*
X013430Y008455D01*
X013381Y008453D01*
X013333Y008447D01*
X013286Y008438D01*
X013239Y008425D01*
X013193Y008408D01*
X013149Y008388D01*
X013107Y008364D01*
X013066Y008338D01*
X013028Y008308D01*
X012992Y008275D01*
X012959Y008239D01*
X012929Y008201D01*
X012902Y008161D01*
X012878Y008119D01*
X012857Y008075D01*
X012840Y008030D01*
X012840Y007636D02*
X012857Y007591D01*
X012878Y007547D01*
X012902Y007505D01*
X012929Y007465D01*
X012959Y007427D01*
X012992Y007391D01*
X013028Y007358D01*
X013066Y007328D01*
X013107Y007302D01*
X013149Y007278D01*
X013193Y007258D01*
X013239Y007241D01*
X013286Y007228D01*
X013333Y007219D01*
X013381Y007213D01*
X013430Y007211D01*
X013479Y007213D01*
X013527Y007219D01*
X013574Y007228D01*
X013621Y007241D01*
X013667Y007258D01*
X013711Y007278D01*
X013753Y007302D01*
X013794Y007328D01*
X013832Y007358D01*
X013868Y007391D01*
X013901Y007427D01*
X013931Y007465D01*
X013958Y007505D01*
X013982Y007547D01*
X014003Y007591D01*
X014020Y007636D01*
X007520Y008030D02*
X007503Y008075D01*
X007482Y008119D01*
X007458Y008161D01*
X007431Y008201D01*
X007401Y008239D01*
X007368Y008275D01*
X007332Y008308D01*
X007294Y008338D01*
X007253Y008364D01*
X007211Y008388D01*
X007167Y008408D01*
X007121Y008425D01*
X007074Y008438D01*
X007027Y008447D01*
X006979Y008453D01*
X006930Y008455D01*
X006881Y008453D01*
X006833Y008447D01*
X006786Y008438D01*
X006739Y008425D01*
X006693Y008408D01*
X006649Y008388D01*
X006607Y008364D01*
X006566Y008338D01*
X006528Y008308D01*
X006492Y008275D01*
X006459Y008239D01*
X006429Y008201D01*
X006402Y008161D01*
X006378Y008119D01*
X006357Y008075D01*
X006340Y008030D01*
X006340Y007636D02*
X006357Y007591D01*
X006378Y007547D01*
X006402Y007505D01*
X006429Y007465D01*
X006459Y007427D01*
X006492Y007391D01*
X006528Y007358D01*
X006566Y007328D01*
X006607Y007302D01*
X006649Y007278D01*
X006693Y007258D01*
X006739Y007241D01*
X006786Y007228D01*
X006833Y007219D01*
X006881Y007213D01*
X006930Y007211D01*
X006979Y007213D01*
X007027Y007219D01*
X007074Y007228D01*
X007121Y007241D01*
X007167Y007258D01*
X007211Y007278D01*
X007253Y007302D01*
X007294Y007328D01*
X007332Y007358D01*
X007368Y007391D01*
X007401Y007427D01*
X007431Y007465D01*
X007458Y007505D01*
X007482Y007547D01*
X007503Y007591D01*
X007520Y007636D01*
D16*
X009779Y007064D02*
X009779Y006603D01*
X010009Y006603D01*
X010086Y006680D01*
X010086Y006987D01*
X010009Y007064D01*
X009779Y007064D01*
X010240Y006910D02*
X010393Y007064D01*
X010393Y006603D01*
X010240Y006603D02*
X010547Y006603D01*
X009581Y010353D02*
X009581Y010814D01*
X009888Y010814D01*
X009735Y010584D02*
X009581Y010584D01*
X009428Y010584D02*
X009428Y010353D01*
X009428Y010584D02*
X009351Y010660D01*
X009121Y010660D01*
X009121Y010353D01*
X008967Y010430D02*
X008891Y010353D01*
X008737Y010353D01*
X008660Y010430D01*
X008660Y010584D02*
X008814Y010660D01*
X008891Y010660D01*
X008967Y010584D01*
X008967Y010430D01*
X008660Y010584D02*
X008660Y010814D01*
X008967Y010814D01*
X008353Y010814D02*
X008353Y010353D01*
X008200Y010353D02*
X008507Y010353D01*
X008200Y010660D02*
X008353Y010814D01*
X008277Y011853D02*
X008430Y011853D01*
X008507Y011930D01*
X008660Y011930D02*
X008737Y011853D01*
X008891Y011853D01*
X008967Y011930D01*
X008967Y012084D01*
X008891Y012160D01*
X008814Y012160D01*
X008660Y012084D01*
X008660Y012314D01*
X008967Y012314D01*
X008507Y012237D02*
X008430Y012314D01*
X008277Y012314D01*
X008200Y012237D01*
X008200Y011930D01*
X008277Y011853D01*
X006947Y011753D02*
X006716Y011984D01*
X006640Y011907D02*
X006947Y012214D01*
X006640Y012214D02*
X006640Y011753D01*
X006486Y011753D02*
X006179Y011753D01*
X006333Y011753D02*
X006333Y012214D01*
X006179Y012060D01*
X006179Y010914D02*
X006409Y010914D01*
X006486Y010837D01*
X006486Y010684D01*
X006409Y010607D01*
X006179Y010607D01*
X006179Y010453D02*
X006179Y010914D01*
X006333Y010607D02*
X006486Y010453D01*
X006640Y010453D02*
X006947Y010453D01*
X006793Y010453D02*
X006793Y010914D01*
X006640Y010760D01*
X004632Y010734D02*
X004632Y010581D01*
X004556Y010504D01*
X004249Y010811D01*
X004556Y010811D01*
X004632Y010734D01*
X004556Y010504D02*
X004249Y010504D01*
X004172Y010581D01*
X004172Y010734D01*
X004249Y010811D01*
X004249Y010965D02*
X004172Y011041D01*
X004172Y011195D01*
X004249Y011271D01*
X004556Y010965D01*
X004632Y011041D01*
X004632Y011195D01*
X004556Y011271D01*
X004249Y011271D01*
X004249Y011425D02*
X004172Y011502D01*
X004172Y011655D01*
X004249Y011732D01*
X004556Y011425D01*
X004632Y011502D01*
X004632Y011655D01*
X004556Y011732D01*
X004249Y011732D01*
X004326Y011885D02*
X004556Y011885D01*
X004632Y011962D01*
X004632Y012192D01*
X004326Y012192D01*
X004402Y012346D02*
X004402Y012499D01*
X004632Y012346D02*
X004172Y012346D01*
X004172Y012653D01*
X004249Y011425D02*
X004556Y011425D01*
X004556Y010965D02*
X004249Y010965D01*
X004632Y010351D02*
X004632Y010044D01*
X004632Y010197D02*
X004172Y010197D01*
X004326Y010044D01*
X001528Y009270D02*
X001528Y009194D01*
X001452Y009117D01*
X001298Y009117D01*
X001221Y009194D01*
X001221Y009270D01*
X001298Y009347D01*
X001452Y009347D01*
X001528Y009270D01*
X001452Y009117D02*
X001528Y009040D01*
X001528Y008964D01*
X001452Y008887D01*
X001298Y008887D01*
X001221Y008964D01*
X001221Y009040D01*
X001298Y009117D01*
X001068Y009270D02*
X000991Y009347D01*
X000838Y009347D01*
X000761Y009270D01*
X000761Y008964D01*
X000838Y008887D01*
X000991Y008887D01*
X001068Y008964D01*
X001356Y013603D02*
X001509Y013603D01*
X001586Y013680D01*
X001740Y013680D02*
X001816Y013603D01*
X001970Y013603D01*
X002047Y013680D01*
X002047Y013987D01*
X001970Y014064D01*
X001816Y014064D01*
X001740Y013987D01*
X001740Y013910D01*
X001816Y013834D01*
X002047Y013834D01*
X001586Y013987D02*
X001509Y014064D01*
X001356Y014064D01*
X001279Y013987D01*
X001279Y013680D01*
X001356Y013603D01*
X001396Y015103D02*
X001319Y015180D01*
X001626Y015487D01*
X001626Y015180D01*
X001549Y015103D01*
X001396Y015103D01*
X001319Y015180D02*
X001319Y015487D01*
X001396Y015564D01*
X001549Y015564D01*
X001626Y015487D01*
X001779Y015410D02*
X001779Y015180D01*
X001856Y015103D01*
X002086Y015103D01*
X002086Y015410D01*
X002240Y015334D02*
X002393Y015334D01*
X002240Y015564D02*
X002240Y015103D01*
X002240Y015564D02*
X002547Y015564D01*
X001970Y016103D02*
X001816Y016103D01*
X001740Y016180D01*
X002047Y016487D01*
X002047Y016180D01*
X001970Y016103D01*
X001740Y016180D02*
X001740Y016487D01*
X001816Y016564D01*
X001970Y016564D01*
X002047Y016487D01*
X001586Y016103D02*
X001279Y016103D01*
X001433Y016103D02*
X001433Y016564D01*
X001279Y016410D01*
X001126Y016487D02*
X001049Y016564D01*
X000896Y016564D01*
X000819Y016487D01*
X000819Y016180D01*
X000896Y016103D01*
X001049Y016103D01*
X001126Y016180D01*
X001089Y015564D02*
X000935Y015564D01*
X000858Y015487D01*
X000858Y015180D01*
X001165Y015487D01*
X001165Y015180D01*
X001089Y015103D01*
X000935Y015103D01*
X000858Y015180D01*
X000705Y015103D02*
X000398Y015103D01*
X000551Y015103D02*
X000551Y015564D01*
X000398Y015410D01*
X001089Y015564D02*
X001165Y015487D01*
X001049Y017603D02*
X000896Y017603D01*
X000819Y017680D01*
X001126Y017987D01*
X001126Y017680D01*
X001049Y017603D01*
X000819Y017680D02*
X000819Y017987D01*
X000896Y018064D01*
X001049Y018064D01*
X001126Y017987D01*
X001279Y017910D02*
X001279Y017680D01*
X001356Y017603D01*
X001586Y017603D01*
X001586Y017910D01*
X001740Y017834D02*
X001893Y017834D01*
X001740Y018064D02*
X001740Y017603D01*
X001740Y018064D02*
X002047Y018064D01*
X000665Y017603D02*
X000358Y017603D01*
X000512Y017603D02*
X000512Y018064D01*
X000358Y017910D01*
X001200Y020853D02*
X001507Y020853D01*
X001353Y020853D02*
X001353Y021314D01*
X001200Y021160D01*
X001660Y021160D02*
X001660Y020930D01*
X001737Y020853D01*
X001967Y020853D01*
X001967Y021160D01*
X002121Y021084D02*
X002274Y021084D01*
X002121Y021314D02*
X002121Y020853D01*
X002121Y021314D02*
X002428Y021314D01*
X001660Y022353D02*
X001660Y022430D01*
X001967Y022737D01*
X001967Y022814D01*
X001660Y022814D01*
X001507Y022737D02*
X001430Y022814D01*
X001277Y022814D01*
X001200Y022737D01*
X001200Y022430D01*
X001277Y022353D01*
X001430Y022353D01*
X001507Y022430D01*
X013300Y023053D02*
X013300Y023284D01*
X013376Y023360D01*
X013530Y023360D01*
X013607Y023284D01*
X013607Y023053D01*
X013760Y023053D02*
X013300Y023053D01*
X013607Y023207D02*
X013760Y023360D01*
X013760Y023514D02*
X013760Y023821D01*
X013760Y023667D02*
X013300Y023667D01*
X013453Y023514D01*
X013376Y023974D02*
X013300Y024051D01*
X013300Y024204D01*
X013376Y024281D01*
X013683Y023974D01*
X013760Y024051D01*
X013760Y024204D01*
X013683Y024281D01*
X013376Y024281D01*
X013376Y023974D02*
X013683Y023974D01*
X014600Y024051D02*
X014600Y024204D01*
X014676Y024281D01*
X014983Y023974D01*
X015060Y024051D01*
X015060Y024204D01*
X014983Y024281D01*
X014676Y024281D01*
X014600Y024435D02*
X015060Y024435D01*
X014907Y024435D02*
X014600Y024741D01*
X014830Y024511D02*
X015060Y024741D01*
X014983Y023974D02*
X014676Y023974D01*
X014600Y024051D01*
X014676Y023821D02*
X014983Y023514D01*
X015060Y023590D01*
X015060Y023744D01*
X014983Y023821D01*
X014676Y023821D01*
X014600Y023744D01*
X014600Y023590D01*
X014676Y023514D01*
X014983Y023514D01*
X015060Y023360D02*
X015060Y023053D01*
X015060Y023207D02*
X014600Y023207D01*
X014753Y023053D01*
X014600Y022281D02*
X014907Y021974D01*
X014830Y022051D02*
X015060Y022281D01*
X015060Y021974D02*
X014600Y021974D01*
X014676Y021821D02*
X014983Y021514D01*
X015060Y021590D01*
X015060Y021744D01*
X014983Y021821D01*
X014676Y021821D01*
X014600Y021744D01*
X014600Y021590D01*
X014676Y021514D01*
X014983Y021514D01*
X015060Y021360D02*
X015060Y021053D01*
X014753Y021360D01*
X014676Y021360D01*
X014600Y021284D01*
X014600Y021130D01*
X014676Y021053D01*
X014600Y020241D02*
X014907Y019935D01*
X014830Y020011D02*
X015060Y020241D01*
X015060Y019935D02*
X014600Y019935D01*
X014676Y019781D02*
X014983Y019474D01*
X015060Y019551D01*
X015060Y019704D01*
X014983Y019781D01*
X014676Y019781D01*
X014600Y019704D01*
X014600Y019551D01*
X014676Y019474D01*
X014983Y019474D01*
X014983Y019321D02*
X015060Y019244D01*
X015060Y019090D01*
X014983Y019014D01*
X014676Y019321D01*
X014983Y019321D01*
X014676Y019321D02*
X014600Y019244D01*
X014600Y019090D01*
X014676Y019014D01*
X014983Y019014D01*
X015060Y018860D02*
X015060Y018553D01*
X015060Y018707D02*
X014600Y018707D01*
X014753Y018553D01*
X014600Y017781D02*
X014907Y017474D01*
X014830Y017551D02*
X015060Y017781D01*
X015060Y017474D02*
X014600Y017474D01*
X014676Y017321D02*
X014983Y017014D01*
X015060Y017090D01*
X015060Y017244D01*
X014983Y017321D01*
X014676Y017321D01*
X014600Y017244D01*
X014600Y017090D01*
X014676Y017014D01*
X014983Y017014D01*
X015060Y016860D02*
X015060Y016553D01*
X014753Y016860D01*
X014676Y016860D01*
X014600Y016784D01*
X014600Y016630D01*
X014676Y016553D01*
X013760Y016553D02*
X013300Y016553D01*
X013300Y016784D01*
X013376Y016860D01*
X013530Y016860D01*
X013607Y016784D01*
X013607Y016553D01*
X013607Y016707D02*
X013760Y016860D01*
X013760Y017014D02*
X013683Y017014D01*
X013376Y017321D01*
X013300Y017321D01*
X013300Y017014D01*
X013300Y018553D02*
X013300Y018784D01*
X013376Y018860D01*
X013530Y018860D01*
X013607Y018784D01*
X013607Y018553D01*
X013760Y018553D02*
X013300Y018553D01*
X013607Y018707D02*
X013760Y018860D01*
X013683Y019014D02*
X013760Y019090D01*
X013760Y019244D01*
X013683Y019321D01*
X013376Y019321D01*
X013300Y019244D01*
X013300Y019090D01*
X013376Y019014D01*
X013453Y019014D01*
X013530Y019090D01*
X013530Y019321D01*
X013607Y021053D02*
X013607Y021284D01*
X013530Y021360D01*
X013376Y021360D01*
X013300Y021284D01*
X013300Y021053D01*
X013760Y021053D01*
X013607Y021207D02*
X013760Y021360D01*
X013683Y021514D02*
X013607Y021514D01*
X013530Y021590D01*
X013530Y021744D01*
X013607Y021821D01*
X013683Y021821D01*
X013760Y021744D01*
X013760Y021590D01*
X013683Y021514D01*
X013530Y021590D02*
X013453Y021514D01*
X013376Y021514D01*
X013300Y021590D01*
X013300Y021744D01*
X013376Y021821D01*
X013453Y021821D01*
X013530Y021744D01*
X015700Y020910D02*
X015853Y021064D01*
X015853Y020603D01*
X015700Y020603D02*
X016007Y020603D01*
X016160Y020680D02*
X016467Y020987D01*
X016467Y020680D01*
X016391Y020603D01*
X016237Y020603D01*
X016160Y020680D01*
X016160Y020987D01*
X016237Y021064D01*
X016391Y021064D01*
X016467Y020987D01*
X016621Y020987D02*
X016621Y020680D01*
X016928Y020987D01*
X016928Y020680D01*
X016851Y020603D01*
X016698Y020603D01*
X016621Y020680D01*
X016621Y020987D02*
X016698Y021064D01*
X016851Y021064D01*
X016928Y020987D01*
X017081Y020910D02*
X017311Y020910D01*
X017388Y020834D01*
X017388Y020603D01*
X017542Y020603D02*
X017542Y021064D01*
X017848Y021064D01*
X017695Y020834D02*
X017542Y020834D01*
X017081Y020910D02*
X017081Y020603D01*
X018450Y020603D02*
X018757Y020603D01*
X018603Y020603D02*
X018603Y021064D01*
X018450Y020910D01*
X018910Y020987D02*
X018910Y020680D01*
X019217Y020987D01*
X019217Y020680D01*
X019141Y020603D01*
X018987Y020603D01*
X018910Y020680D01*
X018910Y020987D02*
X018987Y021064D01*
X019141Y021064D01*
X019217Y020987D01*
X019371Y020987D02*
X019448Y021064D01*
X019601Y021064D01*
X019678Y020987D01*
X019371Y020680D01*
X019448Y020603D01*
X019601Y020603D01*
X019678Y020680D01*
X019678Y020987D01*
X019831Y020910D02*
X020061Y020910D01*
X020138Y020834D01*
X020138Y020680D01*
X020061Y020603D01*
X019831Y020603D01*
X019831Y020450D02*
X019831Y020910D01*
X019371Y020987D02*
X019371Y020680D01*
X020292Y020603D02*
X020292Y021064D01*
X020598Y021064D01*
X020445Y020834D02*
X020292Y020834D01*
X021079Y020857D02*
X021309Y020857D01*
X021386Y020934D01*
X021386Y021087D01*
X021309Y021164D01*
X021079Y021164D01*
X021079Y020703D01*
X021233Y020857D02*
X021386Y020703D01*
X021540Y020934D02*
X021847Y020934D01*
X021770Y021164D02*
X021540Y020934D01*
X021770Y020703D02*
X021770Y021164D01*
X021847Y022003D02*
X021616Y022157D01*
X021847Y022310D01*
X021616Y022464D02*
X021616Y022003D01*
X021463Y022003D02*
X021156Y022003D01*
X021309Y022003D02*
X021309Y022464D01*
X021156Y022310D01*
X021176Y022953D02*
X021022Y023107D01*
X021099Y023107D02*
X020869Y023107D01*
X020869Y022953D02*
X020869Y023414D01*
X021099Y023414D01*
X021176Y023337D01*
X021176Y023184D01*
X021099Y023107D01*
X021329Y023260D02*
X021483Y023414D01*
X021483Y022953D01*
X021636Y022953D02*
X021329Y022953D01*
X021790Y022953D02*
X022097Y023260D01*
X022097Y023337D01*
X022020Y023414D01*
X021866Y023414D01*
X021790Y023337D01*
X021790Y022953D02*
X022097Y022953D01*
X022969Y022234D02*
X023276Y022234D01*
X023429Y022157D02*
X023659Y022157D01*
X023736Y022234D01*
X023736Y022387D01*
X023659Y022464D01*
X023429Y022464D01*
X023429Y022003D01*
X023583Y022157D02*
X023736Y022003D01*
X023890Y022003D02*
X023890Y022080D01*
X024197Y022387D01*
X024197Y022464D01*
X023890Y022464D01*
X023199Y022464D02*
X023199Y022003D01*
X022969Y022234D02*
X023199Y022464D01*
X023429Y021164D02*
X023659Y021164D01*
X023736Y021087D01*
X023736Y020934D01*
X023659Y020857D01*
X023429Y020857D01*
X023429Y020703D02*
X023429Y021164D01*
X023583Y020857D02*
X023736Y020703D01*
X023890Y020780D02*
X023890Y020934D01*
X024120Y020934D01*
X024197Y020857D01*
X024197Y020780D01*
X024120Y020703D01*
X023966Y020703D01*
X023890Y020780D01*
X023890Y020934D02*
X024043Y021087D01*
X024197Y021164D01*
X024776Y023433D02*
X024700Y023509D01*
X024700Y023663D01*
X024776Y023739D01*
X025083Y023739D01*
X025160Y023663D01*
X025160Y023509D01*
X025083Y023433D01*
X024776Y023433D01*
X025007Y023586D02*
X025160Y023739D01*
X025160Y023893D02*
X024853Y024200D01*
X024776Y024200D01*
X024700Y024123D01*
X024700Y023970D01*
X024776Y023893D01*
X025160Y023893D02*
X025160Y024200D01*
X022097Y024253D02*
X021943Y024407D01*
X022020Y024407D02*
X021790Y024407D01*
X021790Y024253D02*
X021790Y024714D01*
X022020Y024714D01*
X022097Y024637D01*
X022097Y024484D01*
X022020Y024407D01*
X021636Y024330D02*
X021559Y024253D01*
X021406Y024253D01*
X021329Y024330D01*
X021636Y024637D01*
X021636Y024330D01*
X021329Y024330D02*
X021329Y024637D01*
X021406Y024714D01*
X021559Y024714D01*
X021636Y024637D01*
X021176Y024637D02*
X020869Y024330D01*
X020946Y024253D01*
X021099Y024253D01*
X021176Y024330D01*
X021176Y024637D01*
X021099Y024714D01*
X020946Y024714D01*
X020869Y024637D01*
X020869Y024330D01*
X020715Y024253D02*
X020408Y024253D01*
X020562Y024253D02*
X020562Y024714D01*
X020408Y024560D01*
X018310Y024124D02*
X018233Y024124D01*
X017926Y024431D01*
X017850Y024431D01*
X017850Y024124D01*
X017850Y023971D02*
X018310Y023971D01*
X018310Y023664D02*
X017850Y023664D01*
X018003Y023817D01*
X017850Y023971D01*
X018080Y023510D02*
X018080Y023203D01*
X017850Y023434D01*
X018310Y023434D01*
X018777Y022564D02*
X018700Y022487D01*
X018700Y022180D01*
X018777Y022103D01*
X018930Y022103D01*
X019007Y022180D01*
X019160Y022334D02*
X019467Y022334D01*
X019391Y022564D02*
X019391Y022103D01*
X019160Y022334D02*
X019391Y022564D01*
X019007Y022487D02*
X018930Y022564D01*
X018777Y022564D01*
X016967Y022487D02*
X016967Y022410D01*
X016660Y022103D01*
X016967Y022103D01*
X016967Y022487D02*
X016891Y022564D01*
X016737Y022564D01*
X016660Y022487D01*
X016507Y022487D02*
X016430Y022564D01*
X016277Y022564D01*
X016200Y022487D01*
X016200Y022180D01*
X016277Y022103D01*
X016430Y022103D01*
X016507Y022180D01*
X016550Y023203D02*
X016550Y023434D01*
X016626Y023510D01*
X016780Y023510D01*
X016857Y023434D01*
X016857Y023203D01*
X017010Y023203D02*
X016550Y023203D01*
X016857Y023357D02*
X017010Y023510D01*
X017010Y023664D02*
X017010Y023971D01*
X017010Y023817D02*
X016550Y023817D01*
X016703Y023664D01*
X016780Y024124D02*
X016550Y024354D01*
X017010Y024354D01*
X016780Y024431D02*
X016780Y024124D01*
X016857Y019181D02*
X016933Y019181D01*
X017010Y019104D01*
X017010Y018951D01*
X016933Y018874D01*
X017010Y018721D02*
X017010Y018414D01*
X017010Y018567D02*
X016550Y018567D01*
X016703Y018414D01*
X016626Y018260D02*
X016780Y018260D01*
X016857Y018184D01*
X016857Y017953D01*
X017010Y017953D02*
X016550Y017953D01*
X016550Y018184D01*
X016626Y018260D01*
X016857Y018107D02*
X017010Y018260D01*
X016626Y018874D02*
X016550Y018951D01*
X016550Y019104D01*
X016626Y019181D01*
X016703Y019181D01*
X016780Y019104D01*
X016857Y019181D01*
X016780Y019104D02*
X016780Y019028D01*
X017850Y019181D02*
X017850Y018874D01*
X017850Y018721D02*
X018310Y018721D01*
X018310Y018874D02*
X018233Y018874D01*
X017926Y019181D01*
X017850Y019181D01*
X017850Y018721D02*
X018003Y018567D01*
X017850Y018414D01*
X018310Y018414D01*
X018310Y018184D02*
X017850Y018184D01*
X018080Y017953D01*
X018080Y018260D01*
X018777Y017064D02*
X018700Y016987D01*
X018700Y016680D01*
X018777Y016603D01*
X018930Y016603D01*
X019007Y016680D01*
X019160Y016680D02*
X019237Y016603D01*
X019391Y016603D01*
X019467Y016680D01*
X019467Y016757D01*
X019391Y016834D01*
X019314Y016834D01*
X019391Y016834D02*
X019467Y016910D01*
X019467Y016987D01*
X019391Y017064D01*
X019237Y017064D01*
X019160Y016987D01*
X019007Y016987D02*
X018930Y017064D01*
X018777Y017064D01*
X018853Y015564D02*
X018853Y015103D01*
X018700Y015103D02*
X019007Y015103D01*
X019160Y015180D02*
X019467Y015487D01*
X019467Y015180D01*
X019391Y015103D01*
X019237Y015103D01*
X019160Y015180D01*
X019160Y015487D01*
X019237Y015564D01*
X019391Y015564D01*
X019467Y015487D01*
X019621Y015487D02*
X019621Y015180D01*
X019928Y015487D01*
X019928Y015180D01*
X019851Y015103D01*
X019698Y015103D01*
X019621Y015180D01*
X019621Y015487D02*
X019698Y015564D01*
X019851Y015564D01*
X019928Y015487D01*
X020081Y015410D02*
X020311Y015410D01*
X020388Y015334D01*
X020388Y015180D01*
X020311Y015103D01*
X020081Y015103D01*
X020081Y014950D02*
X020081Y015410D01*
X020542Y015334D02*
X020695Y015334D01*
X020542Y015564D02*
X020542Y015103D01*
X021079Y015203D02*
X021079Y015664D01*
X021309Y015664D01*
X021386Y015587D01*
X021386Y015434D01*
X021309Y015357D01*
X021079Y015357D01*
X021233Y015357D02*
X021386Y015203D01*
X021540Y015280D02*
X021616Y015203D01*
X021770Y015203D01*
X021847Y015280D01*
X021847Y015357D01*
X021770Y015434D01*
X021693Y015434D01*
X021770Y015434D02*
X021847Y015510D01*
X021847Y015587D01*
X021770Y015664D01*
X021616Y015664D01*
X021540Y015587D01*
X020848Y015564D02*
X020542Y015564D01*
X021156Y016503D02*
X021463Y016503D01*
X021616Y016503D02*
X021616Y016964D01*
X021636Y017203D02*
X021329Y017203D01*
X021176Y017203D02*
X021022Y017357D01*
X021099Y017357D02*
X020869Y017357D01*
X020869Y017203D02*
X020869Y017664D01*
X021099Y017664D01*
X021176Y017587D01*
X021176Y017434D01*
X021099Y017357D01*
X021329Y017510D02*
X021483Y017664D01*
X021483Y017203D01*
X021309Y016964D02*
X021309Y016503D01*
X021156Y016810D02*
X021309Y016964D01*
X021616Y016657D02*
X021847Y016810D01*
X021616Y016657D02*
X021847Y016503D01*
X021790Y017203D02*
X022097Y017203D01*
X021943Y017203D02*
X021943Y017664D01*
X021790Y017510D01*
X021790Y018503D02*
X021790Y018964D01*
X022020Y018964D01*
X022097Y018887D01*
X022097Y018734D01*
X022020Y018657D01*
X021790Y018657D01*
X021943Y018657D02*
X022097Y018503D01*
X021636Y018580D02*
X021636Y018887D01*
X021329Y018580D01*
X021406Y018503D01*
X021559Y018503D01*
X021636Y018580D01*
X021329Y018580D02*
X021329Y018887D01*
X021406Y018964D01*
X021559Y018964D01*
X021636Y018887D01*
X021176Y018887D02*
X020869Y018580D01*
X020946Y018503D01*
X021099Y018503D01*
X021176Y018580D01*
X021176Y018887D01*
X021099Y018964D01*
X020946Y018964D01*
X020869Y018887D01*
X020869Y018580D01*
X020715Y018503D02*
X020408Y018503D01*
X020562Y018503D02*
X020562Y018964D01*
X020408Y018810D01*
X022969Y016734D02*
X023276Y016734D01*
X023429Y016657D02*
X023659Y016657D01*
X023736Y016734D01*
X023736Y016887D01*
X023659Y016964D01*
X023429Y016964D01*
X023429Y016503D01*
X023583Y016657D02*
X023736Y016503D01*
X023890Y016503D02*
X023890Y016580D01*
X024197Y016887D01*
X024197Y016964D01*
X023890Y016964D01*
X023199Y016964D02*
X023199Y016503D01*
X022969Y016734D02*
X023199Y016964D01*
X024700Y017759D02*
X024700Y017913D01*
X024776Y017989D01*
X025083Y017989D01*
X025160Y017913D01*
X025160Y017759D01*
X025083Y017683D01*
X024776Y017683D01*
X024700Y017759D01*
X025007Y017836D02*
X025160Y017989D01*
X025160Y018143D02*
X025160Y018450D01*
X025160Y018296D02*
X024700Y018296D01*
X024853Y018143D01*
X024197Y015664D02*
X023890Y015664D01*
X023890Y015434D01*
X024043Y015510D01*
X024120Y015510D01*
X024197Y015434D01*
X024197Y015280D01*
X024120Y015203D01*
X023966Y015203D01*
X023890Y015280D01*
X023736Y015203D02*
X023583Y015357D01*
X023659Y015357D02*
X023429Y015357D01*
X023429Y015203D02*
X023429Y015664D01*
X023659Y015664D01*
X023736Y015587D01*
X023736Y015434D01*
X023659Y015357D01*
X018853Y015564D02*
X018700Y015410D01*
X018098Y015564D02*
X017792Y015564D01*
X017792Y015103D01*
X017638Y015103D02*
X017638Y015334D01*
X017561Y015410D01*
X017331Y015410D01*
X017331Y015103D01*
X017178Y015180D02*
X017178Y015487D01*
X016871Y015180D01*
X016948Y015103D01*
X017101Y015103D01*
X017178Y015180D01*
X017178Y015487D02*
X017101Y015564D01*
X016948Y015564D01*
X016871Y015487D01*
X016871Y015180D01*
X016717Y015180D02*
X016641Y015103D01*
X016487Y015103D01*
X016410Y015180D01*
X016717Y015487D01*
X016717Y015180D01*
X016410Y015180D02*
X016410Y015487D01*
X016487Y015564D01*
X016641Y015564D01*
X016717Y015487D01*
X016257Y015103D02*
X015950Y015103D01*
X016103Y015103D02*
X016103Y015564D01*
X015950Y015410D01*
X016027Y016603D02*
X016180Y016603D01*
X016257Y016680D01*
X016410Y016603D02*
X016717Y016603D01*
X016564Y016603D02*
X016564Y017064D01*
X016410Y016910D01*
X016257Y016987D02*
X016180Y017064D01*
X016027Y017064D01*
X015950Y016987D01*
X015950Y016680D01*
X016027Y016603D01*
X017792Y015334D02*
X017945Y015334D01*
X016467Y012314D02*
X016314Y012237D01*
X016160Y012084D01*
X016391Y012084D01*
X016467Y012007D01*
X016467Y011930D01*
X016391Y011853D01*
X016237Y011853D01*
X016160Y011930D01*
X016160Y012084D01*
X016007Y012237D02*
X015930Y012314D01*
X015777Y012314D01*
X015700Y012237D01*
X015700Y011930D01*
X015777Y011853D01*
X015930Y011853D01*
X016007Y011930D01*
X016160Y010814D02*
X016160Y010584D01*
X016314Y010660D01*
X016391Y010660D01*
X016467Y010584D01*
X016467Y010430D01*
X016391Y010353D01*
X016237Y010353D01*
X016160Y010430D01*
X016007Y010353D02*
X015700Y010353D01*
X015853Y010353D02*
X015853Y010814D01*
X015700Y010660D01*
X016160Y010814D02*
X016467Y010814D01*
X016621Y010660D02*
X016851Y010660D01*
X016928Y010584D01*
X016928Y010353D01*
X017081Y010353D02*
X017081Y010814D01*
X017388Y010814D01*
X017235Y010584D02*
X017081Y010584D01*
X016621Y010660D02*
X016621Y010353D01*
X014447Y010453D02*
X014140Y010453D01*
X014447Y010760D01*
X014447Y010837D01*
X014370Y010914D01*
X014216Y010914D01*
X014140Y010837D01*
X013986Y010837D02*
X013986Y010684D01*
X013909Y010607D01*
X013679Y010607D01*
X013679Y010453D02*
X013679Y010914D01*
X013909Y010914D01*
X013986Y010837D01*
X013833Y010607D02*
X013986Y010453D01*
X013986Y011753D02*
X013679Y011753D01*
X013833Y011753D02*
X013833Y012214D01*
X013679Y012060D01*
X014140Y011907D02*
X014447Y012214D01*
X014140Y012214D02*
X014140Y011753D01*
X014216Y011984D02*
X014447Y011753D01*
D17*
X014457Y013398D02*
X014267Y013398D01*
X014362Y013398D02*
X014362Y013683D01*
X014267Y013588D01*
X014167Y013398D02*
X013977Y013398D01*
X014072Y013398D02*
X014072Y013683D01*
X013977Y013588D01*
X013877Y013683D02*
X013687Y013398D01*
X013877Y013398D02*
X013687Y013683D01*
X013457Y013636D02*
X013267Y013445D01*
X013315Y013398D01*
X013410Y013398D01*
X013457Y013445D01*
X013457Y013636D01*
X013410Y013683D01*
X013315Y013683D01*
X013267Y013636D01*
X013267Y013445D01*
X013167Y013398D02*
X012977Y013398D01*
X013072Y013398D02*
X013072Y013683D01*
X012977Y013588D01*
X012877Y013683D02*
X012687Y013398D01*
X012877Y013398D02*
X012687Y013683D01*
X012312Y013636D02*
X012265Y013683D01*
X012170Y013683D01*
X012122Y013636D01*
X012122Y013588D01*
X012170Y013541D01*
X012312Y013541D01*
X012312Y013636D02*
X012312Y013445D01*
X012265Y013398D01*
X012170Y013398D01*
X012122Y013445D01*
X012022Y013398D02*
X011832Y013683D01*
X012022Y013683D02*
X011832Y013398D01*
X011312Y013445D02*
X011265Y013398D01*
X011170Y013398D01*
X011122Y013445D01*
X011122Y013493D01*
X011170Y013541D01*
X011265Y013541D01*
X011312Y013493D01*
X011312Y013445D01*
X011265Y013541D02*
X011312Y013588D01*
X011312Y013636D01*
X011265Y013683D01*
X011170Y013683D01*
X011122Y013636D01*
X011122Y013588D01*
X011170Y013541D01*
X011022Y013636D02*
X011022Y013683D01*
X011022Y013636D02*
X010927Y013541D01*
X010927Y013398D01*
X010927Y013541D02*
X010832Y013636D01*
X010832Y013683D01*
X010312Y013683D02*
X010312Y013636D01*
X010122Y013445D01*
X010122Y013398D01*
X009927Y013398D02*
X009927Y013541D01*
X010022Y013636D01*
X010022Y013683D01*
X010122Y013683D02*
X010312Y013683D01*
X009927Y013541D02*
X009832Y013636D01*
X009832Y013683D01*
X009312Y013683D02*
X009217Y013636D01*
X009122Y013541D01*
X009265Y013541D01*
X009312Y013493D01*
X009312Y013445D01*
X009265Y013398D01*
X009170Y013398D01*
X009122Y013445D01*
X009122Y013541D01*
X009022Y013636D02*
X009022Y013683D01*
X009022Y013636D02*
X008927Y013541D01*
X008927Y013398D01*
X008927Y013541D02*
X008832Y013636D01*
X008832Y013683D01*
X008312Y013683D02*
X008122Y013683D01*
X008122Y013541D01*
X008217Y013588D01*
X008265Y013588D01*
X008312Y013541D01*
X008312Y013445D01*
X008265Y013398D01*
X008170Y013398D01*
X008122Y013445D01*
X007927Y013398D02*
X007927Y013541D01*
X008022Y013636D01*
X008022Y013683D01*
X007927Y013541D02*
X007832Y013636D01*
X007832Y013683D01*
X007312Y013541D02*
X007122Y013541D01*
X007265Y013683D01*
X007265Y013398D01*
X006927Y013398D02*
X006927Y013541D01*
X007022Y013636D01*
X007022Y013683D01*
X006927Y013541D02*
X006832Y013636D01*
X006832Y013683D01*
X006312Y013636D02*
X006312Y013588D01*
X006265Y013541D01*
X006312Y013493D01*
X006312Y013445D01*
X006265Y013398D01*
X006170Y013398D01*
X006122Y013445D01*
X006217Y013541D02*
X006265Y013541D01*
X006312Y013636D02*
X006265Y013683D01*
X006170Y013683D01*
X006122Y013636D01*
X006022Y013636D02*
X006022Y013683D01*
X006022Y013636D02*
X005927Y013541D01*
X005927Y013398D01*
X005927Y013541D02*
X005832Y013636D01*
X005832Y013683D01*
X005312Y013636D02*
X005265Y013683D01*
X005170Y013683D01*
X005122Y013636D01*
X005022Y013636D02*
X005022Y013683D01*
X005022Y013636D02*
X004927Y013541D01*
X004927Y013398D01*
X004927Y013541D02*
X004832Y013636D01*
X004832Y013683D01*
X005122Y013398D02*
X005312Y013588D01*
X005312Y013636D01*
X005312Y013398D02*
X005122Y013398D01*
X004312Y013398D02*
X004122Y013398D01*
X004217Y013398D02*
X004217Y013683D01*
X004122Y013588D01*
X004022Y013636D02*
X004022Y013683D01*
X004022Y013636D02*
X003927Y013541D01*
X003927Y013398D01*
X003927Y013541D02*
X003832Y013636D01*
X003832Y013683D01*
X001837Y019527D02*
X001759Y019527D01*
X001680Y019606D01*
X001602Y019527D01*
X001523Y019527D01*
X001445Y019606D01*
X001445Y019763D01*
X001523Y019841D01*
X001523Y019988D02*
X001445Y020066D01*
X001445Y020223D01*
X001523Y020301D01*
X001837Y020301D01*
X001915Y020223D01*
X001915Y020066D01*
X001837Y019988D01*
X001837Y019841D02*
X001915Y019763D01*
X001915Y019606D01*
X001837Y019527D01*
X001680Y019606D02*
X001680Y019684D01*
X002313Y019805D02*
X002627Y020118D01*
X002627Y019962D02*
X002313Y019962D01*
X002313Y020118D02*
X002627Y019805D01*
X002470Y019805D02*
X002470Y020118D01*
X001915Y020452D02*
X001915Y020608D01*
X001915Y020530D02*
X001445Y020530D01*
X001445Y020608D02*
X001445Y020452D01*
X003831Y025898D02*
X003926Y025993D01*
X003926Y026183D01*
X004025Y026183D02*
X004121Y026183D01*
X004073Y026183D02*
X004073Y025898D01*
X004025Y025898D02*
X004121Y025898D01*
X004219Y025898D02*
X004219Y026183D01*
X004409Y025898D01*
X004409Y026183D01*
X004687Y026136D02*
X004735Y026183D01*
X004830Y026183D01*
X004877Y026136D01*
X004877Y026088D01*
X004830Y026041D01*
X004877Y025993D01*
X004877Y025945D01*
X004830Y025898D01*
X004735Y025898D01*
X004687Y025945D01*
X004782Y026041D02*
X004830Y026041D01*
X004977Y025993D02*
X005072Y025898D01*
X005167Y025993D01*
X005167Y026183D01*
X005267Y026136D02*
X005315Y026183D01*
X005410Y026183D01*
X005457Y026136D01*
X005457Y026088D01*
X005410Y026041D01*
X005457Y025993D01*
X005457Y025945D01*
X005410Y025898D01*
X005315Y025898D01*
X005267Y025945D01*
X005362Y026041D02*
X005410Y026041D01*
X005687Y026136D02*
X005687Y025945D01*
X005735Y025898D01*
X005830Y025898D01*
X005877Y025945D01*
X005877Y026041D01*
X005782Y026041D01*
X005687Y026136D02*
X005735Y026183D01*
X005830Y026183D01*
X005877Y026136D01*
X005977Y026183D02*
X006167Y025898D01*
X006167Y026183D01*
X006267Y026183D02*
X006410Y026183D01*
X006457Y026136D01*
X006457Y025945D01*
X006410Y025898D01*
X006267Y025898D01*
X006267Y026183D01*
X005977Y026183D02*
X005977Y025898D01*
X006687Y025898D02*
X006687Y026183D01*
X006830Y026183D01*
X006877Y026136D01*
X006877Y026041D01*
X006830Y025993D01*
X006687Y025993D01*
X006782Y025993D02*
X006877Y025898D01*
X006977Y025945D02*
X007025Y025898D01*
X007120Y025898D01*
X007167Y025945D01*
X007167Y025993D01*
X007120Y026041D01*
X007025Y026041D01*
X006977Y026088D01*
X006977Y026136D01*
X007025Y026183D01*
X007120Y026183D01*
X007167Y026136D01*
X007267Y026183D02*
X007457Y026183D01*
X007362Y026183D02*
X007362Y025898D01*
X007687Y026136D02*
X007782Y026041D01*
X007782Y025898D01*
X007782Y026041D02*
X007877Y026136D01*
X007877Y026183D01*
X007977Y026088D02*
X008072Y026183D01*
X008072Y025898D01*
X007977Y025898D02*
X008167Y025898D01*
X008267Y025898D02*
X008457Y026088D01*
X008457Y026136D01*
X008410Y026183D01*
X008315Y026183D01*
X008267Y026136D01*
X008267Y025898D02*
X008457Y025898D01*
X008782Y025898D02*
X008782Y026041D01*
X008877Y026136D01*
X008877Y026183D01*
X008977Y026088D02*
X009072Y026183D01*
X009072Y025898D01*
X008977Y025898D02*
X009167Y025898D01*
X009267Y025898D02*
X009457Y025898D01*
X009362Y025898D02*
X009362Y026183D01*
X009267Y026088D01*
X008782Y026041D02*
X008687Y026136D01*
X008687Y026183D01*
X007687Y026183D02*
X007687Y026136D01*
X009687Y026136D02*
X009782Y026041D01*
X009782Y025898D01*
X009782Y026041D02*
X009877Y026136D01*
X009877Y026183D01*
X009977Y026088D02*
X010072Y026183D01*
X010072Y025898D01*
X009977Y025898D02*
X010167Y025898D01*
X010267Y025945D02*
X010457Y026136D01*
X010457Y025945D01*
X010410Y025898D01*
X010315Y025898D01*
X010267Y025945D01*
X010267Y026136D01*
X010315Y026183D01*
X010410Y026183D01*
X010457Y026136D01*
X010832Y026136D02*
X010927Y026041D01*
X010927Y025898D01*
X010927Y026041D02*
X011022Y026136D01*
X011022Y026183D01*
X011122Y026136D02*
X011122Y026088D01*
X011170Y026041D01*
X011312Y026041D01*
X011312Y026136D02*
X011265Y026183D01*
X011170Y026183D01*
X011122Y026136D01*
X011312Y026136D02*
X011312Y025945D01*
X011265Y025898D01*
X011170Y025898D01*
X011122Y025945D01*
X010832Y026136D02*
X010832Y026183D01*
X011832Y026183D02*
X012022Y025898D01*
X012122Y025945D02*
X012122Y025993D01*
X012170Y026041D01*
X012265Y026041D01*
X012312Y025993D01*
X012312Y025945D01*
X012265Y025898D01*
X012170Y025898D01*
X012122Y025945D01*
X012170Y026041D02*
X012122Y026088D01*
X012122Y026136D01*
X012170Y026183D01*
X012265Y026183D01*
X012312Y026136D01*
X012312Y026088D01*
X012265Y026041D01*
X012022Y026183D02*
X011832Y025898D01*
X012832Y025898D02*
X013022Y026183D01*
X013122Y026183D02*
X013312Y026183D01*
X013312Y026136D01*
X013122Y025945D01*
X013122Y025898D01*
X013022Y025898D02*
X012832Y026183D01*
X013832Y026183D02*
X014022Y025898D01*
X014122Y025945D02*
X014170Y025898D01*
X014265Y025898D01*
X014312Y025945D01*
X014312Y025993D01*
X014265Y026041D01*
X014122Y026041D01*
X014122Y025945D01*
X014122Y026041D02*
X014217Y026136D01*
X014312Y026183D01*
X014022Y026183D02*
X013832Y025898D01*
X014832Y025898D02*
X015022Y026183D01*
X015122Y026183D02*
X015122Y026041D01*
X015217Y026088D01*
X015265Y026088D01*
X015312Y026041D01*
X015312Y025945D01*
X015265Y025898D01*
X015170Y025898D01*
X015122Y025945D01*
X015022Y025898D02*
X014832Y026183D01*
X015122Y026183D02*
X015312Y026183D01*
X015832Y026183D02*
X016022Y025898D01*
X016122Y026041D02*
X016312Y026041D01*
X016265Y026183D02*
X016122Y026041D01*
X016022Y026183D02*
X015832Y025898D01*
X016265Y025898D02*
X016265Y026183D01*
X016832Y026183D02*
X017022Y025898D01*
X017122Y025945D02*
X017170Y025898D01*
X017265Y025898D01*
X017312Y025945D01*
X017312Y025993D01*
X017265Y026041D01*
X017217Y026041D01*
X017265Y026041D02*
X017312Y026088D01*
X017312Y026136D01*
X017265Y026183D01*
X017170Y026183D01*
X017122Y026136D01*
X017022Y026183D02*
X016832Y025898D01*
X017832Y025898D02*
X018022Y026183D01*
X018122Y026136D02*
X018170Y026183D01*
X018265Y026183D01*
X018312Y026136D01*
X018312Y026088D01*
X018122Y025898D01*
X018312Y025898D01*
X018022Y025898D02*
X017832Y026183D01*
X018832Y026183D02*
X019022Y025898D01*
X019122Y025898D02*
X019312Y025898D01*
X019217Y025898D02*
X019217Y026183D01*
X019122Y026088D01*
X019022Y026183D02*
X018832Y025898D01*
X009687Y026136D02*
X009687Y026183D01*
X004977Y026183D02*
X004977Y025993D01*
X003831Y025898D02*
X003735Y025993D01*
X003735Y026183D01*
X014687Y013683D02*
X014877Y013398D01*
X014977Y013398D02*
X015167Y013398D01*
X015072Y013398D02*
X015072Y013683D01*
X014977Y013588D01*
X014877Y013683D02*
X014687Y013398D01*
X015267Y013398D02*
X015457Y013588D01*
X015457Y013636D01*
X015410Y013683D01*
X015315Y013683D01*
X015267Y013636D01*
X015267Y013398D02*
X015457Y013398D01*
X015687Y013398D02*
X015687Y013683D01*
X015830Y013683D01*
X015877Y013636D01*
X015877Y013541D01*
X015830Y013493D01*
X015687Y013493D01*
X015782Y013493D02*
X015877Y013398D01*
X015977Y013445D02*
X016025Y013398D01*
X016120Y013398D01*
X016167Y013445D01*
X016167Y013493D01*
X016120Y013541D01*
X016025Y013541D01*
X015977Y013588D01*
X015977Y013636D01*
X016025Y013683D01*
X016120Y013683D01*
X016167Y013636D01*
X016267Y013683D02*
X016457Y013683D01*
X016362Y013683D02*
X016362Y013398D01*
X016687Y013445D02*
X016735Y013398D01*
X016830Y013398D01*
X016877Y013445D01*
X016877Y013541D01*
X016782Y013541D01*
X016687Y013636D02*
X016687Y013445D01*
X016687Y013636D02*
X016735Y013683D01*
X016830Y013683D01*
X016877Y013636D01*
X016977Y013683D02*
X017167Y013398D01*
X017167Y013683D01*
X017267Y013683D02*
X017267Y013398D01*
X017410Y013398D01*
X017457Y013445D01*
X017457Y013636D01*
X017410Y013683D01*
X017267Y013683D01*
X016977Y013683D02*
X016977Y013398D01*
X017687Y013445D02*
X017735Y013398D01*
X017830Y013398D01*
X017877Y013445D01*
X017877Y013493D01*
X017830Y013541D01*
X017782Y013541D01*
X017830Y013541D02*
X017877Y013588D01*
X017877Y013636D01*
X017830Y013683D01*
X017735Y013683D01*
X017687Y013636D01*
X017977Y013683D02*
X017977Y013493D01*
X018072Y013398D01*
X018167Y013493D01*
X018167Y013683D01*
X018267Y013636D02*
X018315Y013683D01*
X018410Y013683D01*
X018457Y013636D01*
X018457Y013588D01*
X018410Y013541D01*
X018457Y013493D01*
X018457Y013445D01*
X018410Y013398D01*
X018315Y013398D01*
X018267Y013445D01*
X018362Y013541D02*
X018410Y013541D01*
X018735Y013493D02*
X018735Y013683D01*
X018735Y013493D02*
X018831Y013398D01*
X018926Y013493D01*
X018926Y013683D01*
X019025Y013683D02*
X019121Y013683D01*
X019073Y013683D02*
X019073Y013398D01*
X019025Y013398D02*
X019121Y013398D01*
X019219Y013398D02*
X019219Y013683D01*
X019409Y013398D01*
X019409Y013683D01*
D18*
X020180Y013333D02*
X020180Y026333D01*
X003680Y026333D01*
X003680Y013333D01*
X020180Y013333D01*
D19*
X004084Y012383D02*
X004084Y009430D01*
X002863Y009430D01*
X001997Y009430D02*
X000776Y009430D01*
X000776Y012383D01*
X001131Y012737D01*
X001997Y012737D01*
X002863Y012737D02*
X003729Y012737D01*
X004084Y012383D01*
X002017Y012560D02*
X001943Y012536D01*
X001870Y012509D01*
X001798Y012478D01*
X001728Y012444D01*
X001660Y012406D01*
X001594Y012365D01*
X001530Y012321D01*
X001469Y012273D01*
X001410Y012222D01*
X001354Y012169D01*
X001300Y012112D01*
X001249Y012053D01*
X001202Y011992D01*
X001157Y011928D01*
X001116Y011862D01*
X001078Y011794D01*
X001044Y011724D01*
X001014Y011653D01*
X000986Y011580D01*
X000963Y011505D01*
X000944Y011430D01*
X000928Y011354D01*
X000916Y011277D01*
X000908Y011200D01*
X000904Y011122D01*
X000904Y011044D01*
X000908Y010966D01*
X000916Y010889D01*
X000928Y010812D01*
X000944Y010736D01*
X000963Y010661D01*
X000986Y010586D01*
X001014Y010513D01*
X001044Y010442D01*
X001078Y010372D01*
X001116Y010304D01*
X001157Y010238D01*
X001202Y010174D01*
X001249Y010113D01*
X001300Y010054D01*
X001354Y009997D01*
X001410Y009944D01*
X001469Y009893D01*
X001530Y009845D01*
X001594Y009801D01*
X001660Y009760D01*
X001728Y009722D01*
X001798Y009688D01*
X001870Y009657D01*
X001943Y009630D01*
X002017Y009606D01*
X002843Y009606D02*
X002917Y009630D01*
X002990Y009657D01*
X003062Y009688D01*
X003132Y009722D01*
X003200Y009760D01*
X003266Y009801D01*
X003330Y009845D01*
X003391Y009893D01*
X003450Y009944D01*
X003506Y009997D01*
X003560Y010054D01*
X003611Y010113D01*
X003658Y010174D01*
X003703Y010238D01*
X003744Y010304D01*
X003782Y010372D01*
X003816Y010442D01*
X003846Y010513D01*
X003874Y010586D01*
X003897Y010661D01*
X003916Y010736D01*
X003932Y010812D01*
X003944Y010889D01*
X003952Y010966D01*
X003956Y011044D01*
X003956Y011122D01*
X003952Y011200D01*
X003944Y011277D01*
X003932Y011354D01*
X003916Y011430D01*
X003897Y011505D01*
X003874Y011580D01*
X003846Y011653D01*
X003816Y011724D01*
X003782Y011794D01*
X003744Y011862D01*
X003703Y011928D01*
X003658Y011992D01*
X003611Y012053D01*
X003560Y012112D01*
X003506Y012169D01*
X003450Y012222D01*
X003391Y012273D01*
X003330Y012321D01*
X003266Y012365D01*
X003200Y012406D01*
X003132Y012444D01*
X003062Y012478D01*
X002990Y012509D01*
X002917Y012536D01*
X002843Y012560D01*
M02*
