G75*
%MOIN*%
%OFA0B0*%
%FSLAX24Y24*%
%IPPOS*%
%LPD*%
%AMOC8*
5,1,8,0,0,1.08239X$1,22.5*
%
%ADD10R,0.0512X0.0591*%
%ADD11R,0.0394X0.0551*%
%ADD12R,0.0512X0.0630*%
%ADD13R,0.0630X0.0709*%
%ADD14R,0.0472X0.0236*%
%ADD15R,0.0591X0.0512*%
%ADD16R,0.0551X0.0394*%
%ADD17R,0.0220X0.0520*%
%ADD18R,0.0630X0.1575*%
%ADD19R,0.0630X0.0512*%
D10*
X008306Y011333D03*
X009054Y011333D03*
X015806Y011333D03*
X016554Y011333D03*
X016804Y016083D03*
X016056Y016083D03*
X018806Y016083D03*
X019554Y016083D03*
X021345Y016083D03*
X022015Y016083D03*
X022265Y018083D03*
X021595Y018083D03*
X021345Y021583D03*
X022015Y021583D03*
X019554Y021583D03*
X018806Y021583D03*
X017054Y021583D03*
X016306Y021583D03*
X021595Y023833D03*
X022265Y023833D03*
X002054Y021833D03*
X001306Y021833D03*
D11*
X010180Y007650D03*
X009806Y008516D03*
X010554Y008516D03*
D12*
X013806Y011333D03*
X014554Y011333D03*
X007054Y011333D03*
X006306Y011333D03*
X023556Y016083D03*
X024304Y016083D03*
X024304Y021583D03*
X023556Y021583D03*
D13*
X002231Y017083D03*
X001129Y017083D03*
X001129Y014583D03*
X002231Y014583D03*
D14*
X019166Y017459D03*
X019166Y018207D03*
X020194Y018207D03*
X020194Y017833D03*
X020194Y017459D03*
X020194Y022959D03*
X020194Y023333D03*
X020194Y023707D03*
X019166Y023707D03*
X019166Y022959D03*
D15*
X014180Y022999D03*
X014180Y023668D03*
X014180Y021668D03*
X014180Y020999D03*
X014180Y019168D03*
X014180Y018499D03*
X014180Y017168D03*
X014180Y016499D03*
D16*
X023497Y017459D03*
X023497Y018207D03*
X024363Y017833D03*
X023497Y023209D03*
X023497Y023957D03*
X024363Y023583D03*
D17*
X002054Y019803D03*
X001680Y019803D03*
X001306Y019803D03*
X001306Y018863D03*
X002054Y018863D03*
D18*
X002430Y012284D03*
X002430Y009883D03*
D19*
X017430Y017959D03*
X017430Y018707D03*
X017430Y023209D03*
X017430Y023957D03*
M02*
