%
M48
M72
T01C0.0236
T02C0.0400
T03C0.0472
T04C0.0510
T05C0.1260
%
T01
X1180Y8333
X2680Y8333
X930Y13333
X12680Y23083
X15930Y23833
X17930Y20833
X18680Y19333
X19680Y19833
X22430Y22583
X20180Y24583
X15680Y19333
X20180Y14333
X22430Y17083
X2680Y23333
X1180Y23333
T02
X4180Y25333
X5180Y25333
X6180Y25333
X7180Y25333
X8180Y25333
X9180Y25333
X10180Y25333
X11180Y25333
X12180Y25333
X13180Y25333
X14180Y25333
X15180Y25333
X16180Y25333
X17180Y25333
X18180Y25333
X19180Y25333
X24180Y19833
X24180Y14333
X19180Y14333
X18180Y14333
X17180Y14333
X16180Y14333
X15180Y14333
X14180Y14333
X13180Y14333
X12180Y14333
X11180Y14333
X10180Y14333
X9180Y14333
X8180Y14333
X7180Y14333
X6180Y14333
X5180Y14333
X4180Y14333
X31180Y8833
T03
X28814Y13164
X28046Y13410
X28046Y14257
X28814Y14503
X28814Y20164
X28046Y20410
X28046Y21257
X28814Y21503
T04
X27930Y9833
X25930Y7833
X23930Y9833
X21430Y9833
X19430Y7833
X17430Y9833
X15430Y9833
X13430Y7833
X11430Y9833
X8930Y9833
X6930Y7833
X4930Y9833
X4930Y5833
X8930Y5833
X11430Y5833
X15430Y5833
X17430Y5833
X21430Y5833
X23930Y5833
X27930Y5833
T05
X1755Y5408
X1755Y25093
X31282Y25093
X31282Y5408
M30
